<?xml version="1.0" ?><svg id="Layer_1" style="enable-background:new 0 0 74 74;" version="1.1" viewBox="0 0 74 74" xml:space="preserve" xmlns="http://www.w3.org/2000/svg" xmlns:xlink="http://www.w3.org/1999/xlink"><path d="M17.5,49.5c-4.1,0-7.5,3.4-7.5,7.5s3.4,7.5,7.5,7.5S25,61.1,25,57S21.6,49.5,17.5,49.5z M52.5,49.5c-4.1,0-7.5,3.4-7.5,7.5  s3.4,7.5,7.5,7.5S60,61.1,60,57S56.6,49.5,52.5,49.5z M51,45.6V12.5c0-1.7-1.3-3-3-3H4c-1.7,0-3,1.3-3,3v12h21v-7l11,11l-11,11v-7H1  v22c0,1.7,1.3,3,3,3h2c0-0.2,0-0.3,0-0.5c0-6.3,5.2-11.5,11.5-11.5S29,50.7,29,57c0,0.2,0,0.3,0,0.5H41c0-0.2,0-0.3,0-0.5  C41,51.2,45.4,46.3,51,45.6z M55,24.5v21.3c5.1,1.1,9,5.7,9,11.2c0,0.2,0,0.3,0,0.5h6c1.7,0,3-1.3,3-3v-12  C73,32.6,64.9,24.5,55,24.5z"/></svg>