<?xml version="1.0" ?><svg id="Layer_1" style="enable-background:new 0 0 74 74;" version="1.1" viewBox="0 0 74 74" xml:space="preserve" xmlns="http://www.w3.org/2000/svg" xmlns:xlink="http://www.w3.org/1999/xlink"><g><path d="M34,58.7c-4.1,0.6-8.5,0.2-12.7-1.5C10.1,52.8,3.6,40.7,6.1,28.8C9.1,14.6,23.5,6.1,37.3,10c7,2,11.5,6.7,12.4,8.1   c0.4,0.5,0.5,1.2,0.3,1.8s-0.5,1.1-1.1,1.4c0,0,0,0,0,0c-1.1,0.6-2.5,0.2-3.1-0.9c-2.6-4.8-6.1-7.2-8.3-7.7   c-4.3-0.9-6.7,4.8-2.9,7.1c5.1,3,8,4,7.1,7.5c-0.2,1-0.9,1.9-1.8,2.4c-0.9,0.5-2,0.7-3,0.5l0,0c-3.8-0.9-4.7-8.1-10.7-9.2   c-2.4-0.5-5,0.2-6.8,1.9c-3.1,2.9-3.4,7.6-0.9,10.8l0,0c1,1.3,2.5,2.2,3.1,2.4c0,0,0,0,0,0l0,0c4.4,1.9,5.8,7.1,3.4,10.9   c-1.8,3.5,0.2,6.6,3,7.3c2.4,0.6,4.7-0.7,5.6-2.9l0.2-0.4V43c0-3,2.5-5.5,5.5-5.5h20.3c1.7-14.2-7.1-27.9-21.3-31.9   C22.9,1.2,6.6,10.3,2.1,26c-4.4,15.7,4.7,32,20.4,36.4c3.9,1.1,7.8,1.4,11.5,0.9V58.7z"/><path d="M62,69.5c-2.2,0-4-1.8-4-4c0-2.2,1.8-4,4-4s4,1.8,4,4C66,67.7,64.2,69.5,62,69.5z"/><g><g><path d="M60,58.8V43c0-0.8-0.7-1.5-1.5-1.5H39.5c-0.8,0-1.5,0.7-1.5,1.5V64c0,0.8,0.6,1.5,1.5,1.5H41c0-3.9,3.1-7,7-7     c3.9,0,7,3.1,7,7C55,62.3,57.1,59.7,60,58.8z"/><path d="M64,48.5v10.3c2.9,0.9,5,3.5,5,6.7h2.5c0.8,0,1.5-0.7,1.5-1.5v-6.5C73,52.5,69,48.5,64,48.5z"/></g><path d="M48,69.5c-2.2,0-4-1.8-4-4c0-2.2,1.8-4,4-4s4,1.8,4,4C52,67.7,50.2,69.5,48,69.5z"/></g></g></svg>