<?xml version="1.0" ?><svg id="Layer_1" style="enable-background:new 0 0 74 74;" version="1.1" viewBox="0 0 74 74" xml:space="preserve" xmlns="http://www.w3.org/2000/svg" xmlns:xlink="http://www.w3.org/1999/xlink"><path d="M68,43v-7.1c0-3.9-3.1-7-7-7s-7,3.1-7,7V43h4v-7.1c0-1.7,1.3-3,3-3s3,1.3,3,3V43H68z M7,36h43v-0.1c0-5.6,4.2-10.3,9.7-10.9  H7v-8h54v8h6v-8c0-3.3-2.7-6-6-6H7c-3.3,0-6,2.7-6,6v34c0,3.3,2.7,6,6,6h38v-6H7V36z M49,47v10c0,3.3,2.7,6,6,6h12c3.3,0,6-2.7,6-6  V47H49z M61,58c-1.7,0-3-1.3-3-3s1.3-3,3-3s3,1.3,3,3S62.7,58,61,58z"/></svg>