<?xml version="1.0" ?><svg id="Layer_1" style="enable-background:new 0 0 74 74;" version="1.1" viewBox="0 0 74 74" xml:space="preserve" xmlns="http://www.w3.org/2000/svg" xmlns:xlink="http://www.w3.org/1999/xlink"><g><path d="M10,32c2.8,0,5,2.2,5,5s-2.2,5-5,5s-5-2.2-5-5S7.2,32,10,32 M10,28c-5,0-9,4-9,9s4,9,9,9s9-4,9-9S15,28,10,28L10,28z"/><path d="M10,54c2.8,0,5,2.2,5,5s-2.2,5-5,5s-5-2.2-5-5S7.2,54,10,54 M10,50c-5,0-9,4-9,9s4,9,9,9s9-4,9-9S15,50,10,50L10,50z"/><g><circle cx="10" cy="15" r="9"/></g><g><path d="M67,38H45.4l-7.6-12.7c-1.3-2.2-4.1-2.9-6.3-1.6c-2.2,1.3-2.9,4.1-1.6,6.3l14.8,24.8L38,53.2c-2.7-0.7-5.6-0.3-8,1.2    c-2.4,1.4-4.1,3.8-4.8,6.5l26.3,6.7c1.5,0.4,3,0.5,4.4,0.5c3.2,0,6.1-0.8,8.7-2.4c2-1.2,3.6-2.7,4.9-4.4C71.8,58.2,73,54.6,73,51    c0-3-0.8-6.1-2.4-8.8C69.5,40.4,68.5,39.2,67,38z"/></g></g></svg>