<?xml version="1.0" ?><svg id="Layer_1" style="enable-background:new 0 0 74 74;" version="1.1" viewBox="0 0 74 74" xml:space="preserve" xmlns="http://www.w3.org/2000/svg" xmlns:xlink="http://www.w3.org/1999/xlink"><g><path d="M53,37v21H21V37c-2.1,0-4.1-0.4-6-1.1V69c0,2.2,1.8,4,4,4H55c2.2,0,4-1.8,4-4V35.9C57.1,36.6,55.1,37,53,37z M40,68h-6   c-1.1,0-2-0.9-2-2c0-1.1,0.9-2,2-2h6c1.1,0,2,0.9,2,2C42,67.1,41.1,68,40,68z"/><path d="M10,1v19c0,6.1,4.9,11,11,11c3.2,0,6-1.3,8-3.5c2,2.1,4.8,3.5,8,3.5s6-1.3,8-3.5c2,2.1,4.8,3.5,8,3.5c6.1,0,11-4.9,11-11V1   H10z M26,20c0,2.8-2.2,5-5,5s-5-2.2-5-5V7h10V20z M42,20c0,2.8-2.2,5-5,5s-5-2.2-5-5V7h10V20z M58,20c0,2.8-2.2,5-5,5s-5-2.2-5-5V7   h10V20z"/><g><polygon points="31,42 33,48 41,48 43,42 27,37 26,38   "/><rect height="3" width="3" x="33" y="50"/><rect height="3" width="3" x="38" y="50"/></g></g></svg>