<?xml version="1.0" ?><svg id="Layer_1" style="enable-background:new 0 0 74 74;" version="1.1" viewBox="0 0 74 74" xml:space="preserve" xmlns="http://www.w3.org/2000/svg" xmlns:xlink="http://www.w3.org/1999/xlink"><path d="M52,26V16c0-8.3-6.7-15-15-15S22,7.7,22,16v6h6v-6c0-5,4-9,9-9s9,4,9,9v10H12v41c0,3.3,2.7,6,6,6h38c3.3,0,6-2.7,6-6V26H52z   M32,54H18V37c0-3.9,3.1-7,7-7c3.9,0,7,3.1,7,7V54z M49,40c-1.7,0-3-1.3-3-3c0-1.7,1.3-3,3-3s3,1.3,3,3C52,38.7,50.7,40,49,40z   M25,34c-1.7,0-3,1.3-3,3c0,1.7,1.3,3,3,3s3-1.3,3-3C28,35.3,26.7,34,25,34z"/></svg>