<?xml version="1.0" ?><svg id="Layer_1" style="enable-background:new 0 0 74 74;" version="1.1" viewBox="0 0 74 74" xml:space="preserve" xmlns="http://www.w3.org/2000/svg" xmlns:xlink="http://www.w3.org/1999/xlink"><path d="M49.7,21H63c2.5,0,4.5-2,4.5-4.5S65.5,12,63,12H49.7C47.9,6.8,42.9,3,37,3s-10.9,3.8-12.7,9H11c-2.5,0-4.5,2-4.5,4.5  S8.5,21,11,21h13.3c1.9,5.2,6.8,9,12.7,9S47.9,26.2,49.7,21z M37,22.5c-3.3,0-6-2.7-6-6s2.7-6,6-6s6,2.7,6,6S40.3,22.5,37,22.5z   M14.4,30.8L1,55c0,8.8,7.2,16,16,16c8.8,0,16-7.2,16-16L19.6,30.8C18.5,28.7,15.5,28.7,14.4,30.8z M7,56l10-17.6L27,56H7z   M59.6,30.8c-1.1-2.1-4.1-2.1-5.3,0L41,55c0,8.8,7.2,16,16,16c8.8,0,16-7.2,16-16L59.6,30.8z M47,56l10-17.6L67,56H47z"/></svg>