<?xml version="1.0" ?><svg id="Layer_1" style="enable-background:new 0 0 74 74;" version="1.1" viewBox="0 0 74 74" xml:space="preserve" xmlns="http://www.w3.org/2000/svg" xmlns:xlink="http://www.w3.org/1999/xlink"><path d="M1,55c0,3.3,2.7,6,6,6h60c3.3,0,6-2.7,6-6H1z M67,16c0-1.7-1.3-3-3-3H10c-1.7,0-3,1.3-3,3v35h60V16z M34,47  c-1.1,0-2-0.9-2-2c0-1.1,0.9-2,2-2s2,0.9,2,2C36,46.1,35.1,47,34,47z M40,47c-1.1,0-2-0.9-2-2c0-1.1,0.9-2,2-2s2,0.9,2,2  C42,46.1,41.1,47,40,47z M44.5,36.7c-8.5,3.1-11,4.1-11.8,4.5c-0.8,0.4-1.5,0.8-2,1.5l-4.9-17.4l-3.6-1c-0.9-0.3-1.4-1.2-1.1-2.1  c0.3-0.8,1.2-1.2,2-1l5.3,1.5l1.4,5.1l16.6,2.1L44.5,36.7z"/></svg>