<?xml version="1.0" ?><svg id="Layer_1" style="enable-background:new 0 0 74 74;" version="1.1" viewBox="0 0 74 74" xml:space="preserve" xmlns="http://www.w3.org/2000/svg" xmlns:xlink="http://www.w3.org/1999/xlink"><g><g><path d="M34.8,57.9H12.2v-51h34v29.7l6,0.8V4.9c0-2.2-1.8-4-4-4h-38c-2.2,0-4,1.8-4,4v64c0,2.2,1.8,4,4,4H39l-1.8-6.5L34.8,57.9z     M32.2,67.9h-6c-1.1,0-2-0.9-2-2c0-1.1,0.9-2,2-2h6c1.1,0,2,0.9,2,2C34.2,67,33.3,67.9,32.2,67.9z M39.6,39.8l-2.4-8.7l-9-2.6    c-1.4-0.4-2.9,0.3-3.4,1.6c-0.6,1.5,0.3,3.2,1.8,3.6l6.2,1.8L41,65.3c0.9-1.3,2-2,3.4-2.6c1.4-0.6,5.3-2.1,18.2-7    c1.2-0.4,2.1-1.4,2.5-2.7l2.7-9.7L39.6,39.8z M56.2,65.1c-2.2,0-3.9,1.7-3.9,3.9c0,2.2,1.7,3.9,3.9,3.9S60,71.1,60,69    C60,66.8,58.3,65.1,56.2,65.1z M46.4,65.1c-2.2,0-3.9,1.7-3.9,3.9c0,2.2,1.7,3.9,3.9,3.9s3.9-1.7,3.9-3.9    C50.3,66.8,48.6,65.1,46.4,65.1z"/></g></g></svg>