<?xml version="1.0" ?><svg id="Layer_1" style="enable-background:new 0 0 74 74;" version="1.1" viewBox="0 0 74 74" xml:space="preserve" xmlns="http://www.w3.org/2000/svg" xmlns:xlink="http://www.w3.org/1999/xlink"><g><g><path d="M32.4,5c-2.6-2.2-6.5-1.9-8.7,0.7l-5.9,6.8l16.4-5.9L32.4,5z M54,12.5l-0.7-1.9c-1.1-3.2-4.7-4.9-7.9-3.7l-15.7,5.6H54z     M34,44.3c-0.2-4.7,1.4-9.1,4.6-12.5c3.3-3.5,8-5.3,12.8-5.3H66v-4c0-3.3-2.7-6-6-6H8c-3.3,0-6,2.7-6,6v42c0,3.3,2.7,6,6,6h52    c3.3,0,6-2.7,6-6v-4H51.4C42.1,60.5,34.4,53.4,34,44.3z M69,31.5H50.9c-2,0-3.9,0.4-5.7,1.4c-4.2,2.4-6.4,6.6-6.2,11.2    c0.3,6.3,5.9,11.4,12.4,11.4H69c1.7,0,3-1.3,3-3v-18C72,32.8,70.7,31.5,69,31.5z M51,49.5c-3.3,0-6-2.7-6-6s2.7-6,6-6    c3.3,0,6,2.7,6,6S54.3,49.5,51,49.5z"/></g></g></svg>