<?xml version="1.0" ?><svg id="Layer_1" style="enable-background:new 0 0 74 74;" version="1.1" viewBox="0 0 74 74" xml:space="preserve" xmlns="http://www.w3.org/2000/svg" xmlns:xlink="http://www.w3.org/1999/xlink"><g><path d="M48.7,10.2c-1.6-2.9-5.2-4-8.1-2.5l-25,13.4l34-9.3L48.7,10.2z"/><path d="M67,21l-0.9-3.3c-0.9-3.2-4.2-5.1-7.4-4.2L31.2,21H67z"/><path d="M67,25H7c-3.3,0-6,2.7-6,6v30c0,3.3,2.7,6,6,6h60c3.3,0,6-2.7,6-6V31C73,27.7,70.3,25,67,25z M5,50.2v-8.3   C11.7,41,17,35.7,17.8,29h38.3C57,35.7,62.3,41,69,41.9v8.3C62.3,51,57,56.3,56.1,63H17.9C17,56.3,11.7,51,5,50.2z"/><path d="M37,31c-7.4,0-13.3,6.7-13.3,15c0,8.3,6,15,13.3,15s13.3-6.7,13.3-15C50.3,37.7,44.4,31,37,31z M41.5,42.8   C41.5,42.8,41.5,42.8,41.5,42.8l-2.7-0.1v-0.1c0-2.5-3.6-2.4-3.6,0.1c0,2.1,6.2,2.3,6.2,6.6c0,2.5-1.1,4-3.3,4.4V55h-2.4v-1.3   c-2.1-0.5-3.2-1.9-3.2-4.4v-0.6h2.7v0.6c0,2.4,3.6,2.5,3.6,0c0-2.3-6.2-2.4-6.2-6.6c0-2.4,1.2-3.8,3.2-4.4V37h2.4v1.4   C40.3,38.8,41.4,40.3,41.5,42.8L41.5,42.8L41.5,42.8z"/></g></svg>