<?xml version="1.0" ?><svg id="Layer_1" style="enable-background:new 0 0 74 74;" version="1.1" viewBox="0 0 74 74" xml:space="preserve" xmlns="http://www.w3.org/2000/svg" xmlns:xlink="http://www.w3.org/1999/xlink"><path d="M37,1C17.1,1,1,17.1,1,37c0,19.9,16.1,36,36,36h36V37C73,17.1,56.9,1,37,1z M27.7,14.9c-5.7,2.4-10.3,7-12.7,12.7l3.5,3.5  c-0.6,1.9-0.9,3.8-0.9,5.9c0,2.5,0.5,5,1.4,7.2l-4.2,1.7L9.2,48l0,0C7.8,44.6,7,40.9,7,37c0-5,1.2-9.7,3.4-13.9  c2.8-5.4,7.3-9.9,12.7-12.7C27.3,8.2,32,7,37,7c3.9,0,7.6,0.7,11,2.1l0,0v0l-2.2,5.5l-1.7,4.2C42,18,39.6,17.5,37,17.5  c-2.1,0-4,0.3-5.9,0.9L27.7,14.9z M49,47.7L40,55v6h9v5H35V52.5l9-7.5V35h-4v8h-5V30h14V47.7z M67,66h-5V52h-9V30h5v17h4V30h5V66z"/></svg>