<?xml version="1.0" ?><svg id="Layer_1" style="enable-background:new 0 0 74 74;" version="1.1" viewBox="0 0 74 74" xml:space="preserve" xmlns="http://www.w3.org/2000/svg" xmlns:xlink="http://www.w3.org/1999/xlink"><path d="M22.4,38.7L22.4,38.7C22.4,38.7,22.4,38.7,22.4,38.7L22.4,38.7z M12,45.6v0.7c0,2.9,1.4,4.6,3.8,5.1V54h2.8v-2.5  c2.5-0.5,3.8-2.2,3.8-5.1c0-5-7.3-5.2-7.3-7.7c0-2.9,4.2-3,4.2-0.1v0.1h3.1c0-2.8-1.4-4.6-3.8-5.1V31h-2.8v2.6  c-2.3,0.6-3.8,2.2-3.8,5.1c0,4.9,7.3,4.8,7.3,7.7c0,2.9-4.2,2.8-4.2,0v-0.7H12z M7,58V16l-4.3-4.3C1.7,12.9,1,14.4,1,16v42.9  C1,61.7,3.3,64,6.1,64H55l-6-6H7z M67.9,10H6.6L32,35.4c-0.6,1.6-1,3.3-1,5.1c0,7.5,6,13.5,13.5,13.5C52,54,58,47.9,58,40.5  C58,33,52,27,44.5,27c-1.8,0-3.4,0.3-5,1l-12-12H67v39.4l-6.9-6.9c-1.7,3.2-4.3,5.8-7.5,7.5l8,8h7.7c2.6-0.2,4.7-2.5,4.7-5.1V15.1  C73,12.3,70.7,10,67.9,10z M38,37.8V34h3.8l2.7-2.7l2.7,2.7H51v3.8l2.7,2.7L51,43.2V47h-3.8l-2.7,2.7L41.8,47H38v-3.8l-2.7-2.7  L38,37.8z"/></svg>