<?xml version="1.0" ?><svg id="Layer_1" style="enable-background:new 0 0 74 74;" version="1.1" viewBox="0 0 74 74" xml:space="preserve" xmlns="http://www.w3.org/2000/svg" xmlns:xlink="http://www.w3.org/1999/xlink"><g><path d="M27,31.5c2.2,0,4-1.8,4-4s-1.8-4-4-4s-4,1.8-4,4S24.8,31.5,27,31.5z"/><path d="M47,43.5c-2.2,0-4,1.8-4,4s1.8,4,4,4s4-1.8,4-4S49.2,43.5,47,43.5z"/><path d="M73,33.3c-0.1-1.2-0.4-2.4-0.6-3.6c-3.7-1-7.1-3.4-9.2-7c-2.1-3.6-2.5-7.7-1.5-11.5c-0.9-0.8-1.8-1.6-2.8-2.3   c-3.5,1.6-7.6,1.9-11.6,0.5c-3.9-1.4-6.9-4.3-8.5-7.8c-1.2-0.1-2.4-0.1-3.6,0c-1.6,3.5-4.6,6.4-8.5,7.8c-3.9,1.4-8.1,1.1-11.6-0.5   c-1,0.7-1.9,1.5-2.8,2.3c1,3.7,0.6,7.9-1.5,11.5c-2.1,3.6-5.4,6-9.2,7c-0.3,1.2-0.5,2.4-0.6,3.6c3.2,2.2,5.5,5.6,6.2,9.8   c0.7,4.1-0.3,8.1-2.5,11.3c0.6,1.1,1.2,2.1,1.8,3.1c3.9-0.3,7.8,0.8,11,3.5c3.2,2.7,5,6.4,5.3,10.3c1.1,0.5,2.2,0.9,3.4,1.2   c2.7-2.7,6.5-4.4,10.7-4.4c4.2,0,8,1.7,10.7,4.4c0.6-0.2,1.1-0.4,1.7-0.6s1.1-0.4,1.7-0.7c0.3-3.9,2.1-7.6,5.3-10.3   c3.2-2.7,7.2-3.8,11-3.5c0.7-1,1.3-2.1,1.8-3.1c-2.2-3.2-3.2-7.2-2.5-11.3C67.5,38.9,69.8,35.5,73,33.3z M27,19.5c4.4,0,8,3.6,8,8   s-3.6,8-8,8s-8-3.6-8-8S22.6,19.5,27,19.5z M23.5,53.8l-2.8-2.8l29.7-29.7l2.8,2.8L23.5,53.8z M47,55.5c-4.4,0-8-3.6-8-8s3.6-8,8-8   s8,3.6,8,8S51.4,55.5,47,55.5z"/></g></svg>