<?xml version="1.0" ?><svg id="Layer_1" style="enable-background:new 0 0 74 74;" version="1.1" viewBox="0 0 74 74" xml:space="preserve" xmlns="http://www.w3.org/2000/svg" xmlns:xlink="http://www.w3.org/1999/xlink"><g><path d="M35.6,69.3l6.5,3.5c1.5,0.8,3.3,0.2,4.1-1.2l15.2-28.1L35.6,69.3z"/><path d="M65,6.1L65,6.1c-7.6-7.2-19.6-6.9-26.9,0.7L3.9,42.8C2.7,44,2.8,45.9,4,47.1l23.2,22c1.2,1.1,3.1,1.1,4.2-0.1l34.3-36.1   C72.9,25.3,72.6,13.3,65,6.1z M60.9,19.7c-2.3,2.3-5.9,2.3-8.2,0c-2.3-2.3-2.3-5.9,0-8.2c2.3-2.3,5.9-2.3,8.2,0   C63.2,13.7,63.2,17.4,60.9,19.7z"/></g></svg>