<?xml version="1.0" ?><svg id="Layer_1" style="enable-background:new 0 0 74 74;" version="1.1" viewBox="0 0 74 74" xml:space="preserve" xmlns="http://www.w3.org/2000/svg" xmlns:xlink="http://www.w3.org/1999/xlink"><path d="M49,13c-1.4,0-2.8,0.1-4.1,0.4c6.7,5.7,11,14.2,11,23.6h6.3l-9.8,9.8L42.7,37H49c0-13.3-10.8-24-24-24C11.7,13,1,23.7,1,37  c0,13.3,10.7,24,24,24c1.4,0,2.8-0.1,4.1-0.4c-6.7-5.7-11-14.2-11-23.6h-6.3l9.8-9.8l9.8,9.8H25c0,13.3,10.7,24,24,24s24-10.7,24-24  C73,23.7,62.3,13,49,13z"/></svg>