<?xml version="1.0" ?><svg id="Layer_1" style="enable-background:new 0 0 74 74;" version="1.1" viewBox="0 0 74 74" xml:space="preserve" xmlns="http://www.w3.org/2000/svg" xmlns:xlink="http://www.w3.org/1999/xlink"><g><rect height="32" width="8" x="33" y="41"/><g><path d="M31.3,23.1c-0.1,0.3-0.2,0.6-0.3,0.9L30,26.6h2.5l-0.9-2.4C31.5,23.8,31.4,23.5,31.3,23.1z"/><path d="M65,15H41V5c0-2.2-1.8-4-4-4s-4,1.8-4,4v10H9c-1.1,0-2,0.9-2,2v18c0,1.1,0.9,2,2,2h56c1.1,0,2-0.9,2-2V17    C67,15.9,66.1,15,65,15z M22.3,29.9c-0.3,0.5-0.8,0.9-1.4,1.2c-0.6,0.3-1.3,0.4-2.1,0.4c-0.9,0-1.8-0.1-2.4-0.4    c-0.7-0.3-1.2-0.7-1.6-1.3c-0.4-0.6-0.6-1.2-0.6-2l0-0.3l1.8-0.2l0,0.3c0.1,0.5,0.2,0.8,0.4,1.1c0.2,0.3,0.5,0.5,0.9,0.7    c0.4,0.2,0.9,0.3,1.4,0.3c0.5,0,0.9-0.1,1.2-0.2c0.3-0.1,0.6-0.3,0.7-0.5c0.2-0.2,0.2-0.4,0.2-0.7c0-0.2-0.1-0.5-0.2-0.6    c-0.1-0.2-0.4-0.4-0.8-0.5c-0.3-0.1-0.8-0.3-1.7-0.5c-1-0.2-1.6-0.4-2-0.7c-0.5-0.3-0.9-0.6-1.2-1c-0.3-0.4-0.4-0.9-0.4-1.4    c0-0.6,0.2-1.1,0.5-1.6c0.3-0.5,0.8-0.9,1.4-1.1c0.6-0.2,1.2-0.4,2-0.4c0.8,0,1.5,0.1,2.1,0.4c0.6,0.3,1.1,0.7,1.4,1.2    c0.3,0.5,0.5,1.1,0.5,1.7l0,0.3l-1.8,0.1l0-0.3c-0.1-0.6-0.3-1-0.6-1.2c-0.3-0.3-0.9-0.4-1.6-0.4c-0.7,0-1.3,0.1-1.6,0.4    c-0.3,0.2-0.4,0.5-0.4,0.8c0,0.3,0.1,0.5,0.3,0.7c0.1,0.1,0.5,0.3,1.9,0.6c1.1,0.3,1.9,0.5,2.3,0.7c0.6,0.3,1.1,0.7,1.4,1.1    c0.3,0.5,0.5,1,0.5,1.6C22.8,28.8,22.6,29.3,22.3,29.9z M34.4,31.3l-1.2-3h-3.8l-1.1,3h-2.1l4.1-10.6h1.8l4.3,10.6H34.4z     M47.2,31.3h-6.9V20.7h1.9v8.8h4.9V31.3z M59.8,31.3h-8.1V20.7h7.8v1.8h-5.9v2.5h5.5v1.8h-5.5v2.8h6.2V31.3z"/></g></g></svg>