<?xml version="1.0" ?><svg id="Layer_1" style="enable-background:new 0 0 74 74;" version="1.1" viewBox="0 0 74 74" xml:space="preserve" xmlns="http://www.w3.org/2000/svg" xmlns:xlink="http://www.w3.org/1999/xlink"><g><polygon points="37,37 37,43 43,43 43,37 43,31 37,31  "/><rect height="6" width="6" x="16" y="16"/><rect height="6" width="6" x="52" y="16"/><path d="M67,67V43v-6h-6v6H43v24H67z M49,49h12v12H49V49z"/><rect height="6" width="6" x="52" y="52"/><rect height="6" width="6" x="19" y="37"/><path d="M55,37v-6h12V7H43v6h-6v6h6v12h6v6H55z M49,13h12v12H49V13z"/><rect height="6" width="6" x="19" y="61"/><polygon points="25,43 25,49 19,49 19,43 13,43 13,37 7,37 7,43 7,49 13,49 13,55 13,55 7,55 7,61 7,61 7,67 13,67 13,61 13,61    19,61 19,55 25,55 25,61 31,61 31,61 31,67 37,67 37,61 37,61 37,55 31,55 31,55 31,49 37,49 37,43 31,43  "/><path d="M31,31v-6h6v-6h-6V7H7v24h18v6h6V31z M13,25V13h12v12H13z"/></g></svg>