<?xml version="1.0" ?><svg id="Layer_1" style="enable-background:new 0 0 74 74;" version="1.1" viewBox="0 0 74 74" xml:space="preserve" xmlns="http://www.w3.org/2000/svg" xmlns:xlink="http://www.w3.org/1999/xlink"><g><path d="M52,68.5H22v-2c0-2.2,1.8-4,4-4h22c2.2,0,4,1.8,4,4V68.5z"/><path d="M61,35.5v12H13v-12c-2.1,0-4.1-0.4-6-1.1v18.1c0,2.2,1.8,4,4,4h52c2.2,0,4-1.8,4-4V34.4C65.1,35.1,63.1,35.5,61,35.5z"/><path d="M2,5.5v14c0,6.1,4.9,11,11,11c3.2,0,6-1.3,8-3.5c2,2.1,4.8,3.5,8,3.5s6-1.3,8-3.5c2,2.1,4.8,3.5,8,3.5s6-1.3,8-3.5   c2,2.1,4.8,3.5,8,3.5c6.1,0,11-4.9,11-11v-14H2z M18,19.5c0,2.8-2.2,5-5,5s-5-2.2-5-5v-8h10V19.5z M34,19.5c0,2.8-2.2,5-5,5   s-5-2.2-5-5v-8h10V19.5z M50,19.5c0,2.8-2.2,5-5,5s-5-2.2-5-5v-8h10V19.5z M66,19.5c0,2.8-2.2,5-5,5s-5-2.2-5-5v-8h10V19.5z"/><polygon points="28.7,38.5 22,32.5 22,41.5 24.1,38.9 25.9,42.9 27.1,42.3 25.3,38.3  "/></g></svg>