<?xml version="1.0" ?><svg id="Layer_1" style="enable-background:new 0 0 74 74;" version="1.1" viewBox="0 0 74 74" xml:space="preserve" xmlns="http://www.w3.org/2000/svg" xmlns:xlink="http://www.w3.org/1999/xlink"><path d="M58.5,1h-42c-3.3,0-6,2.7-6,6v60c0,3.3,2.7,6,6,6h42c3.3,0,6-2.7,6-6V7C64.5,3.7,61.8,1,58.5,1z M21.5,67c-2.8,0-5-2.2-5-5  c0-2.8,2.2-5,5-5c2.8,0,5,2.2,5,5C26.5,64.8,24.2,67,21.5,67z M21.5,52c-2.8,0-5-2.2-5-5c0-2.8,2.2-5,5-5c2.8,0,5,2.2,5,5  C26.5,49.8,24.2,52,21.5,52z M21.5,37c-2.8,0-5-2.2-5-5c0-2.8,2.2-5,5-5c2.8,0,5,2.2,5,5C26.5,34.8,24.2,37,21.5,37z M37.5,67  c-2.8,0-5-2.2-5-5c0-2.8,2.2-5,5-5c2.8,0,5,2.2,5,5C42.5,64.8,40.2,67,37.5,67z M37.5,52c-2.8,0-5-2.2-5-5c0-2.8,2.2-5,5-5  c2.8,0,5,2.2,5,5C42.5,49.8,40.2,52,37.5,52z M37.5,37c-2.8,0-5-2.2-5-5c0-2.8,2.2-5,5-5c2.8,0,5,2.2,5,5C42.5,34.8,40.2,37,37.5,37  z M53.5,67c-2.8,0-5-2.2-5-5c0-2.8,2.2-5,5-5c2.8,0,5,2.2,5,5C58.5,64.8,56.2,67,53.5,67z M53.5,52c-2.8,0-5-2.2-5-5  c0-2.8,2.2-5,5-5c2.8,0,5,2.2,5,5C58.5,49.8,56.2,52,53.5,52z M53.5,37c-2.8,0-5-2.2-5-5c0-2.8,2.2-5,5-5c2.8,0,5,2.2,5,5  C58.5,34.8,56.2,37,53.5,37z M58.5,21h-42V7h42V21z"/></svg>