<?xml version="1.0" ?><svg id="Layer_1" style="enable-background:new 0 0 74 74;" version="1.1" viewBox="0 0 74 74" xml:space="preserve" xmlns="http://www.w3.org/2000/svg" xmlns:xlink="http://www.w3.org/1999/xlink"><path d="M59.5,1h-28c-3,0-5.5,2.5-5.5,5.5V34l0,0L11.5,48.5c-1.6,1.6-2.5,3.8-2.5,6V73h10.7c4.5,0,8.6-1.9,11.5-4.9l0,0l6.1-6.1  h22.2c3.1,0,5.5-2.5,5.5-5.5v-50C65,3.5,62.5,1,59.5,1z M59,56H43.3c0,0,3.3-3.4,3.6-4c1.5-2.8,1-6.3-1.5-8.6  c-2.8-2.5-7.2-2.2-9.9,0.5l-6.8,6.8c-0.7,0.7-1.8,0.9-2.7,0.5c-0.2-0.1-0.5-0.3-0.6-0.5c-0.5-0.5-0.7-1.1-0.7-1.7s0.2-1.2,0.7-1.7  l0.6-0.6l6-6V7h27V56z M50.9,25.5L50.9,25.5C50.9,25.5,50.9,25.6,50.9,25.5L50.9,25.5z M44,38.9v1.6h3v-1.6c2.6-0.5,4-2.3,4-5.3  c0-5.2-7.6-5.4-7.6-8.1c0-3.1,4.4-3.1,4.4-0.1v0.1h3.3c0-3-1.4-4.9-4-5.4v-1.7h-3v1.7c-2.5,0.7-3.9,2.3-3.9,5.3  c0,5.1,7.6,5.2,7.6,8.1c0,3-4.4,2.9-4.4,0v-0.7H40v0.7C40,36.5,41.5,38.3,44,38.9z"/></svg>