<?xml version="1.0" ?><svg id="Layer_1" style="enable-background:new 0 0 74 74;" version="1.1" viewBox="0 0 74 74" xml:space="preserve" xmlns="http://www.w3.org/2000/svg" xmlns:xlink="http://www.w3.org/1999/xlink"><path d="M59.8,17.2L57,14.4c-2.3-2.3-6.1-2.3-8.5,0L22.5,40.4c-2-0.9-4.1-1.5-6.5-1.5C7.7,39,1,45.7,1,54c0,8.3,6.7,15,15,15  c8.3,0,15-6.7,15-15c0-2.3-0.5-4.5-1.5-6.5L59.8,17.2z M16,60c-1.6,0-3.1-0.6-4.2-1.8c0,0,0,0,0,0C10.6,57.1,10,55.6,10,54  c0-3.3,2.7-6,6-6c1.6,0,3.1,0.6,4.2,1.8c1.1,1.1,1.8,2.6,1.8,4.2C22,57.3,19.3,60,16,60z M16,35c8.3,0,15-6.7,15-15  c0-8.3-6.7-15-15-15C7.7,5,1,11.7,1,20C1,28.3,7.7,35,16,35z M11.8,15.8L11.8,15.8c1.1-1.1,2.6-1.8,4.2-1.8c3.3,0,6,2.7,6,6  c0,1.6-0.6,3.1-1.8,4.2C19.1,25.4,17.6,26,16,26c-3.3,0-6-2.7-6-6C10,18.4,10.6,16.9,11.8,15.8z M35.8,46.9l12.7,12.7  c2.3,2.3,6.1,2.3,8.5,0l2.8-2.8l-17-17L35.8,46.9z M72.1,34.9c-1.2-1.2-3.1-1.2-4.2,0s-1.2,3.1,0,4.2c1.2,1.2,3.1,1.2,4.2,0  C73.3,37.9,73.3,36.1,72.1,34.9z M58,34.9c-1.2,1.2-1.2,3.1,0,4.2c1.2,1.2,3.1,1.2,4.2,0c1.2-1.2,1.2-3.1,0-4.2S59.2,33.7,58,34.9z   M48.1,34.9c-1.2,1.2-1.2,3.1,0,4.2c1.2,1.2,3.1,1.2,4.2,0c1.2-1.2,1.2-3.1,0-4.2C51.2,33.7,49.3,33.7,48.1,34.9z"/></svg>