<?xml version="1.0" ?><svg id="Layer_1" style="enable-background:new 0 0 74 74;" version="1.1" viewBox="0 0 74 74" xml:space="preserve" xmlns="http://www.w3.org/2000/svg" xmlns:xlink="http://www.w3.org/1999/xlink"><g><g><path d="M7.5,43c0-0.3,0-0.5,0-0.8c-4,0.9-7,4.5-7,8.8c0,5,4,9,9,9c1.8,0,3.5-0.5,4.9-1.5C10.2,54.7,7.5,49.2,7.5,43z"/></g><g><path d="M21.5,36c0-3.2,0.5-6.2,1.5-9.1c-6.7,2.3-11.5,8.6-11.5,16.1c0,9.4,7.6,17,17,17c1.8,0,3.6-0.3,5.3-0.8    C26.4,54.1,21.5,45.6,21.5,36z"/></g><g><g><path d="M49.5,12c-13.3,0-24,10.7-24,24s10.7,24,24,24s24-10.7,24-24S62.8,12,49.5,12z M57.4,30.3c0,0,0-0.1,0-0.1h-4.8V30     c0-4.4-6.3-4.3-6.3,0.2c0,3.8,11.1,4.1,11.1,11.7c0,4.4-2,7-5.8,7.8V52h-4.3v-2.4c-3.7-0.8-5.7-3.4-5.7-7.8v-1.1h4.8v1.1     c0,4.3,6.3,4.4,6.3,0c0-4.1-11.1-4.3-11.1-11.7c0-4.3,2.2-6.8,5.7-7.7V20h4.3v2.4c3.7,0.7,5.8,3.5,5.8,7.8h0V30.3z"/></g></g></g></svg>