<?xml version="1.0" ?><!DOCTYPE svg  PUBLIC '-//W3C//DTD SVG 1.1//EN'  'http://www.w3.org/Graphics/SVG/1.1/DTD/svg11.dtd'><svg enable-background="new 0 0 64 64" height="64px" version="1.1" viewBox="0 0 64 64" width="64px" xml:space="preserve" xmlns="http://www.w3.org/2000/svg" xmlns:xlink="http://www.w3.org/1999/xlink"><g id="BG"/><g id="TEXT"/><g id="ARTWORK"><g><g><g><path d="M52.8,14.8H19.6c-1.8,0-3.3,1.5-3.3,3.3v42.6c0,1.8,1.5,3.3,3.3,3.3h33.1c1.8,0,3.3-1.5,3.3-3.3V18.1      C56,16.3,54.6,14.8,52.8,14.8z" fill="#2229AF"/><g><path d="M45.2,20.5c-0.9,0-1.6-0.7-1.6-1.6V7c0-2.1-1.7-3.8-3.8-3.8h-7.1c-2.1,0-3.8,1.7-3.8,3.8v11.8       c0,0.9-0.7,1.6-1.6,1.6c-0.9,0-1.6-0.7-1.6-1.6V7c0-3.9,3.2-7,7-7h7.1c3.9,0,7,3.2,7,7v11.8C46.8,19.8,46.1,20.5,45.2,20.5z" fill="#FFA10B"/></g><path d="M44.4,14.8H11.2c-1.8,0-3.3,1.5-3.3,3.3v42.6c0,1.8,1.5,3.3,3.3,3.3h33.1c1.8,0,3.3-1.5,3.3-3.3V18.1      C47.6,16.3,46.2,14.8,44.4,14.8z" fill="#E00B58"/><path d="M44.4,14.8H11.2c-1.8,0-3.3,1.5-3.3,3.3v4.5L47.4,62c0.2-0.4,0.3-0.8,0.3-1.3V18.1      C47.6,16.3,46.2,14.8,44.4,14.8z" fill="#AA0B5B"/><g><path d="M36.7,20.5c-0.9,0-1.6-0.7-1.6-1.6V7c0-2.1-1.7-3.8-3.8-3.8h-7.1c-2.1,0-3.8,1.7-3.8,3.8v11.8       c0,0.9-0.7,1.6-1.6,1.6c-0.9,0-1.6-0.7-1.6-1.6V7c0-3.9,3.2-7,7-7h7.1c3.9,0,7,3.2,7,7v11.8C38.4,19.8,37.6,20.5,36.7,20.5z" fill="#78AA43"/></g><path d="M32,0c-2.2,0.2-4.1,1.4-5.3,3.2h4.6c0.2,0,0.5,0,0.7,0.1c0.2,0,0.4-0.1,0.7-0.1h4.6      C36.1,1.5,34.2,0.2,32,0z" fill="#5F8D3D"/></g><circle cx="18.9" cy="18.8" fill="#93BD46" r="0.8"/><circle cx="36.8" cy="18.8" fill="#93BD46" r="0.8"/></g><path d="M33.6,29c-2.3,0-4.3,0.9-5.8,2.4C26.4,29.9,24.3,29,22,29c-4.2,0-7.7,3.1-7.7,7c0,1.4,0.5,2.8,1.4,4    c0,0.1,0.1,0.1,0.1,0.1c0,0,0,0.1,0.1,0.1l10.7,12.6c0.3,0.4,0.8,0.6,1.3,0.6c0.5,0,1-0.2,1.3-0.6l10.6-12.6c0,0,0.1-0.1,0.1-0.1    c0-0.1,0.1-0.1,0.1-0.2c0.9-1.2,1.3-2.5,1.3-3.9C41.3,32.2,37.8,29,33.6,29z" fill="#D1E0DF"/><path d="M33.2,47.9l6.5-7.7c0,0,0.1-0.1,0.1-0.1c0-0.1,0.1-0.1,0.1-0.2c0.9-1.2,1.3-2.5,1.3-3.9c0-3.8-3.5-7-7.7-7    c-2.3,0-4.3,0.9-5.8,2.4C26.4,29.9,24.3,29,22,29c-2.2,0-4.1,0.8-5.5,2.1L33.2,47.9z" fill="#FFFFFF"/></g></g></svg>