<?xml version="1.0" ?><!DOCTYPE svg  PUBLIC '-//W3C//DTD SVG 1.1//EN'  'http://www.w3.org/Graphics/SVG/1.1/DTD/svg11.dtd'><svg enable-background="new 0 0 64 64" height="64px" version="1.1" viewBox="0 0 64 64" width="64px" xml:space="preserve" xmlns="http://www.w3.org/2000/svg" xmlns:xlink="http://www.w3.org/1999/xlink"><g id="BG"/><g id="TEXT"/><g id="ARTWORK"><g><path d="M58.2,59.1l-10-15.8c-0.5-0.9-1.5-1.4-2.5-1.4H18.3c-1,0-2,0.5-2.5,1.4l-10.2,16c-0.6,0.9-0.6,2.1-0.1,3    c0.5,1,1.5,1.5,2.6,1.5h47.7c0,0,0,0,0,0c1.7,0,3-1.3,3-3C58.8,60.3,58.6,59.7,58.2,59.1z" fill="#93BD46"/><path d="M38.6,64h17.2c0,0,0,0,0,0c1.7,0,3-1.3,3-3c0-0.7-0.2-1.4-0.6-1.9l-10-15.8c-0.5-0.9-1.5-1.4-2.5-1.4H18.3    c-0.5,0-1,0.1-1.4,0.3L38.6,64z" fill="#78AA43"/><ellipse cx="32" cy="51.8" fill="#5F8D3D" rx="4.5" ry="1.2"/><g><g><g><path d="M45.4,22.1L45.4,22.1c0.7-1.7,1.1-3.6,1.1-5.5c0-8-6.5-14.5-14.5-14.5c-8,0-14.5,6.5-14.5,14.5       c0,1.9,0.4,3.8,1.1,5.5l0,0l0,0.1c0.2,0.6,0.5,1.1,0.8,1.6L32,49.1l12.6-25.3C44.9,23.3,45.2,22.8,45.4,22.1L45.4,22.1z" fill="#E00B58"/><path d="M32.1,2.1v46.7l12.5-25c0.3-0.5,0.6-1.1,0.8-1.6l0-0.1l0,0c0.7-1.7,1.1-3.5,1.1-5.5       C46.5,8.7,40.1,2.2,32.1,2.1z" fill="#AA0B5B"/></g><path d="M32,2.1c-7.1,0-13,5.2-14.3,11.9l21.2,21.2l5.7-11.4c0.3-0.5,0.6-1.1,0.8-1.6l0-0.1l0,0      c0.7-1.7,1.1-3.5,1.1-5.5C46.5,8.6,40,2.1,32,2.1z" fill="#AA0B5B"/><path d="M46.5,16.6c0-0.5,0-1-0.1-1.5c0-0.2-0.1-0.4-0.1-0.6c0-0.3-0.1-0.6-0.1-0.9c-0.1-0.3-0.1-0.5-0.2-0.8      c-0.1-0.2-0.1-0.4-0.2-0.6c-0.1-0.3-0.2-0.6-0.3-0.9c-0.1-0.2-0.1-0.3-0.2-0.5c-0.1-0.3-0.3-0.6-0.4-0.9      c-0.1-0.1-0.1-0.2-0.2-0.3c-0.2-0.3-0.4-0.7-0.6-1c0-0.1-0.1-0.1-0.1-0.2c-0.2-0.4-0.5-0.7-0.8-1c0,0,0-0.1-0.1-0.1      c-0.3-0.4-0.6-0.7-0.9-1c0,0,0,0,0,0c-2.6-2.6-6.2-4.2-10.1-4.3c0,0,0,0,0,0v26.3l6.8,6.8l5.7-11.4c0.3-0.5,0.6-1.1,0.8-1.6      l0-0.1l0,0C46.1,20.4,46.5,18.6,46.5,16.6z" fill="#890E63"/><path d="M32,51.2c-0.8,0-1.5-0.5-1.9-1.2L17.5,24.8c-0.3-0.6-0.6-1.2-0.9-1.7l0,0c-0.1-0.1-0.1-0.2-0.1-0.4      c-0.8-2-1.2-4-1.2-6.1C15.4,7.5,22.8,0,32,0c9.2,0,16.6,7.5,16.6,16.6c0,2.1-0.4,4.2-1.2,6.1c0,0.1-0.1,0.2-0.1,0.4l0,0      c-0.2,0.6-0.5,1.1-0.9,1.7L33.9,50C33.5,50.7,32.8,51.2,32,51.2z M20.6,21.4c0.2,0.4,0.4,0.8,0.7,1.3c0,0,0,0.1,0.1,0.1L32,44.3      l10.7-21.4c0,0,0-0.1,0.1-0.1c0.3-0.5,0.5-0.9,0.7-1.3c0,0,0-0.1,0-0.1c0.6-1.5,0.9-3.1,0.9-4.7c0-6.8-5.5-12.4-12.4-12.4      c-6.8,0-12.4,5.5-12.4,12.4c0,1.6,0.3,3.2,0.9,4.7C20.6,21.3,20.6,21.4,20.6,21.4z" fill="#E00B58"/><g><path d="M36.5,20.4c-2.4,2.4-6.4,2.4-8.9,0c-2.4-2.4-2.4-6.4,0-8.9c2.4-2.4,6.4-2.4,8.8,0       C39,14,39,17.9,36.5,20.4z" fill="#FFFFFF"/><path d="M36.5,11.5c-2.4-2.4-6.4-2.4-8.8,0l8.8,8.8C39,17.9,39,14,36.5,11.5z" fill="#D1E0DF"/></g></g><path d="M32.1,0v4.3c6.8,0.1,12.2,5.6,12.2,12.4c0,1.6-0.3,3.2-0.9,4.7c0,0,0,0.1,0,0.1c-0.2,0.4-0.4,0.9-0.7,1.3     c0,0,0,0.1-0.1,0.1L32.1,44v7.1c0.8,0,1.4-0.5,1.8-1.2l12.6-25.2c0.3-0.6,0.6-1.2,0.9-1.7l0,0c0.1-0.1,0.1-0.2,0.1-0.4     c0.8-2,1.2-4,1.2-6.1C48.6,7.5,41.2,0.1,32.1,0z" fill="#890E63"/><path d="M47.3,23.1c0.1-0.1,0.1-0.2,0.1-0.4c0.8-2,1.2-4,1.2-6.1C48.6,7.5,41.2,0,32,0c-7.7,0-14.1,5.2-16,12.3     l3.7,3.7C20,9.4,25.4,4.3,32,4.3c6.8,0,12.4,5.5,12.4,12.4c0,1.6-0.3,3.2-0.9,4.7c0,0,0,0.1,0,0.1c-0.2,0.4-0.4,0.9-0.7,1.3     c0,0,0,0.1-0.1,0.1l-5.4,10.7l3.2,3.2l6-12C46.8,24.2,47.1,23.7,47.3,23.1L47.3,23.1z" fill="#890E63"/><path d="M48.5,14.9c0-0.2-0.1-0.4-0.1-0.6c0-0.3-0.1-0.7-0.2-1c-0.1-0.3-0.1-0.6-0.2-0.8     c-0.1-0.2-0.1-0.5-0.2-0.7c-0.1-0.3-0.2-0.6-0.3-1c-0.1-0.2-0.1-0.4-0.2-0.6c-0.1-0.4-0.3-0.7-0.5-1c-0.1-0.1-0.1-0.3-0.2-0.4     C46.4,8.4,46.2,8,46,7.6c-0.1-0.1-0.1-0.2-0.2-0.3c-0.3-0.4-0.6-0.8-0.9-1.2c0,0-0.1-0.1-0.1-0.1c-0.3-0.4-0.7-0.8-1-1.1     c0,0,0,0,0,0c-3-3-7.1-4.9-11.6-4.9c0,0,0,0,0,0v4.3c0,0,0,0,0,0c3.8,0,7.2,1.8,9.4,4.5c0,0,0,0.1,0.1,0.1     c0.2,0.3,0.4,0.6,0.6,0.9c0,0.1,0.1,0.1,0.1,0.2c0.2,0.3,0.4,0.6,0.5,0.8c0,0.1,0.1,0.2,0.1,0.3c0.1,0.3,0.3,0.5,0.4,0.8     c0.1,0.1,0.1,0.3,0.2,0.4c0.1,0.2,0.2,0.5,0.3,0.7c0.1,0.2,0.1,0.4,0.1,0.5c0.1,0.2,0.1,0.4,0.2,0.6c0,0.2,0.1,0.5,0.1,0.7     c0,0.2,0.1,0.3,0.1,0.5c0,0.4,0.1,0.8,0.1,1.3c0,1.6-0.3,3.2-0.9,4.7c0,0,0,0.1,0,0.1c-0.2,0.4-0.4,0.9-0.7,1.3     c0,0,0,0.1-0.1,0.1l-5.4,10.7l3.2,3.2l6-12c0.3-0.6,0.6-1.2,0.9-1.7l0,0c0.1-0.1,0.1-0.2,0.1-0.4c0.8-2,1.2-4,1.2-6.1     C48.6,16.1,48.6,15.5,48.5,14.9z" fill="#AA0B5B"/></g><path d="M5.5,62.5c0.5,1,1.5,1.5,2.6,1.5h47.7c0,0,0,0,0,0c1.7,0,3-1.3,3-3c0-0.2,0-0.3,0-0.5H5.2    C5.1,61.2,5.2,61.9,5.5,62.5z" fill="#78AA43"/><path d="M58.8,60.5H35.2l3.5,3.5h17.2c0,0,0,0,0,0c1.7,0,3-1.3,3-3C58.8,60.8,58.8,60.7,58.8,60.5z" fill="#5F8D3D"/></g></g></svg>