<?xml version="1.0" ?><!DOCTYPE svg  PUBLIC '-//W3C//DTD SVG 1.1//EN'  'http://www.w3.org/Graphics/SVG/1.1/DTD/svg11.dtd'><svg enable-background="new 0 0 64 64" height="64px" version="1.1" viewBox="0 0 64 64" width="64px" xml:space="preserve" xmlns="http://www.w3.org/2000/svg" xmlns:xlink="http://www.w3.org/1999/xlink"><g id="BG"/><g id="TEXT"/><g id="ARTWORK"><g><g><path d="M10.8,11.9c0.4-0.2,0.8-0.3,1.2-0.3l-10.5,0c-1.7,0-1.5,1.3-1.5,3c0,1.7,1.3,3,3,3h7.1l-0.7-1.3     C8.6,14.7,9.2,12.7,10.8,11.9z" fill="#1174EA"/></g><path d="M0.4,13.2c-0.1,0-0.3,0-0.4,0c0,0.4,0,0.9,0,1.4c0,1.7,1.3,3,3,3h7.1l-0.7-1.3c-0.5-1-0.4-2.1,0.1-3    L0.4,13.2z" fill="#2229AF"/><path d="M25.2,33.8l-8.4-16.5l-2-4c-0.8-1.6-2.7-2.2-4.3-1.4c-1.6,0.8-2.2,2.7-1.4,4.3l0.7,1.3l9.7,19.1    c0.6,1.1,1.7,1.8,2.9,1.8c0.5,0,1-0.1,1.5-0.3C25.4,37.3,26,35.3,25.2,33.8z" fill="#B3C6C4"/><path d="M16.8,17.3l-2-4c-0.8-1.6-2.7-2.2-4.3-1.4c-0.1,0.1-0.2,0.1-0.3,0.2l0.4,0.9l12.8,25.2    c0.1,0,0.2-0.1,0.3-0.1c1.6-0.8,2.2-2.7,1.4-4.3L16.8,17.3z" fill="#D1E0DF"/><path d="M63.5,23.3c-0.6-1-1.6-1.5-2.7-1.5H17.1c-1.1,0-2.2,0.6-2.7,1.5c-0.6,1-0.6,2.1-0.1,3.1l10.4,20.4    c0.5,1.1,1.7,1.8,2.9,1.8h22.9c1.2,0,2.3-0.7,2.9-1.8l10.4-20.4C64.2,25.5,64.1,24.3,63.5,23.3z M55.5,28.2L53.6,32H24.8    c-0.1,0-0.3,0-0.4,0l-1.9-3.8H55.5z M29.5,42.2l-1.9-3.8h22.8l-1.9,3.8H29.5z" fill="#E00B58"/><path d="M63.5,25c-0.6-1-1.6-1.5-2.7-1.5H17.1c-1.1,0-2.2,0.6-2.7,1.5c-0.2,0.3-0.3,0.5-0.3,0.8    c0.1,0.2,0.1,0.4,0.2,0.6l10.4,20.4c0.5,1.1,1.7,1.8,2.9,1.8h22.9c1.2,0,2.3-0.7,2.9-1.8l10.4-20.4c0.1-0.2,0.2-0.4,0.2-0.6    C63.8,25.5,63.7,25.3,63.5,25z M49.5,40.1l-1.1,3.8H29.5l-1.1-3.8l-0.9-1.7h22.8L49.5,40.1z M54.7,29.9l-1.1,3.8H24.8    c-0.1,0-0.3,0-0.4,0l-1.1-3.8l-0.9-1.7h33.2L54.7,29.9z" fill="#BA0859"/><circle cx="12" cy="14.7" fill="#154ECE" r="1.1"/><path d="M12,13.6c-0.6,0-1.1,0.5-1.1,1.1h2.2C13.1,14.1,12.6,13.6,12,13.6z" fill="#2229AF"/><g><g><g><circle cx="27.7" cy="56.6" fill="#1174EA" r="6.4"/><path d="M32.2,52.1c-2.5-2.5-6.5-2.5-9,0l9,9C34.7,58.6,34.7,54.6,32.2,52.1z" fill="#154ECE"/></g><g><circle cx="27.7" cy="56.6" fill="#154ECE" r="4"/><path d="M27.7,52.7c-2.2,0-4,1.8-4,4h7.9C31.6,54.4,29.8,52.7,27.7,52.7z" fill="#2229AF"/></g><g><circle cx="27.7" cy="56.6" fill="#FFFFFF" r="2.5"/><path d="M30.2,56.6c0-1.4-1.1-2.5-2.5-2.5v5C29,59.1,30.2,58,30.2,56.6z" fill="#D1E0DF"/></g></g><g><g><circle cx="50.3" cy="56.6" fill="#1174EA" r="6.4"/><path d="M54.8,52.1c-2.5-2.5-6.5-2.5-9,0l9,9C57.3,58.6,57.3,54.6,54.8,52.1z" fill="#154ECE"/></g><g><circle cx="50.3" cy="56.6" fill="#154ECE" r="4"/><path d="M50.3,52.7c-2.2,0-4,1.8-4,4h7.9C54.2,54.4,52.5,52.7,50.3,52.7z" fill="#2229AF"/></g><g><circle cx="50.3" cy="56.6" fill="#FFFFFF" r="2.5"/><path d="M52.8,56.6c0-1.4-1.1-2.5-2.5-2.5v5C51.7,59.1,52.8,58,52.8,56.6z" fill="#D1E0DF"/></g></g></g><g><path d="M28.9,61.8c0,0.7-0.5,1.2-1.2,1.2h-8.2c-0.7,0-1.2-0.5-1.2-1.2l0,0c0-0.7,0.5-1.2,1.2-1.2h8.2     C28.4,60.6,28.9,61.1,28.9,61.8L28.9,61.8z" fill="#1174EA"/><path d="M12.4,61.8c0,0.7-0.5,1.2-1.2,1.2h-0.6c-0.7,0-1.2-0.5-1.2-1.2l0,0c0-0.7,0.5-1.2,1.2-1.2h0.6     C11.9,60.6,12.4,61.1,12.4,61.8L12.4,61.8z" fill="#1174EA"/><path d="M16.7,61.8c0,0.7-0.5,1.2-1.2,1.2H15c-0.7,0-1.2-0.5-1.2-1.2l0,0c0-0.7,0.5-1.2,1.2-1.2h0.6     C16.2,60.6,16.7,61.1,16.7,61.8L16.7,61.8z" fill="#1174EA"/></g><g><path d="M51.5,61.8c0,0.7-0.5,1.2-1.2,1.2h-8.2c-0.7,0-1.2-0.5-1.2-1.2l0,0c0-0.7,0.5-1.2,1.2-1.2h8.2     C51,60.6,51.5,61.1,51.5,61.8L51.5,61.8z" fill="#1174EA"/><path d="M39.3,61.8c0,0.7-0.5,1.2-1.2,1.2h-0.6c-0.7,0-1.2-0.5-1.2-1.2l0,0c0-0.7,0.5-1.2,1.2-1.2h0.6     C38.8,60.6,39.3,61.1,39.3,61.8L39.3,61.8z" fill="#1174EA"/></g></g></g></svg>