<?xml version="1.0" ?><!DOCTYPE svg  PUBLIC '-//W3C//DTD SVG 1.1//EN'  'http://www.w3.org/Graphics/SVG/1.1/DTD/svg11.dtd'><svg enable-background="new 0 0 64 64" height="64px" version="1.1" viewBox="0 0 64 64" width="64px" xml:space="preserve" xmlns="http://www.w3.org/2000/svg" xmlns:xlink="http://www.w3.org/1999/xlink"><g id="BG"/><g id="TEXT"/><g id="ARTWORK"><g><g><g><path d="M64,38.4c0,0.7-0.6,1.4-1.4,1.4H11c-0.7,0-1.4-0.6-1.4-1.4V12.6c0-0.7,0.6-1.4,1.4-1.4h51.7      c0.7,0,1.4,0.6,1.4,1.4V38.4z" fill="#93BD46"/><path d="M37.2,39.7h25.4c0.7,0,1.4-0.6,1.4-1.4V12.6c0-0.7-0.6-1.4-1.4-1.4H11c-0.6,0-1.1,0.4-1.3,0.9L37.2,39.7      z" fill="#78AA43"/><path d="M61,35.7c0,0.6-0.5,1.1-1.1,1.1H13.7c-0.6,0-1.1-0.5-1.1-1.1V15.2c0-0.6,0.5-1.1,1.1-1.1H60      c0.6,0,1.1,0.5,1.1,1.1V35.7z" fill="#ACD651"/><path d="M34.3,36.8H60c0.6,0,1.1-0.5,1.1-1.1V15.2c0-0.6-0.5-1.1-1.1-1.1H13.7c-0.5,0-1,0.4-1,0.9L34.3,36.8z" fill="#93BD46"/><g><circle cx="56.7" cy="32.4" fill="#78AA43" r="1.9"/><circle cx="17" cy="18.5" fill="#78AA43" r="1.9"/></g></g><g><path d="M59.2,33.5c0,0.7-0.6,1.4-1.4,1.4H6.2c-0.7,0-1.4-0.6-1.4-1.4V7.8c0-0.7,0.6-1.4,1.4-1.4h51.7      c0.7,0,1.4,0.6,1.4,1.4V33.5z" fill="#93BD46"/><path d="M32.4,34.9h25.4c0.7,0,1.4-0.6,1.4-1.4V7.8c0-0.7-0.6-1.4-1.4-1.4H6.2c-0.6,0-1.1,0.4-1.3,0.9L32.4,34.9      z" fill="#78AA43"/><path d="M56.2,30.9c0,0.6-0.5,1.1-1.1,1.1H8.8c-0.6,0-1.1-0.5-1.1-1.1V10.4c0-0.6,0.5-1.1,1.1-1.1h46.3      c0.6,0,1.1,0.5,1.1,1.1V30.9z" fill="#ACD651"/><path d="M29.5,32h25.7c0.6,0,1.1-0.5,1.1-1.1V10.4c0-0.6-0.5-1.1-1.1-1.1H8.8c-0.5,0-1,0.4-1,0.9L29.5,32z" fill="#93BD46"/><g><circle cx="51.9" cy="27.6" fill="#78AA43" r="1.9"/><circle cx="12.1" cy="13.7" fill="#78AA43" r="1.9"/></g></g><g><path d="M54.4,28.7c0,0.7-0.6,1.4-1.4,1.4H1.4c-0.7,0-1.4-0.6-1.4-1.4V3c0-0.7,0.6-1.4,1.4-1.4H53      c0.7,0,1.4,0.6,1.4,1.4V28.7z" fill="#93BD46"/><path d="M27.6,30.1H53c0.7,0,1.4-0.6,1.4-1.4V3c0-0.7-0.6-1.4-1.4-1.4H1.4C0.8,1.6,0.3,2,0.1,2.5L27.6,30.1z" fill="#78AA43"/><path d="M51.4,26.1c0,0.6-0.5,1.1-1.1,1.1H4c-0.6,0-1.1-0.5-1.1-1.1V5.6C3,5,3.4,4.5,4,4.5h46.3      c0.6,0,1.1,0.5,1.1,1.1V26.1z" fill="#ACD651"/><path d="M24.7,27.2h25.7c0.6,0,1.1-0.5,1.1-1.1V5.6c0-0.6-0.5-1.1-1.1-1.1H4c-0.5,0-1,0.4-1,0.9L24.7,27.2z" fill="#93BD46"/><g><g><circle cx="27.2" cy="15.8" fill="#5F8D3D" r="10.4"/><path d="M16.8,15.8c0-5.7,4.7-10.4,10.4-10.4c5.8,0,10.4,4.7,10.4,10.4" fill="#78AA43"/></g><path d="M26.1,10.3h2.1c0.5,0,0.9,0.4,0.9,0.9c0,0.9,0.7,1.7,1.7,1.7s1.7-0.7,1.7-1.7c0-2.1-1.6-3.9-3.6-4.2       V6.2c0-0.9-0.7-1.7-1.7-1.7c-0.9,0-1.7,0.7-1.7,1.7V7c-2,0.3-3.6,2-3.6,4.2v2.1c0,2.3,1.9,4.2,4.2,4.2h2.1       c0.5,0,0.9,0.4,0.9,0.9v2.1c0,0.5-0.4,0.9-0.9,0.9h-2.1c-0.5,0-0.9-0.4-0.9-0.9c0-0.9-0.7-1.7-1.7-1.7c-0.9,0-1.7,0.7-1.7,1.7       c0,2.1,1.6,3.9,3.6,4.2v0.8c0,0.9,0.7,1.7,1.7,1.7c0.9,0,1.7-0.7,1.7-1.7v-0.8c2-0.3,3.6-2,3.6-4.2v-2.1c0-2.3-1.9-4.2-4.2-4.2       h-2.1c-0.5,0-0.9-0.4-0.9-0.9v-2.1C25.2,10.7,25.6,10.3,26.1,10.3z" fill="#ACD651"/><g><path d="M28.8,7V6.2c0-0.9-0.7-1.7-1.7-1.7h0v5.7h1.1c0.5,0,0.9,0.4,0.9,0.9c0,0.9,0.7,1.7,1.7,1.7        s1.7-0.7,1.7-1.7C32.5,9.1,30.9,7.3,28.8,7z" fill="#93BD46"/><path d="M28.8,25.5v-0.8c2-0.3,3.6-2,3.6-4.2v-2.1c0-2.3-1.9-4.2-4.2-4.2h-1.1v3.3h1.1c0.5,0,0.9,0.4,0.9,0.9        v2.1c0,0.5-0.4,0.9-0.9,0.9h-1.1v5.7h0C28.1,27.1,28.8,26.4,28.8,25.5z" fill="#93BD46"/></g></g><g><circle cx="47.1" cy="22.8" fill="#78AA43" r="1.9"/><circle cx="7.3" cy="8.9" fill="#78AA43" r="1.9"/></g></g></g><g><g><g><path d="M50.7,39h-1.6v1.1c-4,1.9-6.8,5.9-6.8,10.6c0,4.7,2.8,8.8,6.8,10.6v1.1h1.6c6.5,0,11.7-5.2,11.7-11.7       C62.4,44.2,57.1,39,50.7,39z" fill="#F77308"/><path d="M61.3,50.7c0-6.5-5.2-11.7-11.7-11.7h-0.5v1.1c-4,1.9-6.8,5.9-6.8,10.6c0,4.7,2.8,8.8,6.8,10.6v1.1h0.5       C56.1,62.4,61.3,57.2,61.3,50.7z" fill="#F46708"/></g><g><circle cx="49.2" cy="50.7" fill="#FFB600" r="11.7"/><path d="M41,42.4c4.6-4.6,12-4.6,16.5,0c4.6,4.6,4.6,12,0,16.5" fill="#FFA10B"/></g><g><circle cx="49.2" cy="50.7" fill="#F79200" r="7.3"/><path d="M42,50.7c0-4,3.3-7.3,7.3-7.3c4,0,7.3,3.3,7.3,7.3" fill="#FFA10B"/></g><g><path d="M49.5,41.7c0,0.2-0.1,0.3-0.3,0.3l0,0c-0.2,0-0.3-0.1-0.3-0.3v-1c0-0.2,0.1-0.3,0.3-0.3l0,0       c0.2,0,0.3,0.1,0.3,0.3V41.7z" fill="#FFC200"/><path d="M49.5,60.7c0,0.2-0.1,0.3-0.3,0.3l0,0c-0.2,0-0.3-0.1-0.3-0.3v-1c0-0.2,0.1-0.3,0.3-0.3l0,0       c0.2,0,0.3,0.1,0.3,0.3V60.7z" fill="#FFC200"/></g><g><path d="M55.8,44.6c-0.1,0.1-0.3,0.1-0.4,0l0,0c-0.1-0.1-0.1-0.3,0-0.4l0.7-0.7c0.1-0.1,0.3-0.1,0.4,0l0,0       c0.1,0.1,0.1,0.3,0,0.4L55.8,44.6z" fill="#FFC200"/><path d="M42.4,58c-0.1,0.1-0.3,0.1-0.4,0l0,0c-0.1-0.1-0.1-0.3,0-0.4l0.7-0.7c0.1-0.1,0.3-0.1,0.4,0l0,0       c0.1,0.1,0.1,0.3,0,0.4L42.4,58z" fill="#FFC200"/></g><g><path d="M58.2,51c-0.2,0-0.3-0.1-0.3-0.3l0,0c0-0.2,0.1-0.3,0.3-0.3h1c0.2,0,0.3,0.1,0.3,0.3l0,0       c0,0.2-0.1,0.3-0.3,0.3H58.2z" fill="#FFC200"/><path d="M39.2,51c-0.2,0-0.3-0.1-0.3-0.3l0,0c0-0.2,0.1-0.3,0.3-0.3h1c0.2,0,0.3,0.1,0.3,0.3l0,0       c0,0.2-0.1,0.3-0.3,0.3H39.2z" fill="#FFC200"/></g><g><path d="M55.4,57.2c-0.1-0.1-0.1-0.3,0-0.4l0,0c0.1-0.1,0.3-0.1,0.4,0l0.7,0.7c0.1,0.1,0.1,0.3,0,0.4l0,0       c-0.1,0.1-0.3,0.1-0.4,0L55.4,57.2z" fill="#FFC200"/><path d="M42,43.8c-0.1-0.1-0.1-0.3,0-0.4l0,0c0.1-0.1,0.3-0.1,0.4,0l0.7,0.7c0.1,0.1,0.1,0.3,0,0.4l0,0       c-0.1,0.1-0.3,0.1-0.4,0L42,43.8z" fill="#FFC200"/></g><path d="M48.5,47.3H50c0.3,0,0.6,0.3,0.6,0.6c0,0.6,0.5,1.2,1.2,1.2c0.6,0,1.2-0.5,1.2-1.2      c0-1.5-1.1-2.7-2.5-2.9v-0.5c0-0.6-0.5-1.2-1.2-1.2s-1.2,0.5-1.2,1.2V45c-1.4,0.2-2.5,1.4-2.5,2.9v1.5c0,1.6,1.3,2.9,2.9,2.9H50      c0.3,0,0.6,0.3,0.6,0.6v1.5c0,0.3-0.3,0.6-0.6,0.6h-1.5c-0.3,0-0.6-0.3-0.6-0.6c0-0.6-0.5-1.2-1.2-1.2c-0.6,0-1.2,0.5-1.2,1.2      c0,1.5,1.1,2.7,2.5,2.9v0.5c0,0.6,0.5,1.2,1.2,1.2s1.2-0.5,1.2-1.2v-0.5c1.4-0.2,2.5-1.4,2.5-2.9v-1.5c0-1.6-1.3-2.9-2.9-2.9      h-1.5c-0.3,0-0.6-0.3-0.6-0.6v-1.5C47.9,47.5,48.2,47.3,48.5,47.3z" fill="#F79200"/><path d="M48.5,46.8H50c0.3,0,0.6,0.3,0.6,0.6c0,0.6,0.5,1.2,1.2,1.2c0.6,0,1.2-0.5,1.2-1.2      c0-1.5-1.1-2.7-2.5-2.9V44c0-0.6-0.5-1.2-1.2-1.2s-1.2,0.5-1.2,1.2v0.5c-1.4,0.2-2.5,1.4-2.5,2.9v1.5c0,1.6,1.3,2.9,2.9,2.9H50      c0.3,0,0.6,0.3,0.6,0.6V54c0,0.3-0.3,0.6-0.6,0.6h-1.5c-0.3,0-0.6-0.3-0.6-0.6c0-0.6-0.5-1.2-1.2-1.2c-0.6,0-1.2,0.5-1.2,1.2      c0,1.5,1.1,2.7,2.5,2.9v0.5c0,0.6,0.5,1.2,1.2,1.2s1.2-0.5,1.2-1.2v-0.5c1.4-0.2,2.5-1.4,2.5-2.9v-1.5c0-1.6-1.3-2.9-2.9-2.9      h-1.5c-0.3,0-0.6-0.3-0.6-0.6v-1.5C47.9,47.1,48.2,46.8,48.5,46.8z" fill="#FFB600"/><g><path d="M50.4,44.5V44c0-0.6-0.5-1.2-1.2-1.2h0v4H50c0.3,0,0.6,0.3,0.6,0.6c0,0.6,0.5,1.2,1.2,1.2       c0.6,0,1.2-0.5,1.2-1.2C52.9,46,51.8,44.7,50.4,44.5z" fill="#FFC200"/><path d="M50.4,57.4v-0.5c1.4-0.2,2.5-1.4,2.5-2.9v-1.5c0-1.6-1.3-2.9-2.9-2.9h-0.7v2.3H50       c0.3,0,0.6,0.3,0.6,0.6V54c0,0.3-0.3,0.6-0.6,0.6h-0.7v4h0C49.9,58.6,50.4,58.1,50.4,57.4z" fill="#FFC200"/></g></g><g><g><path d="M45.2,39h-1.6v1.1c-4,1.9-6.8,5.9-6.8,10.6c0,4.7,2.8,8.8,6.8,10.6v1.1h1.6c6.5,0,11.7-5.2,11.7-11.7       C56.9,44.2,51.6,39,45.2,39z" fill="#F77308"/><path d="M55.8,50.7c0-6.5-5.2-11.7-11.7-11.7h-0.5v1.1c-4,1.9-6.8,5.9-6.8,10.6c0,4.7,2.8,8.8,6.8,10.6v1.1h0.5       C50.6,62.4,55.8,57.2,55.8,50.7z" fill="#F46708"/></g><g><circle cx="43.7" cy="50.7" fill="#FFB600" r="11.7"/><path d="M35.5,42.4c4.6-4.6,12-4.6,16.5,0c4.6,4.6,4.6,12,0,16.5" fill="#FFA10B"/></g><g><circle cx="43.7" cy="50.7" fill="#F79200" r="7.3"/><path d="M36.4,50.7c0-4,3.3-7.3,7.3-7.3c4,0,7.3,3.3,7.3,7.3" fill="#FFA10B"/></g><g><path d="M44,41.7c0,0.2-0.1,0.3-0.3,0.3l0,0c-0.2,0-0.3-0.1-0.3-0.3v-1c0-0.2,0.1-0.3,0.3-0.3l0,0       c0.2,0,0.3,0.1,0.3,0.3V41.7z" fill="#FFC200"/><path d="M44,60.7c0,0.2-0.1,0.3-0.3,0.3l0,0c-0.2,0-0.3-0.1-0.3-0.3v-1c0-0.2,0.1-0.3,0.3-0.3l0,0       c0.2,0,0.3,0.1,0.3,0.3V60.7z" fill="#FFC200"/></g><g><path d="M50.3,44.6c-0.1,0.1-0.3,0.1-0.4,0l0,0c-0.1-0.1-0.1-0.3,0-0.4l0.7-0.7c0.1-0.1,0.3-0.1,0.4,0l0,0       c0.1,0.1,0.1,0.3,0,0.4L50.3,44.6z" fill="#FFC200"/><path d="M36.9,58c-0.1,0.1-0.3,0.1-0.4,0l0,0c-0.1-0.1-0.1-0.3,0-0.4l0.7-0.7c0.1-0.1,0.3-0.1,0.4,0l0,0       c0.1,0.1,0.1,0.3,0,0.4L36.9,58z" fill="#FFC200"/></g><g><path d="M52.7,51c-0.2,0-0.3-0.1-0.3-0.3l0,0c0-0.2,0.1-0.3,0.3-0.3h1c0.2,0,0.3,0.1,0.3,0.3l0,0       c0,0.2-0.1,0.3-0.3,0.3H52.7z" fill="#FFC200"/><path d="M33.7,51c-0.2,0-0.3-0.1-0.3-0.3l0,0c0-0.2,0.1-0.3,0.3-0.3h1c0.2,0,0.3,0.1,0.3,0.3l0,0       c0,0.2-0.1,0.3-0.3,0.3H33.7z" fill="#FFC200"/></g><g><path d="M49.9,57.2c-0.1-0.1-0.1-0.3,0-0.4l0,0c0.1-0.1,0.3-0.1,0.4,0l0.7,0.7c0.1,0.1,0.1,0.3,0,0.4l0,0       c-0.1,0.1-0.3,0.1-0.4,0L49.9,57.2z" fill="#FFC200"/><path d="M36.5,43.8c-0.1-0.1-0.1-0.3,0-0.4l0,0c0.1-0.1,0.3-0.1,0.4,0l0.7,0.7c0.1,0.1,0.1,0.3,0,0.4l0,0       c-0.1,0.1-0.3,0.1-0.4,0L36.5,43.8z" fill="#FFC200"/></g><path d="M43,47.3h1.5c0.3,0,0.6,0.3,0.6,0.6c0,0.6,0.5,1.2,1.2,1.2c0.6,0,1.2-0.5,1.2-1.2c0-1.5-1.1-2.7-2.5-2.9      v-0.5c0-0.6-0.5-1.2-1.2-1.2s-1.2,0.5-1.2,1.2V45c-1.4,0.2-2.5,1.4-2.5,2.9v1.5c0,1.6,1.3,2.9,2.9,2.9h1.5      c0.3,0,0.6,0.3,0.6,0.6v1.5c0,0.3-0.3,0.6-0.6,0.6H43c-0.3,0-0.6-0.3-0.6-0.6c0-0.6-0.5-1.2-1.2-1.2c-0.6,0-1.2,0.5-1.2,1.2      c0,1.5,1.1,2.7,2.5,2.9v0.5c0,0.6,0.5,1.2,1.2,1.2s1.2-0.5,1.2-1.2v-0.5c1.4-0.2,2.5-1.4,2.5-2.9v-1.5c0-1.6-1.3-2.9-2.9-2.9H43      c-0.3,0-0.6-0.3-0.6-0.6v-1.5C42.4,47.5,42.6,47.3,43,47.3z" fill="#F79200"/><path d="M43,46.8h1.5c0.3,0,0.6,0.3,0.6,0.6c0,0.6,0.5,1.2,1.2,1.2c0.6,0,1.2-0.5,1.2-1.2c0-1.5-1.1-2.7-2.5-2.9      V44c0-0.6-0.5-1.2-1.2-1.2s-1.2,0.5-1.2,1.2v0.5C41.1,44.7,40,46,40,47.4v1.5c0,1.6,1.3,2.9,2.9,2.9h1.5c0.3,0,0.6,0.3,0.6,0.6      V54c0,0.3-0.3,0.6-0.6,0.6H43c-0.3,0-0.6-0.3-0.6-0.6c0-0.6-0.5-1.2-1.2-1.2c-0.6,0-1.2,0.5-1.2,1.2c0,1.5,1.1,2.7,2.5,2.9v0.5      c0,0.6,0.5,1.2,1.2,1.2s1.2-0.5,1.2-1.2v-0.5c1.4-0.2,2.5-1.4,2.5-2.9v-1.5c0-1.6-1.3-2.9-2.9-2.9H43c-0.3,0-0.6-0.3-0.6-0.6      v-1.5C42.4,47.1,42.6,46.8,43,46.8z" fill="#FFB600"/><g><path d="M44.9,44.5V44c0-0.6-0.5-1.2-1.2-1.2h0v4h0.7c0.3,0,0.6,0.3,0.6,0.6c0,0.6,0.5,1.2,1.2,1.2       c0.6,0,1.2-0.5,1.2-1.2C47.4,46,46.3,44.7,44.9,44.5z" fill="#FFC200"/><path d="M44.9,57.4v-0.5c1.4-0.2,2.5-1.4,2.5-2.9v-1.5c0-1.6-1.3-2.9-2.9-2.9h-0.7v2.3h0.7       c0.3,0,0.6,0.3,0.6,0.6V54c0,0.3-0.3,0.6-0.6,0.6h-0.7v4h0C44.4,58.6,44.9,58.1,44.9,57.4z" fill="#FFC200"/></g></g><g><g><path d="M39.7,39h-1.6v1.1c-4,1.9-6.8,5.9-6.8,10.6c0,4.7,2.8,8.8,6.8,10.6v1.1h1.6c6.5,0,11.7-5.2,11.7-11.7       C51.3,44.2,46.1,39,39.7,39z" fill="#F77308"/><path d="M50.3,50.7c0-6.5-5.2-11.7-11.7-11.7h-0.5v1.1c-4,1.9-6.8,5.9-6.8,10.6c0,4.7,2.8,8.8,6.8,10.6v1.1h0.5       C45.1,62.4,50.3,57.2,50.3,50.7z" fill="#F46708"/></g><g><circle cx="38.2" cy="50.7" fill="#FFB600" r="11.7"/><path d="M29.9,42.4c4.6-4.6,12-4.6,16.5,0c4.6,4.6,4.6,12,0,16.5" fill="#FFA10B"/></g><g><circle cx="38.2" cy="50.7" fill="#F79200" r="7.3"/><path d="M30.9,50.7c0-4,3.3-7.3,7.3-7.3c4,0,7.3,3.3,7.3,7.3" fill="#FFA10B"/></g><g><path d="M38.5,41.7c0,0.2-0.1,0.3-0.3,0.3l0,0c-0.2,0-0.3-0.1-0.3-0.3v-1c0-0.2,0.1-0.3,0.3-0.3l0,0       c0.2,0,0.3,0.1,0.3,0.3V41.7z" fill="#FFC200"/><path d="M38.5,60.7c0,0.2-0.1,0.3-0.3,0.3l0,0c-0.2,0-0.3-0.1-0.3-0.3v-1c0-0.2,0.1-0.3,0.3-0.3l0,0       c0.2,0,0.3,0.1,0.3,0.3V60.7z" fill="#FFC200"/></g><g><path d="M44.8,44.6c-0.1,0.1-0.3,0.1-0.4,0l0,0c-0.1-0.1-0.1-0.3,0-0.4l0.7-0.7c0.1-0.1,0.3-0.1,0.4,0l0,0       c0.1,0.1,0.1,0.3,0,0.4L44.8,44.6z" fill="#FFC200"/><path d="M31.3,58c-0.1,0.1-0.3,0.1-0.4,0l0,0c-0.1-0.1-0.1-0.3,0-0.4l0.7-0.7c0.1-0.1,0.3-0.1,0.4,0l0,0       c0.1,0.1,0.1,0.3,0,0.4L31.3,58z" fill="#FFC200"/></g><g><path d="M47.2,51c-0.2,0-0.3-0.1-0.3-0.3l0,0c0-0.2,0.1-0.3,0.3-0.3h1c0.2,0,0.3,0.1,0.3,0.3l0,0       c0,0.2-0.1,0.3-0.3,0.3H47.2z" fill="#FFC200"/><path d="M28.2,51c-0.2,0-0.3-0.1-0.3-0.3l0,0c0-0.2,0.1-0.3,0.3-0.3h1c0.2,0,0.3,0.1,0.3,0.3l0,0       c0,0.2-0.1,0.3-0.3,0.3H28.2z" fill="#FFC200"/></g><g><path d="M44.4,57.2c-0.1-0.1-0.1-0.3,0-0.4l0,0c0.1-0.1,0.3-0.1,0.4,0l0.7,0.7c0.1,0.1,0.1,0.3,0,0.4l0,0       c-0.1,0.1-0.3,0.1-0.4,0L44.4,57.2z" fill="#FFC200"/><path d="M30.9,43.8c-0.1-0.1-0.1-0.3,0-0.4l0,0c0.1-0.1,0.3-0.1,0.4,0l0.7,0.7c0.1,0.1,0.1,0.3,0,0.4l0,0       c-0.1,0.1-0.3,0.1-0.4,0L30.9,43.8z" fill="#FFC200"/></g><path d="M37.5,47.3H39c0.3,0,0.6,0.3,0.6,0.6c0,0.6,0.5,1.2,1.2,1.2c0.6,0,1.2-0.5,1.2-1.2      c0-1.5-1.1-2.7-2.5-2.9v-0.5c0-0.6-0.5-1.2-1.2-1.2s-1.2,0.5-1.2,1.2V45c-1.4,0.2-2.5,1.4-2.5,2.9v1.5c0,1.6,1.3,2.9,2.9,2.9H39      c0.3,0,0.6,0.3,0.6,0.6v1.5c0,0.3-0.3,0.6-0.6,0.6h-1.5c-0.3,0-0.6-0.3-0.6-0.6c0-0.6-0.5-1.2-1.2-1.2c-0.6,0-1.2,0.5-1.2,1.2      c0,1.5,1.1,2.7,2.5,2.9v0.5c0,0.6,0.5,1.2,1.2,1.2s1.2-0.5,1.2-1.2v-0.5c1.4-0.2,2.5-1.4,2.5-2.9v-1.5c0-1.6-1.3-2.9-2.9-2.9      h-1.5c-0.3,0-0.6-0.3-0.6-0.6v-1.5C36.8,47.5,37.1,47.3,37.5,47.3z" fill="#F79200"/><path d="M37.5,46.8H39c0.3,0,0.6,0.3,0.6,0.6c0,0.6,0.5,1.2,1.2,1.2c0.6,0,1.2-0.5,1.2-1.2      c0-1.5-1.1-2.7-2.5-2.9V44c0-0.6-0.5-1.2-1.2-1.2s-1.2,0.5-1.2,1.2v0.5c-1.4,0.2-2.5,1.4-2.5,2.9v1.5c0,1.6,1.3,2.9,2.9,2.9H39      c0.3,0,0.6,0.3,0.6,0.6V54c0,0.3-0.3,0.6-0.6,0.6h-1.5c-0.3,0-0.6-0.3-0.6-0.6c0-0.6-0.5-1.2-1.2-1.2c-0.6,0-1.2,0.5-1.2,1.2      c0,1.5,1.1,2.7,2.5,2.9v0.5c0,0.6,0.5,1.2,1.2,1.2s1.2-0.5,1.2-1.2v-0.5c1.4-0.2,2.5-1.4,2.5-2.9v-1.5c0-1.6-1.3-2.9-2.9-2.9      h-1.5c-0.3,0-0.6-0.3-0.6-0.6v-1.5C36.8,47.1,37.1,46.8,37.5,46.8z" fill="#FFB600"/><g><path d="M39.4,44.5V44c0-0.6-0.5-1.2-1.2-1.2h0v4H39c0.3,0,0.6,0.3,0.6,0.6c0,0.6,0.5,1.2,1.2,1.2       c0.6,0,1.2-0.5,1.2-1.2C41.9,46,40.8,44.7,39.4,44.5z" fill="#FFC200"/><path d="M39.4,57.4v-0.5c1.4-0.2,2.5-1.4,2.5-2.9v-1.5c0-1.6-1.3-2.9-2.9-2.9h-0.7v2.3H39       c0.3,0,0.6,0.3,0.6,0.6V54c0,0.3-0.3,0.6-0.6,0.6h-0.7v4h0C38.9,58.6,39.4,58.1,39.4,57.4z" fill="#FFC200"/></g></g></g></g></g></svg>