<?xml version="1.0" ?><!DOCTYPE svg  PUBLIC '-//W3C//DTD SVG 1.1//EN'  'http://www.w3.org/Graphics/SVG/1.1/DTD/svg11.dtd'><svg enable-background="new 0 0 64 64" height="64px" version="1.1" viewBox="0 0 64 64" width="64px" xml:space="preserve" xmlns="http://www.w3.org/2000/svg" xmlns:xlink="http://www.w3.org/1999/xlink"><g id="BG"/><g id="TEXT"/><g id="ARTWORK"><g><path d="M46.1,9.4l-5.4,5.4c-0.9-0.4-1.7-0.8-2.6-1.1L38,6c0-3.3-2.7-6-6-6c-3.3,0-6,2.7-6,6v7.7    c-0.9,0.3-1.8,0.7-2.6,1.1l-5.4-5.4C15.5,7,11.7,7,9.4,9.4s-2.4,6.2,0,8.5l5.4,5.4c-0.4,0.9-0.8,1.7-1.1,2.6L6,26    c-3.3,0-6,2.7-6,6c0,3.3,2.7,6,6,6l7.7,0c0.3,0.9,0.7,1.8,1.1,2.6l-5.4,5.4c-2.4,2.4-2.4,6.2,0,8.5c2.4,2.4,6.2,2.4,8.5,0l5.4-5.4    c0.9,0.4,1.7,0.8,2.6,1.1l0,7.7c0,3.3,2.7,6,6,6c1.7,0,3.2-0.7,4.3-1.8c1.1-1.1,1.8-2.6,1.8-4.3l0-7.7c0.9-0.3,1.8-0.7,2.6-1.1    l5.4,5.4c2.4,2.4,6.2,2.4,8.5,0c2.4-2.4,2.4-6.2,0-8.5l-5.4-5.4c0.4-0.9,0.8-1.7,1.1-2.6H58c1.7,0,3.2-0.7,4.3-1.8    c1.1-1.1,1.8-2.6,1.8-4.3c0-3.3-2.7-6-6-6l-7.7,0c-0.3-0.9-0.7-1.8-1.1-2.6l5.4-5.4c2.4-2.4,2.4-6.2,0-8.5C52.3,7,48.5,7,46.1,9.4    z" fill="#1174EA"/><path d="M58,26l-7.7,0c-0.3-0.9-0.7-1.8-1.1-2.6l5.4-5.4c2.4-2.4,2.4-6.2,0-8.5c-2.4-2.4-6.2-2.4-8.5,0l-5.4,5.4    c-0.9-0.4-1.7-0.8-2.6-1.1L38,6c0-3.3-2.7-6-6-6l0,0v64c1.7,0,3.2-0.7,4.3-1.8c1.1-1.1,1.8-2.6,1.8-4.3l0-7.7    c0.9-0.3,1.8-0.7,2.6-1.1l5.4,5.4c2.4,2.4,6.2,2.4,8.5,0c2.4-2.4,2.4-6.2,0-8.5l-5.4-5.4c0.4-0.9,0.8-1.7,1.1-2.6H58    c1.7,0,3.2-0.7,4.3-1.8c1.1-1.1,1.8-2.6,1.8-4.3C64,28.7,61.3,26,58,26z" fill="#154ECE"/><path d="M58,26l-7.7,0c-0.3-0.9-0.7-1.8-1.1-2.6l5.4-5.4c2.4-2.4,2.4-6.2,0-8.5c-2.4-2.4-6.2-2.4-8.5,0l-5.4,5.4    c-0.9-0.4-1.7-0.8-2.6-1.1L38,6c0-3.3-2.7-6-6-6c-3.3,0-6,2.7-6,6v7.7c-0.9,0.3-1.8,0.7-2.6,1.1l-5.4-5.4C15.5,7,11.7,7,9.4,9.4    l17.5,17.5l10.2,10.2l17.5,17.5c2.4-2.4,2.4-6.2,0-8.5l-5.4-5.4c0.4-0.9,0.8-1.7,1.1-2.6H58c1.7,0,3.2-0.7,4.3-1.8    c1.1-1.1,1.8-2.6,1.8-4.3C64,28.7,61.3,26,58,26z" fill="#003DAA"/><path d="M38.1,18.8c-0.7-0.4-1.7-0.4-2.5,0c-0.8,0.4-1.2,1.3-1.2,2.1v8.2L32,30.5l-2.4-1.4v-8.2    c0-0.9-0.5-1.7-1.2-2.1c-0.7-0.4-1.7-0.4-2.5,0c-3.8,2.2-6.1,6.2-6.1,10.6c0,4,2,7.7,5.2,10l0.1,3.7c0,0.5,0.3,1,0.8,1.3    c1.9,1.1,4,1.6,6.1,1.6h0l0,0c2.1,0,4.2-0.6,6.1-1.6c0.5-0.3,0.7-0.7,0.8-1.3l0.1-3.7c3.3-2.3,5.2-6.1,5.2-10    C44.2,25,41.9,21,38.1,18.8z" fill="#FFFFFF"/><path d="M25.9,18.8c-1.5,0.9-2.7,2-3.7,3.4l4.7,4.7l10.2,10.2l2.1,2.1c3.1-2.3,5-6,5-9.8c0-4.3-2.3-8.4-6.1-10.6    c-0.7-0.4-1.7-0.4-2.5,0c-0.8,0.4-1.2,1.3-1.2,2.1v8.2L32,30.5l-2.4-1.4v-8.2c0-0.9-0.5-1.7-1.2-2.1    C27.6,18.4,26.6,18.4,25.9,18.8z" fill="#DCEAE9"/><path d="M38.1,18.8c-0.7-0.4-1.7-0.4-2.5,0c-0.8,0.4-1.2,1.3-1.2,2.1v8.2L32,30.5v0V46h0l0,0    c2.1,0,4.2-0.6,6.1-1.6c0.5-0.3,0.7-0.7,0.8-1.3l0.1-3.7c3.3-2.3,5.2-6.1,5.2-10C44.2,25,41.9,21,38.1,18.8z" fill="#DCEAE9"/><path d="M32,32l5.1,5.1l2.1,2.1c1.6-1.1,2.8-2.6,3.7-4.3c0,0,0-0.1,0-0.1c0.2-0.4,0.4-0.8,0.5-1.2    c0-0.1,0.1-0.2,0.1-0.3c0.1-0.3,0.2-0.7,0.3-1C44,32,44,31.8,44,31.6c0-0.2,0.1-0.5,0.1-0.8c0.1-0.5,0.1-1,0.1-1.5    c0-4.3-2.3-8.4-6.1-10.6c-0.7-0.4-1.7-0.4-2.5,0c-0.8,0.4-1.2,1.3-1.2,2.1v8.2L32,30.5v0V32z" fill="#D1E0DF"/></g></g></svg>