<?xml version="1.0" ?><!DOCTYPE svg  PUBLIC '-//W3C//DTD SVG 1.1//EN'  'http://www.w3.org/Graphics/SVG/1.1/DTD/svg11.dtd'><svg enable-background="new 0 0 64 64" height="64px" version="1.1" viewBox="0 0 64 64" width="64px" xml:space="preserve" xmlns="http://www.w3.org/2000/svg" xmlns:xlink="http://www.w3.org/1999/xlink"><g id="BG"/><g id="TEXT"/><g id="ARTWORK"><g><circle cx="35.8" cy="32" fill="#E00B58" r="27.3"/><path d="M16.5,12.7c-10.7,10.7-10.7,28,0,38.6c10.7,10.7,28,10.7,38.6,0L16.5,12.7z" fill="#AA0B5B"/><path d="M35.8,59.3C20.7,59.3,8.5,47.1,8.5,32S20.7,4.7,35.8,4.7" fill="#AA0B5B"/><path d="M16.5,12.7C16.5,12.7,16.5,12.7,16.5,12.7c-0.6,0.6-1.2,1.3-1.8,2c-0.3,0.3-0.5,0.7-0.7,1    c-0.3,0.4-0.6,0.8-0.9,1.2c-0.3,0.4-0.5,0.8-0.7,1.2c-0.2,0.4-0.4,0.7-0.6,1.1c-0.2,0.4-0.4,0.8-0.6,1.3c-0.2,0.4-0.4,0.8-0.5,1.2    c-0.2,0.4-0.3,0.8-0.5,1.2c-0.2,0.4-0.3,0.9-0.4,1.3c-0.1,0.4-0.2,0.8-0.3,1.2c-0.1,0.4-0.2,0.9-0.3,1.3c-0.1,0.5-0.2,1-0.2,1.4    c-0.1,0.4-0.1,0.8-0.2,1.2c-0.1,0.9-0.1,1.8-0.1,2.6c0,0,0,0.1,0,0.1c0,0.9,0,1.8,0.1,2.6c0,0.4,0.1,0.8,0.2,1.2    c0.1,0.5,0.1,0.9,0.2,1.4c0.1,0.5,0.2,0.9,0.3,1.4c0.1,0.4,0.2,0.8,0.3,1.2c0.1,0.4,0.3,0.9,0.5,1.3c0.1,0.4,0.3,0.8,0.4,1.2    c0.2,0.4,0.4,0.8,0.6,1.2c0.2,0.4,0.4,0.8,0.6,1.2c0.2,0.4,0.4,0.8,0.7,1.1c0.2,0.4,0.5,0.8,0.7,1.2c0.3,0.4,0.6,0.8,0.9,1.2    c0.2,0.3,0.5,0.6,0.7,0.9c0.6,0.7,1.2,1.4,1.8,2c0,0,0,0,0,0c0.6,0.6,1.3,1.2,2,1.8c0.3,0.3,0.7,0.5,1,0.7    c0.4,0.3,0.8,0.6,1.2,0.9c0.4,0.3,0.8,0.5,1.2,0.7c0.4,0.2,0.7,0.4,1.1,0.6c0.4,0.2,0.8,0.4,1.2,0.6c0.4,0.2,0.8,0.4,1.2,0.5    c0.4,0.2,0.8,0.3,1.2,0.5c0.4,0.2,0.9,0.3,1.3,0.5c0.4,0.1,0.8,0.2,1.3,0.3c0.4,0.1,0.9,0.2,1.3,0.3c0.5,0.1,1,0.2,1.5,0.2    c0.4,0.1,0.8,0.1,1.2,0.2c0.9,0.1,1.8,0.1,2.7,0.1V32L16.5,12.7z" fill="#890E63"/><path d="M32.9,19.6c1.6,0,2.9-1.3,2.9-2.9V2.9c0-1.6-1.3-2.9-2.9-2.9c-17.6,0-32,14.4-32,32c0,17.6,14.4,32,32,32    c1.6,0,2.9-1.3,2.9-2.9V47.3c0-1.6-1.3-2.9-2.9-2.9c-6.8,0-12.4-5.6-12.4-12.4S26.1,19.6,32.9,19.6z" fill="#93BD46"/><path d="M32.9,44.4c-6.8,0-12.4-5.6-12.4-12.4s5.6-12.4,12.4-12.4c1.6,0,2.9-1.3,2.9-2.9v-12    C20.7,4.7,8.5,16.9,8.5,32s12.2,27.3,27.3,27.3v-12C35.8,45.7,34.5,44.4,32.9,44.4z" fill="#78AA43"/><g><path d="M23.3,24.2c1.4-1.7,3.1-3,5.2-3.7V0.3C26.7,0.6,25,1,23.3,1.5V24.2z" fill="#78AA43"/><path d="M23.3,24.2C23.3,24.2,23.3,24.2,23.3,24.2c0.3-0.4,0.7-0.8,1-1.1c0,0,0.1-0.1,0.2-0.1     c0.3-0.3,0.7-0.6,1.1-0.9c0,0,0.1-0.1,0.1-0.1c0.9-0.6,1.8-1.1,2.8-1.5c0,0,0,0,0,0V5.7c-1.8,0.5-3.5,1.2-5.2,2V24.2z" fill="#5F8D3D"/><path d="M28.4,43.6c-2-0.8-3.8-2.1-5.2-3.7v22.7c1.7,0.5,3.4,0.9,5.2,1.2V43.6z" fill="#78AA43"/><path d="M28.4,43.6C28.4,43.6,28.4,43.6,28.4,43.6c-1-0.4-1.9-0.9-2.8-1.5c0,0-0.1-0.1-0.1-0.1     c-0.4-0.3-0.7-0.6-1.1-0.9c-0.1,0-0.1-0.1-0.2-0.1c-0.4-0.4-0.7-0.7-1-1.1c0,0,0,0,0,0v16.5c1.6,0.8,3.4,1.5,5.2,2V43.6z" fill="#5F8D3D"/></g><g><path d="M41.9,27.7c-0.5,0-0.8,0.4-0.8,0.8v2.6h-3v-2.6c0-0.5-0.4-0.8-0.8-0.8c-0.5,0-0.8,0.4-0.8,0.8V32     c0,0.5,0.4,0.8,0.8,0.8H41v2.6c0,0.5,0.4,0.8,0.8,0.8c0.5,0,0.8-0.4,0.8-0.8v-7C42.7,28.1,42.3,27.7,41.9,27.7z" fill="#890E63"/><path d="M34.4,27.7h-4.7c-0.5,0-0.8,0.4-0.8,0.8c0,0.5,0.4,0.8,0.8,0.8h3.9v1.8h-3.9c-0.5,0-0.8,0.4-0.8,0.8v3.5     c0,0.5,0.4,0.8,0.8,0.8h4.7c0.5,0,0.8-0.4,0.8-0.8c0-0.5-0.4-0.8-0.8-0.8h-3.9v-1.8h3.9c0.5,0,0.8-0.4,0.8-0.8v-3.5     C35.2,28.1,34.9,27.7,34.4,27.7z" fill="#E00B58"/></g><g><g><g><path d="M36.4,13c0,0.3-0.3,0.6-0.6,0.6l0,0c-0.3,0-0.6-0.3-0.6-0.6v-2.2c0-0.3,0.3-0.6,0.6-0.6l0,0       c0.3,0,0.6,0.3,0.6,0.6V13z" fill="#890E63"/><path d="M35.8,10.2c-0.3,0-0.6,0.3-0.6,0.6V13c0,0.3,0.3,0.6,0.6,0.6V10.2z" fill="#5F8D3D"/><path d="M36.4,53.2c0,0.3-0.3,0.6-0.6,0.6l0,0c-0.3,0-0.6-0.3-0.6-0.6V51c0-0.3,0.3-0.6,0.6-0.6l0,0       c0.3,0,0.6,0.3,0.6,0.6V53.2z" fill="#890E63"/><path d="M35.8,50.4c-0.3,0-0.6,0.3-0.6,0.6v2.2c0,0.3,0.3,0.6,0.6,0.6V50.4z" fill="#5F8D3D"/></g><g><path d="M49.6,19c-0.2,0.2-0.6,0.2-0.8,0l0,0c-0.2-0.2-0.2-0.6,0-0.8l1.6-1.6c0.2-0.2,0.6-0.2,0.8,0l0,0       c0.2,0.2,0.2,0.6,0,0.8L49.6,19z" fill="#890E63"/><path d="M21.2,47.4c-0.2,0.2-0.6,0.2-0.8,0l0,0c-0.2-0.2-0.2-0.6,0-0.8l1.6-1.6c0.2-0.2,0.6-0.2,0.8,0l0,0       c0.2,0.2,0.2,0.6,0,0.8L21.2,47.4z" fill="#93BD46"/></g><g><path d="M54.8,32.6c-0.3,0-0.6-0.3-0.6-0.6l0,0c0-0.3,0.3-0.6,0.6-0.6H57c0.3,0,0.6,0.3,0.6,0.6l0,0       c0,0.3-0.3,0.6-0.6,0.6H54.8z" fill="#890E63"/><path d="M14.6,32.6c-0.3,0-0.6-0.3-0.6-0.6l0,0c0-0.3,0.3-0.6,0.6-0.6h2.2c0.3,0,0.6,0.3,0.6,0.6l0,0       c0,0.3-0.3,0.6-0.6,0.6H14.6z" fill="#93BD46"/></g><g><path d="M48.8,45.8c-0.2-0.2-0.2-0.6,0-0.8l0,0c0.2-0.2,0.6-0.2,0.8,0l1.6,1.6c0.2,0.2,0.2,0.6,0,0.8l0,0       c-0.2,0.2-0.6,0.2-0.8,0L48.8,45.8z" fill="#890E63"/><path d="M20.4,17.4c-0.2-0.2-0.2-0.6,0-0.8l0,0c0.2-0.2,0.6-0.2,0.8,0l1.6,1.6c0.2,0.2,0.2,0.6,0,0.8l0,0       c-0.2,0.2-0.6,0.2-0.8,0L20.4,17.4z" fill="#93BD46"/></g></g><g><g><path d="M26.8,15.3c0.2,0.3,0.1,0.7-0.2,0.8l0,0c-0.3,0.2-0.7,0.1-0.8-0.2L24.7,14c-0.2-0.3-0.1-0.7,0.2-0.8       l0,0c0.3-0.2,0.7-0.1,0.8,0.2L26.8,15.3z" fill="#93BD46"/><path d="M46.9,50c0.2,0.3,0.1,0.7-0.2,0.8l0,0c-0.3,0.2-0.7,0.1-0.8-0.2l-1.1-1.9c-0.2-0.3-0.1-0.7,0.2-0.8l0,0       c0.3-0.2,0.7-0.1,0.8,0.2L46.9,50z" fill="#890E63"/></g><g><path d="M41.3,13.8c-0.1,0.3-0.4,0.5-0.7,0.4l0,0c-0.3-0.1-0.5-0.4-0.4-0.7l0.6-2.1c0.1-0.3,0.4-0.5,0.7-0.4       l0,0c0.3,0.1,0.5,0.4,0.4,0.7L41.3,13.8z" fill="#890E63"/><path d="M30.9,52.6c-0.1,0.3-0.4,0.5-0.7,0.4l0,0c-0.3-0.1-0.5-0.4-0.4-0.7l0.6-2.1c0.1-0.3,0.4-0.5,0.7-0.4       l0,0c0.3,0.1,0.5,0.4,0.4,0.7L30.9,52.6z" fill="#93BD46"/></g><g><path d="M52.5,23c-0.3,0.2-0.6,0.1-0.8-0.2l0,0c-0.2-0.3-0.1-0.7,0.2-0.8l1.9-1.1c0.3-0.2,0.7-0.1,0.8,0.2l0,0       c0.2,0.3,0.1,0.7-0.2,0.8L52.5,23z" fill="#890E63"/><path d="M17.7,43.1c-0.3,0.2-0.7,0.1-0.8-0.2l0,0c-0.2-0.3-0.1-0.7,0.2-0.8L19,41c0.3-0.2,0.7-0.1,0.8,0.2l0,0       c0.2,0.3,0.1,0.7-0.2,0.8L17.7,43.1z" fill="#93BD46"/></g><g><path d="M54,37.5c-0.3-0.1-0.5-0.4-0.4-0.7l0,0c0.1-0.3,0.4-0.5,0.7-0.4l2.1,0.6c0.3,0.1,0.5,0.4,0.4,0.7l0,0       c-0.1,0.3-0.4,0.5-0.7,0.4L54,37.5z" fill="#890E63"/><path d="M15.2,27.1c-0.3-0.1-0.5-0.4-0.4-0.7l0,0c0.1-0.3,0.4-0.5,0.7-0.4l2.1,0.6c0.3,0.1,0.5,0.4,0.4,0.7l0,0       c-0.1,0.3-0.4,0.5-0.7,0.4L15.2,27.1z" fill="#93BD46"/></g></g><g><g><path d="M19.6,22c0.3,0.2,0.4,0.5,0.2,0.8l0,0c-0.2,0.3-0.5,0.4-0.8,0.2l-1.9-1.1c-0.3-0.2-0.4-0.5-0.2-0.8l0,0       c0.2-0.3,0.5-0.4,0.8-0.2L19.6,22z" fill="#93BD46"/><path d="M54.4,42.1c0.3,0.2,0.4,0.5,0.2,0.8l0,0c-0.2,0.3-0.5,0.4-0.8,0.2L51.9,42c-0.3-0.2-0.4-0.5-0.2-0.8       l0,0c0.2-0.3,0.5-0.4,0.8-0.2L54.4,42.1z" fill="#890E63"/></g><g><path d="M31.4,13.5c0.1,0.3-0.1,0.6-0.4,0.7l0,0c-0.3,0.1-0.6-0.1-0.7-0.4l-0.6-2.1c-0.1-0.3,0.1-0.6,0.4-0.7       l0,0c0.3-0.1,0.6,0.1,0.7,0.4L31.4,13.5z" fill="#93BD46"/><path d="M41.8,52.3c0.1,0.3-0.1,0.6-0.4,0.7l0,0c-0.3,0.1-0.6-0.1-0.7-0.4l-0.6-2.1c-0.1-0.3,0.1-0.6,0.4-0.7       l0,0c0.3-0.1,0.6,0.1,0.7,0.4L41.8,52.3z" fill="#890E63"/></g><g><path d="M45.8,15.9c-0.2,0.3-0.5,0.4-0.8,0.2l0,0c-0.3-0.2-0.4-0.5-0.2-0.8l1.1-1.9c0.2-0.3,0.5-0.4,0.8-0.2       l0,0c0.3,0.2,0.4,0.5,0.2,0.8L45.8,15.9z" fill="#890E63"/><path d="M25.7,50.6c-0.2,0.3-0.5,0.4-0.8,0.2l0,0c-0.3-0.2-0.4-0.5-0.2-0.8l1.1-1.9c0.2-0.3,0.5-0.4,0.8-0.2       l0,0c0.3,0.2,0.4,0.5,0.2,0.8L25.7,50.6z" fill="#93BD46"/></g><g><path d="M54.3,27.7c-0.3,0.1-0.6-0.1-0.7-0.4l0,0c-0.1-0.3,0.1-0.7,0.4-0.7l2.1-0.6c0.3-0.1,0.6,0.1,0.7,0.4       l0,0c0.1,0.3-0.1,0.6-0.4,0.7L54.3,27.7z" fill="#890E63"/><path d="M15.5,38.1c-0.3,0.1-0.7-0.1-0.7-0.4l0,0c-0.1-0.3,0.1-0.6,0.4-0.7l2.1-0.6c0.3-0.1,0.6,0.1,0.7,0.4       l0,0c0.1,0.3-0.1,0.6-0.4,0.7L15.5,38.1z" fill="#93BD46"/></g></g></g></g></g></svg>