<?xml version="1.0" ?><!DOCTYPE svg  PUBLIC '-//W3C//DTD SVG 1.1//EN'  'http://www.w3.org/Graphics/SVG/1.1/DTD/svg11.dtd'><svg enable-background="new 0 0 64 64" height="64px" version="1.1" viewBox="0 0 64 64" width="64px" xml:space="preserve" xmlns="http://www.w3.org/2000/svg" xmlns:xlink="http://www.w3.org/1999/xlink"><g id="BG"/><g id="TEXT"/><g id="ARTWORK"><g><g><g><path d="M52.8,14.8H19.6c-1.8,0-3.3,1.5-3.3,3.3v42.6c0,1.8,1.5,3.3,3.3,3.3h33.1c1.8,0,3.3-1.5,3.3-3.3V18.1      C56,16.3,54.6,14.8,52.8,14.8z" fill="#890E63"/><g><path d="M45.2,20.5c-0.9,0-1.6-0.7-1.6-1.6V7c0-2.1-1.7-3.8-3.8-3.8h-7.1c-2.1,0-3.8,1.7-3.8,3.8v11.8       c0,0.9-0.7,1.6-1.6,1.6c-0.9,0-1.6-0.7-1.6-1.6V7c0-3.9,3.2-7,7-7h7.1c3.9,0,7,3.2,7,7v11.8C46.8,19.8,46.1,20.5,45.2,20.5z" fill="#890E63"/></g><path d="M44.4,14.8H11.2c-1.8,0-3.3,1.5-3.3,3.3v42.6c0,1.8,1.5,3.3,3.3,3.3h33.1c1.8,0,3.3-1.5,3.3-3.3V18.1      C47.6,16.3,46.2,14.8,44.4,14.8z" fill="#CE0B5A"/><path d="M44.4,14.8H11.2c-1.8,0-3.3,1.5-3.3,3.3v4.5L47.4,62c0.2-0.4,0.3-0.8,0.3-1.3V18.1      C47.6,16.3,46.2,14.8,44.4,14.8z" fill="#BA0859"/><g><path d="M36.7,20.5c-0.9,0-1.6-0.7-1.6-1.6V7c0-2.1-1.7-3.8-3.8-3.8h-7.1c-2.1,0-3.8,1.7-3.8,3.8v11.8       c0,0.9-0.7,1.6-1.6,1.6c-0.9,0-1.6-0.7-1.6-1.6V7c0-3.9,3.2-7,7-7h7.1c3.9,0,7,3.2,7,7v11.8C38.4,19.8,37.6,20.5,36.7,20.5z" fill="#ED247F"/></g><path d="M32,0c-2.2,0.2-4.1,1.4-5.3,3.2h4.6c0.2,0,0.5,0,0.7,0.1c0.2,0,0.4-0.1,0.7-0.1h4.6      C36.1,1.5,34.2,0.2,32,0z" fill="#CE0B5A"/></g><g><path d="M35.3,45.3c0-4.1-3.3-7.4-7.4-7.4c0,0-0.1,0-0.1,0c0,0-0.1,0-0.1,0c-1.6,0-2.9-1.3-2.9-2.9      c0-1.6,1.3-2.9,2.9-2.9h4.5c1.3,0,2.3-1,2.3-2.3c0-1.3-1-2.3-2.3-2.3h-1.5v-0.7c0-1.3-1-2.3-2.3-2.3s-2.3,1-2.3,2.3v0.9      c-3.3,0.7-5.8,3.7-5.8,7.3c0,4.1,3.3,7.4,7.4,7.4c0,0,0.1,0,0.1,0c0,0,0.1,0,0.1,0c1.6,0,2.9,1.3,2.9,2.9s-1.3,2.9-2.9,2.9h-4.5      c-1.3,0-2.3,1-2.3,2.3c0,1.3,1,2.3,2.3,2.3h1.5v0.7c0,1.3,1,2.3,2.3,2.3s2.3-1,2.3-2.3v-0.9C32.8,51.8,35.3,48.8,35.3,45.3z" fill="#BA0859"/></g><path d="M34.3,49c0.6-1.1,1-2.4,1-3.7c0-4.1-3.3-7.4-7.4-7.4c0,0-0.1,0-0.1,0c0,0-0.1,0-0.1,0     c-1.6,0-2.9-1.3-2.9-2.9c0-1.6,1.3-2.9,2.9-2.9h4.5c1.3,0,2.3-1,2.3-2.3c0-1.3-1-2.3-2.3-2.3h-1.5v-0.7c0-1.3-1-2.3-2.3-2.3     s-2.3,1-2.3,2.3v0.9c-3.3,0.7-5.8,3.7-5.8,7.2l7.5,7.5c0,0,0,0,0,0c0,0,0.1,0,0.1,0c1.6,0,2.9,1.3,2.9,2.9c0,0,0,0.1,0,0.1     L34.3,49z" fill="#890E63"/><circle cx="18.9" cy="18.8" fill="#CE0B5A" r="0.8"/><circle cx="36.8" cy="18.8" fill="#CE0B5A" r="0.8"/></g><g><path d="M49.3,19.6h-3.4c-2.7,0-4.9,2.2-4.9,4.9v3.4c0,2.6,2.1,4.8,4.8,4.9l1.4,1.9c0.1,0.1,0.2,0.2,0.4,0.2     s0.3-0.1,0.4-0.2l1.4-1.9c2.6-0.1,4.8-2.2,4.8-4.9v-3.4C54.2,21.8,52,19.6,49.3,19.6z" fill="#FFFFFF"/><path d="M45.9,19.6c-2.7,0-4.9,2.2-4.9,4.9v3.4c0,2.6,2.1,4.8,4.8,4.9l1.4,1.9c0.1,0.1,0.2,0.2,0.4,0.2V19.6H45.9     z" fill="#D1E0DF"/><path d="M50.2,27.7l-1.4-1.4l1.4-1.4c0.3-0.3,0.3-0.9,0-1.2s-0.9-0.3-1.2,0l-1.4,1.4l-1.4-1.4     c-0.3-0.3-0.9-0.3-1.2,0c-0.3,0.3-0.3,0.9,0,1.2l1.4,1.4L45,27.7c-0.3,0.3-0.3,0.9,0,1.2c0.3,0.3,0.9,0.3,1.2,0l1.4-1.4l1.4,1.4     c0.3,0.3,0.9,0.3,1.2,0S50.6,28.1,50.2,27.7z" fill="#890E63"/><path d="M46.2,23.7c-0.3-0.3-0.9-0.3-1.2,0c-0.3,0.3-0.3,0.9,0,1.2l1.4,1.4L45,27.7c-0.3,0.3-0.3,0.9,0,1.2     c0.3,0.3,0.9,0.3,1.2,0l1.4-1.4v-2.4L46.2,23.7z" fill="#BA0859"/></g></g></g></svg>