<?xml version="1.0" ?><!DOCTYPE svg  PUBLIC '-//W3C//DTD SVG 1.1//EN'  'http://www.w3.org/Graphics/SVG/1.1/DTD/svg11.dtd'><svg enable-background="new 0 0 64 64" height="64px" version="1.1" viewBox="0 0 64 64" width="64px" xml:space="preserve" xmlns="http://www.w3.org/2000/svg" xmlns:xlink="http://www.w3.org/1999/xlink"><g id="BG"/><g id="TEXT"/><g id="ARTWORK"><g><g><g><path d="M10.8,11.6c0.4-0.2,0.8-0.3,1.2-0.3l-10.5,0c-1.7,0-1.5,1.3-1.5,3s1.3,3,3,3h7.1l-0.7-1.3      C8.6,14.3,9.2,12.4,10.8,11.6z" fill="#78AA43"/></g><path d="M0.4,12.9c-0.1,0-0.3,0-0.4,0c0,0.4,0,0.9,0,1.4c0,1.7,1.3,3,3,3h7.1l-0.7-1.3c-0.5-1-0.4-2.1,0.1-3     L0.4,12.9z" fill="#5F8D3D"/><path d="M25.2,33.4L16.8,17l-2-4c-0.8-1.6-2.7-2.2-4.3-1.4c-1.6,0.8-2.2,2.7-1.4,4.3l0.7,1.3l9.7,19.1     c0.6,1.1,1.7,1.8,2.9,1.8c0.5,0,1-0.1,1.5-0.3C25.4,37,26,35,25.2,33.4z" fill="#293F51"/><path d="M16.8,17l-2-4c-0.8-1.6-2.7-2.2-4.3-1.4c-0.1,0.1-0.2,0.1-0.3,0.2l0.4,0.9l12.8,25.2     c0.1,0,0.2-0.1,0.3-0.1c1.6-0.8,2.2-2.7,1.4-4.3L16.8,17z" fill="#1B2B3A"/><path d="M63.5,23c-0.6-1-1.6-1.5-2.7-1.5H17.1c-1.1,0-2.2,0.6-2.7,1.5c-0.6,1-0.6,2.1-0.1,3.1l10.4,20.4     c0.5,1.1,1.7,1.8,2.9,1.8h22.9c1.2,0,2.3-0.7,2.9-1.8l10.4-20.4C64.2,25.1,64.1,24,63.5,23z M55.5,27.9l-1.9,3.8H24.8     c-0.1,0-0.3,0-0.4,0l-1.9-3.8H55.5z M29.5,41.9l-1.9-3.8h22.8l-1.9,3.8H29.5z" fill="#293F51"/><path d="M63.5,24.7c-0.6-1-1.6-1.5-2.7-1.5H17.1c-1.1,0-2.2,0.6-2.7,1.5c-0.2,0.3-0.3,0.5-0.3,0.8     c0.1,0.2,0.1,0.4,0.2,0.6l10.4,20.4c0.5,1.1,1.7,1.8,2.9,1.8h22.9c1.2,0,2.3-0.7,2.9-1.8l10.4-20.4c0.1-0.2,0.2-0.4,0.2-0.6     C63.8,25.2,63.7,25,63.5,24.7z M49.5,39.8l-1.1,3.8H29.5l-1.1-3.8l-0.9-1.7h22.8L49.5,39.8z M54.7,29.6l-1.1,3.8H24.8     c-0.1,0-0.3,0-0.4,0l-1.1-3.8l-0.9-1.7h33.2L54.7,29.6z" fill="#1B2B3A"/><circle cx="12" cy="14.4" fill="#78AA43" r="1.1"/><path d="M12,13.3c-0.6,0-1.1,0.5-1.1,1.1h2.2C13.1,13.8,12.6,13.3,12,13.3z" fill="#5F8D3D"/><g><g><g><circle cx="27.7" cy="56.3" fill="#78AA43" r="6.4"/><path d="M32.2,51.8c-2.5-2.5-6.5-2.5-9,0l9,9C34.7,58.3,34.7,54.3,32.2,51.8z" fill="#5F8D3D"/></g></g><g><g><circle cx="50.3" cy="56.3" fill="#78AA43" r="6.4"/><path d="M54.8,51.8c-2.5-2.5-6.5-2.5-9,0l9,9C57.3,58.3,57.3,54.3,54.8,51.8z" fill="#5F8D3D"/></g></g></g><g><path d="M28.9,61.5c0,0.7-0.5,1.2-1.2,1.2h-8.2c-0.7,0-1.2-0.5-1.2-1.2l0,0c0-0.7,0.5-1.2,1.2-1.2h8.2      C28.4,60.3,28.9,60.8,28.9,61.5L28.9,61.5z" fill="#78AA43"/><path d="M12.4,61.5c0,0.7-0.5,1.2-1.2,1.2h-0.6c-0.7,0-1.2-0.5-1.2-1.2l0,0c0-0.7,0.5-1.2,1.2-1.2h0.6      C11.9,60.3,12.4,60.8,12.4,61.5L12.4,61.5z" fill="#78AA43"/><path d="M16.7,61.5c0,0.7-0.5,1.2-1.2,1.2H15c-0.7,0-1.2-0.5-1.2-1.2l0,0c0-0.7,0.5-1.2,1.2-1.2h0.6      C16.2,60.3,16.7,60.8,16.7,61.5L16.7,61.5z" fill="#78AA43"/></g><g><path d="M51.5,61.5c0,0.7-0.5,1.2-1.2,1.2h-8.2c-0.7,0-1.2-0.5-1.2-1.2l0,0c0-0.7,0.5-1.2,1.2-1.2h8.2      C51,60.3,51.5,60.8,51.5,61.5L51.5,61.5z" fill="#78AA43"/><path d="M39.3,61.5c0,0.7-0.5,1.2-1.2,1.2h-0.6c-0.7,0-1.2-0.5-1.2-1.2l0,0c0-0.7,0.5-1.2,1.2-1.2h0.6      C38.8,60.3,39.3,60.8,39.3,61.5L39.3,61.5z" fill="#78AA43"/></g></g><g><path d="M40.7,1.3h-3.4c-2.7,0-4.9,2.2-4.9,4.9v3.4c0,2.6,2.1,4.8,4.8,4.9l1.4,1.9c0.1,0.1,0.2,0.2,0.4,0.2     s0.3-0.1,0.4-0.2l1.4-1.9c2.6-0.1,4.8-2.2,4.8-4.9V6.2C45.5,3.5,43.3,1.3,40.7,1.3z" fill="#78AA43"/><path d="M37.3,1.3c-2.7,0-4.9,2.2-4.9,4.9v3.4c0,2.6,2.1,4.8,4.8,4.9l1.4,1.9c0.1,0.1,0.2,0.2,0.4,0.2V1.3H37.3z" fill="#5F8D3D"/><path d="M41.8,7.2h-2v-2c0-0.5-0.4-0.8-0.8-0.8s-0.8,0.4-0.8,0.8v2h-2c-0.5,0-0.8,0.4-0.8,0.8s0.4,0.8,0.8,0.8h2     v2c0,0.5,0.4,0.8,0.8,0.8s0.8-0.4,0.8-0.8v-2h2c0.5,0,0.8-0.4,0.8-0.8S42.3,7.2,41.8,7.2z" fill="#FFFFFF"/><path d="M38.1,5.2v2h-2c-0.5,0-0.8,0.4-0.8,0.8s0.4,0.8,0.8,0.8h2v2c0,0.5,0.4,0.8,0.8,0.8V4.3     C38.5,4.3,38.1,4.7,38.1,5.2z" fill="#D1E0DF"/></g></g></g></svg>