<?xml version="1.0" ?><!DOCTYPE svg  PUBLIC '-//W3C//DTD SVG 1.1//EN'  'http://www.w3.org/Graphics/SVG/1.1/DTD/svg11.dtd'><svg enable-background="new 0 0 64 64" height="64px" version="1.1" viewBox="0 0 64 64" width="64px" xml:space="preserve" xmlns="http://www.w3.org/2000/svg" xmlns:xlink="http://www.w3.org/1999/xlink"><g id="BG"/><g id="TEXT"/><g id="ARTWORK"><g><g><path d="M61.2,22.8c0,6.7-5.4,12.1-12.1,12.1H14.9c-6.7,0-12.1-5.4-12.1-12.1v-7.9c0-6.7,5.4-12.1,12.1-12.1h34.2     c6.7,0,12.1,5.4,12.1,12.1V22.8z" fill="#5F8D3D"/><path d="M61.2,20c0,6.7-5.4,12.1-12.1,12.1H14.9C8.2,32.1,2.8,26.7,2.8,20v-7.9C2.8,5.4,8.2,0,14.9,0h34.2     c6.7,0,12.1,5.4,12.1,12.1V20z" fill="#93BD46"/><path d="M61.2,20v-7.9C61.2,5.4,55.8,0,49.1,0H14.9c-2,0-4,0.5-5.6,1.4l30.7,30.7h9.2     C55.8,32.1,61.2,26.7,61.2,20z" fill="#78AA43"/><g><path d="M23.7,8.8h-7.1c-0.7,0-1.3,0.6-1.3,1.3v11.8c0,0.7,0.6,1.3,1.3,1.3h7.1c0.7,0,1.3-0.6,1.3-1.3      c0,0,0,0,0,0s0,0,0,0v-4.1c0-0.1,0-0.2,0-0.3c0,0,0-0.1,0-0.1c0,0,0-0.1,0-0.1s0-0.1-0.1-0.1c0,0,0-0.1-0.1-0.1      c0-0.1-0.1-0.1-0.2-0.2L23.8,16l0.8-0.8c0.3-0.3,0.4-0.6,0.4-0.9c0,0,0,0,0,0v-4.1C25,9.4,24.5,8.8,23.7,8.8z M22.4,13.7      l-1.1,1.1H18v-3.4h4.5V13.7z M18,17.5h3.6l0.9,0.9v2.3H18V17.5z" fill="#FFFFFF"/><path d="M23.7,8.8h-7l2.6,2.6h3.1v2.3L22,14.2l1.8,1.8l0.8-0.8c0.3-0.3,0.4-0.6,0.4-0.9c0,0,0,0,0,0v-4.1      C25,9.4,24.5,8.8,23.7,8.8z" fill="#D1E0DF"/><path d="M35.5,8.8c-0.7,0-1.3,0.6-1.3,1.3v10.5h-4.5V10.1c0-0.7-0.6-1.3-1.3-1.3c-0.7,0-1.3,0.6-1.3,1.3v11.8      c0,0.7,0.6,1.3,1.3,1.3h7.1c0.7,0,1.3-0.6,1.3-1.3V10.1C36.9,9.4,36.3,8.8,35.5,8.8z" fill="#FFFFFF"/><path d="M35.5,8.8c-0.7,0-1.3,0.6-1.3,1.3v10.5h-4.5V10.1c0-0.7-0.6-1.3-1.3-1.3c-0.7,0-1.3,0.6-1.3,1.3v9.2l4,4      h4.4c0.7,0,1.3-0.6,1.3-1.3V10.1C36.9,9.4,36.3,8.8,35.5,8.8z" fill="#D1E0DF"/><path d="M48,9c-0.6-0.4-1.4-0.2-1.8,0.5l-2.4,4.1l-2.4-4.1C41,8.8,40.2,8.6,39.6,9c-0.6,0.4-0.8,1.2-0.5,1.8      l3.4,5.7v5.4c0,0.7,0.6,1.3,1.3,1.3c0.7,0,1.3-0.6,1.3-1.3v-5.4l3.4-5.7C48.8,10.2,48.6,9.4,48,9z" fill="#D1E0DF"/></g></g><g><g><path clip-rule="evenodd" d="M37.2,29.6h-1.5c-0.1-1.2-1.1-2.1-2.3-2.1H31      c-0.7,0-1.3,0.3-1.7,0.8c-0.3-0.9-1.2-1.6-2.2-1.6h-2.4c-1.3,0-2.3,1-2.3,2.3v-7.5c0-1.3-1-2.3-2.3-2.3h-2.4      c-1.3,0-2.3,1-2.3,2.3v10.9v5.6v2.7L10,46.3c-1.1,1.1-1.1,3,0,4.1l6,6c0,0,0.1,0.1,0.1,0.1c0.5,0.6,1.3,1,2.2,1h19      c1.6,0,2.9-1.3,2.9-2.9V32.5C40.1,30.9,38.8,29.6,37.2,29.6z" fill="#FFDFC5" fill-rule="evenodd"/><path clip-rule="evenodd" d="M37.2,31.9h-1.5c-0.1-1.2-1.1-2.1-2.3-2.1H31      c-0.7,0-1.3,0.3-1.7,0.8C29,29.7,28.1,29,27.1,29h-2.4c-1.3,0-2.3,1-2.3,2.3v-2.3v-5.2c0-1.3-1-2.3-2.3-2.3h-2.4      c-1.3,0-2.3,1-2.3,2.3v8.6v2.3v3.3v2.3v0.5v2.3L10,48.6c-0.3,0.3-0.5,0.6-0.6,0.9c0.1,0.3,0.3,0.6,0.6,0.9l6,6      c0,0,0.1,0.1,0.1,0.1c0.5,0.6,1.3,1,2.2,1h19c1.6,0,2.9-1.3,2.9-2.9V34.8C40.1,33.2,38.8,31.9,37.2,31.9z" fill="#F9CCAA" fill-rule="evenodd"/><path clip-rule="evenodd" d="M36.8,57.2l3.3-1.2V34.8c0-1.6-1.3-2.9-2.9-2.9h-1.5      c-0.1-1.2-1.1-2.1-2.3-2.1H31c-0.7,0-1.3,0.3-1.7,0.8C29,29.7,28.1,29,27.1,29h-2.4c-1.3,0-2.3,1-2.3,2.3v-2.3v-5.2      c0-1.3-1-2.3-2.3-2.3h-2.4c-1.3,0-2.3,1-2.3,2.3v8.6v2.3v1L36.8,57.2z" fill="#F4BE9A" fill-rule="evenodd"/></g><path clip-rule="evenodd" d="M15.4,38.1v2.3v0.5v2.3L10,48.6c-0.3,0.3-0.5,0.6-0.6,0.9     c0.1,0.3,0.3,0.6,0.6,0.9l5.5,5.5V37.4h-0.1V38.1z" fill="#F4BE9A" fill-rule="evenodd"/><g><path clip-rule="evenodd" d="M40.1,60.7v-5.1H15.4v5.1c0,1.8,1.9,3.3,4.3,3.3h16.2      C38.2,64,40.1,62.5,40.1,60.7z" fill="#78AA43" fill-rule="evenodd"/><path clip-rule="evenodd" d="M37.6,63.7c1.5-0.5,2.6-1.7,2.6-3v-5.1H35v5.1      C35,62,36.1,63.2,37.6,63.7z" fill="#5F8D3D" fill-rule="evenodd"/></g></g></g></g></svg>