<?xml version="1.0" ?><!DOCTYPE svg  PUBLIC '-//W3C//DTD SVG 1.1//EN'  'http://www.w3.org/Graphics/SVG/1.1/DTD/svg11.dtd'><svg enable-background="new 0 0 64 64" height="64px" version="1.1" viewBox="0 0 64 64" width="64px" xml:space="preserve" xmlns="http://www.w3.org/2000/svg" xmlns:xlink="http://www.w3.org/1999/xlink"><g id="BG"/><g id="TEXT"/><g id="ARTWORK"><g><path d="M64,48.6c0,2-1.6,3.6-3.6,3.6H3.6c-2,0-3.6-1.6-3.6-3.6V17.4c0-2,1.6-3.6,3.6-3.6h56.7    c2,0,3.6,1.6,3.6,3.6V48.6z" fill="#154ECE"/><path d="M64,46.6c0,2-1.6,3.6-3.6,3.6H3.6c-2,0-3.6-1.6-3.6-3.6V15.4c0-2,1.6-3.6,3.6-3.6h56.7    c2,0,3.6,1.6,3.6,3.6V46.6z" fill="#1174EA"/><path d="M36.9,50.2h23.5c2,0,3.6-1.6,3.6-3.6V15.4c0-2-1.6-3.6-3.6-3.6H3.6c-1.4,0-2.6,0.8-3.2,2L36.9,50.2z" fill="#154ECE"/><rect fill="#1B2B3A" height="14.3" width="64" y="18.7"/><polygon fill="#0D1923" points="19.7,33 64,33 64,18.7 5.4,18.7   "/><g><path d="M13.1,46.6c-0.7,0.7-1.9,0.7-2.6,0L6.8,43c-0.7-0.7-0.7-1.9,0-2.6l3.6-3.6c0.7-0.7,1.9-0.7,2.6,0l3.6,3.6     c0.7,0.7,0.7,1.9,0,2.6L13.1,46.6z" fill="#FFC200"/><path d="M18.5,46.6c-0.7,0.7-1.9,0.7-2.6,0L12.3,43c-0.7-0.7-0.7-1.9,0-2.6l3.6-3.6c0.7-0.7,1.9-0.7,2.6,0     l3.6,3.6c0.7,0.7,0.7,1.9,0,2.6L18.5,46.6z" fill="#154ECE"/><path d="M14.5,38.2l-2.2,2.2c-0.7,0.7-0.7,1.9,0,2.6l2.2,2.2l2.2-2.2c0.7-0.7,0.7-1.9,0-2.6L14.5,38.2z" fill="#5F8D3D"/></g><path d="M58.3,37.2c0,0.5-0.4,1-1,1H38c-0.5,0-1-0.4-1-1l0,0c0-0.5,0.4-1,1-1h19.3C57.9,36.2,58.3,36.7,58.3,37.2    L58.3,37.2z" fill="#1174EA"/><path d="M58.3,41.7c0,0.5-0.4,1-1,1H38c-0.5,0-1-0.4-1-1l0,0c0-0.5,0.4-1,1-1h19.3C57.9,40.7,58.3,41.2,58.3,41.7    L58.3,41.7z" fill="#1174EA"/><path d="M58.3,46.2c0,0.5-0.4,1-1,1h-6.1c-0.5,0-1-0.4-1-1l0,0c0-0.5,0.4-1,1-1h6.1C57.9,45.2,58.3,45.7,58.3,46.2    L58.3,46.2z" fill="#1174EA"/><path d="M48.2,46.2c0,0.5-0.4,1-1,1h-0.8c-0.5,0-1-0.4-1-1l0,0c0-0.5,0.4-1,1-1h0.8C47.8,45.2,48.2,45.7,48.2,46.2    L48.2,46.2z" fill="#1174EA"/></g></g></svg>