<?xml version="1.0" ?><!DOCTYPE svg  PUBLIC '-//W3C//DTD SVG 1.1//EN'  'http://www.w3.org/Graphics/SVG/1.1/DTD/svg11.dtd'><svg enable-background="new 0 0 64 64" height="64px" version="1.1" viewBox="0 0 64 64" width="64px" xml:space="preserve" xmlns="http://www.w3.org/2000/svg" xmlns:xlink="http://www.w3.org/1999/xlink"><g id="BG"/><g id="TEXT"/><g id="ARTWORK"><g><g><path d="M45.2,38.2l-0.3-0.1c-3-0.9-4.9-4.6-5.5-10.4l2.3-1.9c1.3-1.1,2.1-2.6,2.1-4.3v-9.7c0-0.2,0-0.3,0-0.5     c0-0.2,0-0.4,0-0.7C43.8,4.8,38.5,0,32,0c-6.5,0-11.8,4.8-11.8,10.7c0,0.2,0,0.4,0,0.7c0,0.2,0,0.3,0,0.5v9.7     c0,1.7,0.7,3.3,2.1,4.3l2.3,1.9c-0.6,5.8-2.6,9.5-5.6,10.4l-0.2,0.1c-9.9,3-16,8.9-16,15.5c0,0,0,0.1,0,0.1c0,0,0,0.1,0,0.1     C2.9,58.8,13.1,64,32,64c18.8,0,29-5.1,29.1-10c0-0.1,0-0.2,0-0.3C61.1,47.1,55,41.2,45.2,38.2z" fill="#1174EA"/><path d="M61.1,54c0-0.1,0-0.2,0-0.3c0-6.6-6.1-12.5-16-15.5l-0.3-0.1c-3-0.9-4.9-4.6-5.5-10.4l2.3-1.9     c1.3-1.1,2.1-2.6,2.1-4.3v-9.7c0-0.2,0-0.3,0-0.5c0-0.2,0-0.4,0-0.7C43.8,4.8,38.5,0,32,0c-6.5,0-11.8,4.8-11.8,10.7     c0,0.2,0,0.4,0,0.7c0,0.2,0,0.3,0,0.5v9.7c0,1.7,0.7,3.3,2.1,4.3l2.3,1.9c-0.6,5.8-2.6,9.5-5.6,10.4l-0.2,0.1     c-3.5,1-6.4,2.4-8.9,4.1L31.6,64c0.1,0,0.2,0,0.3,0C50.8,64,61,58.9,61.1,54z" fill="#154ECE"/><path d="M45.2,38.2l-0.3-0.1c-3-0.9-4.9-4.6-5.5-10.4l2.3-1.9c1.3-1.1,2.1-2.6,2.1-4.3v-9.7c0-0.2,0-0.3,0-0.5     c0-0.2,0-0.4,0-0.7C43.8,4.8,38.5,0,32,0v64c18.8,0,29-5.1,29.1-10c0-0.1,0-0.2,0-0.3C61.1,47.1,55,41.2,45.2,38.2z" fill="#2229AF"/></g><path d="M45.2,38.2l-0.3-0.1c-3-0.9-4.9-4.6-5.5-10.4l2.3-1.9c1.3-1.1,2.1-2.6,2.1-4.3v-9.7c0-0.2,0-0.3,0-0.5    c0-0.2,0-0.4,0-0.7C43.8,4.8,38.5,0,32,0c-6.5,0-11.8,4.8-11.8,10.7c0,0.2,0,0.4,0,0.7c0,0.2,0,0.3,0,0.5v9.7    c0,1.7,0.7,3.3,2.1,4.3l2.3,1.9c0,0.2,0,0.4-0.1,0.6l31.4,31.4c3.4-1.7,5.1-3.8,5.2-5.8c0-0.1,0-0.2,0-0.3    C61.1,47.1,55,41.2,45.2,38.2z" fill="#2229AF"/></g></g></svg>