<?xml version="1.0" ?><!DOCTYPE svg  PUBLIC '-//W3C//DTD SVG 1.1//EN'  'http://www.w3.org/Graphics/SVG/1.1/DTD/svg11.dtd'><svg enable-background="new 0 0 64 64" height="64px" version="1.1" viewBox="0 0 64 64" width="64px" xml:space="preserve" xmlns="http://www.w3.org/2000/svg" xmlns:xlink="http://www.w3.org/1999/xlink"><g id="BG"/><g id="TEXT"/><g id="ARTWORK"><g><g><path d="M45.1,7.5c0.3-4,3.7-7.2,7.8-7.2c4.3,0,7.8,3.5,7.8,7.7c2,0.9,3.4,3,3.4,5.3v0.5c0,3.2-2.6,5.9-5.9,5.9     H45.5c-3.2,0-5.9-2.6-5.9-5.9v-0.5C39.6,10.3,42,7.7,45.1,7.5z" fill="#D1E0DF"/><path d="M52.8,2.9c4.3,0,7.8,3.5,7.8,7.7c1.7,0.8,2.9,2.4,3.3,4.3c-0.5,2.7-2.9,4.8-5.8,4.8H45.5     c-2.9,0-5.3-2.1-5.8-4.8c0.5-2.6,2.7-4.6,5.3-4.8C45.4,6.1,48.7,2.9,52.8,2.9z" fill="#B3C6C4"/></g><g><path d="M29.7,3.8c-0.2-2-1.8-3.5-3.8-3.5c-2.1,0-3.8,1.7-3.8,3.7c-1,0.5-1.6,1.4-1.6,2.6v0.2     c0,1.6,1.3,2.8,2.8,2.8h6.1c1.6,0,2.8-1.3,2.8-2.8V6.7C32.3,5.2,31.1,3.9,29.7,3.8z" fill="#D1E0DF"/><path d="M25.9,1.6c-2.1,0-3.8,1.7-3.8,3.7c-0.8,0.4-1.4,1.2-1.6,2.1c0.2,1.3,1.4,2.3,2.8,2.3h6.1     c1.4,0,2.6-1,2.8-2.3C32,6.1,31,5.2,29.7,5.1C29.5,3.1,27.9,1.6,25.9,1.6z" fill="#B3C6C4"/></g><g><path d="M60.6,58.5H49c-1.4,0-2.6,1.1-2.6,2.6c0,1.4,1.2,2.6,2.6,2.6h11.6c1.4,0,2.6-1.1,2.6-2.6     C63.1,59.6,62,58.5,60.6,58.5z" fill="#93BD46"/><path d="M14.1,58.5H2.6c-1.4,0-2.6,1.1-2.6,2.6c0,1.4,1.1,2.6,2.6,2.6h11.6c1.4,0,2.6-1.1,2.6-2.6     C16.7,59.6,15.5,58.5,14.1,58.5z" fill="#93BD46"/></g><path d="M48.1,26.7h-33c-4.8,0-8.6,3.9-8.6,8.6v24.4c0,2.1,1.7,3.9,3.9,3.9h42.6c2.1,0,3.9-1.7,3.9-3.9V35.4    C56.7,30.6,52.8,26.7,48.1,26.7z" fill="#FFC200"/><path d="M48.1,26.7h-33c-4.8,0-8.6,3.9-8.6,8.6v8.9c0,0,0,0,0,0h50.2c0,0,0,0,0,0c0,0,0,0,0,0v-8.9    C56.7,30.6,52.8,26.7,48.1,26.7z" fill="#FFA10B"/><g><path d="M59.7,34.4L54.4,15c-0.4-1.4-1.6-2.4-3.1-2.4H11.8c-1.4,0-2.7,1-3.1,2.4L3.3,34.7c-0.3,1-0.1,2,0.5,2.8     c0.6,0.8,1.5,1.3,2.5,1.3h50.2c0,0,0,0,0,0c1.8,0,3.2-1.4,3.2-3.2C59.9,35.1,59.8,34.7,59.7,34.4z" fill="#93BD46"/><path d="M56.7,38.8c1.8,0,3.2-1.4,3.2-3.2c0-0.4-0.1-0.8-0.2-1.2L54.4,15c-0.4-1.4-1.6-2.4-3.1-2.4H11.8     c-1.1,0-2,0.5-2.6,1.3L34,38.8H56.7C56.7,38.8,56.7,38.8,56.7,38.8z" fill="#78AA43"/><path d="M59.7,34.4L3.3,34.7c-0.3,1-0.1,2,0.5,2.8c0.6,0.8,1.5,1.3,2.5,1.3h50.2c0,0,0,0,0,0     c1.8,0,3.2-1.4,3.2-3.2C59.9,35.1,59.8,34.7,59.7,34.4z" fill="#78AA43"/><path d="M59.7,34.4l-29.8,0.2l4.2,4.2h22.6c0,0,0,0,0,0c1.8,0,3.2-1.4,3.2-3.2C59.9,35.1,59.8,34.7,59.7,34.4z" fill="#5F8D3D"/><path d="M48.4,34.4L45.3,15c-0.2-1.4-1-2.4-1.9-2.4H19.7c-0.9,0-1.6,1-1.9,2.4l-3.2,19.8c-0.2,1,0,2,0.3,2.8     c0.4,0.8,0.9,1.3,1.5,1.3h30.2c0,0,0,0,0,0c1.1,0,1.9-1.4,1.9-3.2C48.6,35.1,48.5,34.7,48.4,34.4z" fill="#B2DD54"/><path d="M48.6,35.6c0-0.4,0-0.8-0.1-1.2L45.3,15c-0.2-1.4-1-2.4-1.9-2.4H19.7c-0.9,0-1.6,1-1.9,2.4l-1.1,6.5     L34,38.8h12.6h0C47.7,38.8,48.6,37.3,48.6,35.6z" fill="#93BD46"/><path d="M48.6,35.6c0-0.4,0-0.8-0.1-1.1l-33.8,0.2l0,0.1c-0.2,1,0,2,0.3,2.8c0.4,0.8,0.9,1.3,1.5,1.3h30.2h0     C47.7,38.8,48.6,37.3,48.6,35.6z" fill="#93BD46"/><path d="M48.6,35.6c0-0.4,0-0.8-0.1-1.1l-18.6,0.1l4.2,4.2h12.6h0C47.7,38.8,48.6,37.3,48.6,35.6z" fill="#78AA43"/><path d="M38.5,34.4L37.2,15c-0.1-1.4-0.4-2.4-0.8-2.4h-9.7c-0.4,0-0.7,1-0.8,2.4l-1.3,19.8c-0.1,1,0,2,0.1,2.8     c0.1,0.8,0.4,1.3,0.6,1.3h12.3c0,0,0,0,0,0c0.4,0,0.8-1.4,0.8-3.2C38.5,35.1,38.5,34.7,38.5,34.4z" fill="#93BD46"/><path d="M38.5,35.6c0-0.4,0-0.8-0.1-1.2L37.2,15c-0.1-1.4-0.4-2.4-0.8-2.4h-9.7c-0.4,0-0.7,1-0.8,2.4l-1,14.8     l9.1,9.1h3.7h0C38.2,38.8,38.5,37.3,38.5,35.6z" fill="#78AA43"/><path d="M38.5,35.6c0-0.4,0-0.7,0-1.1l-13.8,0.1l0,0.1c-0.1,1,0,2,0.1,2.8c0.1,0.8,0.4,1.3,0.6,1.3h12.3h0     C38.2,38.8,38.5,37.3,38.5,35.6z" fill="#78AA43"/><path d="M38.5,34.5l-8.7,0.1l4.2,4.2h3.7h0c0.4,0,0.8-1.4,0.8-3.2C38.5,35.2,38.5,34.8,38.5,34.5z" fill="#5F8D3D"/></g><g><path d="M34.5,52.4c0,2.1-1.7,3.8-3.8,3.8h-16c-2.1,0-3.8-1.7-3.8-3.8V48c0-2.1,1.7-3.8,3.8-3.8h16     c2.1,0,3.8,1.7,3.8,3.8V52.4z" fill="#1174EA"/><path d="M11,52.4V48c0-2.1,1.7-3.8,3.8-3.8h16c2.1,0,3.8,1.7,3.8,3.8v4.4" fill="#154ECE"/></g><path d="M44.9,43.2c-3.4,0-6.1,2.7-6.1,6.1l-0.1,14.3l12.2,0.1L51,49.4C51,46,48.3,43.3,44.9,43.2z" fill="#AA0B5B"/><path d="M44.9,43.2c-3.4,0-6.1,2.7-6.1,6.1l0,6.3l8,8l4.2,0L51,49.4C51,46,48.3,43.3,44.9,43.2z" fill="#890E63"/><g><circle cx="46.9" cy="54.9" fill="#FFFFFF" r="1.7"/><path d="M48.1,56.1c0.6-0.6,0.6-1.7,0-2.4l-2.4,2.4C46.4,56.8,47.4,56.8,48.1,56.1z" fill="#D1E0DF"/></g><rect fill="#FFC200" height="1.6" width="27.7" x="9.2" y="49.4"/></g></g></svg>