<?xml version="1.0" ?><!DOCTYPE svg  PUBLIC '-//W3C//DTD SVG 1.1//EN'  'http://www.w3.org/Graphics/SVG/1.1/DTD/svg11.dtd'><svg enable-background="new 0 0 64 64" height="64px" version="1.1" viewBox="0 0 64 64" width="64px" xml:space="preserve" xmlns="http://www.w3.org/2000/svg" xmlns:xlink="http://www.w3.org/1999/xlink"><g id="BG"/><g id="TEXT"/><g id="ARTWORK"><g><g><path d="M55.9,3.3H8.1c-2.3,0-4.2,1.9-4.2,4.2v48.2c0,2.3,1.9,4.2,4.2,4.2h47.8c2.3,0,4.2-1.9,4.2-4.2V7.5     C60.1,5.2,58.2,3.3,55.9,3.3z" fill="#93BD46"/><path d="M50.2,9.9H13.8c-1.8,0-3.2,1.4-3.2,3.2v47.7c0,1.8,1.4,3.2,3.2,3.2h36.4c1.8,0,3.2-1.4,3.2-3.2V13.1     C53.4,11.3,52,9.9,50.2,9.9z" fill="#FFFFFF"/><path d="M50.2,9.9H13.8c-1.8,0-3.2,1.4-3.2,3.2v46.8h42.8V13.1C53.4,11.3,52,9.9,50.2,9.9z" fill="#EDF4F3"/><path d="M55.9,3.3H8.1c-2.3,0-4.2,1.9-4.2,4.2v3.8l48.6,48.6h3.3c2.3,0,4.2-1.9,4.2-4.2V7.5     C60.1,5.2,58.2,3.3,55.9,3.3z" fill="#78AA43"/><path d="M50.2,9.9H13.8c-1.8,0-3.2,1.4-3.2,3.2V18l42.8,42.8V13.1C53.4,11.3,52,9.9,50.2,9.9z" fill="#DCEAE9"/><g><path d="M23.4,21.6c0,1.3-1,2.3-2.3,2.3h-2.6c-1.3,0-2.3-1-2.3-2.3V19c0-1.3,1-2.3,2.3-2.3H21      c1.3,0,2.3,1,2.3,2.3V21.6z" fill="#BACECC"/><path d="M47.9,17.5c0,0.5-0.4,0.9-0.9,0.9H28.8c-0.5,0-0.9-0.4-0.9-0.9l0,0c0-0.5,0.4-0.9,0.9-0.9H47      C47.5,16.6,47.9,17,47.9,17.5L47.9,17.5z" fill="#BACECC"/><path d="M42.6,23c0,0.5-0.4,0.9-0.9,0.9h-4.6c-0.5,0-0.9-0.4-0.9-0.9l0,0c0-0.5,0.4-0.9,0.9-0.9h4.6      C42.2,22.1,42.6,22.5,42.6,23L42.6,23z" fill="#BACECC"/><path d="M34.3,23c0,0.5-0.4,0.9-0.9,0.9h-4.6c-0.5,0-0.9-0.4-0.9-0.9l0,0c0-0.5,0.4-0.9,0.9-0.9h4.6      C33.9,22.1,34.3,22.5,34.3,23L34.3,23z" fill="#BACECC"/></g><g><path d="M23.4,36.6c0,1.3-1,2.3-2.3,2.3h-2.6c-1.3,0-2.3-1-2.3-2.3V34c0-1.3,1-2.3,2.3-2.3H21      c1.3,0,2.3,1,2.3,2.3V36.6z" fill="#BACECC"/><path d="M47.9,32.6c0,0.5-0.4,0.9-0.9,0.9H28.8c-0.5,0-0.9-0.4-0.9-0.9l0,0c0-0.5,0.4-0.9,0.9-0.9H47      C47.5,31.7,47.9,32.1,47.9,32.6L47.9,32.6z" fill="#BACECC"/><path d="M42.6,38.1c0,0.5-0.4,0.9-0.9,0.9h-4.6c-0.5,0-0.9-0.4-0.9-0.9l0,0c0-0.5,0.4-0.9,0.9-0.9h4.6      C42.2,37.2,42.6,37.6,42.6,38.1L42.6,38.1z" fill="#BACECC"/><path d="M34.3,38.1c0,0.5-0.4,0.9-0.9,0.9h-4.6c-0.5,0-0.9-0.4-0.9-0.9l0,0c0-0.5,0.4-0.9,0.9-0.9h4.6      C33.9,37.2,34.3,37.6,34.3,38.1L34.3,38.1z" fill="#BACECC"/></g><g><path d="M23.4,51.7c0,1.3-1,2.3-2.3,2.3h-2.6c-1.3,0-2.3-1-2.3-2.3v-2.6c0-1.3,1-2.3,2.3-2.3H21      c1.3,0,2.3,1,2.3,2.3V51.7z" fill="#BACECC"/><path d="M47.9,47.7c0,0.5-0.4,0.9-0.9,0.9H28.8c-0.5,0-0.9-0.4-0.9-0.9l0,0c0-0.5,0.4-0.9,0.9-0.9H47      C47.5,46.7,47.9,47.2,47.9,47.7L47.9,47.7z" fill="#BACECC"/><path d="M42.6,53.1c0,0.5-0.4,0.9-0.9,0.9h-4.6c-0.5,0-0.9-0.4-0.9-0.9l0,0c0-0.5,0.4-0.9,0.9-0.9h4.6      C42.2,52.2,42.6,52.6,42.6,53.1L42.6,53.1z" fill="#BACECC"/><path d="M34.3,53.1c0,0.5-0.4,0.9-0.9,0.9h-4.6c-0.5,0-0.9-0.4-0.9-0.9l0,0c0-0.5,0.4-0.9,0.9-0.9h4.6      C33.9,52.2,34.3,52.6,34.3,53.1L34.3,53.1z" fill="#BACECC"/></g><g><g><path d="M19.8,22.1L19.8,22.1c-0.3,0-0.5-0.1-0.7-0.3l-1.9-1.9c-0.4-0.4-0.4-1,0-1.4c0.4-0.4,1-0.4,1.4,0       l1.2,1.2l5.2-5.2c0.4-0.4,1-0.4,1.4,0c0.4,0.4,0.4,1,0,1.4l-5.9,5.9C20.3,22,20,22.1,19.8,22.1z" fill="#F77308"/></g></g></g><path d="M43.7,3.3c0,1.8-1.5,3.3-3.3,3.3H23.7c-1.8,0-3.3-1.5-3.3-3.3l0,0c0-1.8,1.5-3.3,3.3-3.3h16.7    C42.2,0,43.7,1.5,43.7,3.3L43.7,3.3z" fill="#FFA10B"/><path d="M23.7,6.6h16.7c1.8,0,3.3-1.5,3.3-3.3H20.3C20.3,5.1,21.8,6.6,23.7,6.6z" fill="#F77308"/><g><g><circle cx="25.9" cy="3.3" fill="#FFFFFF" r="1.1"/><path d="M26.7,2.6c-0.4-0.4-1.1-0.4-1.5,0l1.5,1.5C27.1,3.6,27.1,3,26.7,2.6z" fill="#D1E0DF"/></g><g><circle cx="32" cy="3.3" fill="#FFFFFF" r="1.1"/><path d="M32.7,2.6c-0.4-0.4-1.1-0.4-1.5,0l1.5,1.5C33.2,3.6,33.2,3,32.7,2.6z" fill="#D1E0DF"/></g><g><circle cx="38.1" cy="3.3" fill="#FFFFFF" r="1.1"/><path d="M38.8,2.6c-0.4-0.4-1.1-0.4-1.5,0l1.5,1.5C39.2,3.6,39.2,3,38.8,2.6z" fill="#D1E0DF"/></g></g></g></g></svg>