<?xml version="1.0" ?><!DOCTYPE svg  PUBLIC '-//W3C//DTD SVG 1.1//EN'  'http://www.w3.org/Graphics/SVG/1.1/DTD/svg11.dtd'><svg enable-background="new 0 0 64 64" height="64px" version="1.1" viewBox="0 0 64 64" width="64px" xml:space="preserve" xmlns="http://www.w3.org/2000/svg" xmlns:xlink="http://www.w3.org/1999/xlink"><g id="BG"/><g id="TEXT"/><g id="ARTWORK"><g><path d="M54.6,9.4c-0.6-0.6-1.4-0.9-2.3-0.9h-2.2l-0.6-2.2c-0.2-0.8-0.8-1.5-1.5-2c-0.7-0.4-1.6-0.5-2.5-0.3    l-2.2,0.6l-1.1-1.9c-0.4-0.7-1.1-1.3-2-1.5S38.6,1,37.8,1.4l-1.9,1.1l-1.6-1.6c-1.3-1.3-3.3-1.3-4.6,0l-1.6,1.6l-1.9-1.1    c-0.7-0.4-1.6-0.5-2.5-0.3c-0.8,0.2-1.5,0.8-2,1.5l-1.1,1.9L18.5,4c-1.7-0.5-3.5,0.6-4,2.3l-0.6,2.2h-2.2c-1.8,0-3.2,1.5-3.2,3.2    v2.2l-2.2,0.6c-1.7,0.5-2.8,2.2-2.3,4l0.6,2.2l-1.9,1.1c-0.7,0.4-1.3,1.1-1.5,2S1,25.4,1.4,26.2l1.1,1.9l-1.6,1.6    c-1.3,1.3-1.3,3.3,0,4.6l1.6,1.6l-1.1,1.9c-0.4,0.7-0.5,1.6-0.3,2.5c0.2,0.8,0.8,1.5,1.5,2l1.9,1.1L4,45.5    c-0.2,0.8-0.1,1.7,0.3,2.5c0.4,0.7,1.1,1.3,2,1.5l2.2,0.6l0,2.2c0,0.9,0.3,1.7,0.9,2.3s1.4,0.9,2.3,0.9h2.2l0.6,2.2    c0.2,0.8,0.8,1.5,1.5,2c0.7,0.4,1.6,0.5,2.5,0.3l2.2-0.6l1.1,1.9c0.9,1.5,2.9,2.1,4.4,1.2l1.9-1.1l1.6,1.6c1.3,1.3,3.3,1.3,4.6,0    l1.6-1.6l1.9,1.1c1.3,0.8,2.9,0.5,3.9-0.5c0.2-0.2,0.4-0.4,0.5-0.7l1.1-1.9l2.2,0.6c0.8,0.2,1.7,0.1,2.5-0.3    c0.2-0.1,0.5-0.3,0.7-0.5c0.4-0.4,0.7-0.9,0.8-1.5l0.6-2.2h2.2c0.9,0,1.7-0.4,2.3-0.9c0.6-0.6,0.9-1.4,0.9-2.3l0-2.2l2.2-0.6    c0.6-0.1,1.1-0.4,1.5-0.8c0.2-0.2,0.4-0.4,0.5-0.7c0.4-0.7,0.5-1.6,0.3-2.5l-0.6-2.2l1.9-1.1c0.3-0.1,0.5-0.3,0.7-0.5    c1-1,1.3-2.6,0.5-3.9l-1.1-1.9l1.6-1.6c0.6-0.6,0.9-1.4,0.9-2.3s-0.3-1.7-0.9-2.3l-1.6-1.6l1.1-1.9c0.9-1.5,0.4-3.5-1.2-4.4    l-1.9-1.1l0.6-2.2c0.5-1.7-0.6-3.5-2.3-4l-2.2-0.6l0-2.2C55.6,10.8,55.2,10,54.6,9.4z" fill="#93BD46"/><path d="M50.1,8.4l-0.6-2.2c-0.2-0.8-0.8-1.5-1.5-2c-0.7-0.4-1.6-0.5-2.5-0.3l-2.2,0.6l-1.1-1.9    c-0.4-0.7-1.1-1.3-2-1.5S38.6,1,37.8,1.4l-1.9,1.1l-1.6-1.6c-1.3-1.3-3.3-1.3-4.6,0l-1.6,1.6l-1.9-1.1c-0.7-0.4-1.6-0.5-2.5-0.3    c-0.8,0.2-1.5,0.8-2,1.5l-1.1,1.9L18.5,4c-1.7-0.5-3.5,0.6-4,2.3l-0.6,2.2h-2.2c-1.8,0-3.2,1.5-3.2,3.2v2.2l-2.2,0.6    c-1.7,0.5-2.8,2.2-2.3,4l0.6,2.2l-1.9,1.1c-0.7,0.4-1.3,1.1-1.5,2S1,25.4,1.4,26.2l1.1,1.9l-1.6,1.6c-1.3,1.3-1.3,3.3,0,4.6    l1.6,1.6l-1.1,1.9c-0.4,0.7-0.5,1.6-0.3,2.5c0.2,0.8,0.8,1.5,1.5,2l1.9,1.1L4,45.5c-0.2,0.8-0.1,1.7,0.3,2.5    c0.4,0.7,1.1,1.3,2,1.5l2.2,0.6l0,2.2c0,0.9,0.3,1.7,0.9,2.3L54.6,9.4c-0.6-0.6-1.4-0.9-2.3-0.9H50.1z" fill="#78AA43"/><path d="M50.1,8.4l-0.6-2.2c-0.2-0.8-0.8-1.5-1.5-2c-0.7-0.4-1.6-0.5-2.5-0.3l-2.2,0.6l-1.1-1.9    c-0.4-0.7-1.1-1.3-2-1.5S38.6,1,37.8,1.4l-1.9,1.1l-1.6-1.6c-1.3-1.3-3.3-1.3-4.6,0l-1.6,1.6l-1.9-1.1c-0.7-0.4-1.6-0.5-2.5-0.3    c-0.8,0.2-1.5,0.8-2,1.5l-1.1,1.9L18.5,4c-1.7-0.5-3.5,0.6-4,2.3l-0.6,2.2h-2.2c-0.8,0-1.4,0.3-2,0.7l45.2,45.2    c0.4-0.5,0.7-1.2,0.7-2l0-2.2l2.2-0.6c0.6-0.1,1.1-0.4,1.5-0.8c0.2-0.2,0.4-0.4,0.5-0.7c0.4-0.7,0.5-1.6,0.3-2.5l-0.6-2.2l1.9-1.1    c0.3-0.1,0.5-0.3,0.7-0.5c1-1,1.3-2.6,0.5-3.9l-1.1-1.9l1.6-1.6c0.6-0.6,0.9-1.4,0.9-2.3s-0.3-1.7-0.9-2.3l-1.6-1.6l1.1-1.9    c0.9-1.5,0.4-3.5-1.2-4.4l-1.9-1.1l0.6-2.2c0.5-1.7-0.6-3.5-2.3-4l-2.2-0.6l0-2.2c0-0.9-0.3-1.7-0.9-2.3c-0.6-0.6-1.4-0.9-2.3-0.9    H50.1z" fill="#5F8D3D"/><path d="M10.8,8.6c-0.1,0-0.2,0-0.2,0.1c-0.1,0-0.3,0.1-0.4,0.2c0,0-0.1,0-0.1,0C9.9,8.9,9.8,9,9.7,9.1l22.6,22.6    L54.6,9.4c-0.6-0.6-1.4-0.9-2.3-0.9h-2.2l-0.6-2.2c-0.2-0.8-0.8-1.5-1.5-2c-0.7-0.4-1.6-0.5-2.5-0.3l-2.2,0.6l-1.1-1.9    c-0.4-0.7-1.1-1.3-2-1.5S38.6,1,37.8,1.4l-1.9,1.1l-1.6-1.6c-1.3-1.3-3.3-1.3-4.6,0l-1.6,1.6l-1.9-1.1c-0.7-0.4-1.6-0.5-2.5-0.3    c-0.8,0.2-1.5,0.8-2,1.5l-1.1,1.9L18.5,4c-1.7-0.5-3.5,0.6-4,2.3l-0.6,2.2h-2.2c-0.2,0-0.4,0-0.6,0.1C11,8.5,10.9,8.5,10.8,8.6z" fill="#6A9941"/><g><path d="M41.8,41.2c0-5.4-4.4-9.7-9.7-9.7c0,0-0.1,0-0.1,0c0,0-0.1,0-0.1,0c-2.1,0-3.7-1.7-3.7-3.7     s1.7-3.7,3.7-3.7h5.8c1.7,0,3-1.3,3-3c0-1.7-1.3-3-3-3h-2v-0.9c0-1.7-1.3-3-3-3s-3,1.3-3,3v1.1c-4.3,1-7.6,4.9-7.6,9.5     c0,5.4,4.4,9.7,9.7,9.7c0,0,0.1,0,0.1,0c0,0,0.1,0,0.1,0c2.1,0,3.7,1.7,3.7,3.7S34.2,45,32.1,45h-5.8c-1.7,0-3,1.3-3,3     c0,1.7,1.3,3,3,3h2v0.9c0,1.7,1.3,3,3,3s3-1.3,3-3v-1.1C38.6,49.7,41.8,45.9,41.8,41.2z" fill="#5F8D3D"/><path d="M41.8,38.7c0-5.4-4.4-9.7-9.7-9.7c0,0-0.1,0-0.1,0c0,0-0.1,0-0.1,0c-2.1,0-3.7-1.7-3.7-3.7     s1.7-3.7,3.7-3.7h5.8c1.7,0,3-1.3,3-3c0-1.7-1.3-3-3-3h-2v-0.9c0-1.7-1.3-3-3-3s-3,1.3-3,3v1.1c-4.3,1-7.6,4.9-7.6,9.5     c0,5.4,4.4,9.7,9.7,9.7c0,0,0.1,0,0.1,0c0,0,0.1,0,0.1,0c2.1,0,3.7,1.7,3.7,3.7s-1.7,3.7-3.7,3.7h-5.8c-1.7,0-3,1.3-3,3     c0,1.7,1.3,3,3,3h2v0.9c0,1.7,1.3,3,3,3s3-1.3,3-3v-1.1C38.6,47.2,41.8,43.4,41.8,38.7z" fill="#FFFFFF"/><g><path d="M32.2,29v6c2,0,3.7,1.7,3.7,3.7s-1.7,3.7-3.7,3.7v9.7c1.2-0.4,2.1-1.5,2.1-2.8v-1.1      c4.3-1,7.6-4.9,7.6-9.5C41.8,33.4,37.5,29,32.2,29z" fill="#D1E0DF"/><path d="M32.7,11.7c-0.2,0-0.4,0-0.6,0.1v9.8h5.6c1.7,0,3-1.3,3-3c0-1.7-1.3-3-3-3h-2v-0.9      C35.7,13,34.4,11.7,32.7,11.7z" fill="#D1E0DF"/></g></g></g></g></svg>