<?xml version="1.0" ?><!DOCTYPE svg  PUBLIC '-//W3C//DTD SVG 1.1//EN'  'http://www.w3.org/Graphics/SVG/1.1/DTD/svg11.dtd'><svg enable-background="new 0 0 64 64" height="64px" version="1.1" viewBox="0 0 64 64" width="64px" xml:space="preserve" xmlns="http://www.w3.org/2000/svg" xmlns:xlink="http://www.w3.org/1999/xlink"><g id="BG"/><g id="TEXT"/><g id="ARTWORK"><g><g><g><path d="M32.8,6.8c0,0.4-0.4,0.8-0.8,0.8l0,0c-0.4,0-0.8-0.4-0.8-0.8V3.9c0-0.4,0.4-0.8,0.8-0.8l0,0      c0.4,0,0.8,0.4,0.8,0.8V6.8z" fill="#78AA43"/><path d="M32.8,60.1c0,0.4-0.4,0.8-0.8,0.8l0,0c-0.4,0-0.8-0.4-0.8-0.8v-2.9c0-0.4,0.4-0.8,0.8-0.8l0,0      c0.4,0,0.8,0.4,0.8,0.8V60.1z" fill="#78AA43"/></g><g><path d="M50.4,14.8c-0.3,0.3-0.8,0.3-1.1,0l0,0c-0.3-0.3-0.3-0.8,0-1.1l2.1-2.1c0.3-0.3,0.8-0.3,1.1,0l0,0      c0.3,0.3,0.3,0.8,0,1.1L50.4,14.8z" fill="#78AA43"/><path d="M12.7,52.4c-0.3,0.3-0.8,0.3-1.1,0l0,0c-0.3-0.3-0.3-0.8,0-1.1l2.1-2.1c0.3-0.3,0.8-0.3,1.1,0l0,0      c0.3,0.3,0.3,0.8,0,1.1L12.7,52.4z" fill="#78AA43"/></g><g><path d="M57.2,32.8c-0.4,0-0.8-0.4-0.8-0.8l0,0c0-0.4,0.4-0.8,0.8-0.8h2.9c0.4,0,0.8,0.4,0.8,0.8l0,0      c0,0.4-0.4,0.8-0.8,0.8H57.2z" fill="#78AA43"/><path d="M3.9,32.8c-0.4,0-0.8-0.4-0.8-0.8l0,0c0-0.4,0.4-0.8,0.8-0.8h2.9c0.4,0,0.8,0.4,0.8,0.8l0,0      c0,0.4-0.4,0.8-0.8,0.8H3.9z" fill="#78AA43"/></g><g><path d="M49.2,50.4c-0.3-0.3-0.3-0.8,0-1.1l0,0c0.3-0.3,0.8-0.3,1.1,0l2.1,2.1c0.3,0.3,0.3,0.8,0,1.1l0,0      c-0.3,0.3-0.8,0.3-1.1,0L49.2,50.4z" fill="#78AA43"/><path d="M11.6,12.7c-0.3-0.3-0.3-0.8,0-1.1l0,0c0.3-0.3,0.8-0.3,1.1,0l2.1,2.1c0.3,0.3,0.3,0.8,0,1.1l0,0      c-0.3,0.3-0.8,0.3-1.1,0L11.6,12.7z" fill="#78AA43"/></g></g><g><path d="M63.1,29.6c-7.7-9.4-19-14.8-31.1-14.8S8.5,20.2,0.9,29.6c-1.1,1.4-1.1,3.4,0,4.8     c7.7,9.4,19,14.8,31.1,14.8s23.5-5.4,31.1-14.8C64.3,33,64.3,31,63.1,29.6z" fill="#ACD651"/><path d="M63.7,30.5c-0.1-0.3-0.3-0.6-0.5-0.9c-7.7-9.4-19-14.8-31.1-14.8c-5.1,0-10.1,1-14.8,2.8l29,29     c6.5-2.5,12.4-6.6,16.9-12.2c0.2-0.2,0.3-0.4,0.4-0.7C63.7,32.7,63.7,31.6,63.7,30.5z" fill="#78AA43"/><path d="M32,14.8c-12.1,0-23.5,5.4-31.1,14.8C0.3,30.3,0,31.1,0,32h64c0-0.9-0.3-1.7-0.9-2.4     C55.5,20.2,44.1,14.8,32,14.8z" fill="#78AA43"/><path d="M29.1,14.9c-0.4,0-0.9,0.1-1.3,0.1c-0.3,0-0.6,0.1-1,0.1c-0.4,0-0.7,0.1-1.1,0.1     c-0.4,0.1-0.7,0.1-1.1,0.2c-0.3,0.1-0.6,0.1-0.9,0.2c-0.4,0.1-0.8,0.2-1.2,0.3c-0.2,0-0.4,0.1-0.6,0.1c-1.7,0.4-3.3,0.9-4.9,1.6     c0,0,0,0,0,0L31.6,32h32.1c0-0.5,0-1,0-1.5c-0.1-0.1-0.1-0.3-0.2-0.4c-0.1-0.2-0.2-0.3-0.3-0.4c-7.7-9.4-19-14.8-31.1-14.8     c-0.7,0-1.4,0-2.1,0.1C29.6,14.9,29.4,14.9,29.1,14.9z" fill="#5F8D3D"/></g><circle cx="32" cy="32" fill="#1174EA" r="13.6"/><path d="M41.6,22.4c-5.3-5.3-14-5.3-19.3,0l19.3,19.3C47,36.3,47,27.7,41.6,22.4z" fill="#003DAA"/><g><path d="M39.4,29.7c-0.2-0.3-0.5-0.4-0.8-0.4H26.5L25.9,28l-0.6-1.2c-0.2-0.4-0.5-0.5-0.9-0.5l-0.9,0l0,0h-0.9     c-0.5,0-0.4,0.4-0.4,0.9c0,0.5,0.4,0.9,0.9,0.9h0.5h0.4l1.3,2.6c0,0,0,0,0,0l3,5.9c0.2,0.3,0.5,0.5,0.8,0.5h6.6     c0.3,0,0.7-0.2,0.8-0.5l3-5.9c0-0.1,0-0.1,0.1-0.2C39.5,30.2,39.5,29.9,39.4,29.7z M35,35.2h-5.5L29,34.1h6.6L35,35.2z      M36.5,32.2h-8.4c0,0-0.1,0-0.1,0l-0.2-0.3l-0.4-0.8h9.6L36.5,32.2z" fill="#FFFFFF"/><path d="M36.4,36.4l3-5.8c0-0.1,0-0.1,0.1-0.2c0.1-0.2,0-0.5-0.1-0.7c-0.2-0.3-0.5-0.4-0.8-0.4h-9.3l1.9,1.9h5.9     l-0.6,1.1h-4.3l1.9,1.9h1.5l-0.5,1L36.4,36.4z" fill="#D1E0DF"/><circle cx="29" cy="39.4" fill="#FFFFFF" r="1.8"/><circle cx="35.5" cy="39.4" fill="#FFFFFF" r="1.9"/></g></g></g></svg>