<?xml version="1.0" ?><!DOCTYPE svg  PUBLIC '-//W3C//DTD SVG 1.1//EN'  'http://www.w3.org/Graphics/SVG/1.1/DTD/svg11.dtd'><svg enable-background="new 0 0 64 64" height="64px" version="1.1" viewBox="0 0 64 64" width="64px" xml:space="preserve" xmlns="http://www.w3.org/2000/svg" xmlns:xlink="http://www.w3.org/1999/xlink"><g id="BG"/><g id="TEXT"/><g id="ARTWORK"><g><g><path d="M55,21.1L33.6,8.7c-1-0.6-2.2-0.6-3.1,0L9,21.1c-1,0.6-1.6,1.6-1.6,2.7v24.7c0,1.1,0.6,2.2,1.6,2.7     l21.4,12.4c0.5,0.3,1,0.4,1.6,0.4s1.1-0.1,1.6-0.4L55,51.2c1-0.6,1.6-1.6,1.6-2.7V23.8C56.5,22.7,55.9,21.7,55,21.1z" fill="#2291FF"/><path d="M55,21.1L33.6,8.7c-1-0.6-2.2-0.6-3.1,0L11.3,19.8l-3.8,3.8c0,0.1,0,0.1,0,0.2v1l34.1,34.1L55,51.2     c1-0.6,1.6-1.6,1.6-2.7V23.8C56.5,22.7,55.9,21.7,55,21.1z" fill="#1174EA"/><path d="M33.6,63.6L55,51.2c1-0.6,1.6-1.6,1.6-2.7V23.8c0-1.1-0.6-2.2-1.6-2.7L33.6,8.7c-0.5-0.3-1-0.4-1.6-0.4     V64C32.5,64,33.1,63.9,33.6,63.6z" fill="#154ECE"/><path d="M48.6,20.5l-7-4c-0.5-0.3-1.1-0.3-1.6,0c-0.5,0.3-0.8,0.8-0.8,1.4v23.7c0,0.6,0.3,1.1,0.8,1.4     c0.3,0.1,0.5,0.2,0.8,0.2c0.3,0,0.6-0.1,0.8-0.2l7-4c0.5-0.3,0.8-0.8,0.8-1.4V21.9C49.4,21.4,49.1,20.8,48.6,20.5z" fill="#2291FF"/><path d="M33.6,8.6c-1-0.6-2.2-0.6-3.1,0L9,21c-1,0.5-1.5,1.6-1.6,2.7c0,1.1,0.6,2.1,1.6,2.7l21.4,12.4     c0.5,0.3,1,0.4,1.6,0.4s1.1-0.1,1.6-0.4L55,26.3c1-0.5,1.5-1.6,1.6-2.7c0-1.1-0.6-2.1-1.6-2.7L33.6,8.6z" fill="#154ECE"/><path d="M33.6,0.4c-1-0.6-2.2-0.6-3.1,0L9,12.8c-1,0.5-1.5,1.6-1.6,2.7c0,1.1,0.6,2.1,1.6,2.7l21.4,12.4     c0.5,0.3,1,0.4,1.6,0.4s1.1-0.1,1.6-0.4L55,18.1c1-0.5,1.5-1.6,1.6-2.7c0-1.1-0.6-2.1-1.6-2.7L33.6,0.4z" fill="#CE0B5A"/><path d="M55,12.8L33.6,0.4c-1-0.6-2.2-0.6-3.1,0L9,12.8c-0.3,0.2-0.6,0.5-0.9,0.8c0.2,0.3,0.5,0.6,0.9,0.8     l21.4,12.4c0.5,0.3,1,0.4,1.6,0.4s1.1-0.1,1.6-0.4L55,14.3c0.3-0.2,0.6-0.5,0.9-0.8C55.6,13.3,55.3,13,55,12.8z" fill="#E00B58"/></g><path d="M37.7,10.8c-0.5-0.3-1.1-0.3-1.6,0l-7,4c-0.5,0.3-0.8,0.8-0.8,1.4c0,0.6,0.3,1.1,0.8,1.4l10.1,5.8v3.7    l3.2-1.9l0,0l7.1-4.1v-3.7L37.7,10.8z" fill="#2291FF"/><path d="M37.7,10.8c-0.5-0.3-1.1-0.3-1.6,0l-7,4c-0.5,0.3-0.8,0.8-0.8,1.4c0,0.6,0.3,1.1,0.8,1.4l10.1,5.8    l10.3-5.9L37.7,10.8z" fill="#1174EA"/></g></g></svg>