<?xml version="1.0" ?><!DOCTYPE svg  PUBLIC '-//W3C//DTD SVG 1.1//EN'  'http://www.w3.org/Graphics/SVG/1.1/DTD/svg11.dtd'><svg enable-background="new 0 0 64 64" height="64px" version="1.1" viewBox="0 0 64 64" width="64px" xml:space="preserve" xmlns="http://www.w3.org/2000/svg" xmlns:xlink="http://www.w3.org/1999/xlink"><g id="BG"/><g id="TEXT"/><g id="ARTWORK"><g><g><path d="M34.9,52.9c0,1.6-1.3,2.9-2.9,2.9l0,0c-1.6,0-2.9-1.3-2.9-2.9v-6.5c0-1.6,1.3-2.9,2.9-2.9l0,0     c1.6,0,2.9,1.3,2.9,2.9V52.9z" fill="#2229AF"/><path d="M37.3,52.5H26.7c-2.4,0-4.4,2-4.4,4.4c0,1.1,0.9,2,2,2h15.5c1.1,0,2-0.9,2-2     C41.7,54.5,39.7,52.5,37.3,52.5z" fill="#2229AF"/></g><path d="M64,42.8c0,2.3-1.9,4.2-4.2,4.2H4.2C1.9,47,0,45.1,0,42.8V9.3C0,7,1.9,5.1,4.2,5.1h55.6    C62.1,5.1,64,7,64,9.3V42.8z" fill="#154ECE"/><path d="M39.7,47h20.1c2.3,0,4.2-1.9,4.2-4.2V9.3c0-2.3-1.9-4.2-4.2-4.2H4.2C2.5,5.1,1,6.2,0.3,7.7L39.7,47z" fill="#2229AF"/><path d="M53.2,10H10.8c-3.2,0-5.8,0.1-5.8,3.3v26.1c0,1.5,1.2,2.6,2.6,2.6h48.9c1.5,0,2.6-1.2,2.6-2.6V13.4    C59.1,10.1,56.5,10,53.2,10z" fill="#FFFFFF"/><path d="M34.8,42.1h21.7c1.5,0,2.6-1.2,2.6-2.6V13.4c0-3.2-2.6-3.3-5.8-3.3H10.8c-2.8,0-5.2,0.1-5.7,2.3L34.8,42.1    z" fill="#DCEAE9"/><g><path d="M39.9,22c-0.2-0.3-0.5-0.4-0.8-0.4H27l-0.7-1.3l-0.6-1.2c-0.2-0.4-0.5-0.5-0.9-0.5l-2,0l0,0h-0.9     c-0.5,0-0.4,0.4-0.4,0.9c0,0.5,0.4,0.9,0.9,0.9h0.5h1.5l1.3,2.6v0l3,5.9c0.2,0.3,0.5,0.5,0.8,0.5h6.6c0.3,0,0.7-0.2,0.8-0.5     l3-5.9c0-0.1,0-0.1,0.1-0.2C40,22.5,40,22.2,39.9,22z M35.5,27.5H30l-0.6-1.1h6.6L35.5,27.5z M37,24.5h-8.4c0,0-0.1,0-0.1,0     l-0.2-0.3L28,23.4h9.6L37,24.5z" fill="#78AA43"/><circle cx="29.5" cy="31.7" fill="#78AA43" r="1.9"/><circle cx="36" cy="31.7" fill="#78AA43" r="1.8"/></g><path d="M5,12.7H59c-0.4-2.6-2.8-2.7-5.8-2.7H10.8C7.8,10,5.3,10.1,5,12.7z" fill="#D1E0DF"/><g><circle cx="32" cy="44.5" fill="#FFFFFF" r="0.9"/><path d="M32,43.6c-0.5,0-0.9,0.4-0.9,0.9h1.9C32.9,44,32.5,43.6,32,43.6z" fill="#D1E0DF"/></g><path d="M44.8,57.9c0,0.6-0.4,1-1,1H20.2c-0.6,0-1-0.4-1-1l0,0c0-0.6,0.4-1,1-1h23.5    C44.3,56.9,44.8,57.3,44.8,57.9L44.8,57.9z" fill="#2229AF"/><g><g><path d="M49,57.9c0,0.6-0.4,1-1,1h-0.2c-0.6,0-1-0.4-1-1l0,0c0-0.6,0.4-1,1-1H48C48.5,56.9,49,57.3,49,57.9      L49,57.9z" fill="#2229AF"/><path d="M52.4,57.9c0,0.6-0.4,1-1,1h-0.2c-0.6,0-1-0.4-1-1l0,0c0-0.6,0.4-1,1-1h0.2      C51.9,56.9,52.4,57.3,52.4,57.9L52.4,57.9z" fill="#2229AF"/><path d="M55.8,57.9c0,0.6-0.4,1-1,1h-0.2c-0.6,0-1-0.4-1-1l0,0c0-0.6,0.4-1,1-1h0.2      C55.3,56.9,55.8,57.3,55.8,57.9L55.8,57.9z" fill="#2229AF"/></g><g><path d="M10.4,57.9c0,0.6-0.4,1-1,1H9.2c-0.6,0-1-0.4-1-1l0,0c0-0.6,0.4-1,1-1h0.2C9.9,56.9,10.4,57.3,10.4,57.9      L10.4,57.9z" fill="#2229AF"/><path d="M13.8,57.9c0,0.6-0.4,1-1,1h-0.2c-0.6,0-1-0.4-1-1l0,0c0-0.6,0.4-1,1-1h0.2      C13.3,56.9,13.8,57.3,13.8,57.9L13.8,57.9z" fill="#2229AF"/><path d="M17.2,57.9c0,0.6-0.4,1-1,1H16c-0.6,0-1-0.4-1-1l0,0c0-0.6,0.4-1,1-1h0.2C16.8,56.9,17.2,57.3,17.2,57.9      L17.2,57.9z" fill="#2229AF"/></g></g><path d="M40,33.6v2c0,0.3,0.3,0.6,0.6,0.6c0.3,0,0.6-0.3,0.6-0.6V35l1.9,1.9c0.2,0.2,0.5,0.2,0.8,0    c0.2-0.2,0.2-0.5,0-0.8l-1.9-1.9h0.7c0.3,0,0.6-0.3,0.6-0.6S43,33,42.7,33h-2C40.3,33,40,33.3,40,33.6z" fill="#78AA43"/></g></g></svg>