<?xml version="1.0" ?><!DOCTYPE svg  PUBLIC '-//W3C//DTD SVG 1.1//EN'  'http://www.w3.org/Graphics/SVG/1.1/DTD/svg11.dtd'><svg enable-background="new 0 0 64 64" height="64px" version="1.1" viewBox="0 0 64 64" width="64px" xml:space="preserve" xmlns="http://www.w3.org/2000/svg" xmlns:xlink="http://www.w3.org/1999/xlink"><g id="BG"/><g id="TEXT"/><g id="ARTWORK"><g><g><path d="M38.1,37.4H25.9c-1.2,0-2.2,1-2.2,2.2v22.3c0,0.9,0.5,1.7,1.3,2c0.8,0.3,1.7,0.1,2.3-0.5l4.5-4.5l4.5,4.5     c0.4,0.4,1,0.6,1.5,0.6c0.3,0,0.6-0.1,0.8-0.2c0.8-0.3,1.3-1.1,1.3-2V39.5C40.2,38.3,39.2,37.4,38.1,37.4z" fill="#CE0B5A"/><path d="M38.1,37.4H25.9c-1.2,0-2.2,1-2.2,2.2v11.1l12.8,12.8c0.4,0.4,0.9,0.6,1.4,0.6c0.3,0,0.6-0.1,0.8-0.2     c0.8-0.3,1.3-1.1,1.3-2V39.5C40.2,38.3,39.2,37.4,38.1,37.4z" fill="#AA0B5B"/><path d="M38.1,37.4H25.9c-1.2,0-2.2,1-2.2,2.2v8.9c0.6,0.5,1.3,0.9,2.1,1.1c1.9,0.5,3.8,0,5.2-1.4     c0.2-0.2,0.4-0.5,0.6-0.7L32,47l0.3,0.4c1.3,1.8,3.6,2.7,5.8,2.1c0.8-0.2,1.5-0.6,2.1-1.2v-8.9C40.2,38.3,39.2,37.4,38.1,37.4z" fill="#890E63"/><path d="M48.6,6.3c-1.6-1.6-4-2-6.1-1.1l-0.4,0.2l0-0.5c-0.2-2.2-1.8-4.1-4-4.7c-2.2-0.6-4.5,0.2-5.8,2.1L32,2.7     l-0.3-0.4c-1.3-1.8-3.6-2.7-5.8-2.1c-2.1,0.6-3.8,2.5-4,4.7l0,0.5l-0.4-0.2c-2-1-4.5-0.5-6.1,1.1c-1.6,1.6-2,4-1.1,6.1l0.2,0.4     l-0.5,0c-2.2,0.2-4.2,1.8-4.7,4c-0.6,2.2,0.3,4.5,2.1,5.8l0.4,0.3l-0.4,0.3c-1.8,1.3-2.7,3.7-2.1,5.8c0.6,2.2,2.5,3.8,4.7,4     l0.5,0l-0.2,0.4c-1,2-0.5,4.5,1.1,6.1c1.6,1.6,4,2,6.1,1.1l0.4-0.2l0,0.5c0.2,2.2,1.8,4.1,4,4.7c1.9,0.5,3.8,0,5.2-1.4     c0.2-0.2,0.4-0.5,0.6-0.7l0.3-0.4l0.3,0.4c1.3,1.8,3.6,2.7,5.8,2.1c2.1-0.6,3.8-2.5,4-4.7l0-0.5l0.4,0.2c2,1,4.5,0.5,6.1-1.1     c1.6-1.6,2-4,1.1-6.1L49.5,33l0.5,0c1.3-0.1,2.4-0.7,3.3-1.6c0,0,0,0,0,0c2.1-2.1,2.1-5.5,0-7.6c-0.3-0.3-0.7-0.6-1.1-0.9     l0.4-0.3c0.3-0.2,0.5-0.4,0.7-0.6c2.1-2.1,2.1-5.5,0-7.6c-1-1-2.3-1.6-3.8-1.6l-0.1,0l0.2-0.4C50.6,10.3,50.2,7.9,48.6,6.3z" fill="#FFC200"/><path d="M42.5,5.2l-0.4,0.2l0-0.5c-0.2-2.2-1.8-4.1-4-4.7c-2.2-0.6-4.5,0.2-5.8,2.1L32,2.7l-0.3-0.4     c-1.3-1.8-3.6-2.7-5.8-2.1c-2.1,0.6-3.8,2.5-4,4.7l0,0.5l-0.4-0.2c-2-1-4.5-0.5-6.1,1.1h0l33.2,33.2l0,0c1.6-1.6,2-4,1.1-6.1     L49.5,33l0.5,0c1.3-0.1,2.4-0.7,3.3-1.6c0,0,0,0,0,0c2.1-2.1,2.1-5.5,0-7.6c-0.3-0.3-0.7-0.6-1.1-0.9l0.4-0.3     c0.3-0.2,0.5-0.4,0.7-0.6c2.1-2.1,2.1-5.5,0-7.6c-1-1-2.3-1.6-3.8-1.6l-0.1,0l0.2-0.4c1-2,0.5-4.5-1.1-6.1     C47,4.7,44.6,4.2,42.5,5.2z" fill="#FFA10B"/><path d="M43.4,20.7c-0.2-0.6-0.7-1-1.3-1.1l-6-0.9l-2.7-5.4c-0.3-0.6-0.8-0.9-1.5-0.9s-1.2,0.3-1.4,0.9l-2.7,5.4     l-6,0.9c-0.6,0.1-1.1,0.5-1.3,1.1c-0.2,0.6,0,1.2,0.4,1.7l4.3,4.2l-1,5.9c-0.1,0.6,0.1,1.2,0.6,1.6c0.5,0.4,1.2,0.4,1.7,0.1     l5.3-2.8l5.3,2.8c0.2,0.1,0.5,0.2,0.8,0.2c0.3,0,0.7-0.1,1-0.3c0.5-0.4,0.7-1,0.6-1.6l-1-5.9l4.3-4.2     C43.4,21.9,43.6,21.3,43.4,20.7z" fill="#F77308"/><path d="M43.4,20.2c-0.2-0.6-0.7-1-1.3-1.1l-6-0.9l-2.7-5.4c-0.3-0.6-0.8-0.9-1.5-0.9s-1.2,0.3-1.4,0.9l-2.7,5.4     l-6,0.9c-0.6,0.1-1.1,0.5-1.3,1.1c-0.2,0.6,0,1.2,0.4,1.7l4.3,4.2l-1,5.9c-0.1,0.6,0.1,1.2,0.6,1.6c0.5,0.4,1.2,0.4,1.7,0.1     l5.3-2.8l5.3,2.8c0.2,0.1,0.5,0.2,0.8,0.2c0.3,0,0.7-0.1,1-0.3c0.5-0.4,0.7-1,0.6-1.6l-1-5.9l4.3-4.2     C43.4,21.4,43.6,20.8,43.4,20.2z" fill="#CE0B5A"/><path d="M39.4,30.3L38.7,26l4.3-4.2c0.4-0.4,0.6-1.1,0.4-1.7c-0.2-0.6-0.7-1-1.3-1.1l-6-0.9l-2.7-5.4     c-0.3-0.6-0.8-0.9-1.5-0.9s-1.2,0.3-1.4,0.9l-2.7,5.4l-0.5,0.1L39.4,30.3z" fill="#AA0B5B"/></g><g><g><path d="M32.5,8.2c0,0.3-0.2,0.5-0.5,0.5l0,0c-0.3,0-0.5-0.2-0.5-0.5V6.5C31.5,6.2,31.7,6,32,6l0,0      c0.3,0,0.5,0.2,0.5,0.5V8.2z" fill="#FFD400"/><path d="M32.5,39.3c0,0.3-0.2,0.5-0.5,0.5l0,0c-0.3,0-0.5-0.2-0.5-0.5v-1.7c0-0.3,0.2-0.5,0.5-0.5l0,0      c0.3,0,0.5,0.2,0.5,0.5V39.3z" fill="#FFD400"/></g><g><path d="M42.7,12.8c-0.2,0.2-0.5,0.2-0.7,0l0,0c-0.2-0.2-0.2-0.5,0-0.7l1.2-1.2c0.2-0.2,0.5-0.2,0.7,0l0,0      c0.2,0.2,0.2,0.5,0,0.7L42.7,12.8z" fill="#FFD400"/><path d="M20.7,34.8c-0.2,0.2-0.5,0.2-0.7,0l0,0c-0.2-0.2-0.2-0.5,0-0.7l1.2-1.2c0.2-0.2,0.5-0.2,0.7,0l0,0      c0.2,0.2,0.2,0.5,0,0.7L20.7,34.8z" fill="#FFD400"/></g><g><path d="M46.7,23.4c-0.3,0-0.5-0.2-0.5-0.5l0,0c0-0.3,0.2-0.5,0.5-0.5h1.7c0.3,0,0.5,0.2,0.5,0.5l0,0      c0,0.3-0.2,0.5-0.5,0.5H46.7z" fill="#FFD400"/><path d="M15.6,23.4c-0.3,0-0.5-0.2-0.5-0.5l0,0c0-0.3,0.2-0.5,0.5-0.5h1.7c0.3,0,0.5,0.2,0.5,0.5l0,0      c0,0.3-0.2,0.5-0.5,0.5H15.6z" fill="#FFD400"/></g><g><path d="M42.1,33.6c-0.2-0.2-0.2-0.5,0-0.7l0,0c0.2-0.2,0.5-0.2,0.7,0l1.2,1.2c0.2,0.2,0.2,0.5,0,0.7l0,0      c-0.2,0.2-0.5,0.2-0.7,0L42.1,33.6z" fill="#FFD400"/><path d="M20.1,11.6c-0.2-0.2-0.2-0.5,0-0.7l0,0c0.2-0.2,0.5-0.2,0.7,0l1.2,1.2c0.2,0.2,0.2,0.5,0,0.7l0,0      c-0.2,0.2-0.5,0.2-0.7,0L20.1,11.6z" fill="#FFD400"/></g></g></g></g></svg>