<?xml version="1.0" ?><!DOCTYPE svg  PUBLIC '-//W3C//DTD SVG 1.1//EN'  'http://www.w3.org/Graphics/SVG/1.1/DTD/svg11.dtd'><svg enable-background="new 0 0 64 64" height="64px" version="1.1" viewBox="0 0 64 64" width="64px" xml:space="preserve" xmlns="http://www.w3.org/2000/svg" xmlns:xlink="http://www.w3.org/1999/xlink"><g id="BG"/><g id="TEXT"/><g id="ARTWORK"><g><rect fill="#F79200" height="8.8" width="3.7" x="19.4" y="10.4"/><g><path d="M35.3,6c0,2.5-2.1,4.6-4.6,4.6H11.8c-2.5,0-4.6-2.1-4.6-4.6V4.6C7.2,2.1,9.3,0,11.8,0h18.8     c2.5,0,4.6,2.1,4.6,4.6V6z" fill="#F77308"/><path d="M30.6,0H11.8C9.3,0,7.2,2.1,7.2,4.6v0.7h28V4.6C35.3,2.1,33.2,0,30.6,0z" fill="#FFA10B"/></g><path d="M48.7,15H15.3c-1.9,0-3.4,1.5-3.4,3.4v13.4c0,1.9,1.5,3.4,3.4,3.4h33.3c1.9,0,3.4-1.5,3.4-3.4V18.4    C52.1,16.6,50.5,15,48.7,15z" fill="#1174EA"/><path d="M48.7,18H15.3c-1.9,0-3.4,1.5-3.4,3.4v10.4c0,1.9,1.5,3.4,3.4,3.4h33.3c1.9,0,3.4-1.5,3.4-3.4V21.4    C52.1,19.5,50.5,18,48.7,18z" fill="#154ECE"/><path d="M62.6,46.7c0-0.9-0.2-1.7-0.7-2.5L52,30.4H11.9L1.8,44.7c-0.3,0.8-0.5,1.6-0.4,2.4c0,0.1,0,0.1,0,0.2v7.6    c0,2.6,2.1,4.8,4.8,4.8h51.6c2.6,0,4.8-2.1,4.8-4.8v-7.6c0,0,0-0.1,0-0.1C62.6,47,62.6,46.8,62.6,46.7z" fill="#FFA10B"/><path d="M47.4,10.6c-0.2-0.1-0.5,0-0.6,0.1l-1.1,1.1l-1.2-1.2c-0.2-0.2-0.6-0.2-0.8,0l-1.2,1.2l-1.2-1.2    c-0.2-0.2-0.6-0.2-0.8,0l-1.2,1.2l-1.2-1.2c-0.2-0.2-0.6-0.2-0.8,0l-1.2,1.2l-1.1-1.1c-0.2-0.2-0.4-0.2-0.6-0.1    c-0.2,0.1-0.4,0.3-0.4,0.5V25c0,0.3,0.3,0.6,0.6,0.6h12.9c0.3,0,0.6-0.3,0.6-0.6V11.2C47.7,10.9,47.6,10.7,47.4,10.6z" fill="#FFFFFF"/><path d="M47.4,12.5c-0.2-0.1-0.5,0-0.6,0.1l-1.1,1.1l-1.2-1.2c-0.2-0.2-0.6-0.2-0.8,0l-1.2,1.2l-1.2-1.2    c-0.2-0.2-0.6-0.2-0.8,0l-1.2,1.2l-1.2-1.2c-0.2-0.2-0.6-0.2-0.8,0l-1.2,1.2l-1.1-1.1c-0.2-0.2-0.4-0.2-0.6-0.1    c-0.2,0.1-0.4,0.3-0.4,0.5v12c0,0.3,0.3,0.6,0.6,0.6h12.9c0.3,0,0.6-0.3,0.6-0.6V13C47.7,12.8,47.6,12.5,47.4,12.5z" fill="#EDF4F3"/><path d="M33.7,15V25c0,0.3,0.3,0.6,0.6,0.6h12.9c0.3,0,0.6-0.3,0.6-0.6V15H33.7z" fill="#D1E0DF"/><path d="M49.5,25.1c0,0.4-0.3,0.7-0.7,0.7h-16c-0.4,0-0.7-0.3-0.7-0.7l0,0c0-0.4,0.3-0.7,0.7-0.7h16    C49.2,24.4,49.5,24.7,49.5,25.1L49.5,25.1z" fill="#1174EA"/><path d="M41.3,59.7h16.5c2.6,0,4.8-2.1,4.8-4.8v-7.6c0-2.6-2.1-4.8-4.8-4.8H24.1L41.3,59.7z" fill="#F79200"/><path d="M57.8,51.5c2.6,0,4.8-2.1,4.8-4.8c0-0.9-0.2-1.7-0.7-2.5L52,30.4H12l21.1,21.1H57.8    C57.8,51.5,57.8,51.5,57.8,51.5z" fill="#F79200"/><path d="M1.4,47c0,0.1,0,0.1,0,0.2v7.6c0,2.6,2.1,4.8,4.8,4.8h51.6c2.6,0,4.8-2.1,4.8-4.8v-7.6c0,0,0-0.1,0-0.1    c0-0.2,0-0.3,0-0.4c0-0.3,0-0.7-0.1-1h-61C1.4,46.1,1.4,46.6,1.4,47z" fill="#F77308"/><g><g><path d="M24.1,33.6c-0.6,0-2.7,0.1-2.7,1.2c0,1.1,2,1.2,2.7,1.2c0.6,0,2.7-0.1,2.7-1.2      C26.8,33.7,24.7,33.6,24.1,33.6z" fill="#154ECE"/><path d="M32,35.9c0.6,0,2.7-0.1,2.7-1.2c0-1.1-2-1.2-2.7-1.2c-0.6,0-2.7,0.1-2.7,1.2      C29.3,35.8,31.4,35.9,32,35.9z" fill="#154ECE"/><path d="M42.6,34.8c0-1.1-2-1.2-2.7-1.2c-0.6,0-2.7,0.1-2.7,1.2c0,1.1,2,1.2,2.7,1.2      C40.5,35.9,42.6,35.8,42.6,34.8z" fill="#154ECE"/><path d="M22.5,37.8c-0.5,0-3.1,0.1-3.1,1.3c0,1.2,2.6,1.3,3.1,1.3c0.5,0,3.1-0.1,3.1-1.3      C25.6,37.9,23,37.8,22.5,37.8z" fill="#154ECE"/><path d="M32,40.4c0.5,0,3.1-0.1,3.1-1.3c0-1.2-2.6-1.3-3.1-1.3s-3.1,0.1-3.1,1.3C28.9,40.3,31.5,40.4,32,40.4z" fill="#154ECE"/><path d="M44.6,39.1c0-1.2-2.6-1.3-3.1-1.3c-0.5,0-3.1,0.1-3.1,1.3c0,1.2,2.6,1.3,3.1,1.3      C42,40.4,44.6,40.3,44.6,39.1z" fill="#154ECE"/><path d="M20.6,42.5c-0.6,0-3.6,0.1-3.6,1.4c0,1.4,3,1.4,3.6,1.4c0.6,0,3.6-0.1,3.6-1.4      C24.2,42.6,21.2,42.5,20.6,42.5z" fill="#154ECE"/><path d="M32,42.5c-0.6,0-3.6,0.1-3.6,1.4c0,1.4,3,1.4,3.6,1.4s3.6-0.1,3.6-1.4C35.6,42.6,32.6,42.5,32,42.5z" fill="#154ECE"/><path d="M43.4,42.5c-0.6,0-3.6,0.1-3.6,1.4c0,1.4,3,1.4,3.6,1.4c0.6,0,3.6-0.1,3.6-1.4      C47,42.6,44,42.5,43.4,42.5z" fill="#154ECE"/></g><g><path d="M24.1,32.6c-0.6,0-2.7,0.1-2.7,1.2c0,1.1,2,1.2,2.7,1.2c0.6,0,2.7-0.1,2.7-1.2      C26.8,32.7,24.7,32.6,24.1,32.6z" fill="#1174EA"/><path d="M32,34.9c0.6,0,2.7-0.1,2.7-1.2c0-1.1-2-1.2-2.7-1.2c-0.6,0-2.7,0.1-2.7,1.2      C29.3,34.8,31.4,34.9,32,34.9z" fill="#1174EA"/><path d="M42.6,33.8c0-1.1-2-1.2-2.7-1.2c-0.6,0-2.7,0.1-2.7,1.2c0,1.1,2,1.2,2.7,1.2      C40.5,34.9,42.6,34.8,42.6,33.8z" fill="#1174EA"/><path d="M22.5,36.8c-0.5,0-3.1,0.1-3.1,1.3c0,1.2,2.6,1.3,3.1,1.3c0.5,0,3.1-0.1,3.1-1.3      C25.6,36.9,23,36.8,22.5,36.8z" fill="#1174EA"/><path d="M32,39.4c0.5,0,3.1-0.1,3.1-1.3c0-1.2-2.6-1.3-3.1-1.3s-3.1,0.1-3.1,1.3C28.9,39.3,31.5,39.4,32,39.4z" fill="#1174EA"/><path d="M44.6,38.1c0-1.2-2.6-1.3-3.1-1.3c-0.5,0-3.1,0.1-3.1,1.3c0,1.2,2.6,1.3,3.1,1.3      C42,39.4,44.6,39.3,44.6,38.1z" fill="#1174EA"/><path d="M20.6,41.5c-0.6,0-3.6,0.1-3.6,1.4c0,1.4,3,1.4,3.6,1.4c0.6,0,3.6-0.1,3.6-1.4      C24.2,41.6,21.2,41.5,20.6,41.5z" fill="#1174EA"/><path d="M32,41.5c-0.6,0-3.6,0.1-3.6,1.4c0,1.4,3,1.4,3.6,1.4s3.6-0.1,3.6-1.4C35.6,41.6,32.6,41.5,32,41.5z" fill="#1174EA"/><path d="M43.4,41.5c-0.6,0-3.6,0.1-3.6,1.4c0,1.4,3,1.4,3.6,1.4c0.6,0,3.6-0.1,3.6-1.4      C47,41.6,44,41.5,43.4,41.5z" fill="#1174EA"/></g></g><g><path d="M40.8,62.4c0,0.3-0.3,0.6-0.6,0.6H16.3c-0.3,0-0.6-0.3-0.6-0.6V50.5c0-0.3,0.3-0.6,0.6-0.6h23.9     c0.3,0,0.6,0.3,0.6,0.6V62.4z" fill="#93BD46"/><path d="M28.5,63h11.7c0.3,0,0.6-0.3,0.6-0.6V50.5c0-0.3-0.3-0.6-0.6-0.6H16.3c-0.3,0-0.5,0.2-0.6,0.4L28.5,63z" fill="#78AA43"/><path d="M39.5,61.2c0,0.3-0.2,0.5-0.5,0.5H17.6c-0.3,0-0.5-0.2-0.5-0.5v-9.5c0-0.3,0.2-0.5,0.5-0.5H39     c0.3,0,0.5,0.2,0.5,0.5V61.2z" fill="#ACD651"/><path d="M27.1,61.7H39c0.3,0,0.5-0.2,0.5-0.5v-9.5c0-0.3-0.2-0.5-0.5-0.5H17.6c-0.2,0-0.4,0.2-0.5,0.4L27.1,61.7z     " fill="#93BD46"/><g><g><circle cx="28.3" cy="56.4" fill="#5F8D3D" r="4.8"/><path d="M23.5,56.4c0-2.7,2.2-4.8,4.8-4.8c2.7,0,4.8,2.2,4.8,4.8" fill="#78AA43"/></g><path d="M27.8,53.8h1c0.2,0,0.4,0.2,0.4,0.4c0,0.4,0.3,0.8,0.8,0.8s0.8-0.3,0.8-0.8c0-1-0.7-1.8-1.7-1.9V52      c0-0.4-0.3-0.8-0.8-0.8c-0.4,0-0.8,0.3-0.8,0.8v0.4c-0.9,0.1-1.7,0.9-1.7,1.9v1c0,1.1,0.9,1.9,1.9,1.9h1c0.2,0,0.4,0.2,0.4,0.4      v1c0,0.2-0.2,0.4-0.4,0.4h-1c-0.2,0-0.4-0.2-0.4-0.4c0-0.4-0.3-0.8-0.8-0.8c-0.4,0-0.8,0.3-0.8,0.8c0,1,0.7,1.8,1.7,1.9v0.4      c0,0.4,0.3,0.8,0.8,0.8c0.4,0,0.8-0.3,0.8-0.8v-0.4c0.9-0.1,1.7-0.9,1.7-1.9v-1c0-1.1-0.9-1.9-1.9-1.9h-1      c-0.2,0-0.4-0.2-0.4-0.4v-1C27.4,54,27.5,53.8,27.8,53.8z" fill="#ACD651"/><g><path d="M29,52.3V52c0-0.4-0.3-0.8-0.8-0.8l0,0v2.6h0.5c0.2,0,0.4,0.2,0.4,0.4c0,0.4,0.3,0.8,0.8,0.8       s0.8-0.3,0.8-0.8C30.7,53.3,30,52.5,29,52.3z" fill="#93BD46"/><path d="M29,60.9v-0.4c0.9-0.1,1.7-0.9,1.7-1.9v-1c0-1.1-0.9-1.9-1.9-1.9h-0.5v1.5h0.5c0.2,0,0.4,0.2,0.4,0.4v1       c0,0.2-0.2,0.4-0.4,0.4h-0.5v2.6l0,0C28.7,61.6,29,61.3,29,60.9z" fill="#93BD46"/></g></g><g><circle cx="37.5" cy="59.6" fill="#78AA43" r="0.9"/><circle cx="19.1" cy="53.2" fill="#78AA43" r="0.9"/></g></g><g><path d="M32.6,5.8c0,1.8-1.5,3.3-3.3,3.3H13.1c-1.8,0-3.3-1.5-3.3-3.3v-1c0-1.8,1.5-3.3,3.3-3.3h16.2     c1.8,0,3.3,1.5,3.3,3.3V5.8z" fill="#0D1923"/><path d="M29.3,1.5H13.1c-1.8,0-3.3,1.5-3.3,3.3v0.5h22.8V4.8C32.6,3,31.2,1.5,29.3,1.5z" fill="#1B2B3A"/><g><g><path d="M28.5,8c-0.9,0-1.6-0.7-1.6-1.6V4.2c0-0.9,0.7-1.6,1.6-1.6c0.9,0,1.6,0.7,1.6,1.6v2.1       C30.1,7.2,29.4,8,28.5,8z M28.5,3.6c-0.4,0-0.7,0.3-0.7,0.6v2.1c0,0.4,0.3,0.6,0.7,0.6c0.4,0,0.6-0.3,0.6-0.6V4.2       C29.1,3.9,28.8,3.6,28.5,3.6z" fill="#FFFFFF"/></g><path d="M30.1,5.3v-1c0-0.9-0.7-1.6-1.6-1.6c-0.9,0-1.6,0.7-1.6,1.6v1h1v-1c0-0.4,0.3-0.6,0.7-0.6      c0.4,0,0.6,0.3,0.6,0.6v1H30.1z" fill="#D1E0DF"/></g><g><g><path d="M23.8,8c-0.9,0-1.6-0.7-1.6-1.6V4.2c0-0.9,0.7-1.6,1.6-1.6c0.9,0,1.6,0.7,1.6,1.6v2.1       C25.5,7.2,24.7,8,23.8,8z M23.8,3.6c-0.4,0-0.7,0.3-0.7,0.6v2.1c0,0.4,0.3,0.6,0.7,0.6c0.4,0,0.6-0.3,0.6-0.6V4.2       C24.5,3.9,24.2,3.6,23.8,3.6z" fill="#FFFFFF"/></g><path d="M25.5,5.3v-1c0-0.9-0.7-1.6-1.6-1.6c-0.9,0-1.6,0.7-1.6,1.6v1h1v-1c0-0.4,0.3-0.6,0.7-0.6      c0.4,0,0.6,0.3,0.6,0.6v1H25.5z" fill="#D1E0DF"/></g><g><g><path d="M19.2,8c-0.9,0-1.6-0.7-1.6-1.6V4.2c0-0.9,0.7-1.6,1.6-1.6c0.9,0,1.6,0.7,1.6,1.6v2.1       C20.9,7.2,20.1,8,19.2,8z M19.2,3.6c-0.4,0-0.7,0.3-0.7,0.6v2.1c0,0.4,0.3,0.6,0.7,0.6s0.7-0.3,0.7-0.6V4.2       C19.9,3.9,19.6,3.6,19.2,3.6z" fill="#FFFFFF"/></g><path d="M20.9,5.3v-1c0-0.9-0.7-1.6-1.6-1.6c-0.9,0-1.6,0.7-1.6,1.6v1h1v-1c0-0.4,0.3-0.6,0.7-0.6      s0.7,0.3,0.7,0.6v1H20.9z" fill="#D1E0DF"/></g></g><g><path d="M36.6,58.3c0,0.3-0.3,0.6-0.6,0.6H12c-0.3,0-0.6-0.3-0.6-0.6V46.4c0-0.3,0.3-0.6,0.6-0.6h23.9     c0.3,0,0.6,0.3,0.6,0.6V58.3z" fill="#93BD46"/><path d="M24.2,58.9h11.7c0.3,0,0.6-0.3,0.6-0.6V46.4c0-0.3-0.3-0.6-0.6-0.6H12c-0.3,0-0.5,0.2-0.6,0.4L24.2,58.9z     " fill="#78AA43"/><path d="M35.2,57.1c0,0.3-0.2,0.5-0.5,0.5H13.3c-0.3,0-0.5-0.2-0.5-0.5v-9.5c0-0.3,0.2-0.5,0.5-0.5h21.4     c0.3,0,0.5,0.2,0.5,0.5V57.1z" fill="#ACD651"/><path d="M22.8,57.6h11.9c0.3,0,0.5-0.2,0.5-0.5v-9.5c0-0.3-0.2-0.5-0.5-0.5H13.3c-0.2,0-0.4,0.2-0.5,0.4     L22.8,57.6z" fill="#93BD46"/><g><g><circle cx="24" cy="52.3" fill="#5F8D3D" r="4.8"/><path d="M19.2,52.3c0-2.7,2.2-4.8,4.8-4.8c2.7,0,4.8,2.2,4.8,4.8" fill="#78AA43"/></g><path d="M23.5,49.7h1c0.2,0,0.4,0.2,0.4,0.4c0,0.4,0.3,0.8,0.8,0.8s0.8-0.3,0.8-0.8c0-1-0.7-1.8-1.7-1.9v-0.4      c0-0.4-0.3-0.8-0.8-0.8c-0.4,0-0.8,0.3-0.8,0.8v0.4c-0.9,0.1-1.7,0.9-1.7,1.9v1c0,1.1,0.9,1.9,1.9,1.9h1c0.2,0,0.4,0.2,0.4,0.4      v1c0,0.2-0.2,0.4-0.4,0.4h-1c-0.2,0-0.4-0.2-0.4-0.4c0-0.4-0.3-0.8-0.8-0.8c-0.4,0-0.8,0.3-0.8,0.8c0,1,0.7,1.8,1.7,1.9v0.4      c0,0.4,0.3,0.8,0.8,0.8c0.4,0,0.8-0.3,0.8-0.8v-0.4c0.9-0.1,1.7-0.9,1.7-1.9v-1c0-1.1-0.9-1.9-1.9-1.9h-1      c-0.2,0-0.4-0.2-0.4-0.4v-1C23.1,49.9,23.3,49.7,23.5,49.7z" fill="#ACD651"/><g><path d="M24.8,48.2v-0.4c0-0.4-0.3-0.8-0.8-0.8l0,0v2.6h0.5c0.2,0,0.4,0.2,0.4,0.4c0,0.4,0.3,0.8,0.8,0.8       s0.8-0.3,0.8-0.8C26.4,49.2,25.7,48.4,24.8,48.2z" fill="#93BD46"/><path d="M24.8,56.8v-0.4c0.9-0.1,1.7-0.9,1.7-1.9v-1c0-1.1-0.9-1.9-1.9-1.9H24v1.5h0.5c0.2,0,0.4,0.2,0.4,0.4v1       c0,0.2-0.2,0.4-0.4,0.4H24v2.6l0,0C24.4,57.5,24.8,57.2,24.8,56.8z" fill="#93BD46"/></g></g><g><circle cx="33.2" cy="55.5" fill="#78AA43" r="0.9"/><circle cx="14.8" cy="49.1" fill="#78AA43" r="0.9"/></g></g><g><path d="M32.3,54.2c0,0.3-0.3,0.6-0.6,0.6H7.8c-0.3,0-0.6-0.3-0.6-0.6V42.3c0-0.3,0.3-0.6,0.6-0.6h23.9     c0.3,0,0.6,0.3,0.6,0.6V54.2z" fill="#93BD46"/><path d="M19.9,54.8h11.7c0.3,0,0.6-0.3,0.6-0.6V42.3c0-0.3-0.3-0.6-0.6-0.6H7.8c-0.3,0-0.5,0.2-0.6,0.4L19.9,54.8     z" fill="#78AA43"/><path d="M30.9,53c0,0.3-0.2,0.5-0.5,0.5H9c-0.3,0-0.5-0.2-0.5-0.5v-9.5C8.5,43.2,8.7,43,9,43h21.4     c0.3,0,0.5,0.2,0.5,0.5V53z" fill="#ACD651"/><path d="M18.6,53.5h11.9c0.3,0,0.5-0.2,0.5-0.5v-9.5c0-0.3-0.2-0.5-0.5-0.5H9c-0.2,0-0.4,0.2-0.5,0.4L18.6,53.5z" fill="#93BD46"/><g><g><circle cx="19.7" cy="48.2" fill="#78AA43" r="4.8"/><path d="M14.9,48.2c0-2.7,2.2-4.8,4.8-4.8c2.7,0,4.8,2.2,4.8,4.8" fill="#78AA43"/></g></g><g><circle cx="28.9" cy="51.4" fill="#78AA43" r="0.9"/><circle cx="10.5" cy="45" fill="#78AA43" r="0.9"/></g></g><path d="M54.4,51.5H9.6c-1.3,0-2.4,1.1-2.4,2.4v7.7c0,1.3,1.1,2.4,2.4,2.4h44.8c1.3,0,2.4-1.1,2.4-2.4v-7.7    C56.8,52.5,55.7,51.5,54.4,51.5z" fill="#1174EA"/><path d="M54.4,51.5H9.6c-1.3,0-2.4,1.1-2.4,2.4v5.8h49.7v-5.8C56.8,52.5,55.7,51.5,54.4,51.5z" fill="#154ECE"/><g><path d="M54.4,42.5c-0.6,0-3.6,0.1-3.6,1.4c0,1.4,3,1.4,3.6,1.4c0.6,0,3.6-0.1,3.6-1.4C58,42.6,55,42.5,54.4,42.5     z" fill="#AA0B5B"/><rect fill="#AA0B5B" height="2.4" width="7.2" x="50.8" y="41.5"/><path d="M54.4,40.1c-0.6,0-3.6,0.1-3.6,1.4c0,1.4,3,1.4,3.6,1.4c0.6,0,3.6-0.1,3.6-1.4C58,40.1,55,40.1,54.4,40.1     z" fill="#E00B58"/></g></g></g></svg>