<?xml version="1.0" ?><!DOCTYPE svg  PUBLIC '-//W3C//DTD SVG 1.1//EN'  'http://www.w3.org/Graphics/SVG/1.1/DTD/svg11.dtd'><svg enable-background="new 0 0 64 64" height="64px" version="1.1" viewBox="0 0 64 64" width="64px" xml:space="preserve" xmlns="http://www.w3.org/2000/svg" xmlns:xlink="http://www.w3.org/1999/xlink"><g id="BG"/><g id="TEXT"/><g id="ARTWORK"><g><g><g><path d="M21.7,51.7h-5.1c-0.8,0-1.5,0.7-1.5,1.5v9.4c0,0.8,0.7,1.5,1.5,1.5h5.1c0.8,0,1.5-0.7,1.5-1.5v-9.4      C23.2,52.4,22.5,51.7,21.7,51.7z" fill="#E00B58"/><path d="M31.9,42.4h-5.1c-0.8,0-1.5,0.7-1.5,1.5v18.7c0,0.8,0.7,1.5,1.5,1.5h5.1c0.8,0,1.5-0.7,1.5-1.5V43.9      C33.4,43,32.7,42.4,31.9,42.4z" fill="#FFA10B"/><path d="M42.1,31.5H37c-0.8,0-1.5,0.7-1.5,1.5v29.6c0,0.8,0.7,1.5,1.5,1.5h5.1c0.8,0,1.5-0.7,1.5-1.5V33      C43.6,32.2,42.9,31.5,42.1,31.5z" fill="#FFA10B"/><path d="M52.3,21.7h-5.1c-0.8,0-1.5,0.7-1.5,1.5v39.4c0,0.8,0.7,1.5,1.5,1.5h5.1c0.8,0,1.5-0.7,1.5-1.5V23.2      C53.8,22.3,53.1,21.7,52.3,21.7z" fill="#78AA43"/><path d="M62.5,11.4h-5.1c-0.8,0-1.5,0.7-1.5,1.5v49.7c0,0.8,0.7,1.5,1.5,1.5h5.1c0.8,0,1.5-0.7,1.5-1.5V12.9      C64,12,63.3,11.4,62.5,11.4z" fill="#78AA43"/></g><g><path d="M21.7,56.4h-5.1c-0.8,0-1.5,0.7-1.5,1.5v4.7c0,0.8,0.7,1.5,1.5,1.5h5.1c0.8,0,1.5-0.7,1.5-1.5v-4.7      C23.2,57.1,22.5,56.4,21.7,56.4z" fill="#AA0B5B"/><path d="M31.9,47.1h-5.1c-0.8,0-1.5,0.7-1.5,1.5v14c0,0.8,0.7,1.5,1.5,1.5h5.1c0.8,0,1.5-0.7,1.5-1.5v-14      C33.4,47.7,32.7,47.1,31.9,47.1z" fill="#F46708"/><path d="M42.1,36.2H37c-0.8,0-1.5,0.7-1.5,1.5v24.9c0,0.8,0.7,1.5,1.5,1.5h5.1c0.8,0,1.5-0.7,1.5-1.5V37.7      C43.6,36.9,42.9,36.2,42.1,36.2z" fill="#F46708"/><path d="M52.3,26.4h-5.1c-0.8,0-1.5,0.7-1.5,1.5v34.7c0,0.8,0.7,1.5,1.5,1.5h5.1c0.8,0,1.5-0.7,1.5-1.5V27.9      C53.8,27,53.1,26.4,52.3,26.4z" fill="#5F8D3D"/><path d="M62.5,16.1h-5.1c-0.8,0-1.5,0.7-1.5,1.5v45c0,0.8,0.7,1.5,1.5,1.5h5.1c0.8,0,1.5-0.7,1.5-1.5v-45      C64,16.7,63.3,16.1,62.5,16.1z" fill="#5F8D3D"/></g></g><path d="M20.6,62.2c0,1-0.8,1.8-1.8,1.8H5.9c-1,0-1.8-0.8-1.8-1.8l0,0c0-1,0.8-1.8,1.8-1.8h12.9    C19.8,60.4,20.6,61.2,20.6,62.2L20.6,62.2z" fill="#AA0B5B"/><g><g><path d="M20.1,33.6c0.8,0.8,0.8,2.1,0,2.8L3.5,53c-0.8,0.8-2.1,0.8-2.8,0l0,0c-0.8-0.8-0.8-2.1,0-2.8l16.6-16.6      C18,32.8,19.3,32.8,20.1,33.6L20.1,33.6z" fill="#93BD46"/><path d="M52.3,1.3c0.8,0.8,0.8,2.1,0,2.8l-10,10c-0.8,0.8-2.1,0.8-2.8,0l0,0c-0.8-0.8-0.8-2.1,0-2.8l10-10      C50.2,0.6,51.5,0.6,52.3,1.3L52.3,1.3z" fill="#93BD46"/><path d="M26,27.6c0.8,0.8,0.8,2.1,0,2.8l-0.5,0.5c-0.8,0.8-2.1,0.8-2.8,0l0,0c-0.8-0.8-0.8-2.1,0-2.8l0.5-0.5      C23.9,26.9,25.2,26.9,26,27.6L26,27.6z" fill="#93BD46"/><path d="M31.4,22.2c0.8,0.8,0.8,2.1,0,2.8L31,25.5c-0.8,0.8-2.1,0.8-2.8,0l0,0c-0.8-0.8-0.8-2.1,0-2.8l0.5-0.5      C29.4,21.4,30.6,21.4,31.4,22.2L31.4,22.2z" fill="#93BD46"/></g><path d="M36.8,16.8c0.8,0.8,0.8,2.1,0,2.8l-0.5,0.5c-0.8,0.8-2.1,0.8-2.8,0l0,0c-0.8-0.8-0.8-2.1,0-2.8l0.5-0.5     C34.8,16,36.1,16,36.8,16.8L36.8,16.8z" fill="#93BD46"/></g><g><path d="M51.6,12c-1.2,0-2.2-1-2.2-2.2V4.3h-5.5c-1.2,0-2.2-1-2.2-2.2s1-2.2,2.2-2.2h7.7c1.2,0,2.2,1,2.2,2.2v7.7     C53.8,11.1,52.8,12,51.6,12z" fill="#78AA43"/></g></g></g></svg>