<?xml version="1.0" ?><!DOCTYPE svg  PUBLIC '-//W3C//DTD SVG 1.1//EN'  'http://www.w3.org/Graphics/SVG/1.1/DTD/svg11.dtd'><svg enable-background="new 0 0 64 64" height="64px" version="1.1" viewBox="0 0 64 64" width="64px" xml:space="preserve" xmlns="http://www.w3.org/2000/svg" xmlns:xlink="http://www.w3.org/1999/xlink"><g id="BG"/><g id="TEXT"/><g id="ARTWORK"><g><g><circle cx="32" cy="32" fill="#FFCE00" r="29.4"/><path d="M32,2.6C15.8,2.6,2.6,15.7,2.6,32h58.9C61.4,15.7,48.3,2.6,32,2.6z" fill="#FFB600"/><path d="M52.8,11.2c-11.5-11.5-30.1-11.5-41.6,0l41.6,41.6C64.3,41.3,64.3,22.7,52.8,11.2z" fill="#FFA10B"/><ellipse cx="32" cy="32" fill="#FFA10B" rx="15.4" ry="29.4"/><path d="M32,2.6v58.9c8.5,0,15.4-13.2,15.4-29.4C47.4,15.7,40.5,2.6,32,2.6z" fill="#F77308"/><path d="M32,2.6c-5.9,0-11,6.4-13.6,15.8l27.2,27.2c1.1-4.1,1.7-8.7,1.7-13.6C47.4,15.8,40.5,2.6,32,2.6     C32,2.6,32,2.6,32,2.6z" fill="#F77308"/><g><path d="M41.7,42L37,31.2l5.6-5.6c1.3-1.3,1.5-3.4,0.3-4.5s-3.2-1-4.5,0.3L32.8,27L22,22.3      c-0.5-0.2-1.1-0.1-1.4,0.3l-1.1,1.1c-0.5,0.5-0.5,1.3,0,1.8l7.4,7.4l-2.5,2.5c-0.3,0.3-0.6,0.7-0.8,1.1l-5-0.6      c-0.4,0-0.8,0.1-1.1,0.4l-0.6,0.6c-0.3,0.3-0.4,0.7-0.4,1.1c0,0.3,0.2,0.5,0.4,0.7c0.1,0.1,0.2,0.2,0.3,0.2l4.6,2.6      c0.2,0.1,0.3,0.1,0.5,0.2c0,0.2,0.1,0.3,0.2,0.5l2.6,4.6c0.2,0.4,0.6,0.6,1,0.7s0.8-0.1,1.1-0.4l0.6-0.6      c0.3-0.3,0.4-0.7,0.4-1.1l-0.6-5c0.4-0.2,0.8-0.4,1.1-0.8l2.5-2.5l7.4,7.4c0.5,0.5,1.3,0.5,1.8,0l1.1-1.1      C41.8,43,41.9,42.5,41.7,42z" fill="#154ECE"/><path d="M38.4,21.3L32.8,27L22,22.3c-0.5-0.2-1.1-0.1-1.4,0.3l-1.1,1.1c-0.5,0.5-0.5,1.3,0,1.8l7.4,7.4l-2.5,2.5      c-0.3,0.3-0.6,0.7-0.8,1.1l-5-0.6c-0.4,0-0.8,0.1-1.1,0.4l-0.6,0.6c-0.3,0.3-0.4,0.7-0.4,1.1c0,0.3,0.2,0.5,0.4,0.7      c0.1,0.1,0.2,0.2,0.3,0.2l4.6,2.6c0.2,0.1,0.3,0.1,0.5,0.2L42.9,21C41.8,19.9,39.7,20,38.4,21.3z" fill="#1174EA"/><path d="M37,31.2l5.6-5.6c1.3-1.3,1.5-3.4,0.3-4.5s-3.2-1-4.5,0.3L32.8,27l-10.2-4.4l18.8,18.8L37,31.2z" fill="#154ECE"/><path d="M41.7,42L37,31.2l5.6-5.6c1.3-1.3,1.5-3.4,0.3-4.5s-3.2-1-4.5,0.3L32.8,27L32,26.6v11.5l6.4,6.4      c0.5,0.5,1.3,0.5,1.8,0l1.1-1.1C41.8,43,41.9,42.5,41.7,42z" fill="#2229AF"/></g></g><g><path d="M29.4,64c-0.8-0.2-1.5-0.8-1.6-1.6l-0.3-1.4c-7.5,0.4-14.3-4.7-15.8-12.3c-0.1-0.6,0.3-1.1,0.8-1.2l5.1-1     c0.6-0.1,1.1,0.3,1.2,0.8c0.7,3.6,3.8,6.2,7.3,6.4l-0.2-1c-0.2-0.8,0.2-1.7,0.9-2.1c0.7-0.5,1.6-0.5,2.3,0l5.8,3.9     c0.5,0.3,0.8,0.8,0.9,1.3c0.1,0.5,0,1.1-0.3,1.6l-3.9,5.8C31.1,63.8,30.2,64.1,29.4,64z" fill="#FFCE00"/><path d="M34.6,0c0.8,0.2,1.5,0.8,1.6,1.6l0.3,1.4C44,2.7,50.8,7.8,52.3,15.4c0.1,0.6-0.3,1.1-0.8,1.2l-5.1,1     c-0.6,0.1-1.1-0.3-1.2-0.8c-0.7-3.6-3.8-6.2-7.3-6.4l0.2,1c0.2,0.8-0.2,1.7-0.9,2.1c-0.7,0.5-1.6,0.5-2.3,0l-5.8-3.9     c-0.5-0.3-0.8-0.8-0.9-1.3c-0.1-0.5,0-1.1,0.3-1.6l3.9-5.8C32.9,0.2,33.8-0.1,34.6,0z" fill="#FFA10B"/></g></g></g></svg>