<?xml version="1.0" ?><!DOCTYPE svg  PUBLIC '-//W3C//DTD SVG 1.1//EN'  'http://www.w3.org/Graphics/SVG/1.1/DTD/svg11.dtd'><svg enable-background="new 0 0 64 64" height="64px" version="1.1" viewBox="0 0 64 64" width="64px" xml:space="preserve" xmlns="http://www.w3.org/2000/svg" xmlns:xlink="http://www.w3.org/1999/xlink"><g id="BG"/><g id="TEXT"/><g id="ARTWORK"><g><g><path d="M47,8.4L33,0.3c-0.6-0.4-1.4-0.4-2,0L17,8.4c-0.6,0.4-1,1-1,1.8v16.1c0,0.7,0.4,1.4,1,1.8l13.9,8     c0.3,0.2,0.7,0.3,1,0.3s0.7-0.1,1-0.3L47,28c0.6-0.4,1-1,1-1.8V10.2C48,9.4,47.6,8.8,47,8.4z" fill="#2291FF"/><path d="M47,8.4L33,0.3c-0.6-0.4-1.4-0.4-2,0L18.5,7.5L16,10c0,0,0,0.1,0,0.1v0.7L38.2,33l8.7-5     c0.6-0.4,1-1,1-1.8V10.2C48,9.4,47.6,8.8,47,8.4z" fill="#1174EA"/><path d="M33,36.1L47,28c0.6-0.4,1-1,1-1.8V10.2c0-0.7-0.4-1.4-1-1.8L33,0.3c-0.3-0.2-0.7-0.3-1-0.3v36.3     C32.4,36.3,32.7,36.2,33,36.1z" fill="#154ECE"/><path d="M33,0.3c-0.6-0.4-1.4-0.4-2,0L17,8.3c-0.6,0.4-1,1-1,1.7c0,0.7,0.4,1.4,1,1.7l13.9,8     c0.3,0.2,0.7,0.3,1,0.3s0.7-0.1,1-0.3l13.9-8c0.6-0.4,1-1,1-1.7c0-0.7-0.4-1.4-1-1.7L33,0.3z" fill="#154ECE"/><path d="M47,8.4L33,0.3c-0.3-0.2-0.7-0.3-1-0.3v20c0.4,0,0.7-0.1,1-0.3l13.9-8c0.6-0.4,1-1,1-1.7     C47.9,9.4,47.6,8.7,47,8.4z" fill="#2229AF"/></g><g><g><polygon clip-rule="evenodd" fill="#F4BE9A" fill-rule="evenodd" points="34,60.3 41.9,60.3 36.8,57.2 34,57.2     "/><g><path d="M58.8,27.7c0-0.1,0-0.2-0.1-0.4l-1.1-2.6c-0.2-0.4-0.5-0.7-1-0.8c-0.4-0.1-0.9,0-1.2,0.4l-2.1,2.1       c-0.2,0.2-0.4,0.5-0.4,0.9l-0.6,8.1L52,35.8l-6.9,6.9l0-0.4l2.4-3c0.3-0.4,0.4-0.9,0.2-1.3l-1.2-2.9c-0.2-0.4-0.5-0.7-1-0.8       c-0.4-0.1-0.9,0-1.2,0.4l-7.5,4.9c-0.2,0.2-0.3,0.4-0.4,0.7L34,56.8c-0.1,0.7,0.3,1.4,1.1,1.6l10.9,2.1c0.1,0,0.2,0,0.3,0       c0.4,0,1.6-0.2,1.8-0.6l10.3-15.8c0.1-0.2,0.2-0.4,0.2-0.6l1.1-7.4c0-0.1,0-0.2,0-0.4L58.8,27.7z" fill="#F9CCAA"/><path d="M57.2,28.8l-1.1-2.6c-0.2-0.4-0.5-0.7-1-0.8c-0.4-0.1-0.9,0.1-1.2,0.4l-0.6,0.6       c-0.2,0.2-0.4,0.5-0.4,0.9l-0.6,8.1L52,35.8l-1.5,1.5v0l-6.9,6.9l0-0.4l2.4-3c0.3-0.4,0.4-0.9,0.2-1.3l-1.2-2.9       c-0.2-0.4-0.5-0.7-1-0.8c-0.4-0.1-0.9,0-1.2,0.4l-6,3.4c-0.2,0.2-0.3,0.4-0.4,0.7L34,56.8c-0.1,0.7,0.3,1.4,1.1,1.6l10.9,2.1       c0.1,0,0.2,0,0.3,0c0.1,0,1.1,0.4,1.2,0.3L57,46.2c0.1-0.2,0-0.9,0.1-1.1l1.1-7.4c0-0.1,0-0.2,0-0.4l-0.9-8.2       C57.2,29,57.2,28.9,57.2,28.8z" fill="#F4BE9A"/></g><g><path clip-rule="evenodd" d="M48.6,62v-3H34v3c0,1.1,1.1,2,2.5,2h9.6       C47.5,64,48.6,63.1,48.6,62z" fill="#154ECE" fill-rule="evenodd"/><path clip-rule="evenodd" d="M47.1,63.8c0.9-0.3,1.5-1,1.5-1.8v-3h-3v3       C45.6,62.8,46.2,63.5,47.1,63.8z" fill="#1174EA" fill-rule="evenodd"/></g></g><g><polygon clip-rule="evenodd" fill="#F4BE9A" fill-rule="evenodd" points="30,60.3 22.1,60.3 27.2,57.2 30,57.2     "/><g><path d="M5.2,27.7c0-0.1,0-0.2,0.1-0.4l1.1-2.6c0.2-0.4,0.5-0.7,1-0.8c0.4-0.1,0.9,0,1.2,0.4l2.1,2.1       c0.2,0.2,0.4,0.5,0.4,0.9l0.6,8.1l0.3,0.5l6.9,6.9l0-0.4l-2.4-3c-0.3-0.4-0.4-0.9-0.2-1.3l1.2-2.9c0.2-0.4,0.5-0.7,1-0.8       c0.4-0.1,0.9,0,1.2,0.4l7.5,4.9c0.2,0.2,0.3,0.4,0.4,0.7L30,56.8c0.1,0.7-0.3,1.4-1.1,1.6l-10.9,2.1c-0.1,0-0.2,0-0.3,0       c-0.4,0-1.6-0.2-1.8-0.6L5.7,44.1c-0.1-0.2-0.2-0.4-0.2-0.6l-1.1-7.4c0-0.1,0-0.2,0-0.4L5.2,27.7z" fill="#F9CCAA"/><path d="M6.8,28.8l1.1-2.6c0.2-0.4,0.5-0.7,1-0.8c0.4-0.1,0.9,0.1,1.2,0.4l0.6,0.6c0.2,0.2,0.4,0.5,0.4,0.9       l0.6,8.1l0.3,0.5l1.5,1.5v0l6.9,6.9l0-0.4l-2.4-3c-0.3-0.4-0.4-0.9-0.2-1.3l1.2-2.9c0.2-0.4,0.5-0.7,1-0.8       c0.4-0.1,0.9,0,1.2,0.4l6,3.4c0.2,0.2,0.3,0.4,0.4,0.7L30,56.8c0.1,0.7-0.3,1.4-1.1,1.6l-10.9,2.1c-0.1,0-0.2,0-0.3,0       c-0.1,0-1.1,0.4-1.2,0.3L7,46.2c-0.1-0.2,0-0.9-0.1-1.1l-1.1-7.4c0-0.1,0-0.2,0-0.4l0.9-8.2C6.8,29,6.8,28.9,6.8,28.8z" fill="#F4BE9A"/></g><g><path clip-rule="evenodd" d="M15.4,62v-3H30v3c0,1.1-1.1,2-2.5,2h-9.6       C16.5,64,15.4,63.1,15.4,62z" fill="#154ECE" fill-rule="evenodd"/><path clip-rule="evenodd" d="M16.9,63.8c-0.9-0.3-1.5-1-1.5-1.8v-3h3v3       C18.4,62.8,17.8,63.5,16.9,63.8z" fill="#1174EA" fill-rule="evenodd"/></g></g></g></g></g></svg>