<?xml version="1.0" ?><!DOCTYPE svg  PUBLIC '-//W3C//DTD SVG 1.1//EN'  'http://www.w3.org/Graphics/SVG/1.1/DTD/svg11.dtd'><svg enable-background="new 0 0 64 64" height="64px" version="1.1" viewBox="0 0 64 64" width="64px" xml:space="preserve" xmlns="http://www.w3.org/2000/svg" xmlns:xlink="http://www.w3.org/1999/xlink"><g id="BG"/><g id="TEXT"/><g id="ARTWORK"><g><g><path d="M45.9,22c0,6.4-5.2,11.7-11.7,11.7h-7.7c-6.4,0-11.7-5.2-11.7-11.7v-7.7c0-6.4,5.2-11.7,11.7-11.7h7.7     c6.4,0,11.7,5.2,11.7,11.7V22z" fill="#890E63"/><path d="M45.9,19.3c0,6.4-5.2,11.7-11.7,11.7h-7.7c-6.4,0-11.7-5.2-11.7-11.7v-7.7C14.9,5.2,20.1,0,26.6,0h7.7     c6.4,0,11.7,5.2,11.7,11.7V19.3z" fill="#E00B58"/><path d="M42,28c2.4-2.1,3.9-5.2,3.9-8.7v-7.7C45.9,5.2,40.7,0,34.2,0h-7.7c-3.4,0-6.5,1.5-8.7,3.9L42,28z" fill="#BA0859"/><g><g><g><g><path d="M25.6,14.1c-1.8,0-3.4-1.5-3.4-3.4c0-1.9,1.5-3.4,3.4-3.4c1.9,0,3.4,1.5,3.4,3.4         C29,12.6,27.5,14.1,25.6,14.1z M25.6,9.4c-0.8,0-1.4,0.6-1.4,1.4s0.6,1.4,1.4,1.4s1.4-0.6,1.4-1.4S26.4,9.4,25.6,9.4z" fill="#FFFFFF"/></g><g><path d="M35.1,23.6c-1.9,0-3.4-1.5-3.4-3.4c0-1.9,1.5-3.4,3.4-3.4s3.4,1.5,3.4,3.4         C38.5,22.1,37,23.6,35.1,23.6z M35.1,18.8c-0.8,0-1.4,0.6-1.4,1.4s0.6,1.4,1.4,1.4s1.4-0.6,1.4-1.4S35.9,18.8,35.1,18.8z" fill="#D1E0DF"/></g></g><g><path d="M25.1,21.7c-0.3,0-0.5-0.1-0.7-0.3c-0.4-0.4-0.4-1,0-1.4L34.9,9.6c0.4-0.4,1-0.4,1.4,0s0.4,1,0,1.4        L25.8,21.4C25.7,21.6,25.4,21.7,25.1,21.7z" fill="#FFFFFF"/></g></g><path d="M34.9,9.6l-4.5,4.5v2.8l5.9-5.9c0.4-0.4,0.4-1,0-1.4S35.3,9.2,34.9,9.6z" fill="#D1E0DF"/></g></g><g><g><path clip-rule="evenodd" d="M46.3,30.8h-1.4c-0.1-1.1-1.1-2-2.2-2h-2.3      c-0.7,0-1.3,0.3-1.7,0.8c-0.3-0.9-1.1-1.5-2.1-1.5h-2.3C33,28,32,29,32,30.2V23c0-1.2-1-2.2-2.2-2.2h-2.3c-1.2,0-2.2,1-2.2,2.2      v10.6V39v2.7l-5.2,5.2c-1.1,1.1-1.1,2.9,0,4l5.8,5.8c0,0,0.1,0.1,0.1,0.1c0.5,0.6,1.3,1,2.1,1h18.3c1.6,0,2.8-1.3,2.8-2.8V33.6      C49.1,32,47.9,30.8,46.3,30.8z" fill="#FFDFC5" fill-rule="evenodd"/><path clip-rule="evenodd" d="M46.3,33h-1.4c-0.1-1.1-1.1-2-2.2-2h-2.3      c-0.7,0-1.3,0.3-1.7,0.8c-0.3-0.9-1.1-1.5-2.1-1.5h-2.3c-1.2,0-2.2,1-2.2,2.2v-2.2v-5c0-1.2-1-2.2-2.2-2.2h-2.3      c-1.2,0-2.2,1-2.2,2.2v8.3v2.2V39v2.2v0.5v2.2l-5.2,5.2c-0.3,0.3-0.5,0.6-0.6,0.9c0.1,0.3,0.3,0.6,0.6,0.9l5.8,5.8      c0,0,0.1,0.1,0.1,0.1c0.5,0.6,1.3,1,2.1,1h18.3c1.6,0,2.8-1.3,2.8-2.8V35.8C49.1,34.2,47.9,33,46.3,33z" fill="#F9CCAA" fill-rule="evenodd"/><path clip-rule="evenodd" d="M45.9,57.5l3.2-1.1V35.8c0-1.6-1.3-2.8-2.8-2.8h-1.4      c-0.1-1.1-1.1-2-2.2-2h-2.3c-0.7,0-1.3,0.3-1.7,0.8c-0.3-0.9-1.1-1.5-2.1-1.5h-2.3c-1.2,0-2.2,1-2.2,2.2v-2.2v-5      c0-1.2-1-2.2-2.2-2.2h-2.3c-1.2,0-2.2,1-2.2,2.2v8.3v2.2v1L45.9,57.5z" fill="#F4BE9A" fill-rule="evenodd"/></g><path clip-rule="evenodd" d="M25.2,39v2.2v0.5v2.2l-5.2,5.2c-0.3,0.3-0.5,0.6-0.6,0.9     c0.1,0.3,0.3,0.6,0.6,0.9l5.3,5.3V38.3h-0.1V39z" fill="#F4BE9A" fill-rule="evenodd"/><g><path clip-rule="evenodd" d="M49.1,60.8v-4.9H25.2v4.9c0,1.8,1.8,3.2,4.1,3.2H45      C47.3,64,49.1,62.6,49.1,60.8z" fill="#CE0B5A" fill-rule="evenodd"/><path clip-rule="evenodd" d="M46.6,63.7c1.5-0.5,2.5-1.6,2.5-2.9v-4.9h-5v4.9      C44.2,62.1,45.2,63.2,46.6,63.7z" fill="#BA0859" fill-rule="evenodd"/></g></g></g></g></svg>