<?xml version="1.0" ?><!DOCTYPE svg  PUBLIC '-//W3C//DTD SVG 1.1//EN'  'http://www.w3.org/Graphics/SVG/1.1/DTD/svg11.dtd'><svg enable-background="new 0 0 64 64" height="64px" version="1.1" viewBox="0 0 64 64" width="64px" xml:space="preserve" xmlns="http://www.w3.org/2000/svg" xmlns:xlink="http://www.w3.org/1999/xlink"><g id="BG"/><g id="TEXT"/><g id="ARTWORK"><g><g><path d="M8.5,19.3h19.7H39h3.7h8.5v-8.5v-0.1c0-4.7-3.8-8.5-8.5-8.5H8.5C3.8,2.2,0,6,0,10.7v0.1     C0,15.5,3.8,19.3,8.5,19.3z" fill="#1174EA"/><path d="M8.5,19.3h19.7H39h3.7h8.5v-8.5H0C0,15.5,3.8,19.3,8.5,19.3z" fill="#154ECE"/></g><g><g><path d="M11.5,4.4h-1v0.7C7.8,6.3,6,9,6,12.1c0,3.1,1.8,5.8,4.5,7v0.7h1c4.3,0,7.7-3.5,7.7-7.7      C19.2,7.8,15.7,4.4,11.5,4.4z" fill="#F77308"/><path d="M18.5,12.1c0-4.3-3.5-7.7-7.7-7.7h-0.3v0.7C7.8,6.3,6,9,6,12.1c0,3.1,1.8,5.8,4.5,7v0.7h0.3      C15.1,19.8,18.5,16.3,18.5,12.1z" fill="#F46708"/></g><g><circle cx="10.5" cy="12.1" fill="#FFB600" r="7.7"/><path d="M5.1,6.6c3-3,7.9-3,10.9,0c3,3,3,7.9,0,10.9" fill="#FFA10B"/></g><g><circle cx="10.5" cy="12.1" fill="#F79200" r="4.8"/><path d="M5.7,12.1c0-2.7,2.1-4.8,4.8-4.8c2.7,0,4.8,2.2,4.8,4.8" fill="#FFA10B"/></g><g><path d="M10.7,6.2c0,0.1-0.1,0.2-0.2,0.2l0,0c-0.1,0-0.2-0.1-0.2-0.2V5.5c0-0.1,0.1-0.2,0.2-0.2l0,0      c0.1,0,0.2,0.1,0.2,0.2V6.2z" fill="#FFC200"/><path d="M10.7,18.7c0,0.1-0.1,0.2-0.2,0.2l0,0c-0.1,0-0.2-0.1-0.2-0.2V18c0-0.1,0.1-0.2,0.2-0.2l0,0      c0.1,0,0.2,0.1,0.2,0.2V18.7z" fill="#FFC200"/></g><g><path d="M14.8,8c-0.1,0.1-0.2,0.1-0.3,0l0,0c-0.1-0.1-0.1-0.2,0-0.3l0.5-0.5c0.1-0.1,0.2-0.1,0.3,0l0,0      c0.1,0.1,0.1,0.2,0,0.3L14.8,8z" fill="#FFC200"/><path d="M6,16.9c-0.1,0.1-0.2,0.1-0.3,0l0,0c-0.1-0.1-0.1-0.2,0-0.3l0.5-0.5c0.1-0.1,0.2-0.1,0.3,0l0,0      c0.1,0.1,0.1,0.2,0,0.3L6,16.9z" fill="#FFC200"/></g><g><path d="M16.4,12.3c-0.1,0-0.2-0.1-0.2-0.2l0,0c0-0.1,0.1-0.2,0.2-0.2h0.7c0.1,0,0.2,0.1,0.2,0.2l0,0      c0,0.1-0.1,0.2-0.2,0.2H16.4z" fill="#FFC200"/><path d="M3.9,12.3c-0.1,0-0.2-0.1-0.2-0.2l0,0c0-0.1,0.1-0.2,0.2-0.2h0.7c0.1,0,0.2,0.1,0.2,0.2l0,0      c0,0.1-0.1,0.2-0.2,0.2H3.9z" fill="#FFC200"/></g><g><path d="M14.6,16.4c-0.1-0.1-0.1-0.2,0-0.3l0,0c0.1-0.1,0.2-0.1,0.3,0l0.5,0.5c0.1,0.1,0.1,0.2,0,0.3l0,0      c-0.1,0.1-0.2,0.1-0.3,0L14.6,16.4z" fill="#FFC200"/><path d="M5.7,7.5c-0.1-0.1-0.1-0.2,0-0.3l0,0c0.1-0.1,0.2-0.1,0.3,0l0.5,0.5C6.6,7.8,6.6,8,6.5,8l0,0      C6.4,8.1,6.3,8.1,6.2,8L5.7,7.5z" fill="#FFC200"/></g><path d="M10,9.8h1c0.2,0,0.4,0.2,0.4,0.4c0,0.4,0.3,0.8,0.8,0.8c0.4,0,0.8-0.3,0.8-0.8c0-1-0.7-1.8-1.7-1.9V7.9     c0-0.4-0.3-0.8-0.8-0.8c-0.4,0-0.8,0.3-0.8,0.8v0.4c-0.9,0.1-1.7,0.9-1.7,1.9v1c0,1.1,0.9,1.9,1.9,1.9h1c0.2,0,0.4,0.2,0.4,0.4v1     c0,0.2-0.2,0.4-0.4,0.4h-1c-0.2,0-0.4-0.2-0.4-0.4c0-0.4-0.3-0.8-0.8-0.8c-0.4,0-0.8,0.3-0.8,0.8c0,1,0.7,1.8,1.7,1.9v0.4     c0,0.4,0.3,0.8,0.8,0.8c0.4,0,0.8-0.3,0.8-0.8v-0.4c0.9-0.1,1.7-0.9,1.7-1.9v-1c0-1.1-0.9-1.9-1.9-1.9h-1c-0.2,0-0.4-0.2-0.4-0.4     v-1C9.6,10,9.8,9.8,10,9.8z" fill="#F79200"/><path d="M10,9.5h1c0.2,0,0.4,0.2,0.4,0.4c0,0.4,0.3,0.8,0.8,0.8c0.4,0,0.8-0.3,0.8-0.8c0-1-0.7-1.8-1.7-1.9V7.6     c0-0.4-0.3-0.8-0.8-0.8c-0.4,0-0.8,0.3-0.8,0.8V8C8.8,8.1,8.1,8.9,8.1,9.9v1c0,1.1,0.9,1.9,1.9,1.9h1c0.2,0,0.4,0.2,0.4,0.4v1     c0,0.2-0.2,0.4-0.4,0.4h-1c-0.2,0-0.4-0.2-0.4-0.4c0-0.4-0.3-0.8-0.8-0.8c-0.4,0-0.8,0.3-0.8,0.8c0,1,0.7,1.8,1.7,1.9v0.4     c0,0.4,0.3,0.8,0.8,0.8c0.4,0,0.8-0.3,0.8-0.8v-0.4c0.9-0.1,1.7-0.9,1.7-1.9v-1c0-1.1-0.9-1.9-1.9-1.9h-1c-0.2,0-0.4-0.2-0.4-0.4     v-1C9.6,9.7,9.8,9.5,10,9.5z" fill="#FFB600"/><g><path d="M11.3,8V7.6c0-0.4-0.3-0.8-0.8-0.8h0v2.6H11c0.2,0,0.4,0.2,0.4,0.4c0,0.4,0.3,0.8,0.8,0.8      c0.4,0,0.8-0.3,0.8-0.8C13,8.9,12.2,8.1,11.3,8z" fill="#FFC200"/><path d="M11.3,16.5v-0.4c0.9-0.1,1.7-0.9,1.7-1.9v-1c0-1.1-0.9-1.9-1.9-1.9h-0.5v1.5H11c0.2,0,0.4,0.2,0.4,0.4v1      c0,0.2-0.2,0.4-0.4,0.4h-0.5v2.6h0C11,17.3,11.3,16.9,11.3,16.5z" fill="#FFC200"/></g></g><g><path d="M60,28.6c0,0.6-0.5,1.1-1.1,1.1H17.7c-0.6,0-1.1-0.5-1.1-1.1V8.1c0-0.6,0.5-1.1,1.1-1.1h41.2     C59.5,7,60,7.5,60,8.1V28.6z" fill="#93BD46"/><path d="M38.6,29.7h20.2c0.6,0,1.1-0.5,1.1-1.1V8.1C60,7.5,59.5,7,58.9,7H17.7c-0.5,0-0.9,0.3-1,0.7L38.6,29.7z" fill="#78AA43"/><path d="M57.6,26.5c0,0.5-0.4,0.9-0.9,0.9H19.9c-0.5,0-0.9-0.4-0.9-0.9V10.2c0-0.5,0.4-0.9,0.9-0.9h36.9     c0.5,0,0.9,0.4,0.9,0.9V26.5z" fill="#ACD651"/><path d="M36.3,27.3h20.4c0.5,0,0.9-0.4,0.9-0.9V10.2c0-0.5-0.4-0.9-0.9-0.9H19.9c-0.4,0-0.8,0.3-0.8,0.7     L36.3,27.3z" fill="#93BD46"/><g><g><circle cx="38.3" cy="18.3" fill="#5F8D3D" r="8.3"/><path d="M30,18.3c0-4.6,3.7-8.3,8.3-8.3s8.3,3.7,8.3,8.3" fill="#78AA43"/></g></g><g><circle cx="54.1" cy="23.9" fill="#78AA43" r="1.5"/><circle cx="22.5" cy="12.8" fill="#78AA43" r="1.5"/></g></g><path d="M55.5,19.3H42.7H28.2H8.5c-4.7,0-8.5-3.8-8.5-8.5v17v9.4v16.2c0,4.7,3.8,8.5,8.5,8.5h47    c4.7,0,8.5-3.8,8.5-8.5V27.8C64,23.1,60.2,19.3,55.5,19.3z" fill="#E00B58"/><path d="M55.5,19.3H42.7H28.2H8.5c-4.7,0-8.5-3.8-8.5-8.5v3.6l47.4,47.4h8.1c4.7,0,8.5-3.8,8.5-8.5V27.8    C64,23.1,60.2,19.3,55.5,19.3z" fill="#AA0B5B"/><g><g><g><path d="M5,26.1H3.5c-0.3,0-0.5-0.2-0.5-0.5c0-0.3,0.2-0.5,0.5-0.5H5c0.3,0,0.5,0.2,0.5,0.5       C5.5,25.9,5.3,26.1,5,26.1z" fill="#E00B58"/></g><g><path d="M56.2,26.1h-2.8c-0.3,0-0.5-0.2-0.5-0.5c0-0.3,0.2-0.5,0.5-0.5h2.8c0.3,0,0.5,0.2,0.5,0.5       C56.7,25.9,56.4,26.1,56.2,26.1z M50.5,26.1h-2.8c-0.3,0-0.5-0.2-0.5-0.5c0-0.3,0.2-0.5,0.5-0.5h2.8c0.3,0,0.5,0.2,0.5,0.5       C51,25.9,50.8,26.1,50.5,26.1z M44.8,26.1H42c-0.3,0-0.5-0.2-0.5-0.5c0-0.3,0.2-0.5,0.5-0.5h2.8c0.3,0,0.5,0.2,0.5,0.5       C45.3,25.9,45.1,26.1,44.8,26.1z M39.1,26.1h-2.8c-0.3,0-0.5-0.2-0.5-0.5c0-0.3,0.2-0.5,0.5-0.5h2.8c0.3,0,0.5,0.2,0.5,0.5       C39.6,25.9,39.4,26.1,39.1,26.1z M33.4,26.1h-2.8c-0.3,0-0.5-0.2-0.5-0.5c0-0.3,0.2-0.5,0.5-0.5h2.8c0.3,0,0.5,0.2,0.5,0.5       C33.9,25.9,33.7,26.1,33.4,26.1z M27.7,26.1h-2.8c-0.3,0-0.5-0.2-0.5-0.5c0-0.3,0.2-0.5,0.5-0.5h2.8c0.3,0,0.5,0.2,0.5,0.5       C28.2,25.9,28,26.1,27.7,26.1z M22,26.1h-2.8c-0.3,0-0.5-0.2-0.5-0.5c0-0.3,0.2-0.5,0.5-0.5H22c0.3,0,0.5,0.2,0.5,0.5       C22.5,25.9,22.3,26.1,22,26.1z M16.4,26.1h-2.8c-0.3,0-0.5-0.2-0.5-0.5c0-0.3,0.2-0.5,0.5-0.5h2.8c0.3,0,0.5,0.2,0.5,0.5       C16.9,25.9,16.6,26.1,16.4,26.1z M10.7,26.1H7.8c-0.3,0-0.5-0.2-0.5-0.5c0-0.3,0.2-0.5,0.5-0.5h2.8c0.3,0,0.5,0.2,0.5,0.5       C11.2,25.9,10.9,26.1,10.7,26.1z" fill="#E00B58"/></g><g><path d="M60.5,26.1H59c-0.3,0-0.5-0.2-0.5-0.5c0-0.3,0.2-0.5,0.5-0.5h1.5c0.3,0,0.5,0.2,0.5,0.5       C61,25.9,60.8,26.1,60.5,26.1z" fill="#E00B58"/></g></g><g><g><path d="M5,56.9H3.5c-0.3,0-0.5-0.2-0.5-0.5c0-0.3,0.2-0.5,0.5-0.5H5c0.3,0,0.5,0.2,0.5,0.5       C5.5,56.7,5.3,56.9,5,56.9z" fill="#890E63"/></g><g><path d="M56.2,56.9h-2.8c-0.3,0-0.5-0.2-0.5-0.5c0-0.3,0.2-0.5,0.5-0.5h2.8c0.3,0,0.5,0.2,0.5,0.5       C56.7,56.7,56.4,56.9,56.2,56.9z M50.5,56.9h-2.8c-0.3,0-0.5-0.2-0.5-0.5c0-0.3,0.2-0.5,0.5-0.5h2.8c0.3,0,0.5,0.2,0.5,0.5       C51,56.7,50.8,56.9,50.5,56.9z M44.8,56.9H42c-0.3,0-0.5-0.2-0.5-0.5c0-0.3,0.2-0.5,0.5-0.5h2.8c0.3,0,0.5,0.2,0.5,0.5       C45.3,56.7,45.1,56.9,44.8,56.9z M39.1,56.9h-2.8c-0.3,0-0.5-0.2-0.5-0.5c0-0.3,0.2-0.5,0.5-0.5h2.8c0.3,0,0.5,0.2,0.5,0.5       C39.6,56.7,39.4,56.9,39.1,56.9z M33.4,56.9h-2.8c-0.3,0-0.5-0.2-0.5-0.5c0-0.3,0.2-0.5,0.5-0.5h2.8c0.3,0,0.5,0.2,0.5,0.5       C33.9,56.7,33.7,56.9,33.4,56.9z M27.7,56.9h-2.8c-0.3,0-0.5-0.2-0.5-0.5c0-0.3,0.2-0.5,0.5-0.5h2.8c0.3,0,0.5,0.2,0.5,0.5       C28.2,56.7,28,56.9,27.7,56.9z M22,56.9h-2.8c-0.3,0-0.5-0.2-0.5-0.5c0-0.3,0.2-0.5,0.5-0.5H22c0.3,0,0.5,0.2,0.5,0.5       C22.5,56.7,22.3,56.9,22,56.9z M16.4,56.9h-2.8c-0.3,0-0.5-0.2-0.5-0.5c0-0.3,0.2-0.5,0.5-0.5h2.8c0.3,0,0.5,0.2,0.5,0.5       C16.9,56.7,16.6,56.9,16.4,56.9z M10.7,56.9H7.8c-0.3,0-0.5-0.2-0.5-0.5c0-0.3,0.2-0.5,0.5-0.5h2.8c0.3,0,0.5,0.2,0.5,0.5       C11.2,56.7,10.9,56.9,10.7,56.9z" fill="#890E63"/></g><g><path d="M60.5,56.9H59c-0.3,0-0.5-0.2-0.5-0.5c0-0.3,0.2-0.5,0.5-0.5h1.5c0.3,0,0.5,0.2,0.5,0.5       C61,56.7,60.8,56.9,60.5,56.9z" fill="#890E63"/></g></g></g></g></g></svg>