<?xml version="1.0" ?><!DOCTYPE svg  PUBLIC '-//W3C//DTD SVG 1.1//EN'  'http://www.w3.org/Graphics/SVG/1.1/DTD/svg11.dtd'><svg enable-background="new 0 0 64 64" height="64px" version="1.1" viewBox="0 0 64 64" width="64px" xml:space="preserve" xmlns="http://www.w3.org/2000/svg" xmlns:xlink="http://www.w3.org/1999/xlink"><g id="BG"/><g id="TEXT"/><g id="ARTWORK"><g><g><g><path d="M63.4,27.5c-0.7-1.2-2.1-2-3.5-2H4.1c-1.4,0-2.8,0.7-3.5,2c-0.7,1.2-0.8,2.7-0.2,4l13.3,26.1      c0.7,1.4,2.1,2.2,3.7,2.2h29.2c1.5,0,3-0.9,3.7-2.2l13.3-26.1C64.2,30.3,64.1,28.8,63.4,27.5z M53.2,33.8l-2.5,4.8H13.8      c-0.2,0-0.4,0-0.5,0.1l-2.5-4.9H53.2z M19.9,51.7l-2.5-4.8h29.1l-2.5,4.8H19.9z" fill="#93BD46"/><path d="M63.4,29.7c-0.7-1.2-2.1-2-3.5-2H4.1c-1.4,0-2.8,0.7-3.5,2c-0.2,0.3-0.3,0.7-0.4,1      c0.1,0.3,0.2,0.5,0.3,0.8l13.3,26.1c0.7,1.4,2.1,2.2,3.7,2.2h29.2c1.5,0,3-0.9,3.7-2.2l13.3-26.1c0.1-0.3,0.2-0.5,0.3-0.8      C63.7,30.4,63.6,30,63.4,29.7z M45.5,49l-1.4,4.8H19.9L18.5,49l-1.1-2.2h29.1L45.5,49z M52.1,36l-1.4,4.8H13.8      c-0.2,0-0.4,0-0.5,0.1L11.9,36l-1.1-2.2h42.4L52.1,36z" fill="#78AA43"/></g><g><g><g><path d="M15.2,31.5c-1.7,1.7-4.5,1.7-6.2,0l0,0c-1.7-1.7-1.7-4.5,0-6.2L28.9,5.4c1.7-1.7,4.5-1.7,6.2,0l0,0        c1.7,1.7,1.7,4.5,0,6.2L15.2,31.5z" fill="#FFA10B"/><path d="M15.2,31.5l19.9-19.9c1.7-1.7,1.7-4.5,0-6.2L9,31.5C10.7,33.2,13.5,33.2,15.2,31.5z" fill="#F79200"/></g><g><circle cx="11.7" cy="28.9" fill="#FFFFFF" r="2.4"/><path d="M14,28.9c0-1.3-1.1-2.4-2.4-2.4v4.7C13,31.2,14,30.2,14,28.9z" fill="#D1E0DF"/></g></g><g><g><path d="M48.8,31.5c1.7,1.7,4.5,1.7,6.2,0l0,0c1.7-1.7,1.7-4.5,0-6.2L35.1,5.4c-1.7-1.7-4.5-1.7-6.2,0l0,0        c-1.7,1.7-1.7,4.5,0,6.2L48.8,31.5z" fill="#FFA10B"/><path d="M48.8,31.5L28.9,11.6c-1.7-1.7-1.7-4.5,0-6.2L55,31.5C53.3,33.2,50.5,33.2,48.8,31.5z" fill="#F79200"/></g><g><circle cx="52.3" cy="28.9" fill="#FFFFFF" r="2.4"/><path d="M50,28.9c0-1.3,1.1-2.4,2.4-2.4v4.7C51,31.2,50,30.2,50,28.9z" fill="#D1E0DF"/></g></g></g><path d="M32,4.1c-1.1,0-2.2,0.4-3.1,1.3l-0.1,0.1c-1.6,1.7-1.6,4.4,0.1,6.1l3.1,3.1l3.1-3.1     c1.7-1.7,1.7-4.4,0.1-6.1l-0.1-0.1C34.2,4.5,33.1,4.1,32,4.1z" fill="#CE0B5A"/><path d="M35.1,11.6L35.1,11.6c0.2-0.2,0.4-0.5,0.6-0.7c0.1-0.1,0.1-0.2,0.2-0.4c0.1-0.1,0.2-0.3,0.2-0.4     c0.1-0.2,0.1-0.4,0.2-0.6c0-0.1,0.1-0.2,0.1-0.2c0-0.2,0.1-0.5,0.1-0.7c0,0,0-0.1,0-0.1c0-1.1-0.4-2.2-1.2-3.1c0,0,0,0,0,0     l-0.1-0.1L32,8.5l-3.1-3.1l-0.1,0.1c0,0,0,0,0,0c-0.8,0.9-1.2,2-1.2,3.1c0,0,0,0.1,0,0.1c0,0.2,0,0.5,0.1,0.7     c0,0.1,0,0.2,0.1,0.2c0,0.2,0.1,0.4,0.2,0.6c0.1,0.1,0.1,0.3,0.2,0.4c0.1,0.1,0.1,0.2,0.2,0.3c0.2,0.2,0.3,0.5,0.6,0.7l0,0v0     l3.1,3.1L35.1,11.6L35.1,11.6z" fill="#AA0B5B"/></g><g><g><path d="M21.7,58.6c0,0.7-0.6,1.3-1.3,1.3h-9.2c-0.7,0-1.3-0.6-1.3-1.3l0,0c0-0.7,0.6-1.3,1.3-1.3h9.2      C21.1,57.3,21.7,57.9,21.7,58.6L21.7,58.6z" fill="#78AA43"/><path d="M8.2,58.6c0,0.7-0.6,1.3-1.3,1.3H6.5c-0.7,0-1.3-0.6-1.3-1.3l0,0c0-0.7,0.6-1.3,1.3-1.3h0.4      C7.6,57.3,8.2,57.9,8.2,58.6L8.2,58.6z" fill="#78AA43"/><path d="M3.8,58.6c0,0.7-0.6,1.3-1.3,1.3H2c-0.7,0-1.3-0.6-1.3-1.3l0,0c0-0.7,0.6-1.3,1.3-1.3h0.4      C3.2,57.3,3.8,57.9,3.8,58.6L3.8,58.6z" fill="#78AA43"/></g><g><path d="M42.3,58.6c0-0.7,0.6-1.3,1.3-1.3h9.2c0.7,0,1.3,0.6,1.3,1.3l0,0c0,0.7-0.6,1.3-1.3,1.3h-9.2      C42.9,59.9,42.3,59.3,42.3,58.6L42.3,58.6z" fill="#78AA43"/><path d="M55.8,58.6c0-0.7,0.6-1.3,1.3-1.3h0.4c0.7,0,1.3,0.6,1.3,1.3l0,0c0,0.7-0.6,1.3-1.3,1.3h-0.4      C56.4,59.9,55.8,59.3,55.8,58.6L55.8,58.6z" fill="#78AA43"/><path d="M60.2,58.6c0-0.7,0.6-1.3,1.3-1.3H62c0.7,0,1.3,0.6,1.3,1.3l0,0c0,0.7-0.6,1.3-1.3,1.3h-0.4      C60.8,59.9,60.2,59.3,60.2,58.6L60.2,58.6z" fill="#78AA43"/></g></g></g></g></svg>