<?xml version="1.0" ?><!DOCTYPE svg  PUBLIC '-//W3C//DTD SVG 1.1//EN'  'http://www.w3.org/Graphics/SVG/1.1/DTD/svg11.dtd'><svg enable-background="new 0 0 64 64" height="64px" version="1.1" viewBox="0 0 64 64" width="64px" xml:space="preserve" xmlns="http://www.w3.org/2000/svg" xmlns:xlink="http://www.w3.org/1999/xlink"><g id="BG"/><g id="TEXT"/><g id="ARTWORK"><g><path d="M58.4,54.1c0,5.5-4.5,9.9-9.9,9.9H15.5c-5.5,0-9.9-4.5-9.9-9.9V9.9C5.6,4.5,10,0,15.5,0h32.9    c5.5,0,9.9,4.5,9.9,9.9V54.1z" fill="#93BD46"/><path d="M15.5,64h32.9c4.3,0,8-2.7,9.3-6.6H6.2C7.6,61.3,11.2,64,15.5,64z" fill="#78AA43"/><path d="M48.5,0H15.5C10,0,5.6,4.5,5.6,9.9v2.9l49,49c2.3-1.8,3.8-4.6,3.8-7.8V9.9C58.4,4.5,54,0,48.5,0z" fill="#78AA43"/><path d="M48.5,0H15.5C10,0,5.6,4.5,5.6,9.9v2.2c0-5.5,4.5-9.9,9.9-9.9h32.9c5.5,0,9.9,4.5,9.9,9.9V9.9    C58.4,4.5,54,0,48.5,0z" fill="#93BD46"/><path d="M54.6,61.9C54.6,61.8,54.7,61.8,54.6,61.9c0.3-0.2,0.6-0.5,0.8-0.7c0,0,0.1-0.1,0.1-0.1    c0.2-0.2,0.4-0.4,0.5-0.6c0.1-0.1,0.2-0.2,0.2-0.3c0.1-0.2,0.3-0.4,0.4-0.6c0.1-0.2,0.2-0.3,0.3-0.5c0.1-0.1,0.2-0.3,0.2-0.4    c0.1-0.2,0.2-0.3,0.2-0.5c0-0.1,0.1-0.2,0.1-0.3c0.1-0.2,0.1-0.3,0.2-0.5h-7.6L54.6,61.9z" fill="#5F8D3D"/><path d="M52.2,14.9c0,3.7-3,6.6-6.6,6.6H18.5c-3.7,0-6.6-3-6.6-6.6V13c0-3.7,3-6.6,6.6-6.6h27.1    c3.7,0,6.6,3,6.6,6.6V14.9z" fill="#5F8D3D"/><g><path d="M52.2,16c0,3.7-3,6.6-6.6,6.6H18.5c-3.7,0-6.6-3-6.6-6.6v-1.9c0-3.7,3-6.6,6.6-6.6h27.1     c3.7,0,6.6,3,6.6,6.6V16z" fill="#0D1923"/><path d="M45.5,7.5H18.5c-3.7,0-6.6,3-6.6,6.6v1h40.3v-1C52.2,10.4,49.2,7.5,45.5,7.5z" fill="#1B2B3A"/><g><path d="M43.8,20.4c-1.8,0-3.3-1.5-3.3-3.3V13c0-1.8,1.5-3.3,3.3-3.3s3.3,1.5,3.3,3.3v4.2      C47.1,18.9,45.6,20.4,43.8,20.4z M43.8,11.7c-0.7,0-1.3,0.6-1.3,1.3v4.2c0,0.7,0.6,1.3,1.3,1.3c0.7,0,1.3-0.6,1.3-1.3V13      C45.1,12.2,44.5,11.7,43.8,11.7z" fill="#FFFFFF"/></g><path d="M47.1,15V13c0-1.8-1.5-3.3-3.3-3.3s-3.3,1.5-3.3,3.3V15h2V13c0-0.7,0.6-1.3,1.3-1.3     c0.7,0,1.3,0.6,1.3,1.3V15H47.1z" fill="#D1E0DF"/></g><g><path d="M17.1,28.3h-1.7c-0.2,0-0.4,0-0.5,0.1c0,0-0.1,0-0.1,0c-0.1,0-0.3,0.1-0.4,0.1c0,0,0,0,0,0     c-0.1,0.1-0.3,0.2-0.4,0.2l0,0c-0.1,0.1-0.3,0.2-0.4,0.3l0,0l0,0c-0.4,0.4-0.7,1-0.7,1.7v0.6v1.1V33c0,1.4,1.1,2.5,2.5,2.5h1.7     c1.4,0,2.5-1.1,2.5-2.5v-0.6v-1.1v-0.6C19.6,29.4,18.5,28.3,17.1,28.3z" fill="#5F8D3D"/><path d="M27.5,28.3h-1.7c-0.2,0-0.4,0-0.5,0.1c0,0-0.1,0-0.1,0c-0.1,0-0.3,0.1-0.4,0.1c0,0,0,0,0,0     c-0.1,0.1-0.3,0.2-0.4,0.2l0,0c-0.1,0.1-0.3,0.2-0.4,0.3l0,0l0,0c-0.4,0.4-0.7,1-0.7,1.7v0.6v1.1V33c0,1.4,1.1,2.5,2.5,2.5h1.7     c1.4,0,2.5-1.1,2.5-2.5v-0.6v-1.1v-0.6C30,29.4,28.9,28.3,27.5,28.3z" fill="#5F8D3D"/><path d="M37.9,28.3h-1.7c-0.2,0-0.4,0-0.5,0.1c0,0-0.1,0-0.1,0c-0.1,0-0.3,0.1-0.4,0.1c0,0,0,0,0,0     c-0.1,0.1-0.3,0.2-0.4,0.2h0c-0.1,0.1-0.3,0.2-0.4,0.3l0,0l0,0c-0.4,0.4-0.7,1-0.7,1.7v0.6v1.1V33c0,1.4,1.1,2.5,2.5,2.5h1.7     c1.4,0,2.5-1.1,2.5-2.5v-0.6v-1.1v-0.6C40.4,29.4,39.3,28.3,37.9,28.3z" fill="#5F8D3D"/><path d="M17.1,38.5h-1.7c-0.2,0-0.4,0-0.5,0.1c0,0-0.1,0-0.1,0c-0.1,0-0.3,0.1-0.4,0.1c0,0,0,0,0,0     c-0.9,0.4-1.5,1.3-1.5,2.3v0.6v1.1v0.6c0,1.4,1.1,2.5,2.5,2.5h1.7c1.4,0,2.5-1.1,2.5-2.5v-0.6v-1.1V41     C19.6,39.6,18.5,38.5,17.1,38.5z" fill="#5F8D3D"/><path d="M27.5,38.5h-1.7c-0.2,0-0.4,0-0.5,0.1c0,0-0.1,0-0.1,0c-0.1,0-0.3,0.1-0.4,0.1c0,0,0,0,0,0     c-0.9,0.4-1.5,1.3-1.5,2.3v0.6v1.1v0.6c0,1.4,1.1,2.5,2.5,2.5h1.7c1.4,0,2.5-1.1,2.5-2.5v-0.6v-1.1V41     C30,39.6,28.9,38.5,27.5,38.5z" fill="#5F8D3D"/><path d="M37.9,38.5h-1.7c-0.2,0-0.4,0-0.5,0.1c0,0-0.1,0-0.1,0c-0.1,0-0.3,0.1-0.4,0.1c0,0,0,0,0,0     c-0.9,0.4-1.5,1.3-1.5,2.3v0.6v1.1v0.6c0,1.4,1.1,2.5,2.5,2.5h1.7c1.4,0,2.5-1.1,2.5-2.5v-0.6v-1.1V41     C40.4,39.6,39.3,38.5,37.9,38.5z" fill="#5F8D3D"/><path d="M17.1,48.7h-1.7c-0.2,0-0.4,0-0.5,0.1c0,0-0.1,0-0.1,0c-0.1,0-0.3,0.1-0.4,0.1c0,0,0,0,0,0     c-0.1,0.1-0.3,0.2-0.4,0.2l0,0c-0.1,0.1-0.3,0.2-0.4,0.3l0,0l0,0c-0.4,0.4-0.7,1-0.7,1.7v0.6v1.1v0.6c0,1.4,1.1,2.5,2.5,2.5h1.7     c1.4,0,2.5-1.1,2.5-2.5v-0.6v-1.1v-0.6C19.6,49.9,18.5,48.7,17.1,48.7z" fill="#5F8D3D"/><path d="M27.5,48.7h-1.7c-0.2,0-0.4,0-0.5,0.1c0,0-0.1,0-0.1,0c-0.1,0-0.3,0.1-0.4,0.1c0,0,0,0,0,0     c-0.1,0.1-0.3,0.2-0.4,0.2l0,0c-0.1,0.1-0.3,0.2-0.4,0.3l0,0l0,0c-0.4,0.4-0.7,1-0.7,1.7v0.6v1.1v0.6c0,1.4,1.1,2.5,2.5,2.5h1.7     c1.4,0,2.5-1.1,2.5-2.5v-0.6v-1.1v-0.6C30,49.9,28.9,48.7,27.5,48.7z" fill="#5F8D3D"/><path d="M37.9,48.7h-1.7c-0.2,0-0.4,0-0.5,0.1c0,0-0.1,0-0.1,0c-0.1,0-0.3,0.1-0.4,0.1c0,0,0,0,0,0     c-0.1,0.1-0.3,0.2-0.4,0.2h0c-0.1,0.1-0.3,0.2-0.4,0.3l0,0l0,0c-0.4,0.4-0.7,1-0.7,1.7v0.6v1.1v0.6c0,1.4,1.1,2.5,2.5,2.5h1.7     c1.4,0,2.5-1.1,2.5-2.5v-0.6v-1.1v-0.6C40.4,49.9,39.3,48.7,37.9,48.7z" fill="#5F8D3D"/></g><g><g><path d="M19.6,32c0,1.4-1.1,2.5-2.5,2.5h-1.7c-1.4,0-2.5-1.1-2.5-2.5v-1.7c0-1.4,1.1-2.5,2.5-2.5h1.7      c1.4,0,2.5,1.1,2.5,2.5V32z" fill="#2229AF"/><path d="M19.6,31.4c0,1.4-1.1,2.5-2.5,2.5h-1.7c-1.4,0-2.5-1.1-2.5-2.5v-1.7c0-1.4,1.1-2.5,2.5-2.5h1.7      c1.4,0,2.5,1.1,2.5,2.5V31.4z" fill="#1174EA"/><path d="M18.8,33.3c0.5-0.5,0.8-1.1,0.8-1.9v-1.7c0-1.4-1.1-2.5-2.5-2.5h-1.7c-0.7,0-1.4,0.3-1.9,0.8L18.8,33.3z      " fill="#154ECE"/></g><g><path d="M30,32c0,1.4-1.1,2.5-2.5,2.5h-1.7c-1.4,0-2.5-1.1-2.5-2.5v-1.7c0-1.4,1.1-2.5,2.5-2.5h1.7      c1.4,0,2.5,1.1,2.5,2.5V32z" fill="#2229AF"/><path d="M30,31.4c0,1.4-1.1,2.5-2.5,2.5h-1.7c-1.4,0-2.5-1.1-2.5-2.5v-1.7c0-1.4,1.1-2.5,2.5-2.5h1.7      c1.4,0,2.5,1.1,2.5,2.5V31.4z" fill="#1174EA"/><path d="M29.2,33.3c0.5-0.5,0.8-1.1,0.8-1.9v-1.7c0-1.4-1.1-2.5-2.5-2.5h-1.7c-0.7,0-1.4,0.3-1.9,0.8L29.2,33.3z      " fill="#154ECE"/></g><g><path d="M40.4,32c0,1.4-1.1,2.5-2.5,2.5h-1.7c-1.4,0-2.5-1.1-2.5-2.5v-1.7c0-1.4,1.1-2.5,2.5-2.5h1.7      c1.4,0,2.5,1.1,2.5,2.5V32z" fill="#2229AF"/><path d="M40.4,31.4c0,1.4-1.1,2.5-2.5,2.5h-1.7c-1.4,0-2.5-1.1-2.5-2.5v-1.7c0-1.4,1.1-2.5,2.5-2.5h1.7      c1.4,0,2.5,1.1,2.5,2.5V31.4z" fill="#1174EA"/><path d="M39.6,33.3c0.5-0.5,0.8-1.1,0.8-1.9v-1.7c0-1.4-1.1-2.5-2.5-2.5h-1.7c-0.7,0-1.4,0.3-1.9,0.8L39.6,33.3z      " fill="#154ECE"/></g><g><path d="M19.6,42.3c0,1.4-1.1,2.5-2.5,2.5h-1.7c-1.4,0-2.5-1.1-2.5-2.5v-1.7c0-1.4,1.1-2.5,2.5-2.5h1.7      c1.4,0,2.5,1.1,2.5,2.5V42.3z" fill="#2229AF"/><path d="M19.6,41.7c0,1.4-1.1,2.5-2.5,2.5h-1.7c-1.4,0-2.5-1.1-2.5-2.5V40c0-1.4,1.1-2.5,2.5-2.5h1.7      c1.4,0,2.5,1.1,2.5,2.5V41.7z" fill="#1174EA"/><path d="M18.8,43.5c0.5-0.5,0.8-1.1,0.8-1.9V40c0-1.4-1.1-2.5-2.5-2.5h-1.7c-0.7,0-1.4,0.3-1.9,0.8L18.8,43.5z" fill="#154ECE"/></g><g><path d="M30,42.3c0,1.4-1.1,2.5-2.5,2.5h-1.7c-1.4,0-2.5-1.1-2.5-2.5v-1.7c0-1.4,1.1-2.5,2.5-2.5h1.7      c1.4,0,2.5,1.1,2.5,2.5V42.3z" fill="#2229AF"/><path d="M30,41.7c0,1.4-1.1,2.5-2.5,2.5h-1.7c-1.4,0-2.5-1.1-2.5-2.5V40c0-1.4,1.1-2.5,2.5-2.5h1.7      c1.4,0,2.5,1.1,2.5,2.5V41.7z" fill="#1174EA"/><path d="M29.2,43.5c0.5-0.5,0.8-1.1,0.8-1.9V40c0-1.4-1.1-2.5-2.5-2.5h-1.7c-0.7,0-1.4,0.3-1.9,0.8L29.2,43.5z" fill="#154ECE"/></g><g><path d="M40.4,42.3c0,1.4-1.1,2.5-2.5,2.5h-1.7c-1.4,0-2.5-1.1-2.5-2.5v-1.7c0-1.4,1.1-2.5,2.5-2.5h1.7      c1.4,0,2.5,1.1,2.5,2.5V42.3z" fill="#2229AF"/><path d="M40.4,41.7c0,1.4-1.1,2.5-2.5,2.5h-1.7c-1.4,0-2.5-1.1-2.5-2.5V40c0-1.4,1.1-2.5,2.5-2.5h1.7      c1.4,0,2.5,1.1,2.5,2.5V41.7z" fill="#1174EA"/><path d="M39.6,43.5c0.5-0.5,0.8-1.1,0.8-1.9V40c0-1.4-1.1-2.5-2.5-2.5h-1.7c-0.7,0-1.4,0.3-1.9,0.8L39.6,43.5z" fill="#154ECE"/></g><g><path d="M19.6,52.5c0,1.4-1.1,2.5-2.5,2.5h-1.7c-1.4,0-2.5-1.1-2.5-2.5v-1.7c0-1.4,1.1-2.5,2.5-2.5h1.7      c1.4,0,2.5,1.1,2.5,2.5V52.5z" fill="#2229AF"/><path d="M19.6,51.9c0,1.4-1.1,2.5-2.5,2.5h-1.7c-1.4,0-2.5-1.1-2.5-2.5v-1.7c0-1.4,1.1-2.5,2.5-2.5h1.7      c1.4,0,2.5,1.1,2.5,2.5V51.9z" fill="#1174EA"/><path d="M18.8,53.8c0.5-0.5,0.8-1.1,0.8-1.9v-1.7c0-1.4-1.1-2.5-2.5-2.5h-1.7c-0.7,0-1.4,0.3-1.9,0.8L18.8,53.8z      " fill="#154ECE"/></g><g><path d="M30,52.5c0,1.4-1.1,2.5-2.5,2.5h-1.7c-1.4,0-2.5-1.1-2.5-2.5v-1.7c0-1.4,1.1-2.5,2.5-2.5h1.7      c1.4,0,2.5,1.1,2.5,2.5V52.5z" fill="#2229AF"/><path d="M30,51.9c0,1.4-1.1,2.5-2.5,2.5h-1.7c-1.4,0-2.5-1.1-2.5-2.5v-1.7c0-1.4,1.1-2.5,2.5-2.5h1.7      c1.4,0,2.5,1.1,2.5,2.5V51.9z" fill="#1174EA"/><path d="M29.2,53.8c0.5-0.5,0.8-1.1,0.8-1.9v-1.7c0-1.4-1.1-2.5-2.5-2.5h-1.7c-0.7,0-1.4,0.3-1.9,0.8L29.2,53.8z      " fill="#154ECE"/></g><g><path d="M40.4,52.5c0,1.4-1.1,2.5-2.5,2.5h-1.7c-1.4,0-2.5-1.1-2.5-2.5v-1.7c0-1.4,1.1-2.5,2.5-2.5h1.7      c1.4,0,2.5,1.1,2.5,2.5V52.5z" fill="#2229AF"/><path d="M40.4,51.9c0,1.4-1.1,2.5-2.5,2.5h-1.7c-1.4,0-2.5-1.1-2.5-2.5v-1.7c0-1.4,1.1-2.5,2.5-2.5h1.7      c1.4,0,2.5,1.1,2.5,2.5V51.9z" fill="#1174EA"/><path d="M39.6,53.8c0.5-0.5,0.8-1.1,0.8-1.9v-1.7c0-1.4-1.1-2.5-2.5-2.5h-1.7c-0.7,0-1.4,0.3-1.9,0.8L39.6,53.8z      " fill="#154ECE"/></g></g><g><path d="M48.8,40.3h-1.7c-1.4,0-2.5,1.1-2.5,2.5v0.9v1.8v6v0.9c0,1.4,1.1,2.5,2.5,2.5h1.7c1.4,0,2.5-1.1,2.5-2.5     v-0.9v-7.7v-0.9C51.3,41.4,50.2,40.3,48.8,40.3z" fill="#5F8D3D"/><path d="M48.8,28.3h-1.7c-1.4,0-2.5,1.1-2.5,2.5v0.9v1.8v0.3v0.9c0,1.4,1.1,2.5,2.5,2.5h1.7     c1.4,0,2.5-1.1,2.5-2.5v-0.9v-2.1v-0.9C51.3,29.4,50.2,28.3,48.8,28.3z" fill="#5F8D3D"/></g><g><path d="M51.3,51.4c0,1.4-1.1,2.5-2.5,2.5h-1.7c-1.4,0-2.5-1.1-2.5-2.5v-8.7c0-1.4,1.1-2.5,2.5-2.5h1.7     c1.4,0,2.5,1.1,2.5,2.5V51.4z" fill="#F77308"/><path d="M51.3,50.5c0,1.4-1.1,2.5-2.5,2.5h-1.7c-1.4,0-2.5-1.1-2.5-2.5v-8.7c0-1.4,1.1-2.5,2.5-2.5h1.7     c1.4,0,2.5,1.1,2.5,2.5V50.5z" fill="#FFC200"/><path d="M51.2,51.1c0.1-0.2,0.1-0.4,0.1-0.6v-8.7c0-1.4-1.1-2.5-2.5-2.5h-1.7c-1.4,0-2.5,1.1-2.5,2.5v2.7     L51.2,51.1z" fill="#FFA10B"/></g><g><path d="M51.3,33.8c0,1.4-1.1,2.5-2.5,2.5h-1.7c-1.4,0-2.5-1.1-2.5-2.5v-3.1c0-1.4,1.1-2.5,2.5-2.5h1.7     c1.4,0,2.5,1.1,2.5,2.5V33.8z" fill="#AA0B5B"/><path d="M51.3,32.8c0,1.4-1.1,2.5-2.5,2.5h-1.7c-1.4,0-2.5-1.1-2.5-2.5v-3.1c0-1.4,1.1-2.5,2.5-2.5h1.7     c1.4,0,2.5,1.1,2.5,2.5V32.8z" fill="#E00B58"/><path d="M51.2,33.5c0.1-0.2,0.1-0.4,0.1-0.6v-3.1c0-1.4-1.1-2.5-2.5-2.5h-1.7c-1.4,0-2.5,1.1-2.5,2.5v2.7     L51.2,33.5z" fill="#CE0B5A"/></g></g></g></svg>