<?xml version="1.0" ?><!DOCTYPE svg  PUBLIC '-//W3C//DTD SVG 1.1//EN'  'http://www.w3.org/Graphics/SVG/1.1/DTD/svg11.dtd'><svg enable-background="new 0 0 64 64" height="64px" version="1.1" viewBox="0 0 64 64" width="64px" xml:space="preserve" xmlns="http://www.w3.org/2000/svg" xmlns:xlink="http://www.w3.org/1999/xlink"><g id="BG"/><g id="TEXT"/><g id="ARTWORK"><g><path d="M62.1,44.1l-2.5-12.2c-0.2-0.8-0.9-1.4-1.8-1.4h-8.1V17.6c0-1.3-1.1-2.4-2.4-2.4H23.2h-3.8h-17    c-1.3,0-2.4,1.1-2.4,2.4C0,19,1.1,20,2.4,20H17h6.2c1.3,0,2.4,1.1,2.4,2.4c0,1.3-1.1,2.4-2.4,2.4H17H8.4c-1.3,0-2.4,1.1-2.4,2.4    c0,1.3,1.1,2.4,2.4,2.4H17h6.2c1.3,0,2.4,1.1,2.4,2.4c0,1.3-1.1,2.4-2.4,2.4H17h-2.6c-1.3,0-2.4,1.1-2.4,2.4s1.1,2.4,2.4,2.4H17    h6.2c1.3,0,2.4,1.1,2.4,2.4c0,1.3-1.1,2.4-2.4,2.4h-1.6c-1.3,0-2.4,1.1-2.4,2.4c0,1.3,1.1,2.4,2.4,2.4h40c1.3,0,2.4-1.1,2.4-2.4    C64,45.3,63.2,44.3,62.1,44.1z" fill="#E00B58"/><path d="M64,46.5c0-1.2-0.8-2.1-1.9-2.3l-2.5-12.2c-0.2-0.8-0.9-1.4-1.8-1.4h-8.1V17.6c0-1.3-1.1-2.4-2.4-2.4H23.2    h-3.8h-5.8l4.8,4.8h4.8c1.3,0,2.4,1.1,2.4,2.4c0,1.3-1.1,2.4-2.4,2.4h0l24,24h14.4C62.9,48.9,64,47.8,64,46.5z" fill="#AA0B5B"/><path d="M37.2,24.3v2.1c0,2.2,1.8,4,4,4h8.5V20.3h-8.5C39,20.3,37.2,22.1,37.2,24.3z" fill="#154ECE"/><path d="M41.2,20.3c-2.2,0-4,1.8-4,4v2.1c0,2.2,1.8,4,4,4h5.1V20.3H41.2z" fill="#2229AF"/><g><path d="M48.5,55c0,0.8-0.6,1.5-1.5,1.5H35.6c-0.8,0-1.5-0.6-1.5-1.5l0,0c0-0.8,0.6-1.5,1.5-1.5h11.4     C47.9,53.6,48.5,54.2,48.5,55L48.5,55z" fill="#1174EA"/><path d="M31.5,55c0,0.8-0.6,1.5-1.5,1.5h-3.6c-0.8,0-1.5-0.6-1.5-1.5l0,0c0-0.8,0.6-1.5,1.5-1.5h3.6     C30.9,53.6,31.5,54.2,31.5,55L31.5,55z" fill="#1174EA"/><path d="M22.6,55c0,0.8-0.6,1.5-1.5,1.5h-0.3c-0.8,0-1.5-0.6-1.5-1.5l0,0c0-0.8,0.6-1.5,1.5-1.5h0.3     C22,53.6,22.6,54.2,22.6,55L22.6,55z" fill="#1174EA"/><path d="M16.8,55c0,0.8-0.6,1.5-1.5,1.5H15c-0.8,0-1.5-0.6-1.5-1.5l0,0c0-0.8,0.6-1.5,1.5-1.5h0.3     C16.1,53.6,16.8,54.2,16.8,55L16.8,55z" fill="#1174EA"/><path d="M18,9c0,0.8-0.6,1.5-1.5,1.5H13c-0.8,0-1.5-0.6-1.5-1.5l0,0c0-0.8,0.6-1.5,1.5-1.5h3.6     C17.4,7.5,18,8.2,18,9L18,9z" fill="#E00B58"/><path d="M9.1,9c0,0.8-0.6,1.5-1.5,1.5H7.3c-0.8,0-1.5-0.6-1.5-1.5l0,0c0-0.8,0.6-1.5,1.5-1.5h0.3     C8.5,7.5,9.1,8.2,9.1,9L9.1,9z" fill="#E00B58"/><path d="M3.2,9c0,0.8-0.6,1.5-1.5,1.5H1.5C0.6,10.4,0,9.8,0,9l0,0c0-0.8,0.6-1.5,1.5-1.5h0.3     C2.6,7.5,3.2,8.2,3.2,9L3.2,9z" fill="#E00B58"/><g><g><circle cx="47.2" cy="48.9" fill="#1174EA" r="7.6"/><path d="M52.6,43.5c-3-3-7.8-3-10.8,0l10.8,10.8C55.6,51.3,55.6,46.4,52.6,43.5z" fill="#154ECE"/></g><g><circle cx="47.2" cy="48.9" fill="#154ECE" r="4.7"/><path d="M47.2,44.1c-2.6,0-4.7,2.1-4.7,4.7H52C52,46.2,49.8,44.1,47.2,44.1z" fill="#2229AF"/></g><g><circle cx="47.2" cy="48.9" fill="#FFFFFF" r="3"/><path d="M50.2,48.9c0-1.7-1.3-3-3-3v6C48.9,51.9,50.2,50.5,50.2,48.9z" fill="#D1E0DF"/></g></g></g><path d="M63.8,41.9c0,1.2-1,2.2-2.2,2.2l0,0c-1.2,0-2.2-1-2.2-2.2V40c0-1.2,1-2.2,2.2-2.2l0,0c1.2,0,2.2,1,2.2,2.2    V41.9z" fill="#FFA10B"/><path d="M62.1,44.1l-1.3-6.1c-0.8,0.3-1.4,1.1-1.4,2v1.9c0,1.2,1,2.2,2.2,2.2C61.8,44.1,61.9,44.1,62.1,44.1z" fill="#F77308"/><path d="M42.5,35.7c0,0.5-0.4,0.8-0.8,0.8h-3c-0.5,0-0.8-0.4-0.8-0.8l0,0c0-0.5,0.4-0.8,0.8-0.8h3    C42.1,34.9,42.5,35.3,42.5,35.7L42.5,35.7z" fill="#D1E0DF"/><path d="M49.1,29.3c0,0.6-0.5,1.2-1.2,1.2h-3.4c-0.6,0-1.2-0.5-1.2-1.2v-1c0-0.6,0.5-1.2,1.2-1.2h3.4    c0.6,0,1.2,0.5,1.2,1.2V29.3z" fill="#AA0B5B"/><path d="M59.6,31.9c-0.2-0.8-0.9-1.4-1.8-1.4h-8.1c0.1,2.1,1.8,3.7,3.8,3.7h6.5L59.6,31.9z" fill="#E00B58"/><path d="M7.1,34.5h-1H4.6h-1c-1.3,0-2.4,1.1-2.4,2.4s1.1,2.4,2.4,2.4h1h1.5h1c1.3,0,2.4-1.1,2.4-2.4    S8.5,34.5,7.1,34.5z" fill="#E00B58"/><path d="M13.5,44.1h-1H13.5h-1.1c-1.3,0-2.4,1.1-2.4,2.4s1.1,2.4,2.4,2.4h1h-0.9h1c1.3,0,2.4-1.1,2.4-2.4    S14.8,44.1,13.5,44.1z" fill="#E00B58"/></g></g></svg>