<?xml version="1.0" ?><!DOCTYPE svg  PUBLIC '-//W3C//DTD SVG 1.1//EN'  'http://www.w3.org/Graphics/SVG/1.1/DTD/svg11.dtd'><svg enable-background="new 0 0 64 64" height="64px" version="1.1" viewBox="0 0 64 64" width="64px" xml:space="preserve" xmlns="http://www.w3.org/2000/svg" xmlns:xlink="http://www.w3.org/1999/xlink"><g id="BG"/><g id="TEXT"/><g id="ARTWORK"><g><g><path d="M3.1,16.7v7.8c3.6,0.7,6.3,3.8,6.3,7.6c0,3.8-2.7,6.9-6.3,7.6v7.8h57.7V16.7H3.1z" fill="#FFA10B"/><path d="M60.9,50.5H3.1C1.4,50.5,0,49,0,47.3v-7.8c0-1.5,1.1-2.8,2.6-3.1c2.2-0.4,3.7-2.3,3.7-4.5     c0-2.2-1.6-4.1-3.7-4.5C1.1,27.2,0,25.9,0,24.4v-7.8c0-1.7,1.4-3.1,3.1-3.1h57.7c1.7,0,3.1,1.4,3.1,3.1v30.6     C64,49,62.6,50.5,60.9,50.5z M6.3,44.2h51.5V19.8H6.3v2.4c3.7,1.7,6.3,5.5,6.3,9.8c0,4.3-2.5,8.1-6.3,9.8V44.2z" fill="#FFB600"/></g><polygon fill="#F77308" points="60.9,16.7 3.1,16.7 3.1,19.3 31.2,47.3 60.9,47.3   "/><path d="M64,47.3V16.7c0-1.7-1.4-3.1-3.1-3.1H3.1c-1.6,0-2.9,1.2-3.1,2.7l11.7,11.7c-1-2.5-3-4.6-5.4-5.7v-2.4    h51.5v24.4H28l6.3,6.3h26.6C62.6,50.5,64,49,64,47.3z" fill="#FFA10B"/><g><path d="M28.8,21c0,0.7-0.6,1.3-1.3,1.3l0,0c-0.7,0-1.3-0.6-1.3-1.3v-3.5c0-0.7,0.6-1.3,1.3-1.3l0,0     c0.7,0,1.3,0.6,1.3,1.3V21z" fill="#FFA10B"/><path d="M28.8,29.5c0,0.7-0.6,1.3-1.3,1.3l0,0c-0.7,0-1.3-0.6-1.3-1.3V26c0-0.7,0.6-1.3,1.3-1.3l0,0     c0.7,0,1.3,0.6,1.3,1.3V29.5z" fill="#FFA10B"/><path d="M28.8,38c0,0.7-0.6,1.3-1.3,1.3l0,0c-0.7,0-1.3-0.6-1.3-1.3v-3.5c0-0.7,0.6-1.3,1.3-1.3l0,0     c0.7,0,1.3,0.6,1.3,1.3V38z" fill="#FFA10B"/><path d="M28.8,46.5c0,0.7-0.6,1.3-1.3,1.3l0,0c-0.7,0-1.3-0.6-1.3-1.3V43c0-0.7,0.6-1.3,1.3-1.3l0,0     c0.7,0,1.3,0.6,1.3,1.3V46.5z" fill="#FFA10B"/></g><g><path d="M53.4,30c-0.1-0.4-0.5-0.7-0.9-0.8l-4.3-0.6l-1.9-3.9c-0.2-0.4-0.6-0.7-1.1-0.7c-0.4,0-0.9,0.3-1,0.7     l-1.9,3.9l-4.3,0.6c-0.4,0.1-0.8,0.4-0.9,0.8c-0.1,0.4,0,0.9,0.3,1.2l3.1,3l-0.7,4.3c-0.1,0.4,0.1,0.9,0.5,1.1     c0.4,0.3,0.8,0.3,1.2,0.1l3.9-2l3.9,2c0.2,0.1,0.4,0.1,0.5,0.1c0.2,0,0.5-0.1,0.7-0.2c0.4-0.3,0.5-0.7,0.5-1.1L50,34.3l3.1-3     C53.5,30.9,53.6,30.5,53.4,30z" fill="#FFFFFF"/><path d="M50.6,37.4L50,34.3l3.1-3c0.3-0.3,0.4-0.8,0.3-1.2c-0.1-0.4-0.5-0.7-0.9-0.8l-4.3-0.6l-1.9-3.9     c-0.2-0.4-0.6-0.7-1.1-0.7c-0.4,0-0.9,0.3-1,0.7l-1.9,3.9l-0.4,0.1L50.6,37.4z" fill="#D1E0DF"/></g></g></g></svg>