<?xml version="1.0" ?><!DOCTYPE svg  PUBLIC '-//W3C//DTD SVG 1.1//EN'  'http://www.w3.org/Graphics/SVG/1.1/DTD/svg11.dtd'><svg enable-background="new 0 0 64 64" height="64px" version="1.1" viewBox="0 0 64 64" width="64px" xml:space="preserve" xmlns="http://www.w3.org/2000/svg" xmlns:xlink="http://www.w3.org/1999/xlink"><g id="BG"/><g id="TEXT"/><g id="ARTWORK"><g><g><g><path d="M3.1,4.4v7.8c3.6,0.7,6.3,3.8,6.3,7.6s-2.7,6.9-6.3,7.6V35h57.7V4.4H3.1z" fill="#FFA10B"/><path d="M60.9,38.1H3.1C1.4,38.1,0,36.7,0,35v-7.8c0-1.5,1.1-2.8,2.6-3.1c2.2-0.4,3.7-2.3,3.7-4.5      s-1.6-4.1-3.7-4.5C1.1,14.9,0,13.6,0,12.1V4.4c0-1.7,1.4-3.1,3.1-3.1h57.7c1.7,0,3.1,1.4,3.1,3.1V35      C64,36.7,62.6,38.1,60.9,38.1z M6.3,31.9h51.5V7.5H6.3v2.4c3.7,1.7,6.3,5.5,6.3,9.8c0,4.3-2.5,8.1-6.3,9.8V31.9z" fill="#FFB600"/></g><polygon fill="#F77308" points="60.9,4.4 3.1,4.4 3.1,7 31.2,35 60.9,35    "/><path d="M64,35V4.4c0-1.7-1.4-3.1-3.1-3.1H3.1C1.6,1.2,0.3,2.4,0,3.9l11.7,11.7c-1-2.5-3-4.6-5.4-5.7V7.5h51.5     v24.4H28l6.3,6.3h26.6C62.6,38.1,64,36.7,64,35z" fill="#FFA10B"/><g><path d="M28.8,8.7c0,0.7-0.6,1.3-1.3,1.3l0,0c-0.7,0-1.3-0.6-1.3-1.3V5.2c0-0.7,0.6-1.3,1.3-1.3l0,0      c0.7,0,1.3,0.6,1.3,1.3V8.7z" fill="#FFA10B"/><path d="M28.8,17.2c0,0.7-0.6,1.3-1.3,1.3l0,0c-0.7,0-1.3-0.6-1.3-1.3v-3.5c0-0.7,0.6-1.3,1.3-1.3l0,0      c0.7,0,1.3,0.6,1.3,1.3V17.2z" fill="#FFA10B"/><path d="M28.8,25.7c0,0.7-0.6,1.3-1.3,1.3l0,0c-0.7,0-1.3-0.6-1.3-1.3v-3.5c0-0.7,0.6-1.3,1.3-1.3l0,0      c0.7,0,1.3,0.6,1.3,1.3V25.7z" fill="#FFA10B"/><path d="M28.8,34.2c0,0.7-0.6,1.3-1.3,1.3l0,0c-0.7,0-1.3-0.6-1.3-1.3v-3.5c0-0.7,0.6-1.3,1.3-1.3l0,0      c0.7,0,1.3,0.6,1.3,1.3V34.2z" fill="#FFA10B"/></g></g><path d="M36.9,48.9c-1.1,0-2.1,0.2-3.1,0.7c-0.6,0.3-1.2,0.8-1.8,1.3l-1.9-3.8l4.5-8.9h-7.2l-7.8-15.5    c-0.1-0.2-0.3-0.4-0.6-0.5s-0.5,0-0.8,0.2l-2.4,1.9c-0.4,0.3-0.9,0.9-0.8,2.3c0,0.8,0.2,1.6,0.5,2.1l9.2,18.4l-1.9,3.8    c-0.5-0.5-1.1-0.9-1.8-1.3c-1-0.5-2-0.7-3.1-0.7c-2.6,0-5,1.5-6.2,3.8c-1.7,3.4-0.3,7.6,3.1,9.3c1,0.5,2,0.7,3.1,0.7    c2.6,0,5-1.5,6.2-3.8c0-0.1,0.1-0.2,0.1-0.3l0,0c0-0.1,0.1-0.1,0.1-0.2l3-6l3,6c0,0.1,0.1,0.1,0.1,0.2l0,0c0,0.1,0.1,0.2,0.1,0.3    c1.2,2.4,3.6,3.8,6.2,3.8c1.1,0,2.1-0.2,3.1-0.7c1.7-0.8,2.9-2.3,3.5-4c0.6-1.8,0.4-3.6-0.4-5.3C41.9,50.4,39.5,48.9,36.9,48.9z     M19.9,56.8C19.5,57.5,18.8,58,18,58c-0.3,0-0.7-0.1-1-0.2c-1-0.5-1.5-1.8-0.9-2.9c0.4-0.7,1.1-1.2,1.9-1.2c0.3,0,0.7,0.1,1,0.2    c0.5,0.3,0.9,0.7,1.1,1.2C20.2,55.7,20.1,56.3,19.9,56.8z M37.8,57.7c-0.3,0.2-0.6,0.2-1,0.2c-0.8,0-1.5-0.4-1.9-1.2    c-0.3-0.5-0.3-1.1-0.1-1.6c0.2-0.5,0.6-1,1.1-1.2c0.3-0.2,0.6-0.2,1-0.2c0.8,0,1.5,0.4,1.9,1.2C39.3,55.9,38.9,57.2,37.8,57.7z" fill="#1174EA"/><path d="M39.4,28.7c0.4-0.8,1-3.6-0.3-4.4l-2.4-1.9c-0.2-0.2-0.5-0.2-0.8-0.2c-0.3,0.1-0.5,0.2-0.6,0.5l-7.8,15.5    h7.2L39.4,28.7z" fill="#F77308"/><path d="M36.9,48.9c-1.1,0-2.1,0.2-3.1,0.7c-0.6,0.3-1.2,0.8-1.8,1.3l-1.9-3.8l4.5-8.9h-7.2v14.3l3,6    c0,0.1,0.1,0.1,0.1,0.2l0,0c0,0.1,0.1,0.2,0.1,0.3c1.2,2.4,3.6,3.8,6.2,3.8c1.1,0,2.1-0.2,3.1-0.7c1.7-0.8,2.9-2.3,3.5-4    c0.6-1.8,0.4-3.6-0.4-5.3C41.9,50.4,39.5,48.9,36.9,48.9z M37.8,57.7c-0.3,0.2-0.6,0.2-1,0.2c-0.8,0-1.5-0.4-1.9-1.2    c-0.3-0.5-0.3-1.1-0.1-1.6c0.2-0.5,0.6-1,1.1-1.2c0.3-0.2,0.6-0.2,1-0.2c0.8,0,1.5,0.4,1.9,1.2C39.3,55.9,38.9,57.2,37.8,57.7z" fill="#154ECE"/><path d="M30.1,47.1l4.5-8.9h-7.2l-7.8-15.5c-0.1-0.2-0.3-0.4-0.6-0.5s-0.5,0-0.8,0.2l-2.4,1.9    c-0.4,0.3-0.9,0.9-0.8,2.3c0,0.8,0.2,1.6,0.5,2.1l5.7,11.3L32,50.8L30.1,47.1z" fill="#154ECE"/><polygon fill="#2229AF" points="32,50.8 30.1,47.1 34.6,38.2 27.4,38.2 27.4,46.3   "/><path d="M37.8,31.9l1.6-3.2c0.4-0.8,1-3.6-0.3-4.4l-2.4-1.9c-0.2-0.2-0.5-0.2-0.8-0.2c-0.3,0.1-0.5,0.2-0.6,0.5    l-4.6,9.2H37.8z" fill="#FFA10B"/><g><g><g><g><path d="M38.1,18c-2.3,0-4.2-1.9-4.2-4.2c0-2.3,1.9-4.2,4.2-4.2c2.3,0,4.2,1.9,4.2,4.2        C42.3,16.1,40.4,18,38.1,18z M38.1,12c-1,0-1.7,0.8-1.7,1.7c0,1,0.8,1.7,1.7,1.7s1.7-0.8,1.7-1.7C39.8,12.8,39.1,12,38.1,12z" fill="#1174EA"/></g><g><path d="M50,29.9c-2.3,0-4.2-1.9-4.2-4.2c0-2.3,1.9-4.2,4.2-4.2c2.3,0,4.2,1.9,4.2,4.2        C54.2,28,52.4,29.9,50,29.9z M50,23.9c-1,0-1.7,0.8-1.7,1.7c0,1,0.8,1.7,1.7,1.7c1,0,1.7-0.8,1.7-1.7        C51.8,24.7,51,23.9,50,23.9z" fill="#154ECE"/></g></g><g><path d="M37.5,27.5c-0.3,0-0.6-0.1-0.9-0.4c-0.5-0.5-0.5-1.3,0-1.8l13.2-13.2c0.5-0.5,1.3-0.5,1.8,0       c0.5,0.5,0.5,1.3,0,1.8L38.3,27.2C38.1,27.4,37.8,27.5,37.5,27.5z" fill="#1174EA"/></g><path d="M39.8,25.7c-0.1-0.6-0.3-1.1-0.8-1.4l-0.7-0.6l-1.7,1.7c-0.5,0.5-0.5,1.3,0,1.8c0.2,0.2,0.6,0.4,0.9,0.4      c0.3,0,0.6-0.1,0.9-0.4L39.8,25.7z" fill="#154ECE"/></g><path d="M49.8,12.2l-5.7,5.7v3.5l7.5-7.5c0.5-0.5,0.5-1.3,0-1.8C51,11.7,50.3,11.7,49.8,12.2z" fill="#154ECE"/></g></g></g></svg>