<?xml version="1.0" ?><!DOCTYPE svg  PUBLIC '-//W3C//DTD SVG 1.1//EN'  'http://www.w3.org/Graphics/SVG/1.1/DTD/svg11.dtd'><svg enable-background="new 0 0 64 64" height="64px" version="1.1" viewBox="0 0 64 64" width="64px" xml:space="preserve" xmlns="http://www.w3.org/2000/svg" xmlns:xlink="http://www.w3.org/1999/xlink"><g id="BG"/><g id="TEXT"/><g id="ARTWORK"><g><g><path d="M49.8,60.3c0,2.1-1.7,3.7-3.7,3.7H17.9c-2.1,0-3.7-1.7-3.7-3.7V3.7c0-2.1,1.7-3.7,3.7-3.7h28.2     c2.1,0,3.7,1.7,3.7,3.7V60.3z" fill="#FFB600"/><path d="M44.3,60.3c0,2.1-1.2,3.7-2.6,3.7H22.3c-1.4,0-2.6-1.7-2.6-3.7V3.7c0-2.1,1.2-3.7,2.6-3.7h19.4     c1.4,0,2.6,1.7,2.6,3.7V60.3z" fill="#FFA10B"/><rect fill="#154ECE" height="50.2" width="35.7" x="14.2" y="7"/><path d="M37.9,61c0,1.1-0.9,2-2,2h-7.9c-1.1,0-2-0.9-2-2l0,0c0-1.1,0.9-2,2-2h7.9C37,59,37.9,59.9,37.9,61     L37.9,61z" fill="#F77308"/><path d="M37.9,60.5c0,1.1-0.9,2-2,2h-7.9c-1.1,0-2-0.9-2-2l0,0c0-1.1,0.9-2,2-2h7.9C37,58.5,37.9,59.4,37.9,60.5     L37.9,60.5z" fill="#FFB600"/><path d="M35.9,58.5h-7.9c-1.1,0-2,0.9-2,2h11.9C37.9,59.4,37,58.5,35.9,58.5z" fill="#FFC200"/><path d="M35.1,3.7c0,0.3-0.2,0.5-0.5,0.5h-5.2c-0.3,0-0.5-0.2-0.5-0.5l0,0c0-0.3,0.2-0.5,0.5-0.5h5.2     C34.9,3.2,35.1,3.4,35.1,3.7L35.1,3.7z" fill="#003DAA"/><circle cx="43.6" cy="3.7" fill="#003DAA" r="1.3"/><path d="M44.5,2.8c-0.5-0.5-1.3-0.5-1.8,0l1.8,1.8C45,4.1,45,3.3,44.5,2.8z" fill="#2229AF"/><polygon fill="#003DAA" points="49.8,42.6 49.8,7 14.2,7    "/><rect fill="#003DAA" height="50.2" width="24.6" x="19.7" y="7"/><polygon fill="#2229AF" points="44.3,37.1 44.3,7 19.7,7 19.7,12.5    "/></g><g><path d="M40.6,27.1c-0.2-0.3-0.6-0.5-1-0.5H24.8L24,24.9l-0.7-1.4c-0.2-0.4-0.7-0.7-1.1-0.6l-3.6,0     c-0.6,0-0.5,0.5-0.5,1.1c0,0.6,0.5,1.1,1.1,1.1h2.4l1.6,3.1c0,0,0,0,0,0l3.7,7.2c0.2,0.4,0.6,0.6,1,0.6h8.1c0.4,0,0.8-0.2,1-0.6     l3.7-7.2c0-0.1,0.1-0.1,0.1-0.2C40.8,27.6,40.7,27.3,40.6,27.1z M35.2,33.7h-6.7l-0.7-1.3h8.1L35.2,33.7z M37.1,30.1H26.8     c-0.1,0-0.1,0-0.2,0l-0.2-0.4l-0.5-1h11.7L37.1,30.1z" fill="#2672F9"/><path d="M39.6,26.5H24.8L24,24.9l-0.7-1.4c-0.2-0.4-0.7-0.7-1.1-0.6l-2.5,0V25h1.8l1.6,3.1c0,0,0,0,0,0l3.7,7.2     c0.2,0.4,0.6,0.6,1,0.6h8.1c0.4,0,0.8-0.2,1-0.6l3.7-7.2c0-0.1,0.1-0.1,0.1-0.2c0.1-0.3,0-0.6-0.1-0.9     C40.4,26.7,40,26.5,39.6,26.5z M35.2,33.7h-6.7l-0.7-1.3h8.1L35.2,33.7z M37.1,30.1H26.8c-0.1,0-0.1,0-0.2,0l-0.2-0.4l-0.5-1     h11.7L37.1,30.1z" fill="#154ECE"/><circle cx="27.9" cy="38.8" fill="#154ECE" r="2.3"/><circle cx="35.9" cy="38.8" fill="#154ECE" r="2.3"/></g></g></g></svg>