<?xml version="1.0" ?><!DOCTYPE svg  PUBLIC '-//W3C//DTD SVG 1.1//EN'  'http://www.w3.org/Graphics/SVG/1.1/DTD/svg11.dtd'><svg enable-background="new 0 0 64 64" height="64px" version="1.1" viewBox="0 0 64 64" width="64px" xml:space="preserve" xmlns="http://www.w3.org/2000/svg" xmlns:xlink="http://www.w3.org/1999/xlink"><g id="BG"/><g id="TEXT"/><g id="ARTWORK"><g><g><path d="M36.9,26.3h-8.2c-2.9,0-5.2-2.3-5.2-5.2V5.7c0-0.6-0.4-1.1-0.9-1.3C22,4.1,21.4,4.3,21,4.7l-3.2,3.2     l-3.2-3.2c-0.4-0.4-1-0.5-1.6-0.3c-0.5,0.2-0.9,0.7-0.9,1.3v15.4c0,9.1,7.4,16.6,16.6,16.6h8.2c0.8,0,1.4-0.6,1.4-1.4v-8.5     C38.4,27,37.7,26.3,36.9,26.3z" fill="#AA0B5B"/><path d="M27.1,37.7h8.2c2.9,0,5.2,2.3,5.2,5.2v15.4c0,0.6,0.4,1.1,0.9,1.3c0.5,0.2,1.2,0.1,1.6-0.3l3.2-3.2     l3.2,3.2c0.4,0.4,1,0.5,1.6,0.3c0.5-0.2,0.9-0.7,0.9-1.3V42.9c0-9.1-7.4-16.6-16.6-16.6h-8.2c-0.8,0-1.4,0.6-1.4,1.4v8.5     C25.6,37,26.3,37.7,27.1,37.7z" fill="#AA0B5B"/><path d="M37.5,37.7h1.6c0.8,0,1.4-0.6,1.4-1.4v-8.5c0-0.2-0.1-0.5-0.2-0.7c-1.6-0.5-3.2-0.8-5-0.8h-4.6     c0,0,0,0,0,0h-1.6c-0.8,0-1.4,0.6-1.4,1.4v8.5c0,0.6,0.3,1,0.8,1.3c0.7,0.1,1.4,0.2,2.2,0.2h4.6L37.5,37.7     C37.5,37.7,37.5,37.7,37.5,37.7z" fill="#890E63"/><path d="M28.7,26.3C28.7,26.3,28.7,26.3,28.7,26.3l-1.6,0c-0.8,0-1.4,0.6-1.4,1.4v8.5c0,0.6,0.3,1,0.8,1.3     c0.7,0.1,1.4,0.2,2.2,0.2h6.7c0,0,0,0,0,0h1.6c0.8,0,1.4-0.6,1.4-1.4v-8.5c0-0.6-0.3-1-0.8-1.3c-0.7-0.1-1.4-0.2-2.2-0.2H28.7z" fill="#E00B58"/><path d="M37.6,26.5c-0.7-0.1-1.4-0.2-2.2-0.2h-6.7c0,0,0,0,0,0h-1.6c-0.3,0-0.6,0.1-0.8,0.3l11,11     c0.6-0.2,1.1-0.7,1.1-1.4v-8.5C38.4,27.2,38.1,26.7,37.6,26.5z" fill="#C60554"/></g><g><g><path d="M62.6,44.7c0,5.4-4.3,9.7-9.7,9.7H11.1c-5.4,0-9.7-4.3-9.7-9.7V19.3c0-5.4,4.3-9.7,9.7-9.7h41.7      c5.4,0,9.7,4.3,9.7,9.7V44.7z" fill="#93BD46"/><path d="M11.1,54.4h41.7c3.1,0,5.8-1.5,7.6-3.7h-57C5.3,53,8,54.4,11.1,54.4z" fill="#78AA43"/><path d="M62.6,44.7V19.3c0-5.4-4.3-9.7-9.7-9.7H11.1c-4.4,0-8.1,2.9-9.3,6.9l38,38h13.1      C58.2,54.4,62.6,50.1,62.6,44.7z" fill="#78AA43"/><g><g><circle cx="8.7" cy="17.4" fill="#5F8D3D" r="1.2"/><circle cx="15.3" cy="17.4" fill="#93BD46" r="1.2"/><circle cx="22" cy="17.4" fill="#5F8D3D" r="1.2"/><circle cx="28.7" cy="17.4" fill="#5F8D3D" r="1.2"/><circle cx="35.3" cy="17.4" fill="#5F8D3D" r="1.2"/><circle cx="42" cy="17.4" fill="#93BD46" r="1.2"/><circle cx="48.7" cy="17.4" fill="#5F8D3D" r="1.2"/><circle cx="55.3" cy="17.4" fill="#93BD46" r="1.2"/></g><g><circle cx="8.7" cy="23.2" fill="#93BD46" r="1.2"/><circle cx="15.3" cy="23.2" fill="#5F8D3D" r="1.2"/><circle cx="22" cy="23.2" fill="#93BD46" r="1.2"/><circle cx="28.7" cy="23.2" fill="#5F8D3D" r="1.2"/><circle cx="35.3" cy="23.2" fill="#5F8D3D" r="1.2"/><circle cx="42" cy="23.2" fill="#5F8D3D" r="1.2"/><circle cx="48.7" cy="23.2" fill="#93BD46" r="1.2"/><circle cx="55.3" cy="23.2" fill="#5F8D3D" r="1.2"/></g><g><circle cx="8.7" cy="29.1" fill="#5F8D3D" r="1.2"/><circle cx="15.3" cy="29.1" fill="#5F8D3D" r="1.2"/><circle cx="22" cy="29.1" fill="#5F8D3D" r="1.2"/><circle cx="28.7" cy="29.1" fill="#5F8D3D" r="1.2"/><circle cx="35.3" cy="29.1" fill="#5F8D3D" r="1.2"/><circle cx="42" cy="29.1" fill="#5F8D3D" r="1.2"/><circle cx="48.7" cy="29.1" fill="#5F8D3D" r="1.2"/><circle cx="55.3" cy="29.1" fill="#5F8D3D" r="1.2"/></g><g><circle cx="8.7" cy="34.9" fill="#5F8D3D" r="1.2"/><circle cx="15.3" cy="34.9" fill="#5F8D3D" r="1.2"/><circle cx="22" cy="34.9" fill="#5F8D3D" r="1.2"/><circle cx="28.7" cy="34.9" fill="#5F8D3D" r="1.2"/><circle cx="35.3" cy="34.9" fill="#5F8D3D" r="1.2"/><circle cx="42" cy="34.9" fill="#5F8D3D" r="1.2"/><circle cx="48.7" cy="34.9" fill="#5F8D3D" r="1.2"/><circle cx="55.3" cy="34.9" fill="#5F8D3D" r="1.2"/></g><g><circle cx="8.7" cy="40.8" fill="#78AA43" r="1.2"/><circle cx="15.3" cy="40.8" fill="#5F8D3D" r="1.2"/><circle cx="22" cy="40.8" fill="#78AA43" r="1.2"/><circle cx="28.7" cy="40.8" fill="#5F8D3D" r="1.2"/><circle cx="35.3" cy="40.8" fill="#5F8D3D" r="1.2"/><circle cx="42" cy="40.8" fill="#5F8D3D" r="1.2"/><circle cx="48.7" cy="40.8" fill="#93BD46" r="1.2"/><circle cx="55.3" cy="40.8" fill="#5F8D3D" r="1.2"/></g><g><circle cx="8.7" cy="46.6" fill="#5F8D3D" r="1.2"/><circle cx="15.3" cy="46.6" fill="#78AA43" r="1.2"/><circle cx="22" cy="46.6" fill="#5F8D3D" r="1.2"/><circle cx="28.7" cy="46.6" fill="#5F8D3D" r="1.2"/><circle cx="35.3" cy="46.6" fill="#5F8D3D" r="1.2"/><circle cx="42" cy="46.6" fill="#93BD46" r="1.2"/><circle cx="48.7" cy="46.6" fill="#5F8D3D" r="1.2"/><circle cx="55.3" cy="46.6" fill="#93BD46" r="1.2"/></g></g><path d="M54.3,54.3c0.2,0,0.5-0.1,0.7-0.1c0.1,0,0.2-0.1,0.3-0.1c0.2-0.1,0.5-0.1,0.7-0.2c0.1,0,0.2-0.1,0.3-0.1      c0.2-0.1,0.5-0.2,0.7-0.3c0.1,0,0.2-0.1,0.2-0.1c0.3-0.1,0.5-0.3,0.8-0.4c0,0,0.1,0,0.1-0.1c0.9-0.6,1.7-1.3,2.4-2.1H36.1      l3.7,3.7h13.1c0.4,0,0.7,0,1.1-0.1C54,54.4,54.2,54.3,54.3,54.3z" fill="#5F8D3D"/><path d="M61.6,26.3H37.7V10.2c0-1.3-1.1-2.4-2.4-2.4h-6.5c-1.3,0-2.4,1.1-2.4,2.4v16.1H2.4      c-1.3,0-2.4,1.1-2.4,2.4v6.5c0,1.3,1.1,2.4,2.4,2.4h23.9v16.1c0,1.3,1.1,2.4,2.4,2.4h6.5c1.3,0,2.4-1.1,2.4-2.4V37.7h23.9      c1.3,0,2.4-1.1,2.4-2.4v-6.5C64,27.4,62.9,26.3,61.6,26.3z" fill="#E00B58"/><path d="M26.3,50.7v3.1c0,0.2,0,0.4,0.1,0.6h11.2c0.1-0.2,0.1-0.4,0.1-0.6v-3.1H26.3z" fill="#AA0B5B"/><path d="M62.6,37.5V26.5c-0.3-0.1-0.6-0.2-1-0.2H37.7V10.2c0-0.2,0-0.4-0.1-0.6H26.4c-0.1,0.2-0.1,0.4-0.1,0.6      v16.1H11.7l11.3,11.3h3.3v3.3l11.3,11.3V37.7h23.9C61.9,37.7,62.3,37.6,62.6,37.5z" fill="#AA0B5B"/></g><polyline fill="#AA0B5B" points="26.3,37.7 26.3,26.3 20.7,26.3    "/></g></g></g></svg>