<?xml version="1.0" ?><!DOCTYPE svg  PUBLIC '-//W3C//DTD SVG 1.1//EN'  'http://www.w3.org/Graphics/SVG/1.1/DTD/svg11.dtd'><svg enable-background="new 0 0 64 64" height="64px" version="1.1" viewBox="0 0 64 64" width="64px" xml:space="preserve" xmlns="http://www.w3.org/2000/svg" xmlns:xlink="http://www.w3.org/1999/xlink"><g id="BG"/><g id="TEXT"/><g id="ARTWORK"><g><g><g><g><path d="M16.7,0.9h-2v1.4C9.6,4.6,6.1,9.8,6.1,15.8s3.6,11.1,8.7,13.5v1.4h2c8.2,0,14.9-6.7,14.9-14.9       S24.9,0.9,16.7,0.9z" fill="#F77308"/><path d="M30.2,15.8c0-8.2-6.7-14.9-14.9-14.9h-0.6v1.4C9.6,4.6,6.1,9.8,6.1,15.8s3.6,11.1,8.7,13.5v1.4h0.6       C23.6,30.6,30.2,24,30.2,15.8z" fill="#F46708"/></g><g><circle cx="14.9" cy="15.8" fill="#FFB600" r="14.9"/><path d="M4.4,5.3c5.8-5.8,15.2-5.8,21,0c5.8,5.8,5.8,15.2,0,21" fill="#FFA10B"/></g><g><circle cx="14.9" cy="15.8" fill="#F79200" r="9.3"/><path d="M5.6,15.8c0-5.1,4.1-9.3,9.3-9.3c5.1,0,9.3,4.1,9.3,9.3" fill="#FFA10B"/></g><g><path d="M15.2,4.4c0,0.2-0.2,0.4-0.4,0.4l0,0c-0.2,0-0.4-0.2-0.4-0.4V3.1c0-0.2,0.2-0.4,0.4-0.4l0,0       c0.2,0,0.4,0.2,0.4,0.4V4.4z" fill="#FFC200"/><path d="M15.2,28.5c0,0.2-0.2,0.4-0.4,0.4l0,0c-0.2,0-0.4-0.2-0.4-0.4v-1.3c0-0.2,0.2-0.4,0.4-0.4l0,0       c0.2,0,0.4,0.2,0.4,0.4V28.5z" fill="#FFC200"/></g><g><path d="M23.2,8c-0.1,0.1-0.4,0.1-0.5,0l0,0c-0.1-0.1-0.1-0.4,0-0.5l0.9-0.9c0.1-0.1,0.4-0.1,0.5,0l0,0       c0.1,0.1,0.1,0.4,0,0.5L23.2,8z" fill="#FFC200"/><path d="M6.1,25c-0.1,0.1-0.4,0.1-0.5,0l0,0c-0.1-0.1-0.1-0.4,0-0.5l0.9-0.9c0.1-0.1,0.4-0.1,0.5,0l0,0       c0.1,0.1,0.1,0.4,0,0.5L6.1,25z" fill="#FFC200"/></g><g><path d="M26.2,16.1c-0.2,0-0.4-0.2-0.4-0.4l0,0c0-0.2,0.2-0.4,0.4-0.4h1.3c0.2,0,0.4,0.2,0.4,0.4l0,0       c0,0.2-0.2,0.4-0.4,0.4H26.2z" fill="#FFC200"/><path d="M2.1,16.1c-0.2,0-0.4-0.2-0.4-0.4l0,0c0-0.2,0.2-0.4,0.4-0.4h1.3c0.2,0,0.4,0.2,0.4,0.4l0,0       c0,0.2-0.2,0.4-0.4,0.4H2.1z" fill="#FFC200"/></g><g><path d="M22.7,24.1c-0.1-0.1-0.1-0.4,0-0.5l0,0c0.1-0.1,0.4-0.1,0.5,0l0.9,0.9c0.1,0.1,0.1,0.4,0,0.5l0,0       c-0.1,0.1-0.4,0.1-0.5,0L22.7,24.1z" fill="#FFC200"/><path d="M5.6,7c-0.1-0.1-0.1-0.4,0-0.5l0,0c0.1-0.1,0.4-0.1,0.5,0l0.9,0.9c0.1,0.1,0.1,0.4,0,0.5l0,0       C6.9,8.1,6.7,8.1,6.5,8L5.6,7z" fill="#FFC200"/></g><path d="M13.9,11.4h1.9c0.4,0,0.8,0.4,0.8,0.8c0,0.8,0.7,1.5,1.5,1.5c0.8,0,1.5-0.7,1.5-1.5      c0-1.9-1.4-3.4-3.2-3.7V7.8c0-0.8-0.7-1.5-1.5-1.5c-0.8,0-1.5,0.7-1.5,1.5v0.7c-1.8,0.3-3.2,1.8-3.2,3.7v1.9      c0,2.1,1.7,3.7,3.7,3.7h1.9c0.4,0,0.8,0.4,0.8,0.8v1.9c0,0.4-0.4,0.8-0.8,0.8h-1.9c-0.4,0-0.8-0.4-0.8-0.8      c0-0.8-0.7-1.5-1.5-1.5c-0.8,0-1.5,0.7-1.5,1.5c0,1.9,1.4,3.4,3.2,3.7v0.7c0,0.8,0.7,1.5,1.5,1.5c0.8,0,1.5-0.7,1.5-1.5v-0.7      c1.8-0.3,3.2-1.8,3.2-3.7v-1.9c0-2.1-1.7-3.7-3.7-3.7h-1.9c-0.4,0-0.8-0.4-0.8-0.8v-1.9C13.1,11.7,13.5,11.4,13.9,11.4z" fill="#F79200"/><path d="M13.9,10.8h1.9c0.4,0,0.8,0.4,0.8,0.8c0,0.8,0.7,1.5,1.5,1.5c0.8,0,1.5-0.7,1.5-1.5      c0-1.9-1.4-3.4-3.2-3.7V7.2c0-0.8-0.7-1.5-1.5-1.5c-0.8,0-1.5,0.7-1.5,1.5v0.7c-1.8,0.3-3.2,1.8-3.2,3.7v1.9      c0,2.1,1.7,3.7,3.7,3.7h1.9c0.4,0,0.8,0.4,0.8,0.8v1.9c0,0.4-0.4,0.8-0.8,0.8h-1.9c-0.4,0-0.8-0.4-0.8-0.8      c0-0.8-0.7-1.5-1.5-1.5c-0.8,0-1.5,0.7-1.5,1.5c0,1.9,1.4,3.4,3.2,3.7v0.7c0,0.8,0.7,1.5,1.5,1.5c0.8,0,1.5-0.7,1.5-1.5v-0.7      c1.8-0.3,3.2-1.8,3.2-3.7V18c0-2.1-1.7-3.7-3.7-3.7h-1.9c-0.4,0-0.8-0.4-0.8-0.8v-1.9C13.1,11.2,13.5,10.8,13.9,10.8z" fill="#FFB600"/><g><path d="M16.3,7.9V7.2c0-0.8-0.7-1.5-1.5-1.5h0v5.1h0.9c0.4,0,0.8,0.4,0.8,0.8c0,0.8,0.7,1.5,1.5,1.5       c0.8,0,1.5-0.7,1.5-1.5C19.5,9.7,18.1,8.2,16.3,7.9z" fill="#FFC200"/><path d="M16.3,24.3v-0.7c1.8-0.3,3.2-1.8,3.2-3.7V18c0-2.1-1.7-3.7-3.7-3.7h-0.9v2.9h0.9c0.4,0,0.8,0.4,0.8,0.8       v1.9c0,0.4-0.4,0.8-0.8,0.8h-0.9v5.1h0C15.7,25.8,16.3,25.1,16.3,24.3z" fill="#FFC200"/></g></g><g><g><g><path d="M49.1,33.4h-2v1.4c-5.1,2.4-8.7,7.5-8.7,13.5s3.6,11.1,8.7,13.5v1.4h2c8.2,0,14.9-6.7,14.9-14.9        S57.3,33.4,49.1,33.4z" fill="#F77308"/><path d="M62.7,48.2c0-8.2-6.7-14.9-14.9-14.9h-0.6v1.4c-5.1,2.4-8.7,7.5-8.7,13.5s3.6,11.1,8.7,13.5v1.4h0.6        C56,63.1,62.7,56.4,62.7,48.2z" fill="#F46708"/></g><g><circle cx="47.3" cy="48.2" fill="#FFB600" r="14.9"/><path d="M36.8,37.7c5.8-5.8,15.2-5.8,21,0s5.8,15.2,0,21" fill="#FFA10B"/></g><g><circle cx="47.3" cy="48.2" fill="#F79200" r="9.3"/><path d="M38.1,48.2c0-5.1,4.1-9.3,9.3-9.3c5.1,0,9.3,4.1,9.3,9.3" fill="#FFA10B"/></g><g><g><path d="M47.7,36.8c0,0.2-0.2,0.4-0.4,0.4l0,0c-0.2,0-0.4-0.2-0.4-0.4v-1.3c0-0.2,0.2-0.4,0.4-0.4l0,0         c0.2,0,0.4,0.2,0.4,0.4V36.8z" fill="#FFC200"/><path d="M47.7,60.9c0,0.2-0.2,0.4-0.4,0.4l0,0c-0.2,0-0.4-0.2-0.4-0.4v-1.3c0-0.2,0.2-0.4,0.4-0.4l0,0         c0.2,0,0.4,0.2,0.4,0.4V60.9z" fill="#FFC200"/></g><g><path d="M55.6,40.4c-0.1,0.1-0.4,0.1-0.5,0l0,0c-0.1-0.1-0.1-0.4,0-0.5L56,39c0.1-0.1,0.4-0.1,0.5,0l0,0         c0.1,0.1,0.1,0.4,0,0.5L55.6,40.4z" fill="#FFC200"/><path d="M38.6,57.5c-0.1,0.1-0.4,0.1-0.5,0l0,0c-0.1-0.1-0.1-0.4,0-0.5L39,56c0.1-0.1,0.4-0.1,0.5,0l0,0         c0.1,0.1,0.1,0.4,0,0.5L38.6,57.5z" fill="#FFC200"/></g><g><path d="M58.7,48.6c-0.2,0-0.4-0.2-0.4-0.4l0,0c0-0.2,0.2-0.4,0.4-0.4H60c0.2,0,0.4,0.2,0.4,0.4l0,0         c0,0.2-0.2,0.4-0.4,0.4H58.7z" fill="#FFC200"/><path d="M34.6,48.6c-0.2,0-0.4-0.2-0.4-0.4l0,0c0-0.2,0.2-0.4,0.4-0.4h1.3c0.2,0,0.4,0.2,0.4,0.4l0,0         c0,0.2-0.2,0.4-0.4,0.4H34.6z" fill="#FFC200"/></g><g><path d="M55.1,56.5c-0.1-0.1-0.1-0.4,0-0.5l0,0c0.1-0.1,0.4-0.1,0.5,0l0.9,0.9c0.1,0.1,0.1,0.4,0,0.5l0,0         c-0.1,0.1-0.4,0.1-0.5,0L55.1,56.5z" fill="#FFC200"/><path d="M38.1,39.5c-0.1-0.1-0.1-0.4,0-0.5l0,0c0.1-0.1,0.4-0.1,0.5,0l0.9,0.9c0.1,0.1,0.1,0.4,0,0.5l0,0         c-0.1,0.1-0.4,0.1-0.5,0L38.1,39.5z" fill="#FFC200"/></g></g></g><path d="M49.8,55.6c-1.7-0.5-2.9-1.8-3.4-3.4h1.1c0.8,0,1.5-0.7,1.5-1.5c0-0.8-0.7-1.5-1.5-1.5h-1.3v-0.9h1.3      c0.8,0,1.5-0.7,1.5-1.5s-0.7-1.5-1.5-1.5h-1.1c0.5-1.6,1.7-2.9,3.4-3.4c0.8-0.3,1.2-1.1,0.9-1.9c-0.3-0.8-1.1-1.2-1.9-0.9      c-2.9,0.9-4.9,3.3-5.5,6.2h-0.9c-0.8,0-1.5,0.7-1.5,1.5s0.7,1.5,1.5,1.5h0.7v0.9h-0.7c-0.8,0-1.5,0.7-1.5,1.5      c0,0.8,0.7,1.5,1.5,1.5h0.9c0.6,2.9,2.6,5.3,5.5,6.2c0.2,0.1,0.3,0.1,0.5,0.1c0.6,0,1.2-0.4,1.4-1C51,56.7,50.6,55.8,49.8,55.6z      " fill="#F79200"/><path d="M49.8,55c-1.7-0.5-2.9-1.8-3.4-3.4h1.1c0.8,0,1.5-0.7,1.5-1.5c0-0.8-0.7-1.5-1.5-1.5h-1.3v-0.9h1.3      c0.8,0,1.5-0.7,1.5-1.5s-0.7-1.5-1.5-1.5h-1.1c0.5-1.6,1.7-2.9,3.4-3.4c0.8-0.3,1.2-1.1,0.9-1.9c-0.3-0.8-1.1-1.2-1.9-0.9      c-2.9,0.9-4.9,3.3-5.5,6.2h-0.9c-0.8,0-1.5,0.7-1.5,1.5s0.7,1.5,1.5,1.5h0.7v0.9h-0.7c-0.8,0-1.5,0.7-1.5,1.5      c0,0.8,0.7,1.5,1.5,1.5h0.9c0.6,2.9,2.6,5.3,5.5,6.2c0.2,0.1,0.3,0.1,0.5,0.1c0.6,0,1.2-0.4,1.4-1C51,56.1,50.6,55.3,49.8,55z" fill="#FFB600"/><g><path d="M48.9,50.1c0-0.8-0.7-1.5-1.5-1.5h-0.2v2.9h0.2C48.3,51.6,48.9,50.9,48.9,50.1z" fill="#FFC200"/><path d="M47.5,44.8h-0.2v2.9h0.2c0.8,0,1.5-0.7,1.5-1.5S48.3,44.8,47.5,44.8z" fill="#FFC200"/><path d="M48.9,38.6c-0.6,0.2-1.1,0.4-1.5,0.7v3.8c0.6-0.8,1.5-1.4,2.5-1.7c0.8-0.3,1.2-1.1,0.9-1.9       C50.5,38.8,49.6,38.4,48.9,38.6z" fill="#FFC200"/><path d="M49.3,57.9c0.6,0,1.2-0.4,1.4-1c0.3-0.8-0.2-1.6-0.9-1.9c-1-0.3-1.8-0.9-2.5-1.7v3.8       c0.5,0.3,1,0.5,1.5,0.7C49,57.9,49.2,57.9,49.3,57.9z" fill="#FFC200"/></g></g></g><g><g><path d="M56,22.2c-0.3-0.8-1.2-1.4-2.1-1.4h-1.6c-1.1-8.1-8-14.3-16.4-14.3c-0.6,0-1.1,0.5-1.1,1.1v5.6      c0,0.6,0.5,1.1,1.1,1.1c4,0,7.4,2.7,8.4,6.4h-1.1c-0.9,0-1.7,0.5-2.1,1.4c-0.3,0.8-0.2,1.8,0.5,2.5l5.4,5.4      c0.4,0.4,1,0.7,1.6,0.7c0.6,0,1.2-0.2,1.6-0.7l5.4-5.4C56.1,24,56.3,23,56,22.2z" fill="#93BD46"/><path d="M56,22.2c-0.3-0.8-1.2-1.4-2.1-1.4h-1.6c-1.1-8.1-8-14.3-16.4-14.3L42,16.9c1.1,1.1,1.9,2.4,2.3,3.9      h-1.1c-0.9,0-1.7,0.5-2.1,1.4c-0.3,0.8-0.2,1.8,0.5,2.5l5.4,5.4c0.4,0.4,1,0.7,1.6,0.7c0.6,0,1.2-0.2,1.6-0.7l5.4-5.4      C56.1,24,56.3,23,56,22.2z" fill="#78AA43"/><path d="M46.9,30c0.4,0.4,1,0.7,1.6,0.7c0.6,0,1.2-0.2,1.6-0.7l5.4-5.4c0.6-0.6,0.8-1.6,0.5-2.5      c-0.3-0.8-1.2-1.4-2.1-1.4h-1.6" fill="#73A040"/><path d="M43.2,20.8c-0.9,0-1.7,0.5-2.1,1.4" fill="#78AA43"/></g><g><path d="M8,41.8c0.3,0.8,1.2,1.4,2.1,1.4h1.6c1.1,8.1,8,14.3,16.4,14.3c0.6,0,1.1-0.5,1.1-1.1v-5.6      c0-0.6-0.5-1.1-1.1-1.1c-4,0-7.4-2.7-8.4-6.4h1.1c0.9,0,1.7-0.5,2.1-1.4c0.3-0.8,0.2-1.8-0.5-2.5L17.1,34      c-0.4-0.4-1-0.7-1.6-0.7c-0.6,0-1.2,0.2-1.6,0.7l-5.4,5.4C7.9,40,7.7,41,8,41.8z" fill="#93BD46"/><path d="M8,41.8c0.3,0.8,1.2,1.4,2.1,1.4h1.6c1.1,8.1,8,14.3,16.4,14.3L22,47.1c-1.1-1.1-1.9-2.4-2.3-3.9h1.1      c0.9,0,1.7-0.5,2.1-1.4c0.3-0.8,0.2-1.8-0.5-2.5L17.1,34c-0.4-0.4-1-0.7-1.6-0.7c-0.6,0-1.2,0.2-1.6,0.7l-5.4,5.4      C7.9,40,7.7,41,8,41.8z" fill="#78AA43"/><path d="M17.1,34c-0.4-0.4-1-0.7-1.6-0.7c-0.6,0-1.2,0.2-1.6,0.7l-5.4,5.4C7.9,40,7.7,41,8,41.8      c0.3,0.8,1.2,1.4,2.1,1.4h1.6" fill="#73A040"/><path d="M20.8,43.2c0.9,0,1.7-0.5,2.1-1.4" fill="#78AA43"/></g></g></g></g></svg>