<?xml version="1.0" ?><!DOCTYPE svg  PUBLIC '-//W3C//DTD SVG 1.1//EN'  'http://www.w3.org/Graphics/SVG/1.1/DTD/svg11.dtd'><svg enable-background="new 0 0 64 64" height="64px" version="1.1" viewBox="0 0 64 64" width="64px" xml:space="preserve" xmlns="http://www.w3.org/2000/svg" xmlns:xlink="http://www.w3.org/1999/xlink"><g id="BG"/><g id="TEXT"/><g id="ARTWORK"><g><g><path d="M54.2,9.7L32,4L9.8,9.7C8.3,35.8,11.2,52.3,32,60C52.8,52.3,55.7,35.8,54.2,9.7z" fill="#ACD651"/><path d="M32,4L10.2,9.6l38.2,38.2c5.9-9,6.7-21.7,5.8-38.1L32,4z" fill="#93BD46"/><path d="M32,4v56c20.8-7.7,23.7-24.2,22.2-50.3L32,4z" fill="#93BD46"/><path d="M32,4v27.3l16.4,16.4c5.9-9,6.7-21.7,5.8-38.1L32,4z" fill="#78AA43"/><path d="M32,64c-0.5,0-0.9-0.1-1.4-0.3c-25.2-9.4-26-32-24.8-54.3c0.1-1.7,1.3-3.2,3-3.6L31,0.1     c0.7-0.2,1.3-0.2,2,0l22.2,5.7c1.7,0.4,2.9,1.9,3,3.6c1.3,22.3,0.4,44.9-24.8,54.3C32.9,63.9,32.5,64,32,64z M13.7,12.8     c-1,22.9,1.9,36.1,18.3,42.9c16.4-6.8,19.4-20,18.3-42.9L32,8.1L13.7,12.8z" fill="#78AA43"/></g><path d="M32,55.7L32,55.7c-16.4-6.8-19.4-20-18.3-42.9L32,8.1l0,0V0c-0.3,0-0.7,0-1,0.1L8.8,5.8    c-1.7,0.4-2.9,1.9-3,3.6C4.6,31.8,5.4,54.4,30.6,63.7c0.5,0.2,0.9,0.3,1.4,0.3h0V55.7z" fill="#93BD46"/><path d="M55.2,5.8L33,0.1c-0.7-0.2-1.3-0.2-2,0L8.8,5.8C8.2,6,7.7,6.2,7.3,6.6l6.4,6.4c0-0.1,0-0.1,0-0.2L32,8.1    l18.3,4.7c0.6,14.1-0.2,24.5-4.8,32l5.7,5.7c7.7-11.1,7.8-26.2,7-41.1C58.1,7.7,56.9,6.2,55.2,5.8z" fill="#78AA43"/><path d="M55.2,5.8L33,0.1C32.7,0,32.3,0,32,0v8.1l18.3,4.7c0.6,14.1-0.2,24.5-4.8,32l5.7,5.7    c7.7-11.1,7.8-26.2,7-41.1C58.1,7.7,56.9,6.2,55.2,5.8z" fill="#5F8D3D"/><g><g><path d="M32,38.6L32,38.6c-0.8,0-1.6-0.3-2.1-0.9l-6-6c-1.2-1.2-1.2-3.1,0-4.2c1.2-1.2,3.1-1.2,4.2,0l3.8,3.8      l16.2-16.2c1.2-1.2,3.1-1.2,4.2,0c1.2,1.2,1.2,3.1,0,4.2L34.1,37.7C33.6,38.3,32.8,38.6,32,38.6z" fill="#FFFFFF"/></g></g><path d="M48.2,15.2L32,31.4l0,0v7.3c0,0,0,0,0,0c0.8,0,1.6-0.3,2.1-0.9l18.3-18.3c1.2-1.2,1.2-3.1,0-4.2    C51.3,14,49.4,14,48.2,15.2z" fill="#D1E0DF"/></g></g></svg>