<?xml version="1.0" ?><!DOCTYPE svg  PUBLIC '-//W3C//DTD SVG 1.1//EN'  'http://www.w3.org/Graphics/SVG/1.1/DTD/svg11.dtd'><svg enable-background="new 0 0 64 64" height="64px" version="1.1" viewBox="0 0 64 64" width="64px" xml:space="preserve" xmlns="http://www.w3.org/2000/svg" xmlns:xlink="http://www.w3.org/1999/xlink"><g id="BG"/><g id="TEXT"/><g id="ARTWORK"><g><path d="M46,13.1c0,2.2-1.8,4-4,4H22c-2.2,0-4-1.8-4-4v-5c0-2.2,1.8-4,4-4h20c2.2,0,4,1.8,4,4V13.1z" fill="#2229AF"/><g><g><path d="M45.2,38.2l-0.3-0.1c-3-0.9-4.9-4.6-5.5-10.4l2.3-1.9c1.3-1.1,2.1-2.6,2.1-4.3v-9.7c0-0.2,0-0.3,0-0.5      c0-0.2,0-0.4,0-0.7C43.8,4.8,38.5,0,32,0c-6.5,0-11.8,4.8-11.8,10.7c0,0.2,0,0.4,0,0.7c0,0.2,0,0.3,0,0.5v9.7      c0,1.7,0.8,3.3,2.1,4.3l2.3,1.9c-0.6,5.8-2.6,9.5-5.6,10.4l-0.2,0.1c-9.9,3-16,8.9-16,15.5c0,0,0,0.1,0,0.1c0,0,0,0.1,0,0.1      C2.9,58.8,13.1,64,32,64c18.8,0,29-5.1,29.1-10c0-0.1,0-0.2,0-0.3C61.1,47.1,55,41.2,45.2,38.2z" fill="#FFCE00"/><path d="M61.1,54c0-0.1,0-0.2,0-0.3c0-6.6-6.1-12.5-16-15.5l-0.3-0.1c-3-0.9-4.9-4.6-5.5-10.4l2.3-1.9      c1.3-1.1,2.1-2.6,2.1-4.3v-9.7c0-0.2,0-0.3,0-0.5c0-0.2,0-0.4,0-0.7C43.8,4.8,38.5,0,32,0c-6.5,0-11.8,4.8-11.8,10.7      c0,0.2,0,0.4,0,0.7c0,0.2,0,0.3,0,0.5v9.7c0,1.7,0.8,3.3,2.1,4.3l2.3,1.9c-0.6,5.8-2.6,9.5-5.6,10.4l-0.2,0.1      c-3.5,1-6.4,2.4-8.9,4.1L31.6,64c0.1,0,0.2,0,0.3,0C50.8,64,61,58.9,61.1,54z" fill="#FFB600"/><path d="M45.2,38.2l-0.3-0.1c-3-0.9-4.9-4.6-5.5-10.4l2.3-1.9c1.3-1.1,2.1-2.6,2.1-4.3v-9.7c0-0.2,0-0.3,0-0.5      c0-0.2,0-0.4,0-0.7C43.8,4.8,38.5,0,32,0v64c18.8,0,29-5.1,29.1-10c0-0.1,0-0.2,0-0.3C61.1,47.1,55,41.2,45.2,38.2z" fill="#FFA10B"/></g><path d="M45.2,38.2l-0.3-0.1c-3-0.9-4.9-4.6-5.5-10.4l2.3-1.9c1.3-1.1,2.1-2.6,2.1-4.3v-9.7c0-0.2,0-0.3,0-0.5     c0-0.2,0-0.4,0-0.7C43.8,4.8,38.5,0,32,0c-6.5,0-11.8,4.8-11.8,10.7c0,0.2,0,0.4,0,0.7c0,0.2,0,0.3,0,0.5v9.7     c0,1.7,0.8,3.3,2.1,4.3l2.3,1.9c0,0.2-0.1,0.4-0.1,0.6l31.4,31.4c3.4-1.7,5.1-3.8,5.2-5.8c0-0.1,0-0.2,0-0.3     C61.1,47.1,55,41.2,45.2,38.2z" fill="#FFA10B"/></g><g><g><path d="M18.9,10.6c-3,0-5.5,2.5-5.5,5.5c0,3,2.5,5.5,5.5,5.5c0.7,0,1.3-0.6,1.3-1.3v-8.4      C20.2,11.1,19.7,10.6,18.9,10.6z" fill="#1174EA"/><path d="M18.9,10.6c-3,0-5.5,2.5-5.5,5.5h6.8v-4.2C20.2,11.1,19.7,10.6,18.9,10.6z" fill="#154ECE"/><path d="M18.9,10.6c-0.3,0-0.7,0-1,0.1v10.8c0.3,0.1,0.6,0.1,1,0.1c0.7,0,1.3-0.6,1.3-1.3v-8.4      C20.2,11.1,19.7,10.6,18.9,10.6z" fill="#154ECE"/><path d="M18.9,10.6c-0.2,0-0.3,0-0.5,0c-0.2,0-0.3,0-0.4,0.1c0,0,0,0,0,0v5.4h2.2v-4.2      C20.2,11.1,19.7,10.6,18.9,10.6z" fill="#2229AF"/></g><g><path d="M45.1,10.6c3,0,5.5,2.5,5.5,5.5c0,3.1,1.1,5.5-5.5,5.5c-0.7,0-1.3-0.6-1.3-1.3v-8.4      C43.8,11.1,44.3,10.6,45.1,10.6z" fill="#1174EA"/><path d="M45.1,10.6c3,0,5.5,2.5,5.5,5.5h-6.8v-4.2C43.8,11.1,44.3,10.6,45.1,10.6z" fill="#154ECE"/><path d="M45.1,10.6c0.3,0,0.7,0,1,0.1v10.8c-0.3,0.1-0.6,0.1-1,0.1c-0.7,0-1.3-0.6-1.3-1.3v-8.4      C43.8,11.1,44.3,10.6,45.1,10.6z" fill="#154ECE"/><path d="M45.1,10.6c0.2,0,0.3,0,0.5,0c0.2,0,0.3,0,0.4,0.1c0,0,0,0,0,0v5.4h-2.2v-4.2      C43.8,11.1,44.3,10.6,45.1,10.6z" fill="#2229AF"/></g></g><path d="M27,20.5c0,2.8,2.3,5,5,5s5-2.3,5-5c0-0.6-0.5-1.2-1.2-1.2h-7.7C27.5,19.4,27,19.9,27,20.5z" fill="#AA0B5B"/><g><circle cx="26.8" cy="14.4" fill="#1B2B3A" r="1.5"/><circle cx="37.2" cy="14.4" fill="#1B2B3A" r="1.5"/></g><path d="M35.9,19.4h-7.7c-0.6,0-1.2,0.5-1.2,1.2c0,0.7,0.1,1.3,0.4,1.9h9.3c0.2-0.6,0.4-1.2,0.4-1.9    C37,19.9,36.5,19.4,35.9,19.4z" fill="#890E63"/><path d="M43.8,18v7.4c0,1.8-1.4,3.2-3.2,3.2H35c-0.3-0.5-0.9-0.8-1.5-0.8h-2.9c-1,0-1.9,0.9-1.9,1.9    s0.8,1.9,1.9,1.9h2.9c0.6,0,1.2-0.3,1.5-0.8h5.7v0c3,0,5.3-2.5,5.3-5.4V18H43.8z" fill="#154ECE"/></g></g></svg>