<?xml version="1.0" ?><!DOCTYPE svg  PUBLIC '-//W3C//DTD SVG 1.1//EN'  'http://www.w3.org/Graphics/SVG/1.1/DTD/svg11.dtd'><svg enable-background="new 0 0 64 64" height="64px" version="1.1" viewBox="0 0 64 64" width="64px" xml:space="preserve" xmlns="http://www.w3.org/2000/svg" xmlns:xlink="http://www.w3.org/1999/xlink"><g id="BG"/><g id="TEXT"/><g id="ARTWORK"><g><g><path d="M29.8,23.8h-22c-3.2,0-5.8,2.6-5.8,5.8v16.3c0,1.4,1.1,2.6,2.6,2.6H33c1.4,0,2.6-1.1,2.6-2.6V29.6     C35.6,26.4,33,23.8,29.8,23.8z" fill="#E00B58"/><path d="M29.8,23.8h-22c-3.2,0-5.8,2.6-5.8,5.8v5.9c0,0,0,0,0,0h33.4c0,0,0,0,0,0s0,0,0,0v-5.9     C35.6,26.4,33,23.8,29.8,23.8z" fill="#AA0B5B"/><g><path d="M37.6,28.9L34.1,16c-0.3-0.9-1.1-1.6-2.1-1.6H5.7c-1,0-1.8,0.6-2.1,1.6L0.1,29.2c-0.2,0.6,0,1.3,0.4,1.9      s1,0.8,1.7,0.8h33.4c0,0,0,0,0,0c1.2,0,2.1-1,2.1-2.1C37.7,29.4,37.7,29.2,37.6,28.9z" fill="#1174EA"/><path d="M35.6,31.8c1.2,0,2.1-1,2.1-2.1c0-0.3-0.1-0.5-0.2-0.8L34.1,16c-0.3-0.9-1.1-1.6-2.1-1.6H5.7      c-0.7,0-1.3,0.3-1.7,0.9l16.5,16.5H35.6C35.6,31.8,35.6,31.8,35.6,31.8z" fill="#154ECE"/><path d="M37.6,28.9L0.1,29.2c-0.2,0.6,0,1.3,0.4,1.9s1,0.8,1.7,0.8h33.4c0,0,0,0,0,0c1.2,0,2.1-1,2.1-2.1      C37.7,29.4,37.7,29.2,37.6,28.9z" fill="#154ECE"/><path d="M37.6,28.9L17.7,29l2.8,2.8h15.1c0,0,0,0,0,0c1.2,0,2.1-1,2.1-2.1C37.7,29.4,37.7,29.2,37.6,28.9z" fill="#2229AF"/><path d="M30.1,28.9L28,16c-0.2-0.9-0.7-1.6-1.2-1.6H10.9c-0.6,0-1.1,0.6-1.2,1.6L7.6,29.2      c-0.1,0.6,0,1.3,0.2,1.9s0.6,0.8,1,0.8h20.1c0,0,0,0,0,0c0.7,0,1.3-1,1.3-2.1C30.2,29.4,30.1,29.2,30.1,28.9z" fill="#2291FF"/><path d="M30.2,29.7c0-0.3,0-0.5-0.1-0.8L28,16c-0.2-0.9-0.7-1.6-1.2-1.6H10.9c-0.6,0-1.1,0.6-1.2,1.6L9,20.4      l11.5,11.5h8.4h0C29.6,31.8,30.2,30.9,30.2,29.7z" fill="#1174EA"/><path d="M30.2,29.7c0-0.3,0-0.5-0.1-0.7L7.6,29.1l0,0c-0.1,0.6,0,1.3,0.2,1.9s0.6,0.8,1,0.8h20.1h0      C29.6,31.8,30.2,30.9,30.2,29.7z" fill="#1174EA"/><path d="M30.2,29.7c0-0.3,0-0.5-0.1-0.7L17.7,29l2.8,2.8h8.4h0C29.6,31.8,30.2,30.9,30.2,29.7z" fill="#154ECE"/><path d="M23.4,28.9L22.6,16c-0.1-0.9-0.3-1.6-0.5-1.6h-6.5c-0.2,0-0.4,0.6-0.5,1.6l-0.9,13.2      c0,0.6,0,1.3,0.1,1.9c0.1,0.5,0.3,0.8,0.4,0.8H23c0,0,0,0,0,0c0.3,0,0.5-1,0.5-2.1C23.5,29.4,23.5,29.2,23.4,28.9z" fill="#1174EA"/><path d="M23.5,29.7c0-0.3,0-0.5,0-0.8L22.6,16c-0.1-0.9-0.3-1.6-0.5-1.6h-6.5c-0.2,0-0.4,0.6-0.5,1.6l-0.7,9.8      l6,6H23h0C23.2,31.8,23.5,30.9,23.5,29.7z" fill="#154ECE"/><path d="M23.5,29.7c0-0.2,0-0.5,0-0.7l-9.2,0.1l0,0.1c0,0.6,0,1.3,0.1,1.9c0.1,0.5,0.3,0.8,0.4,0.8H23h0      C23.2,31.8,23.5,30.9,23.5,29.7z" fill="#154ECE"/><path d="M23.4,29l-5.8,0l2.8,2.8H23h0c0.3,0,0.5-1,0.5-2.1C23.5,29.5,23.5,29.2,23.4,29z" fill="#2229AF"/></g><g><path d="M20.8,40.9c0,1.4-1.1,2.5-2.5,2.5H7.7c-1.4,0-2.5-1.1-2.5-2.5V38c0-1.4,1.1-2.5,2.5-2.5h10.6      c1.4,0,2.5,1.1,2.5,2.5V40.9z" fill="#FFFFFF"/><path d="M5.1,40.9V38c0-1.4,1.1-2.5,2.5-2.5h10.6c1.4,0,2.5,1.1,2.5,2.5v2.9" fill="#D1E0DF"/></g><path d="M27.7,34.8c-2.2,0-4.1,1.8-4.1,4l-0.1,9.5l8.1,0l0.1-9.5C31.8,36.7,30,34.8,27.7,34.8z" fill="#FFFFFF"/><path d="M27.7,34.8c-2.2,0-4.1,1.8-4.1,4l0,4.2l5.3,5.3l2.8,0l0.1-9.5C31.8,36.7,30,34.8,27.7,34.8z" fill="#D1E0DF"/><g><circle cx="29.1" cy="42.6" fill="#1174EA" r="1.1"/><path d="M29.9,43.4c0.4-0.4,0.4-1.1,0-1.6l-1.6,1.6C28.7,43.8,29.4,43.8,29.9,43.4z" fill="#154ECE"/></g><rect fill="#E00B58" height="1.1" width="18.4" x="4" y="38.9"/></g><g><path d="M22.5,20.7c0,1.4-1.2,2.6-2.6,2.6l0,0c-1.4,0-2.6-1.2-2.6-2.6V10.3c0-1.4,1.2-2.6,2.6-2.6l0,0     c1.4,0,2.6,1.2,2.6,2.6V20.7z" fill="#AA0B5B"/><path d="M22.5,30.8c0,1.4-1.2,2.6-2.6,2.6l0,0c-1.4,0-2.6-1.2-2.6-2.6v-1.5c0-1.4,1.2-2.6,2.6-2.6l0,0     c1.4,0,2.6,1.2,2.6,2.6V30.8z" fill="#AA0B5B"/><path d="M27.7,16.9c0,1.4-1.2,2.6-2.6,2.6l0,0c-1.4,0-2.6-1.2-2.6-2.6V6.5c0-1.4,1.2-2.6,2.6-2.6l0,0     c1.4,0,2.6,1.2,2.6,2.6V16.9z" fill="#AA0B5B"/><path d="M32.9,19.5c0,1.4-1.2,2.6-2.6,2.6l0,0c-1.4,0-2.6-1.2-2.6-2.6V9.1c0-1.4,1.2-2.6,2.6-2.6l0,0     c1.4,0,2.6,1.2,2.6,2.6V19.5z" fill="#AA0B5B"/><path d="M15.8,6.5h40.8c4.1,0,7.4,3.3,7.4,7.4v5.4c0,4.1-3.3,7.4-7.4,7.4h-7.1h-8.3c-1.7,0-3.2,1.4-3.2,3.2v21.7     c0,1.2-0.9,2.1-2.1,2.1c-1.2,0-2.1-0.9-2.1-2.1V29.8c0-4.1,3.3-7.4,7.4-7.4h8.3h7.1c1.7,0,3.2-1.4,3.2-3.2v-5.4     c0-1.7-1.4-3.2-3.2-3.2H15.8c-1.2,0-2.1-0.9-2.1-2.1C13.7,7.5,14.7,6.5,15.8,6.5z" fill="#1B2B3A"/><path d="M56.6,8.4H15.8c-0.8,0-1.5,0.5-1.9,1.2c0.3,0.7,1,1.2,1.9,1.2h40.8c1.7,0,3.2,1.4,3.2,3.2v1.8v3.6v1.8     c0,1.7-1.4,3.2-3.2,3.2h-7.1h-8.3c-4.1,0-7.4,3.3-7.4,7.4v19.9c0,1.2,0.9,2.1,2.1,2.1c1.2,0,2.1-0.9,2.1-2.1V31.6v-1.8     c0-1.7,1.4-3.2,3.2-3.2h8.3h7.1c4.1,0,7.4-3.3,7.4-7.4v-3.6C64,11.7,60.7,8.4,56.6,8.4z" fill="#0D1923"/><path d="M58.3,10.5c0,3.1-2.5,5.7-5.7,5.7H23c-3.1,0-5.7-2.5-5.7-5.7V6.2c0-3.1,2.5-5.7,5.7-5.7h29.7     c3.1,0,5.7,2.5,5.7,5.7V10.5z" fill="#E00B58"/><path d="M52.7,0.6H23c-3.1,0-5.7,2.5-5.7,5.7v1.9c0-3.1,2.5-5.7,5.7-5.7h29.7c3.1,0,5.7,2.5,5.7,5.7V6.2     C58.3,3.1,55.8,0.6,52.7,0.6z" fill="#FF1574"/><path d="M17.3,8.4v2.1c0,3.1,2.5,5.7,5.7,5.7h29.7c3.1,0,5.7-2.5,5.7-5.7V8.4H17.3z" fill="#AA0B5B"/><path d="M40.1,61.3c0,1.2-1,2.2-2.2,2.2h-4.1c-1.2,0-2.2-1-2.2-2.2v-21c0-1.2,1-2.2,2.2-2.2H38     c1.2,0,2.2,1,2.2,2.2V61.3z" fill="#78AA43"/><path d="M38.6,61.3c0,1.2-0.6,2.2-1.4,2.2h-2.6c-0.8,0-1.4-1-1.4-2.2v-21c0-1.2,0.6-2.2,1.4-2.2h2.6     c0.8,0,1.4,1,1.4,2.2V61.3z" fill="#5F8D3D"/><path d="M37.9,42.3c0,0.3-0.3,0.6-0.6,0.6h-2.8c-0.3,0-0.6-0.3-0.6-0.6l0,0c0-0.3,0.3-0.6,0.6-0.6h2.8     C37.7,41.7,37.9,42,37.9,42.3L37.9,42.3z" fill="#0D1923"/><path d="M37.9,46.4c0,0.3-0.3,0.6-0.6,0.6h-2.8c-0.3,0-0.6-0.3-0.6-0.6l0,0c0-0.3,0.3-0.6,0.6-0.6h2.8     C37.7,45.8,37.9,46.1,37.9,46.4L37.9,46.4z" fill="#0D1923"/><path d="M37.9,50.5c0,0.3-0.3,0.6-0.6,0.6h-2.8c-0.3,0-0.6-0.3-0.6-0.6l0,0c0-0.3,0.3-0.6,0.6-0.6h2.8     C37.7,49.9,37.9,50.2,37.9,50.5L37.9,50.5z" fill="#0D1923"/><path d="M37.9,54.6c0,0.3-0.3,0.6-0.6,0.6h-2.8c-0.3,0-0.6-0.3-0.6-0.6l0,0c0-0.3,0.3-0.6,0.6-0.6h2.8     C37.7,54,37.9,54.3,37.9,54.6L37.9,54.6z" fill="#0D1923"/><path d="M37.9,58.7c0,0.3-0.3,0.6-0.6,0.6h-2.8c-0.3,0-0.6-0.3-0.6-0.6l0,0c0-0.3,0.3-0.6,0.6-0.6h2.8     C37.7,58.1,37.9,58.4,37.9,58.7L37.9,58.7z" fill="#0D1923"/></g></g></g></svg>