<?xml version="1.0" ?><svg id="Layer_1" style="enable-background:new 0 0 128 128;" version="1.1" viewBox="0 0 128 128" xml:space="preserve" xmlns="http://www.w3.org/2000/svg" xmlns:xlink="http://www.w3.org/1999/xlink"><style type="text/css">
	.st0{fill:#F49F9E;}
	.st1{fill:none;stroke:#58537D;stroke-width:2;stroke-linecap:round;stroke-linejoin:round;stroke-miterlimit:10;}
	.st2{fill:#FFFFFF;}
	.st3{opacity:0.2;fill:#58537D;}
	.st4{fill:none;stroke:#58537D;stroke-width:4;stroke-linecap:round;stroke-linejoin:round;stroke-miterlimit:10;}
	.st5{fill:#9BD3AF;}
	.st6{fill:#8ABF9C;}
	.st7{fill:none;stroke:#FFFFFF;stroke-linecap:round;stroke-miterlimit:10;}
	.st8{opacity:0.5;fill:none;stroke:#FFFFFF;stroke-width:2;stroke-linecap:round;stroke-linejoin:round;stroke-miterlimit:10;}
	.st9{fill:#58537D;}
	.st10{opacity:0.1;}
	.st11{opacity:0.1;fill:none;stroke:#58537D;stroke-width:2;stroke-linecap:round;stroke-linejoin:round;stroke-miterlimit:10;}
	.st12{fill:none;stroke:#F26A63;stroke-width:2;stroke-linecap:round;stroke-linejoin:round;}
	.st13{fill:none;stroke:#F26A63;stroke-width:2;stroke-linecap:round;stroke-linejoin:round;stroke-dasharray:4.0653,5.0816;}
	.st14{opacity:0.1;fill:#303C63;}
	.st15{fill:none;stroke:#FFFFFF;stroke-width:4;stroke-linecap:round;stroke-linejoin:round;stroke-miterlimit:10;}
	.st16{opacity:0.2;}
	.st17{fill:#FAF8F2;}
	.st18{fill:none;stroke:#F26A63;stroke-width:4;stroke-linecap:round;stroke-linejoin:round;stroke-miterlimit:10;}
	.st19{fill:none;stroke:#FFFFFF;stroke-width:2;stroke-linecap:round;stroke-linejoin:round;stroke-miterlimit:10;}
	.st20{opacity:0.1;fill:#58537D;}
	.st21{fill:none;stroke:#6DC392;stroke-width:2;stroke-linecap:round;stroke-linejoin:round;stroke-miterlimit:10;}
	
		.st22{fill:none;stroke:#58537D;stroke-width:2;stroke-linecap:round;stroke-linejoin:round;stroke-miterlimit:10;stroke-dasharray:4,5;}
	.st23{fill:#E2E2E2;}
</style><path class="st2" d="M105,39H34c-2.2,0-4,1.2-4,3.4V108h79V42.4C109,40.2,107.2,39,105,39z"/><path class="st1" d="M55,108h54V42.4c0-2.2-1.8-3.4-4-3.4H34c-2.2,0-4,1.2-4,3.4V108h18"/><path class="st0" d="M29.4,45L27,56.9c0,3.4,3,6.1,6.4,6.1s6.4-2.7,6.4-6.1L41.3,45H29.4z"/><path class="st2" d="M41.3,45l-1.6,11.9c0,3.4,2.6,6.1,6,6.1s6-2.7,6-6.1L52.5,45H41.3z"/><path class="st0" d="M52.5,45l-0.8,11.9c0,3.4,2.8,6.1,6.2,6.1c3.4,0,6.2-2.8,6.2-6.2V45H52.5z"/><path class="st2" d="M64,45v11.8c0,3.4,2.6,6.2,6,6.2s6-2.8,6-6.2V45H64z"/><path class="st0" d="M76,45v11.8c0,3.4,2.8,6.2,6.2,6.2s6.1-2.6,6.1-6L87.5,45H76z"/><path class="st2" d="M87.5,45l0.8,11.9c0,3.4,3,6.1,6.4,6.1s6.4-2.7,6.4-6.1L99.5,45H87.5z"/><path class="st0" d="M99.5,45l1.6,11.9c0,3.4,2.6,6.1,6,6.1s6-2.7,6-6.1L110.6,45H99.5z"/><path class="st1" d="M113,56.9L110.6,45H29.4L27,56.9c0,3.2,2.5,6.2,6.2,6.2c3.4,0,6.2-2.8,6.2-6.3c0,3.4,2.8,6.1,6.2,6.1  c3.4,0,6.2-2.8,6.2-6.2c0,3.4,2.8,6.2,6.2,6.2c3.4,0,6.2-2.8,6.2-6.2c0,3.4,2.8,6.2,6.2,6.2c3.4,0,6.2-2.8,6.2-6.2  c0,3.4,2.8,6.2,6.2,6.2c3.4,0,6.2-2.8,6.2-6.2c0,3.4,2.8,6.2,6.2,6.2s6.2-2.8,6.2-6.2c0,3.4,2.4,6.2,5.8,6.2c2.5,0,3.9-1.4,3.9-1.4"/><rect class="st2" height="18" width="50" x="45" y="23"/><rect class="st3" height="18" width="50" x="45" y="23"/><rect class="st1" height="18" width="50" x="45" y="23"/><rect class="st2" height="42" transform="matrix(-1.836970e-16 1 -1 -1.836970e-16 102 -38)" width="10" x="65" y="11"/><polyline class="st1" points="49,37 49,27 83,27 "/><polyline class="st1" points="91,27 91,37 56,37 "/><rect class="st1" height="39" width="24" x="77" y="69"/><rect class="st3" height="25" width="32" x="38" y="69"/><line class="st7" x1="42.2" x2="49" y1="76.3" y2="68.4"/><line class="st7" x1="42.2" x2="45.6" y1="72.3" y2="68.3"/><rect class="st1" height="25" width="32" x="38" y="69"/><rect class="st3" height="14" width="16" x="81" y="73"/><line class="st1" x1="82" x2="85" y1="91" y2="91"/><line class="st7" x1="84.2" x2="88.4" y1="77.3" y2="72.4"/><g><path class="st6" d="M30.8,108c1.7-2,2.7-4.5,2.7-7.2c0-5.6-4.5-10.3-10.1-10.3s-10.1,4.8-10.1,10.3c0,2.7,1,5.1,2.7,7.1H30.8z"/><path class="st1" d="M30.8,108c1.7-2,2.7-4.5,2.7-7.2c0-5.6-4.5-10.3-10.1-10.3s-10.1,4.8-10.1,10.3c0,2.7,1,5.1,2.7,7.1H30.8z"/><path class="st5" d="M38.4,108c1.2-2,2-3.3,2-5.3c0-4-3.3-7.4-7.3-7.4c-4,0-7.3,3.5-7.3,7.5c0,1.9,0.7,3.2,2,5.2H38.4z"/><path class="st1" d="M38.4,108c1.2-2,2-3.3,2-5.3c0-4-3.3-7.4-7.3-7.4c-4,0-7.3,3.5-7.3,7.5c0,1.9,0.7,3.2,2,5.2H38.4z"/></g><rect class="st1" height="14" width="16" x="81" y="73"/></svg>