<?xml version="1.0" ?><svg id="Layer_1" style="enable-background:new 0 0 128 128;" version="1.1" viewBox="0 0 128 128" xml:space="preserve" xmlns="http://www.w3.org/2000/svg" xmlns:xlink="http://www.w3.org/1999/xlink"><style type="text/css">
	.st0{fill:#F49F9E;}
	.st1{fill:none;stroke:#58537D;stroke-width:2;stroke-linecap:round;stroke-linejoin:round;stroke-miterlimit:10;}
	.st2{fill:#FFFFFF;}
	.st3{opacity:0.2;fill:#58537D;}
	.st4{fill:none;stroke:#58537D;stroke-width:4;stroke-linecap:round;stroke-linejoin:round;stroke-miterlimit:10;}
	.st5{fill:#9BD3AF;}
	.st6{fill:#8ABF9C;}
	.st7{fill:none;stroke:#FFFFFF;stroke-linecap:round;stroke-miterlimit:10;}
	.st8{opacity:0.5;fill:none;stroke:#FFFFFF;stroke-width:2;stroke-linecap:round;stroke-linejoin:round;stroke-miterlimit:10;}
	.st9{fill:#58537D;}
	.st10{opacity:0.1;}
	.st11{opacity:0.1;fill:none;stroke:#58537D;stroke-width:2;stroke-linecap:round;stroke-linejoin:round;stroke-miterlimit:10;}
	.st12{fill:none;stroke:#F26A63;stroke-width:2;stroke-linecap:round;stroke-linejoin:round;}
	.st13{fill:none;stroke:#F26A63;stroke-width:2;stroke-linecap:round;stroke-linejoin:round;stroke-dasharray:4.0653,5.0816;}
	.st14{opacity:0.1;fill:#303C63;}
	.st15{fill:none;stroke:#FFFFFF;stroke-width:4;stroke-linecap:round;stroke-linejoin:round;stroke-miterlimit:10;}
	.st16{opacity:0.2;}
	.st17{fill:#FAF8F2;}
	.st18{fill:none;stroke:#F26A63;stroke-width:4;stroke-linecap:round;stroke-linejoin:round;stroke-miterlimit:10;}
	.st19{fill:none;stroke:#FFFFFF;stroke-width:2;stroke-linecap:round;stroke-linejoin:round;stroke-miterlimit:10;}
	.st20{opacity:0.1;fill:#58537D;}
	.st21{fill:none;stroke:#6DC392;stroke-width:2;stroke-linecap:round;stroke-linejoin:round;stroke-miterlimit:10;}
	
		.st22{fill:none;stroke:#58537D;stroke-width:2;stroke-linecap:round;stroke-linejoin:round;stroke-miterlimit:10;stroke-dasharray:4,5;}
	.st23{fill:#E2E2E2;}
</style><rect class="st2" height="22" transform="matrix(-1.836970e-16 1 -1 -1.836970e-16 114.5 -59.5)" width="9" x="82.5" y="16.5"/><rect class="st5" height="13" width="74" x="36" y="96"/><rect class="st1" height="13" width="74" x="36" y="96"/><path class="st2" d="M44,57h58c3.3,13.7,5,25.3,5,39H39C38.7,82.3,40.3,70.7,44,57z"/><path class="st1" d="M44,57h58c3.3,13.7,5,25.3,5,39H39C38.7,82.3,40.3,70.7,44,57z"/><path class="st2" d="M102,57H44v-8c0-2.2,1.8-4,4-4h50c2.2,0,4,1.8,4,4V57z"/><path class="st3" d="M102,57H44v-8c0-2.2,1.8-4,4-4h50c2.2,0,4,1.8,4,4V57z"/><path class="st1" d="M102,57H44v-8c0-2.2,1.8-4,4-4h50c2.2,0,4,1.8,4,4V57z"/><rect class="st1" height="12" width="6" x="84" y="33"/><path class="st2" d="M100,36H74c-1.1,0-2-0.9-2-2V21c0-1.1,0.9-2,2-2h26c1.1,0,2,0.9,2,2v13C102,35.1,101.1,36,100,36z"/><path class="st1" d="M100,36H74c-1.1,0-2-0.9-2-2V21c0-1.1,0.9-2,2-2h26c1.1,0,2,0.9,2,2v13C102,35.1,101.1,36,100,36z"/><rect class="st3" height="22" transform="matrix(-1.836970e-16 1 -1 -1.836970e-16 114.5 -59.5)" width="9" x="82.5" y="16.5"/><rect class="st1" height="22" transform="matrix(-1.836970e-16 1 -1 -1.836970e-16 114.5 -59.5)" width="9" x="82.5" y="16.5"/><line class="st1" x1="48" x2="70" y1="51" y2="51"/><polygon class="st2" points="67,51 50,51 50,32 54.2,34 58.5,32 62.8,34 67,32 "/><polygon class="st1" points="67,51 50,51 50,32 54.2,34 58.5,32 62.8,34 67,32 "/><g class="st10"><line class="st1" x1="54" x2="63" y1="39" y2="39"/><line class="st1" x1="54" x2="63" y1="43" y2="43"/><line class="st1" x1="54" x2="63" y1="47" y2="47"/></g><g><line class="st1" x1="50" x2="50" y1="88" y2="84"/><circle class="st9" cx="50" cy="84" r="2.5"/></g><g><line class="st1" x1="65" x2="65" y1="88" y2="84"/><circle class="st9" cx="65" cy="84" r="2.5"/></g><g><line class="st1" x1="80" x2="80" y1="88" y2="84"/><circle class="st9" cx="80" cy="84" r="2.5"/></g><g><line class="st1" x1="58" x2="58" y1="79" y2="75"/><circle class="st9" cx="58" cy="75" r="2.5"/></g><g><line class="st1" x1="73" x2="73" y1="79" y2="75"/><circle class="st9" cx="73" cy="75" r="2.5"/></g><g><line class="st1" x1="88" x2="88" y1="79" y2="75"/><circle class="st9" cx="88" cy="75" r="2.5"/></g><g><line class="st1" x1="95" x2="95" y1="88" y2="84"/><circle class="st9" cx="95" cy="84" r="2.5"/></g><g><line class="st1" x1="53" x2="53" y1="69" y2="65"/><circle class="st9" cx="53" cy="65" r="2.5"/></g><g><line class="st1" x1="66" x2="66" y1="69" y2="65"/><circle class="st9" cx="66" cy="65" r="2.5"/></g><g><line class="st1" x1="79" x2="79" y1="69" y2="65"/><circle class="st9" cx="79" cy="65" r="2.5"/></g><g><line class="st1" x1="92" x2="92" y1="69" y2="65"/><circle class="st9" cx="92" cy="65" r="2.5"/></g><rect class="st6" height="9" width="55" x="46" y="100"/><rect class="st1" height="9" width="55" x="46" y="100"/><circle class="st9" cx="73" cy="102" r="2"/><rect class="st0" height="5" width="16" x="20" y="104"/><rect class="st1" height="5" width="16" x="20" y="104"/><rect class="st0" height="5" width="16" x="20" y="99"/><rect class="st1" height="5" width="16" x="20" y="99"/><rect class="st0" height="5" width="16" x="20" y="94"/><rect class="st1" height="5" width="16" x="20" y="94"/><rect class="st0" height="5" width="16" x="19" y="89"/><rect class="st1" height="5" width="16" x="19" y="89"/><rect class="st0" height="5" width="16" x="20" y="84"/><rect class="st1" height="5" width="16" x="20" y="84"/><rect class="st0" height="5" width="16" x="16" y="79"/><rect class="st1" height="5" width="16" x="16" y="79"/></svg>