<?xml version="1.0" ?><svg id="Layer_1" style="enable-background:new 0 0 128 128;" version="1.1" viewBox="0 0 128 128" xml:space="preserve" xmlns="http://www.w3.org/2000/svg" xmlns:xlink="http://www.w3.org/1999/xlink"><style type="text/css">
	.st0{fill:#F49F9E;}
	.st1{fill:none;stroke:#58537D;stroke-width:2;stroke-linecap:round;stroke-linejoin:round;stroke-miterlimit:10;}
	.st2{fill:#FFFFFF;}
	.st3{opacity:0.2;fill:#58537D;}
	.st4{fill:none;stroke:#58537D;stroke-width:4;stroke-linecap:round;stroke-linejoin:round;stroke-miterlimit:10;}
	.st5{fill:#9BD3AF;}
	.st6{fill:#8ABF9C;}
	.st7{fill:none;stroke:#FFFFFF;stroke-linecap:round;stroke-miterlimit:10;}
	.st8{opacity:0.5;fill:none;stroke:#FFFFFF;stroke-width:2;stroke-linecap:round;stroke-linejoin:round;stroke-miterlimit:10;}
	.st9{fill:#58537D;}
	.st10{opacity:0.1;}
	.st11{opacity:0.1;fill:none;stroke:#58537D;stroke-width:2;stroke-linecap:round;stroke-linejoin:round;stroke-miterlimit:10;}
	.st12{fill:none;stroke:#F26A63;stroke-width:2;stroke-linecap:round;stroke-linejoin:round;}
	.st13{fill:none;stroke:#F26A63;stroke-width:2;stroke-linecap:round;stroke-linejoin:round;stroke-dasharray:4.0653,5.0816;}
	.st14{opacity:0.1;fill:#303C63;}
	.st15{fill:none;stroke:#FFFFFF;stroke-width:4;stroke-linecap:round;stroke-linejoin:round;stroke-miterlimit:10;}
	.st16{opacity:0.2;}
	.st17{fill:#FAF8F2;}
	.st18{fill:none;stroke:#F26A63;stroke-width:4;stroke-linecap:round;stroke-linejoin:round;stroke-miterlimit:10;}
	.st19{fill:none;stroke:#FFFFFF;stroke-width:2;stroke-linecap:round;stroke-linejoin:round;stroke-miterlimit:10;}
	.st20{opacity:0.1;fill:#58537D;}
	.st21{fill:none;stroke:#6DC392;stroke-width:2;stroke-linecap:round;stroke-linejoin:round;stroke-miterlimit:10;}
	
		.st22{fill:none;stroke:#58537D;stroke-width:2;stroke-linecap:round;stroke-linejoin:round;stroke-miterlimit:10;stroke-dasharray:4,5;}
	.st23{fill:#E2E2E2;}
</style><path class="st2" d="M94,50H19c-2.2,0-4,1.8-4,4v51c0,2.2,1.8,4,4,4h75c2.2,0,4-1.8,4-4V54C98,51.8,96.2,50,94,50z"/><g><path class="st0" d="M49,84H35c-7.7,0-14-6.3-14-14s6.3-14,14-14s14,6.3,14,14V84z M35,64c-3.3,0-6,2.7-6,6s2.7,6,6,6h6v-6   C41,66.7,38.3,64,35,64z"/></g><g><path class="st1" d="M49,84H35c-7.7,0-14-6.3-14-14s6.3-14,14-14s14,6.3,14,14V84z M35,64c-3.3,0-6,2.7-6,6s2.7,6,6,6h6v-6   C41,66.7,38.3,64,35,64z"/></g><g><path class="st0" d="M49,84h14c7.7,0,14-6.3,14-14s-6.3-14-14-14s-14,6.3-14,14V84z M63,64c3.3,0,6,2.7,6,6s-2.7,6-6,6h-6v-6   C57,66.7,59.7,64,63,64z"/></g><g><path class="st1" d="M49,84h14c7.7,0,14-6.3,14-14s-6.3-14-14-14s-14,6.3-14,14V84z M63,64c3.3,0,6,2.7,6,6s-2.7,6-6,6h-6v-6   C57,66.7,59.7,64,63,64z"/></g><rect class="st0" height="59" width="8" x="45" y="51"/><rect class="st0" height="83" transform="matrix(-1.836970e-16 1 -1 -1.836970e-16 140.5 27.5)" width="8" x="52.5" y="42.5"/><polygon class="st1" points="98,80 53,80 53,50 45,50 45,80 15,80 15,88 45,88 45,109 53,109 53,88 98,88 "/><path class="st1" d="M68,109h26c2.2,0,4-1.8,4-4V54c0-2.2-1.8-4-4-4H19c-2.2,0-4,1.8-4,4v51c0,2.2,1.8,4,4,4h41"/><path class="st5" d="M76.9,51H86v5.1l7-5.1h18.8c2.2,0,4.1-1.8,4.1-4V22c0-2.2-1.9-4-4.1-4h-35c-2.2,0-3.9,1.8-3.9,4v25  C73,49.2,74.7,51,76.9,51z"/><path class="st1" d="M77,51h-0.1c-2.2,0-3.9-1.8-3.9-4V22c0-2.2,1.7-4,3.9-4h35c2.2,0,4.1,1.8,4.1,4v25c0,2.2-1.9,4-4.1,4H93l-7,5.1  V51h-3"/><g><path class="st2" d="M93,40.8c-1-0.1-3-0.4-4-1v-3.5c1,0.4,1.7,0.8,2.7,1c0.9,0.3,1.8,0.4,2.5,0.4c0.6,0,1-0.1,1.3-0.2   c0.3-0.1,0.4-0.4,0.4-0.7c0-0.2-0.1-0.4-0.3-0.6c-0.2-0.2-0.5-0.3-1-0.5c-0.5-0.2-1.1-0.4-1.9-0.7c-0.9-0.3-1.6-0.7-2.1-1.1   c-0.5-0.4-0.9-0.9-1.2-1.4C89.2,32,89,31.3,89,30.6c0-1.1,0.1-2,0.9-2.7s2.1-1,3.1-1.2V25h3v1.7c1,0.1,2.6,0.4,4,1l-1.3,3   c-1.5-0.7-2.8-1-4-1c-0.6,0-1,0.1-1.2,0.2c-0.2,0.1-0.4,0.3-0.4,0.6c0,0.2,0.1,0.4,0.2,0.6c0.2,0.1,0.4,0.3,0.8,0.5   c0.4,0.2,1,0.4,1.7,0.6c1.5,0.5,2.5,1.1,3.1,1.8c0.6,0.7,0.9,1.5,0.9,2.5c0,1.2-0.2,2.1-0.9,2.8c-0.7,0.7-2,1.2-3,1.4V43h-3V40.8z"/></g></svg>