<?xml version="1.0" ?><svg id="Layer_1" style="enable-background:new 0 0 128 128;" version="1.1" viewBox="0 0 128 128" xml:space="preserve" xmlns="http://www.w3.org/2000/svg" xmlns:xlink="http://www.w3.org/1999/xlink"><style type="text/css">
	.st0{fill:#F49F9E;}
	.st1{fill:none;stroke:#58537D;stroke-width:2;stroke-linecap:round;stroke-linejoin:round;stroke-miterlimit:10;}
	.st2{fill:#FFFFFF;}
	.st3{opacity:0.2;fill:#58537D;}
	.st4{fill:none;stroke:#58537D;stroke-width:4;stroke-linecap:round;stroke-linejoin:round;stroke-miterlimit:10;}
	.st5{fill:#9BD3AF;}
	.st6{fill:#8ABF9C;}
	.st7{fill:none;stroke:#FFFFFF;stroke-linecap:round;stroke-miterlimit:10;}
	.st8{opacity:0.5;fill:none;stroke:#FFFFFF;stroke-width:2;stroke-linecap:round;stroke-linejoin:round;stroke-miterlimit:10;}
	.st9{fill:#58537D;}
	.st10{opacity:0.1;}
	.st11{opacity:0.1;fill:none;stroke:#58537D;stroke-width:2;stroke-linecap:round;stroke-linejoin:round;stroke-miterlimit:10;}
	.st12{fill:none;stroke:#F26A63;stroke-width:2;stroke-linecap:round;stroke-linejoin:round;}
	.st13{fill:none;stroke:#F26A63;stroke-width:2;stroke-linecap:round;stroke-linejoin:round;stroke-dasharray:4.0653,5.0816;}
	.st14{opacity:0.1;fill:#303C63;}
	.st15{fill:none;stroke:#FFFFFF;stroke-width:4;stroke-linecap:round;stroke-linejoin:round;stroke-miterlimit:10;}
	.st16{opacity:0.2;}
	.st17{fill:#FAF8F2;}
	.st18{fill:none;stroke:#F26A63;stroke-width:4;stroke-linecap:round;stroke-linejoin:round;stroke-miterlimit:10;}
	.st19{fill:none;stroke:#FFFFFF;stroke-width:2;stroke-linecap:round;stroke-linejoin:round;stroke-miterlimit:10;}
	.st20{opacity:0.1;fill:#58537D;}
	.st21{fill:none;stroke:#6DC392;stroke-width:2;stroke-linecap:round;stroke-linejoin:round;stroke-miterlimit:10;}
	
		.st22{fill:none;stroke:#58537D;stroke-width:2;stroke-linecap:round;stroke-linejoin:round;stroke-miterlimit:10;stroke-dasharray:4,5;}
	.st23{fill:#E2E2E2;}
</style><path class="st2" d="M10,38v28c0,4.4,3.6,8,8,8h58c4.4,0,8-3.6,8-8V38c0-4.4-3.6-8-8-8H18C13.6,30,10,33.6,10,38z"/><path class="st3" d="M10,38v28c0,4.4,3.6,8,8,8h58c4.4,0,8-3.6,8-8V38c0-4.4-3.6-8-8-8H18C13.6,30,10,33.6,10,38z"/><path class="st1" d="M84,43v-5c0-4.4-3.6-8-8-8H18c-4.4,0-8,3.6-8,8v28c0,4.4,3.6,8,8,8h58c4.4,0,8-3.6,8-8V50"/><rect class="st2" height="50" transform="matrix(6.123234e-17 -1 1 6.123234e-17 -5 99)" width="32" x="31" y="27"/><rect class="st1" height="50" transform="matrix(6.123234e-17 -1 1 6.123234e-17 -5 99)" width="32" x="31" y="27"/><g><polygon class="st5" points="66,78 117,78 117,107 72,107 66,104  "/><polyline class="st1" points="66,102 66,78 117,78 117,107 77,107  "/><path class="st6" d="M76.5,103c0-4-1.5-6.5-5.5-6.5v-9c4,0,5.5-2.5,5.5-5.5h30c0,3,2.5,5.5,5.5,5.5v9c-3,0-5.5,2.5-5.5,6.5H76.5z"/><circle class="st2" cx="91.5" cy="92" r="5.8"/><circle class="st1" cx="91.5" cy="92" r="5.8"/><path class="st1" d="M83,103h23.5c0-4,2.5-6.5,5.5-6.5v-9c-3,0-5.7-2.4-5.7-5.8"/><path class="st1" d="M100,82H76.5c0,3-1.5,5.5-5.5,5.5v9c4,0,5.4,2.9,5.4,6.2"/><line class="st1" x1="85" x2="79" y1="92" y2="92"/><line class="st1" x1="104" x2="98" y1="92" y2="92"/></g><line class="st1" x1="16" x2="16" y1="57" y2="47"/><circle class="st9" cx="78" cy="52.5" r="1.9"/><rect class="st2" height="8" width="50" x="22" y="22"/><polygon class="st2" points="22,74 72,74 72,107 63.7,103 55.3,107 47,103 38.7,107 30.3,103 22,107 "/><polygon class="st1" points="22,74 72,74 72,107 63.7,103 55.3,107 47,103 38.7,107 30.3,103 22,107 "/><rect class="st1" height="8" width="50" x="22" y="22"/><g><circle class="st14" cx="33.6" cy="44.2" r="2.2"/><line class="st11" x1="40" x2="62" y1="44" y2="44"/><circle class="st14" cx="33.6" cy="52.2" r="2.2"/><line class="st11" x1="40" x2="62" y1="52" y2="52"/><circle class="st14" cx="33.6" cy="60.2" r="2.2"/><line class="st11" x1="40" x2="62" y1="60" y2="60"/></g><g><path class="st5" d="M34,93.3c-1-0.1-2-0.3-3-0.8v-2.6c1,0.3,1.3,0.6,2,0.8c0.7,0.2,1.3,0.3,1.9,0.3c0.4,0,0.8-0.1,1-0.2   c0.2-0.1,0.3-0.3,0.3-0.5c0-0.2-0.1-0.3-0.2-0.4c-0.1-0.1-0.4-0.3-0.7-0.4c-0.3-0.1-0.8-0.3-1.4-0.5c-0.7-0.2-1.2-0.5-1.6-0.8   c-0.4-0.3-0.7-0.6-0.9-1c-0.2-0.4-0.3-0.8-0.3-1.4c0-0.9,0.1-1.5,0.7-2c0.5-0.5,1.3-0.8,2.3-0.9V82h2v0.8c1,0.1,2,0.3,3.1,0.8   l-0.9,2.2c-1.1-0.5-2.1-0.7-2.9-0.7c-0.4,0-0.7,0.1-0.9,0.2c-0.2,0.1-0.3,0.2-0.3,0.4c0,0.2,0.1,0.3,0.2,0.4s0.3,0.2,0.6,0.4   c0.3,0.1,0.7,0.3,1.2,0.5c1.1,0.4,1.9,0.8,2.3,1.3c0.5,0.5,0.7,1.1,0.7,1.9c0,0.9-0.2,1.6-0.8,2.1c-0.6,0.5-1.4,0.9-2.4,1V95h-2   V93.3z"/></g><line class="st11" x1="46" x2="61" y1="84" y2="84"/><line class="st11" x1="46" x2="61" y1="89" y2="89"/><line class="st11" x1="46" x2="61" y1="94" y2="94"/></svg>