<?xml version="1.0" ?><svg id="Layer_1" style="enable-background:new 0 0 128 128;" version="1.1" viewBox="0 0 128 128" xml:space="preserve" xmlns="http://www.w3.org/2000/svg" xmlns:xlink="http://www.w3.org/1999/xlink"><style type="text/css">
	.st0{fill:#F49F9E;}
	.st1{fill:none;stroke:#58537D;stroke-width:2;stroke-linecap:round;stroke-linejoin:round;stroke-miterlimit:10;}
	.st2{fill:#FFFFFF;}
	.st3{opacity:0.2;fill:#58537D;}
	.st4{fill:none;stroke:#58537D;stroke-width:4;stroke-linecap:round;stroke-linejoin:round;stroke-miterlimit:10;}
	.st5{fill:#9BD3AF;}
	.st6{fill:#8ABF9C;}
	.st7{fill:none;stroke:#FFFFFF;stroke-linecap:round;stroke-miterlimit:10;}
	.st8{opacity:0.5;fill:none;stroke:#FFFFFF;stroke-width:2;stroke-linecap:round;stroke-linejoin:round;stroke-miterlimit:10;}
	.st9{fill:#58537D;}
	.st10{opacity:0.1;}
	.st11{opacity:0.1;fill:none;stroke:#58537D;stroke-width:2;stroke-linecap:round;stroke-linejoin:round;stroke-miterlimit:10;}
	.st12{fill:none;stroke:#F26A63;stroke-width:2;stroke-linecap:round;stroke-linejoin:round;}
	.st13{fill:none;stroke:#F26A63;stroke-width:2;stroke-linecap:round;stroke-linejoin:round;stroke-dasharray:4.0653,5.0816;}
	.st14{opacity:0.1;fill:#303C63;}
	.st15{fill:none;stroke:#FFFFFF;stroke-width:4;stroke-linecap:round;stroke-linejoin:round;stroke-miterlimit:10;}
	.st16{opacity:0.2;}
	.st17{fill:#FAF8F2;}
	.st18{fill:none;stroke:#F26A63;stroke-width:4;stroke-linecap:round;stroke-linejoin:round;stroke-miterlimit:10;}
	.st19{fill:none;stroke:#FFFFFF;stroke-width:2;stroke-linecap:round;stroke-linejoin:round;stroke-miterlimit:10;}
	.st20{opacity:0.1;fill:#58537D;}
	.st21{fill:none;stroke:#6DC392;stroke-width:2;stroke-linecap:round;stroke-linejoin:round;stroke-miterlimit:10;}
	
		.st22{fill:none;stroke:#58537D;stroke-width:2;stroke-linecap:round;stroke-linejoin:round;stroke-miterlimit:10;stroke-dasharray:4,5;}
	.st23{fill:#E2E2E2;}
</style><g><rect class="st5" height="29" width="51" x="11" y="79"/><polyline class="st1" points="56,108 11,108 11,79 62,79 62,103  "/><path class="st6" d="M21.5,104c0-4-1.5-6.5-5.5-6.5v-9c4,0,5.5-2.5,5.5-5.5h30c0,3,2.5,5.5,5.5,5.5v9c-3,0-5.5,2.5-5.5,6.5H21.5z"/><circle class="st2" cx="36.5" cy="93" r="5.8"/><circle class="st1" cx="36.5" cy="93" r="5.8"/><path class="st1" d="M28,104h23.5c0-4,2.5-6.5,5.5-6.5v-9c-3,0-5.7-2.4-5.7-5.8"/><path class="st1" d="M45,83H21.5c0,3-1.5,5.5-5.5,5.5v9c4,0,5.4,2.9,5.4,6.2"/><line class="st1" x1="30" x2="24" y1="93" y2="93"/><line class="st1" x1="49" x2="43" y1="93" y2="93"/></g><rect class="st2" height="84" width="69" x="46" y="24"/><polyline class="st1" points="58,108 46,108 46,24 115,24 115,108 67,108 "/><line class="st1" x1="54" x2="108" y1="66" y2="66"/><rect class="st3" height="23" width="9" x="61" y="43"/><rect class="st1" height="23" width="9" x="61" y="43"/><rect class="st0" height="16" width="9" x="76" y="50"/><rect class="st1" height="16" width="9" x="76" y="50"/><rect class="st5" height="30" width="9" x="91" y="36"/><rect class="st1" height="30" width="9" x="91" y="36"/><g><line class="st11" x1="58" x2="77" y1="77" y2="77"/><line class="st11" x1="58" x2="77" y1="83" y2="83"/><line class="st11" x1="58" x2="77" y1="89" y2="89"/><line class="st11" x1="58" x2="77" y1="95" y2="95"/><line class="st11" x1="85" x2="104" y1="77" y2="77"/><line class="st11" x1="85" x2="104" y1="83" y2="83"/><line class="st11" x1="85" x2="104" y1="89" y2="89"/><line class="st11" x1="85" x2="104" y1="95" y2="95"/></g></svg>