<?xml version="1.0" ?><svg id="Layer_1" style="enable-background:new 0 0 128 128;" version="1.1" viewBox="0 0 128 128" xml:space="preserve" xmlns="http://www.w3.org/2000/svg" xmlns:xlink="http://www.w3.org/1999/xlink"><style type="text/css">
	.st0{fill:#F49F9E;}
	.st1{fill:none;stroke:#58537D;stroke-width:2;stroke-linecap:round;stroke-linejoin:round;stroke-miterlimit:10;}
	.st2{fill:#FFFFFF;}
	.st3{opacity:0.2;fill:#58537D;}
	.st4{fill:none;stroke:#58537D;stroke-width:4;stroke-linecap:round;stroke-linejoin:round;stroke-miterlimit:10;}
	.st5{fill:#9BD3AF;}
	.st6{fill:#8ABF9C;}
	.st7{fill:none;stroke:#FFFFFF;stroke-linecap:round;stroke-miterlimit:10;}
	.st8{opacity:0.5;fill:none;stroke:#FFFFFF;stroke-width:2;stroke-linecap:round;stroke-linejoin:round;stroke-miterlimit:10;}
	.st9{fill:#58537D;}
	.st10{opacity:0.1;}
	.st11{opacity:0.1;fill:none;stroke:#58537D;stroke-width:2;stroke-linecap:round;stroke-linejoin:round;stroke-miterlimit:10;}
	.st12{fill:none;stroke:#F26A63;stroke-width:2;stroke-linecap:round;stroke-linejoin:round;}
	.st13{fill:none;stroke:#F26A63;stroke-width:2;stroke-linecap:round;stroke-linejoin:round;stroke-dasharray:4.0653,5.0816;}
	.st14{opacity:0.1;fill:#303C63;}
	.st15{fill:none;stroke:#FFFFFF;stroke-width:4;stroke-linecap:round;stroke-linejoin:round;stroke-miterlimit:10;}
	.st16{opacity:0.2;}
	.st17{fill:#FAF8F2;}
	.st18{fill:none;stroke:#F26A63;stroke-width:4;stroke-linecap:round;stroke-linejoin:round;stroke-miterlimit:10;}
	.st19{fill:none;stroke:#FFFFFF;stroke-width:2;stroke-linecap:round;stroke-linejoin:round;stroke-miterlimit:10;}
	.st20{opacity:0.1;fill:#58537D;}
	.st21{fill:none;stroke:#6DC392;stroke-width:2;stroke-linecap:round;stroke-linejoin:round;stroke-miterlimit:10;}
	
		.st22{fill:none;stroke:#58537D;stroke-width:2;stroke-linecap:round;stroke-linejoin:round;stroke-miterlimit:10;stroke-dasharray:4,5;}
	.st23{fill:#E2E2E2;}
</style><g><path class="st0" d="M54,66.9c-0.6,0-1.1-0.2-1.6-0.5c-1.4-0.9-1.8-2.8-0.9-4.1l19.7-30.7c0.9-1.4,2.7-1.8,4.1-0.9   c1.4,0.9,1.8,2.8,0.9,4.1L56.5,65.5C56,66.4,55,66.9,54,66.9z"/></g><g><path class="st1" d="M54,66.9c-0.6,0-1.1-0.2-1.6-0.5c-1.4-0.9-1.8-2.8-0.9-4.1l19.7-30.7c0.9-1.4,2.7-1.8,4.1-0.9   c1.4,0.9,1.8,2.8,0.9,4.1L56.5,65.5C56,66.4,55,66.9,54,66.9z"/></g><path class="st2" d="M98,60c0,2.8-2.2,5-5,5H15c-2.8,0-5-2.2-5-5l0,0c0-2.8,2.2-5,5-5h78C95.8,55,98,57.2,98,60L98,60z"/><path class="st3" d="M93,62H15c-2.2,0-4.1-1.8-4.7-3.8c-0.2,0.5-0.3,1.1-0.3,1.7c0,2.8,2.2,5.2,5,5.2h78c2.8,0,5-2.5,5-5.3  c0-0.5-0.1-0.9-0.3-1.3C97.1,60.4,95.2,62,93,62z"/><path class="st1" d="M54,55h39c2.8,0,5,2.2,5,5l0,0c0,2.8-2.2,5-5,5H15c-2.8,0-5-2.2-5-5l0,0c0-2.8,2.2-5,5-5h31"/><path class="st2" d="M86.8,108H22c-4,0-7-3.8-7-7.8V65h79v35.2C94,104.2,90.8,108,86.8,108z"/><path class="st3" d="M86.8,103H22c-4,0-7-3.8-7-7.8v5c0,4,3,7.8,7,7.8h64.8c4,0,7.2-3.8,7.2-7.8v-5C94,99.2,90.8,103,86.8,103z"/><path class="st1" d="M46,108H22c-4,0-7-3.8-7-7.8V65h79v35.2c0,4-3.2,7.8-7.2,7.8H54"/><g><line class="st4" x1="25" x2="25" y1="73" y2="79"/><line class="st4" x1="25" x2="25" y1="89" y2="95"/><line class="st4" x1="35" x2="35" y1="73" y2="79"/><line class="st4" x1="35" x2="35" y1="89" y2="95"/><line class="st4" x1="45" x2="45" y1="73" y2="79"/><line class="st4" x1="45" x2="45" y1="89" y2="95"/><line class="st4" x1="55" x2="55" y1="73" y2="79"/><line class="st4" x1="55" x2="55" y1="89" y2="95"/><line class="st4" x1="65" x2="65" y1="73" y2="79"/><line class="st4" x1="65" x2="65" y1="89" y2="95"/><line class="st4" x1="75" x2="75" y1="73" y2="79"/><line class="st4" x1="75" x2="75" y1="89" y2="95"/><line class="st4" x1="85" x2="85" y1="73" y2="79"/><line class="st4" x1="85" x2="85" y1="89" y2="95"/></g><rect class="st5" height="30" width="51" x="63" y="79"/><rect class="st1" height="29" width="51" x="63" y="79"/><path class="st6" d="M73.5,104c0-3-1.5-6.1-5.5-6.1v-9c4,0,5.5-2.9,5.5-5.9h30c0,3,2.5,5.9,5.5,5.9v9c-3,0-5.5,3.1-5.5,6.1H73.5z"/><circle class="st2" cx="88.5" cy="93.4" r="5.8"/><circle class="st1" cx="88.5" cy="93.4" r="5.8"/><path class="st1" d="M80,104h23.5c0-3,2.5-6.1,5.5-6.1v-9c-3,0-5.7-2.6-5.7-5.9"/><path class="st1" d="M97,83H73.5c0,3-1.5,5.9-5.5,5.9v9c4,0,5.4,2.7,5.4,6.1"/><line class="st1" x1="82" x2="76" y1="94" y2="94"/><line class="st1" x1="101" x2="95" y1="94" y2="94"/><g><path class="st0" d="M54,60.4c-0.6,0-1.1-0.2-1.6-0.5c-1.4-0.9-1.8-2.8-0.9-4.1l19.7-30.7c0.9-1.4,2.7-1.8,4.1-0.9   c1.4,0.9,1.8,2.8,0.9,4.1L56.5,59C56,59.9,55,60.4,54,60.4z"/></g><g><path class="st1" d="M54,60.4c-0.6,0-1.1-0.2-1.6-0.5c-1.4-0.9-1.8-2.8-0.9-4.1l19.7-30.7c0.9-1.4,2.7-1.8,4.1-0.9   c1.4,0.9,1.8,2.8,0.9,4.1L56.5,59C56,59.9,55,60.4,54,60.4z"/></g></svg>