<?xml version="1.0" ?><svg id="Layer_1" style="enable-background:new 0 0 128 128;" version="1.1" viewBox="0 0 128 128" xml:space="preserve" xmlns="http://www.w3.org/2000/svg" xmlns:xlink="http://www.w3.org/1999/xlink"><style type="text/css">
	.st0{fill:#F49F9E;}
	.st1{fill:none;stroke:#58537D;stroke-width:2;stroke-linecap:round;stroke-linejoin:round;stroke-miterlimit:10;}
	.st2{fill:#FFFFFF;}
	.st3{opacity:0.2;fill:#58537D;}
	.st4{fill:none;stroke:#58537D;stroke-width:4;stroke-linecap:round;stroke-linejoin:round;stroke-miterlimit:10;}
	.st5{fill:#9BD3AF;}
	.st6{fill:#8ABF9C;}
	.st7{fill:none;stroke:#FFFFFF;stroke-linecap:round;stroke-miterlimit:10;}
	.st8{opacity:0.5;fill:none;stroke:#FFFFFF;stroke-width:2;stroke-linecap:round;stroke-linejoin:round;stroke-miterlimit:10;}
	.st9{fill:#58537D;}
	.st10{opacity:0.1;}
	.st11{opacity:0.1;fill:none;stroke:#58537D;stroke-width:2;stroke-linecap:round;stroke-linejoin:round;stroke-miterlimit:10;}
	.st12{fill:none;stroke:#F26A63;stroke-width:2;stroke-linecap:round;stroke-linejoin:round;}
	.st13{fill:none;stroke:#F26A63;stroke-width:2;stroke-linecap:round;stroke-linejoin:round;stroke-dasharray:4.0653,5.0816;}
	.st14{opacity:0.1;fill:#303C63;}
	.st15{fill:none;stroke:#FFFFFF;stroke-width:4;stroke-linecap:round;stroke-linejoin:round;stroke-miterlimit:10;}
	.st16{opacity:0.2;}
	.st17{fill:#FAF8F2;}
	.st18{fill:none;stroke:#F26A63;stroke-width:4;stroke-linecap:round;stroke-linejoin:round;stroke-miterlimit:10;}
	.st19{fill:none;stroke:#FFFFFF;stroke-width:2;stroke-linecap:round;stroke-linejoin:round;stroke-miterlimit:10;}
	.st20{opacity:0.1;fill:#58537D;}
	.st21{fill:none;stroke:#6DC392;stroke-width:2;stroke-linecap:round;stroke-linejoin:round;stroke-miterlimit:10;}
	
		.st22{fill:none;stroke:#58537D;stroke-width:2;stroke-linecap:round;stroke-linejoin:round;stroke-miterlimit:10;stroke-dasharray:4,5;}
	.st23{fill:#E2E2E2;}
</style><polygon class="st2" points="109,108 102.7,108 52,108 52,44 109,44 "/><polygon class="st3" points="109,108 102.7,108 52,108 52,44 109,44 "/><polyline class="st1" points="52,98 52,44 109,44 109,108 101,108 "/><rect class="st2" height="64" width="57" x="46" y="44"/><polyline class="st1" points="74,108 46,108 46,44 103,44 103,108 82,108 "/><path class="st5" d="M71,104c0,2.2-1.8,4-4,4H27c-2.2,0-4-1.8-4-4V64h48V104z"/><path class="st1" d="M71,104c0,2.2-1.8,4-4,4H27c-2.2,0-4-1.8-4-4V64h48V104z"/><path class="st2" d="M66,104c0,2.2-1.8,4-4,4H22c-2.2,0-4-1.8-4-4V64h48V104z"/><path class="st3" d="M66,104c0,2.2-1.8,4-4,4H22c-2.2,0-4-1.8-4-4V64h48V104z"/><path class="st1" d="M66,104c0,2.2-1.8,4-4,4H22c-2.2,0-4-1.8-4-4V64h48V104z"/><path class="st0" d="M49.9,87.7c0,4.7-7.9,8.8-7.9,8.8s-7.9-4.1-7.9-8.8c0-2.5,1.5-4.7,4.3-4.7s3.7,2.2,3.7,2.2s0.9-2.2,3.7-2.2  S49.9,85.2,49.9,87.7z"/><path class="st1" d="M49.9,87.7c0,4.7-7.9,8.8-7.9,8.8s-7.9-4.1-7.9-8.8c0-2.5,1.5-4.7,4.3-4.7s3.7,2.2,3.7,2.2s0.9-2.2,3.7-2.2  S49.9,85.2,49.9,87.7z"/><g><path class="st2" d="M60,68h-4v-8c0-7.2-5.8-13-13-13c-7.2,0-13,5.8-13,13v8h-4v-8c0-9.4,7.6-17,17-17s17,7.6,17,17V68z"/></g><g class="st16"><path class="st9" d="M60,68h-4v-8c0-7.2-5.8-13-13-13c-7.2,0-13,5.8-13,13v8h-4v-8c0-9.4,7.6-17,17-17s17,7.6,17,17V68z"/></g><g><path class="st1" d="M56,68v-8c0-7.2-5.8-13-13-13c-7.2,0-13,5.8-13,13v8"/><path class="st1" d="M26,68v-8c0-9.4,7.6-17,17-17s17,7.6,17,17v8"/></g><line class="st11" x1="103" x2="71" y1="88" y2="88"/><line class="st11" x1="103" x2="71" y1="94" y2="94"/><g><path class="st2" d="M94,47h-4V28H64v19h-4V27.8c0-2.2,1.8-3.8,4-3.8h26.2c2.2,0,3.8,1.5,3.8,3.8V47z"/></g><g><path class="st1" d="M60,47V27.8c0-2.2,1.8-3.8,4-3.8h26.2c2.2,0,3.8,1.5,3.8,3.8V47"/><polyline class="st1" points="90,47 90,28 64,28 64,47  "/></g></svg>