<?xml version="1.0" ?><svg id="Layer_1" style="enable-background:new 0 0 128 128;" version="1.1" viewBox="0 0 128 128" xml:space="preserve" xmlns="http://www.w3.org/2000/svg" xmlns:xlink="http://www.w3.org/1999/xlink"><style type="text/css">
	.st0{fill:#F49F9E;}
	.st1{fill:none;stroke:#58537D;stroke-width:2;stroke-linecap:round;stroke-linejoin:round;stroke-miterlimit:10;}
	.st2{fill:#FFFFFF;}
	.st3{opacity:0.2;fill:#58537D;}
	.st4{fill:none;stroke:#58537D;stroke-width:4;stroke-linecap:round;stroke-linejoin:round;stroke-miterlimit:10;}
	.st5{fill:#9BD3AF;}
	.st6{fill:#8ABF9C;}
	.st7{fill:none;stroke:#FFFFFF;stroke-linecap:round;stroke-miterlimit:10;}
	.st8{opacity:0.5;fill:none;stroke:#FFFFFF;stroke-width:2;stroke-linecap:round;stroke-linejoin:round;stroke-miterlimit:10;}
	.st9{fill:#58537D;}
	.st10{opacity:0.1;}
	.st11{opacity:0.1;fill:none;stroke:#58537D;stroke-width:2;stroke-linecap:round;stroke-linejoin:round;stroke-miterlimit:10;}
	.st12{fill:none;stroke:#F26A63;stroke-width:2;stroke-linecap:round;stroke-linejoin:round;}
	.st13{fill:none;stroke:#F26A63;stroke-width:2;stroke-linecap:round;stroke-linejoin:round;stroke-dasharray:4.0653,5.0816;}
	.st14{opacity:0.1;fill:#303C63;}
	.st15{fill:none;stroke:#FFFFFF;stroke-width:4;stroke-linecap:round;stroke-linejoin:round;stroke-miterlimit:10;}
	.st16{opacity:0.2;}
	.st17{fill:#FAF8F2;}
	.st18{fill:none;stroke:#F26A63;stroke-width:4;stroke-linecap:round;stroke-linejoin:round;stroke-miterlimit:10;}
	.st19{fill:none;stroke:#FFFFFF;stroke-width:2;stroke-linecap:round;stroke-linejoin:round;stroke-miterlimit:10;}
	.st20{opacity:0.1;fill:#58537D;}
	.st21{fill:none;stroke:#6DC392;stroke-width:2;stroke-linecap:round;stroke-linejoin:round;stroke-miterlimit:10;}
	
		.st22{fill:none;stroke:#58537D;stroke-width:2;stroke-linecap:round;stroke-linejoin:round;stroke-miterlimit:10;stroke-dasharray:4,5;}
	.st23{fill:#E2E2E2;}
</style><rect class="st2" height="19" transform="matrix(6.123234e-17 -1 1 6.123234e-17 -51.0001 165.9999)" width="11" x="52" y="99"/><path class="st2" d="M105,110c0,2.2-1.8,4-4,4H13c-2.2,0-4-1.8-4-4V45c0-2.2,1.8-4,4-4h88c2.2,0,4,1.8,4,4V110z"/><rect class="st6" height="19" transform="matrix(6.123234e-17 -1 1 6.123234e-17 -79.0001 137.9999)" width="11" x="24" y="99"/><polyline class="st1" points="20,114 20,103 39,103 39,114 "/><rect class="st3" height="19" transform="matrix(6.123234e-17 -1 1 6.123234e-17 -51.0001 165.9999)" width="11" x="52" y="99"/><rect class="st3" height="19" transform="matrix(6.123234e-17 -1 1 6.123234e-17 -51.0001 165.9999)" width="11" x="52" y="99"/><polyline class="st1" points="48,114 48,103 67,103 67,114 "/><rect class="st3" height="19" transform="matrix(6.123234e-17 -1 1 6.123234e-17 -23.0001 193.9999)" width="11" x="80" y="99"/><polyline class="st1" points="76,114 76,103 95,103 95,114 "/><path class="st3" d="M101,41H13c-2.2,0-4,1.4-4,3.6V52h96v-7.4C105,42.4,103.2,41,101,41z"/><path class="st1" d="M32,114H13c-2.2,0-4-1.8-4-4V45c0-2.2,1.8-4,4-4h88c2.2,0,4,1.8,4,4v65c0,2.2-1.8,4-4,4H39"/><line class="st1" x1="9" x2="65" y1="52" y2="52"/><circle class="st9" cx="15.8" cy="46.3" r="1.5"/><circle class="st9" cx="21.8" cy="46.3" r="1.5"/><circle class="st9" cx="27.8" cy="46.3" r="1.5"/><g class="st10"><circle class="st1" cx="24" cy="64.7" r="3.8"/><line class="st1" x1="26.7" x2="29.8" y1="67.4" y2="70.5"/></g><line class="st11" x1="40" x2="49" y1="62" y2="62"/><line class="st11" x1="54" x2="76" y1="62" y2="62"/><line class="st11" x1="40" x2="49" y1="66" y2="66"/><line class="st11" x1="54" x2="64" y1="66" y2="66"/><rect class="st3" height="19" transform="matrix(6.123234e-17 -1 1 6.123234e-17 -57 116)" width="19" x="20" y="77"/><rect class="st1" height="19" transform="matrix(6.123234e-17 -1 1 6.123234e-17 -57 116)" width="19" x="20" y="77"/><rect class="st5" height="19" transform="matrix(6.123234e-17 -1 1 6.123234e-17 -29 144)" width="19" x="48" y="77"/><rect class="st1" height="19" transform="matrix(6.123234e-17 -1 1 6.123234e-17 -29 144)" width="19" x="48" y="77"/><rect class="st0" height="19" transform="matrix(6.123234e-17 -1 1 6.123234e-17 -1 172)" width="19" x="76" y="77"/><rect class="st1" height="19" transform="matrix(6.123234e-17 -1 1 6.123234e-17 -1 172)" width="19" x="76" y="77"/><path class="st2" d="M75.5,52H84v4.9l7.7-4.9h24.8c2.2,0,3.5-2,3.5-4.2v-31c0-2.2-1.3-3.8-3.5-3.8h-41c-2.2,0-4.5,1.5-4.5,3.8v31  C71,50,73.3,52,75.5,52z"/><path class="st1" d="M75,52h0.5c-2.2,0-4.5-2-4.5-4.2v-31c0-2.2,2.3-3.8,4.5-3.8h41c2.2,0,3.5,1.5,3.5,3.8v31c0,2.2-1.3,4.2-3.5,4.2  H91.7L84,56.9V52h-3"/><path class="st2" d="M95.8,41.7c3.7,0,6.7-2.7,6.7-6.7H89.2C89.2,39,92.2,41.7,95.8,41.7z"/><path class="st0" d="M92,40.3c1.1,0.8,2.4,1.2,3.8,1.2s2.7-0.4,3.8-1.2c-0.1-2-1.8-2.6-3.8-2.6S92.1,38.3,92,40.3z"/><path class="st1" d="M95.8,41.7c3.7,0,6.7-2.7,6.7-6.7H89.2C89.2,39,92.2,41.7,95.8,41.7z"/><path class="st1" d="M85.3,27.6c0-1.6,1.3-2.9,2.9-2.9S91,26,91,27.6"/><path class="st1" d="M100.6,27.6c0-1.6,1.3-2.9,2.9-2.9s2.9,1.3,2.9,2.9"/></svg>