<?xml version="1.0" ?><svg id="Layer_1" style="enable-background:new 0 0 128 128;" version="1.1" viewBox="0 0 128 128" xml:space="preserve" xmlns="http://www.w3.org/2000/svg" xmlns:xlink="http://www.w3.org/1999/xlink"><style type="text/css">
	.st0{fill:#F49F9E;}
	.st1{fill:none;stroke:#58537D;stroke-width:2;stroke-linecap:round;stroke-linejoin:round;stroke-miterlimit:10;}
	.st2{fill:#FFFFFF;}
	.st3{opacity:0.2;fill:#58537D;}
	.st4{fill:none;stroke:#58537D;stroke-width:4;stroke-linecap:round;stroke-linejoin:round;stroke-miterlimit:10;}
	.st5{fill:#9BD3AF;}
	.st6{fill:#8ABF9C;}
	.st7{fill:none;stroke:#FFFFFF;stroke-linecap:round;stroke-miterlimit:10;}
	.st8{opacity:0.5;fill:none;stroke:#FFFFFF;stroke-width:2;stroke-linecap:round;stroke-linejoin:round;stroke-miterlimit:10;}
	.st9{fill:#58537D;}
	.st10{opacity:0.1;}
	.st11{opacity:0.1;fill:none;stroke:#58537D;stroke-width:2;stroke-linecap:round;stroke-linejoin:round;stroke-miterlimit:10;}
	.st12{fill:none;stroke:#F26A63;stroke-width:2;stroke-linecap:round;stroke-linejoin:round;}
	.st13{fill:none;stroke:#F26A63;stroke-width:2;stroke-linecap:round;stroke-linejoin:round;stroke-dasharray:4.0653,5.0816;}
	.st14{opacity:0.1;fill:#303C63;}
	.st15{fill:none;stroke:#FFFFFF;stroke-width:4;stroke-linecap:round;stroke-linejoin:round;stroke-miterlimit:10;}
	.st16{opacity:0.2;}
	.st17{fill:#FAF8F2;}
	.st18{fill:none;stroke:#F26A63;stroke-width:4;stroke-linecap:round;stroke-linejoin:round;stroke-miterlimit:10;}
	.st19{fill:none;stroke:#FFFFFF;stroke-width:2;stroke-linecap:round;stroke-linejoin:round;stroke-miterlimit:10;}
	.st20{opacity:0.1;fill:#58537D;}
	.st21{fill:none;stroke:#6DC392;stroke-width:2;stroke-linecap:round;stroke-linejoin:round;stroke-miterlimit:10;}
	
		.st22{fill:none;stroke:#58537D;stroke-width:2;stroke-linecap:round;stroke-linejoin:round;stroke-miterlimit:10;stroke-dasharray:4,5;}
	.st23{fill:#E2E2E2;}
</style><ellipse class="st2" cx="50.8" cy="58.6" rx="32.2" ry="32.7"/><polygon class="st2" points="97,87 97,74 104.8,74 111,82.9 111,87 "/><g><ellipse class="st3" cx="50.8" cy="58.6" rx="32.2" ry="32.7"/><ellipse class="st1" cx="50.8" cy="58.6" rx="32.2" ry="32.7"/><path class="st1" d="M42.3,100.7C23,96.7,8.5,79.4,8.5,58.6c0-23.7,19-43,42.4-43c20.1,0,36.9,14.2,41.3,33.2"/><ellipse class="st1" cx="50.8" cy="58.6" rx="17.7" ry="32.7"/><line class="st1" x1="51" x2="51" y1="26" y2="91"/><line class="st1" x1="19" x2="83" y1="59" y2="59"/><line class="st1" x1="23" x2="78" y1="42" y2="42"/><line class="st1" x1="23" x2="78" y1="75" y2="75"/></g><ellipse class="st1" cx="50.8" cy="58.6" rx="32.2" ry="32.7"/><g><rect class="st2" height="9" width="71" x="48" y="97"/><rect class="st3" height="9" width="71" x="48" y="97"/><polyline class="st1" points="93,106 119,106 119,97 48,97 48,106 87,106  "/><circle class="st23" cx="62.2" cy="105.7" r="6.3"/><circle class="st23" cx="105.5" cy="105.7" r="6.3"/><circle class="st9" cx="105.5" cy="105.7" r="2.4"/><circle class="st1" cx="62.2" cy="105.7" r="6.3"/><circle class="st9" cx="62.2" cy="105.7" r="2.4"/><circle class="st1" cx="105.5" cy="105.8" r="6.3"/><path class="st0" d="M85.9,64H57.6c-3.5,0-6.6,2.8-6.6,6.3V97h41V70.3C92,66.8,89.4,64,85.9,64z"/><path class="st1" d="M85.9,64H57.6c-3.5,0-6.6,2.8-6.6,6.3V97h41V70.3C92,66.8,89.4,64,85.9,64z"/><path class="st2" d="M92,97h24V82.4c0-0.7-0.3-1.3-0.7-1.9l-7.1-9.4c-0.6-0.8-1.6-1-2.6-1H95.4c-1.7,0-3.4,0.9-3.4,2.7V97z"/><path class="st1" d="M92,97h24V82.4c0-0.7-0.3-1.3-0.7-1.9l-7.1-9.4c-0.6-0.8-1.6-1-2.6-1H95.4c-1.7,0-3.4,0.9-3.4,2.7V97z"/><polygon class="st3" points="97,87 97,74 104.8,74 111,82.9 111,87  "/><polygon class="st1" points="97,87 97,74 104.8,74 111,82.9 111,87  "/><line class="st1" x1="98" x2="104" y1="91" y2="91"/></g><line class="st1" x1="92.1" x2="95" y1="48.9" y2="43.1"/><line class="st1" x1="92.1" x2="86.4" y1="48.9" y2="46"/></svg>