<?xml version="1.0" ?><svg id="Layer_1" style="enable-background:new 0 0 128 128;" version="1.1" viewBox="0 0 128 128" xml:space="preserve" xmlns="http://www.w3.org/2000/svg" xmlns:xlink="http://www.w3.org/1999/xlink"><style type="text/css">
	.st0{fill:#F49F9E;}
	.st1{fill:none;stroke:#58537D;stroke-width:2;stroke-linecap:round;stroke-linejoin:round;stroke-miterlimit:10;}
	.st2{fill:#FFFFFF;}
	.st3{opacity:0.2;fill:#58537D;}
	.st4{fill:none;stroke:#58537D;stroke-width:4;stroke-linecap:round;stroke-linejoin:round;stroke-miterlimit:10;}
	.st5{fill:#9BD3AF;}
	.st6{fill:#8ABF9C;}
	.st7{fill:none;stroke:#FFFFFF;stroke-linecap:round;stroke-miterlimit:10;}
	.st8{opacity:0.5;fill:none;stroke:#FFFFFF;stroke-width:2;stroke-linecap:round;stroke-linejoin:round;stroke-miterlimit:10;}
	.st9{fill:#58537D;}
	.st10{opacity:0.1;}
	.st11{opacity:0.1;fill:none;stroke:#58537D;stroke-width:2;stroke-linecap:round;stroke-linejoin:round;stroke-miterlimit:10;}
	.st12{fill:none;stroke:#F26A63;stroke-width:2;stroke-linecap:round;stroke-linejoin:round;}
	.st13{fill:none;stroke:#F26A63;stroke-width:2;stroke-linecap:round;stroke-linejoin:round;stroke-dasharray:4.0653,5.0816;}
	.st14{opacity:0.1;fill:#303C63;}
	.st15{fill:none;stroke:#FFFFFF;stroke-width:4;stroke-linecap:round;stroke-linejoin:round;stroke-miterlimit:10;}
	.st16{opacity:0.2;}
	.st17{fill:#FAF8F2;}
	.st18{fill:none;stroke:#F26A63;stroke-width:4;stroke-linecap:round;stroke-linejoin:round;stroke-miterlimit:10;}
	.st19{fill:none;stroke:#FFFFFF;stroke-width:2;stroke-linecap:round;stroke-linejoin:round;stroke-miterlimit:10;}
	.st20{opacity:0.1;fill:#58537D;}
	.st21{fill:none;stroke:#6DC392;stroke-width:2;stroke-linecap:round;stroke-linejoin:round;stroke-miterlimit:10;}
	
		.st22{fill:none;stroke:#58537D;stroke-width:2;stroke-linecap:round;stroke-linejoin:round;stroke-miterlimit:10;stroke-dasharray:4,5;}
	.st23{fill:#E2E2E2;}
</style><path class="st2" d="M116,104c0,2.2-1.8,4-4,4H24c-2.2,0-4-1.8-4-4V39c0-2.2,1.8-4,4-4h88c2.2,0,4,1.8,4,4V104z"/><path class="st3" d="M112,35H24c-2.2,0-4,1.4-4,3.6V46h96v-7.4C116,36.4,114.2,35,112,35z"/><path class="st1" d="M75,108H24c-2.2,0-4-1.8-4-4V38.6c0-2.2,1.8-3.6,4-3.6h88c2.2,0,4,1.4,4,3.6V104c0,2.2-1.8,4-4,4H84"/><line class="st1" x1="20" x2="80" y1="46" y2="46"/><circle class="st9" cx="26.8" cy="40.3" r="1.5"/><circle class="st9" cx="32.8" cy="40.3" r="1.5"/><circle class="st9" cx="38.8" cy="40.3" r="1.5"/><path class="st0" d="M12,104V72c0-2.2,1.8-4,4-4h51c2.2,0,4,1.8,4,4v32c0,2.2-1.8,4-4,4H16C13.8,108,12,106.2,12,104z"/><rect class="st9" height="9" width="59" x="12" y="74"/><path class="st1" d="M67,108c2.2,0,4-1.8,4-4V72c0-2.2-1.8-4-4-4H16c-2.2,0-4,1.8-4,4v32c0,2.2,1.8,4,4,4H67z"/><rect class="st2" height="8" width="37" x="17" y="88"/><line class="st1" x1="65" x2="60" y1="90" y2="90"/><line class="st1" x1="65" x2="60" y1="94" y2="94"/><line class="st1" x1="18" x2="43" y1="101" y2="101"/><g><circle class="st14" cx="80.6" cy="63.2" r="2.2"/><line class="st11" x1="87" x2="106" y1="63" y2="63"/><circle class="st14" cx="80.6" cy="73.2" r="2.2"/><line class="st11" x1="87" x2="106" y1="73" y2="73"/><circle class="st14" cx="80.6" cy="83.2" r="2.2"/><line class="st11" x1="87" x2="106" y1="83" y2="83"/><circle class="st14" cx="80.6" cy="93.2" r="2.2"/><line class="st11" x1="87" x2="106" y1="93" y2="93"/></g><line class="st1" x1="30" x2="65" y1="56" y2="56"/><line class="st1" x1="30" x2="43" y1="61" y2="61"/><circle class="st5" cx="101.5" cy="34.7" r="18"/><circle class="st1" cx="101.5" cy="34.7" r="18"/><polyline class="st15" points="94.3,33.6 100.5,39.8 111.1,29.1 "/></svg>