<?xml version="1.0" ?><svg id="Layer_1" style="enable-background:new 0 0 128 128;" version="1.1" viewBox="0 0 128 128" xml:space="preserve" xmlns="http://www.w3.org/2000/svg" xmlns:xlink="http://www.w3.org/1999/xlink"><style type="text/css">
	.st0{fill:#F49F9E;}
	.st1{fill:none;stroke:#58537D;stroke-width:2;stroke-linecap:round;stroke-linejoin:round;stroke-miterlimit:10;}
	.st2{fill:#FFFFFF;}
	.st3{opacity:0.2;fill:#58537D;}
	.st4{fill:none;stroke:#58537D;stroke-width:4;stroke-linecap:round;stroke-linejoin:round;stroke-miterlimit:10;}
	.st5{fill:#9BD3AF;}
	.st6{fill:#8ABF9C;}
	.st7{fill:none;stroke:#FFFFFF;stroke-linecap:round;stroke-miterlimit:10;}
	.st8{opacity:0.5;fill:none;stroke:#FFFFFF;stroke-width:2;stroke-linecap:round;stroke-linejoin:round;stroke-miterlimit:10;}
	.st9{fill:#58537D;}
	.st10{opacity:0.1;}
	.st11{opacity:0.1;fill:none;stroke:#58537D;stroke-width:2;stroke-linecap:round;stroke-linejoin:round;stroke-miterlimit:10;}
	.st12{fill:none;stroke:#F26A63;stroke-width:2;stroke-linecap:round;stroke-linejoin:round;}
	.st13{fill:none;stroke:#F26A63;stroke-width:2;stroke-linecap:round;stroke-linejoin:round;stroke-dasharray:4.0653,5.0816;}
	.st14{opacity:0.1;fill:#303C63;}
	.st15{fill:none;stroke:#FFFFFF;stroke-width:4;stroke-linecap:round;stroke-linejoin:round;stroke-miterlimit:10;}
	.st16{opacity:0.2;}
	.st17{fill:#FAF8F2;}
	.st18{fill:none;stroke:#F26A63;stroke-width:4;stroke-linecap:round;stroke-linejoin:round;stroke-miterlimit:10;}
	.st19{fill:none;stroke:#FFFFFF;stroke-width:2;stroke-linecap:round;stroke-linejoin:round;stroke-miterlimit:10;}
	.st20{opacity:0.1;fill:#58537D;}
	.st21{fill:none;stroke:#6DC392;stroke-width:2;stroke-linecap:round;stroke-linejoin:round;stroke-miterlimit:10;}
	
		.st22{fill:none;stroke:#58537D;stroke-width:2;stroke-linecap:round;stroke-linejoin:round;stroke-miterlimit:10;stroke-dasharray:4,5;}
	.st23{fill:#E2E2E2;}
</style><polygon class="st2" points="92,70 92,54 102,54 110,65 110,70 "/><rect class="st2" height="11" width="105" x="15" y="89"/><polyline class="st1" points="87,100 120,100 120,89 15,89 15,100 79,100 "/><path class="st6" d="M78,32H27c-4.4,0-8,3.6-8,8v49h67V40C86,35.6,82.4,32,78,32z"/><rect class="st5" height="35" width="67" x="19" y="44"/><path class="st1" d="M78,32H27c-4.4,0-8,3.6-8,8v49h67V40C86,35.6,82.4,32,78,32z"/><path class="st2" d="M86,89h30V64.3c0-0.9-0.3-1.7-0.8-2.4l-9-12.3c-0.8-1-2-1.6-3.2-1.6H90c-2.2,0-4,1.8-4,4V89z"/><path class="st1" d="M86,89h30V64.3c0-0.9-0.3-1.7-0.8-2.4l-9-12.3c-0.8-1-2-1.6-3.2-1.6H90c-2.2,0-4,1.8-4,4V89z"/><polygon class="st3" points="92,70 92,54 102,54 110,65 110,70 "/><line class="st7" x1="95.2" x2="102" y1="61.9" y2="54"/><line class="st7" x1="95.2" x2="98.6" y1="57.9" y2="53.9"/><polygon class="st1" points="92,70 92,54 102,54 110,65 110,70 "/><line class="st1" x1="93" x2="101" y1="75" y2="75"/><line class="st1" x1="19" x2="78" y1="44" y2="44"/><line class="st1" x1="26" x2="85" y1="79" y2="79"/><g><path class="st2" d="M34,69h-3V55h8v3h-5v2h5v4h-5V69z"/><path class="st2" d="M45,64v5h-3V55h4.3c3.9,0,5.9,1.2,5.9,4.1c0,1.7-0.8,2.8-2.5,3.8L54,69h-4.4l-3.1-5H45z M45,61h1.2   c1.4,0,2.1-0.4,2.1-1.7c0-1-0.7-1.3-2-1.3H45V61z"/><path class="st2" d="M64,69h-9V55h9v3h-5v2h5v3h-5v3h5V69z"/><path class="st2" d="M75,69h-9V55h9v3h-5v2h5v3h-5v3h5V69z"/></g><rect class="st3" height="11" width="105" x="15" y="89"/><circle class="st23" cx="32.8" cy="100" r="8"/><circle class="st23" cx="102.8" cy="100" r="8"/><circle class="st9" cx="102.8" cy="100" r="3"/><circle class="st1" cx="32.8" cy="100" r="8"/><circle class="st9" cx="32.8" cy="100" r="3"/><circle class="st1" cx="102.8" cy="100.1" r="8"/></svg>