<?xml version="1.0" ?><svg id="Layer_1" style="enable-background:new 0 0 128 128;" version="1.1" viewBox="0 0 128 128" xml:space="preserve" xmlns="http://www.w3.org/2000/svg" xmlns:xlink="http://www.w3.org/1999/xlink"><style type="text/css">
	.st0{fill:#F49F9E;}
	.st1{fill:none;stroke:#58537D;stroke-width:2;stroke-linecap:round;stroke-linejoin:round;stroke-miterlimit:10;}
	.st2{fill:#FFFFFF;}
	.st3{opacity:0.2;fill:#58537D;}
	.st4{fill:none;stroke:#58537D;stroke-width:4;stroke-linecap:round;stroke-linejoin:round;stroke-miterlimit:10;}
	.st5{fill:#9BD3AF;}
	.st6{fill:#8ABF9C;}
	.st7{fill:none;stroke:#FFFFFF;stroke-linecap:round;stroke-miterlimit:10;}
	.st8{opacity:0.5;fill:none;stroke:#FFFFFF;stroke-width:2;stroke-linecap:round;stroke-linejoin:round;stroke-miterlimit:10;}
	.st9{fill:#58537D;}
	.st10{opacity:0.1;}
	.st11{opacity:0.1;fill:none;stroke:#58537D;stroke-width:2;stroke-linecap:round;stroke-linejoin:round;stroke-miterlimit:10;}
	.st12{fill:none;stroke:#F26A63;stroke-width:2;stroke-linecap:round;stroke-linejoin:round;}
	.st13{fill:none;stroke:#F26A63;stroke-width:2;stroke-linecap:round;stroke-linejoin:round;stroke-dasharray:4.0653,5.0816;}
	.st14{opacity:0.1;fill:#303C63;}
	.st15{fill:none;stroke:#FFFFFF;stroke-width:4;stroke-linecap:round;stroke-linejoin:round;stroke-miterlimit:10;}
	.st16{opacity:0.2;}
	.st17{fill:#FAF8F2;}
	.st18{fill:none;stroke:#F26A63;stroke-width:4;stroke-linecap:round;stroke-linejoin:round;stroke-miterlimit:10;}
	.st19{fill:none;stroke:#FFFFFF;stroke-width:2;stroke-linecap:round;stroke-linejoin:round;stroke-miterlimit:10;}
	.st20{opacity:0.1;fill:#58537D;}
	.st21{fill:none;stroke:#6DC392;stroke-width:2;stroke-linecap:round;stroke-linejoin:round;stroke-miterlimit:10;}
	
		.st22{fill:none;stroke:#58537D;stroke-width:2;stroke-linecap:round;stroke-linejoin:round;stroke-miterlimit:10;stroke-dasharray:4,5;}
	.st23{fill:#E2E2E2;}
</style><rect class="st2" height="58" width="69" x="38" y="51"/><polygon class="st3" points="90,62 107,51 76,51 76,62 "/><polyline class="st1" points="85,109 107,109 107,51 38,51 38,109 79,109 "/><rect class="st2" height="42" width="69" x="21" y="20"/><rect class="st1" height="42" width="69" x="21" y="20"/><line class="st1" x1="90" x2="107" y1="62" y2="51"/><g><circle class="st14" cx="54.6" cy="67.2" r="2.2"/><line class="st11" x1="61" x2="90" y1="67" y2="67"/><circle class="st14" cx="54.6" cy="77.2" r="2.2"/><line class="st11" x1="61" x2="90" y1="77" y2="77"/><circle class="st14" cx="54.6" cy="87.2" r="2.2"/><line class="st11" x1="61" x2="90" y1="87" y2="87"/><circle class="st14" cx="54.6" cy="97.2" r="2.2"/><line class="st11" x1="61" x2="90" y1="97" y2="97"/></g><g><polyline class="st0" points="44,40 62.7,40 60,50 47.6,50 44,40  "/><polyline class="st1" points="46,45 47.6,50 60,50 62.7,40 44,40 42.8,36 38,36  "/><circle class="st1" cx="47.7" cy="54.8" r="1.4"/><circle class="st1" cx="59.6" cy="54.8" r="1.4"/><circle class="st5" cx="63" cy="36.2" r="8.5"/><circle class="st1" cx="63" cy="36.2" r="8.5"/><polyline class="st19" points="58.6,36.7 61.5,39.6 66.5,34.6  "/></g></svg>