<?xml version="1.0" ?><svg id="Layer_1" style="enable-background:new 0 0 128 128;" version="1.1" viewBox="0 0 128 128" xml:space="preserve" xmlns="http://www.w3.org/2000/svg" xmlns:xlink="http://www.w3.org/1999/xlink"><style type="text/css">
	.st0{fill:#F49F9E;}
	.st1{fill:none;stroke:#58537D;stroke-width:2;stroke-linecap:round;stroke-linejoin:round;stroke-miterlimit:10;}
	.st2{fill:#FFFFFF;}
	.st3{opacity:0.2;fill:#58537D;}
	.st4{fill:none;stroke:#58537D;stroke-width:4;stroke-linecap:round;stroke-linejoin:round;stroke-miterlimit:10;}
	.st5{fill:#9BD3AF;}
	.st6{fill:#8ABF9C;}
	.st7{fill:none;stroke:#FFFFFF;stroke-linecap:round;stroke-miterlimit:10;}
	.st8{opacity:0.5;fill:none;stroke:#FFFFFF;stroke-width:2;stroke-linecap:round;stroke-linejoin:round;stroke-miterlimit:10;}
	.st9{fill:#58537D;}
	.st10{opacity:0.1;}
	.st11{opacity:0.1;fill:none;stroke:#58537D;stroke-width:2;stroke-linecap:round;stroke-linejoin:round;stroke-miterlimit:10;}
	.st12{fill:none;stroke:#F26A63;stroke-width:2;stroke-linecap:round;stroke-linejoin:round;}
	.st13{fill:none;stroke:#F26A63;stroke-width:2;stroke-linecap:round;stroke-linejoin:round;stroke-dasharray:4.0653,5.0816;}
	.st14{opacity:0.1;fill:#303C63;}
	.st15{fill:none;stroke:#FFFFFF;stroke-width:4;stroke-linecap:round;stroke-linejoin:round;stroke-miterlimit:10;}
	.st16{opacity:0.2;}
	.st17{fill:#FAF8F2;}
	.st18{fill:none;stroke:#F26A63;stroke-width:4;stroke-linecap:round;stroke-linejoin:round;stroke-miterlimit:10;}
	.st19{fill:none;stroke:#FFFFFF;stroke-width:2;stroke-linecap:round;stroke-linejoin:round;stroke-miterlimit:10;}
	.st20{opacity:0.1;fill:#58537D;}
	.st21{fill:none;stroke:#6DC392;stroke-width:2;stroke-linecap:round;stroke-linejoin:round;stroke-miterlimit:10;}
	
		.st22{fill:none;stroke:#58537D;stroke-width:2;stroke-linecap:round;stroke-linejoin:round;stroke-miterlimit:10;stroke-dasharray:4,5;}
	.st23{fill:#E2E2E2;}
</style><polygon class="st2" points="107,85 25,85 21,110 103,110 "/><polygon class="st2" points="99,60 17,60 25,85 107,85 "/><polygon class="st3" points="99,60 17,60 25,85 107,85 "/><polygon class="st2" points="103,35 21,35 17,60 99,60 "/><polyline class="st1" points="86,110 103,110 107,85 25,85 21,110 79,110 "/><polygon class="st1" points="99,60 17,60 25,85 107,85 "/><polyline class="st1" points="60,35 21,35 17,60 99,60 103,35 67,35 "/><g class="st10"><polyline class="st1" points="48,35 34,60 52.5,85.8 71.2,110  "/><polyline class="st1" points="49.2,110 38.5,85 26.2,60 37.8,35  "/><polyline class="st1" points="31.2,110 41.9,93 58.7,93.8 82,58.2  "/><polyline class="st1" points="19,46 41.6,46 60,59.8 68.4,78.9 87.1,84.9 92.5,109.8  "/></g><g><path class="st0" d="M104.8,56.5c9-9,9-23.5,0-32.5s-23.5-9-32.5,0s-9,23.5,0,32.5l14.9,14.9L104.8,56.5z"/><path class="st1" d="M104.8,56.5c9-9,9-23.5,0-32.5s-23.5-9-32.5,0s-9,23.5,0,32.5l14.9,14.9L104.8,56.5z"/><circle class="st2" cx="88.5" cy="40.3" r="16"/><circle class="st1" cx="88.5" cy="40.3" r="16"/><g><polyline class="st5" points="82,37 95.7,37 93.8,44 84.9,44 82.4,37   "/><polyline class="st1" points="83.8,40.4 84.9,44 93.8,44 95.7,37 82.4,37 81.5,34 79,34   "/><circle class="st9" cx="85.7" cy="47.8" r="1.4"/><circle class="st9" cx="92.6" cy="47.8" r="1.4"/></g></g></svg>