<?xml version="1.0" ?><svg id="Layer_1" style="enable-background:new 0 0 128 128;" version="1.1" viewBox="0 0 128 128" xml:space="preserve" xmlns="http://www.w3.org/2000/svg" xmlns:xlink="http://www.w3.org/1999/xlink"><style type="text/css">
	.st0{fill:#F49F9E;}
	.st1{fill:none;stroke:#58537D;stroke-width:2;stroke-linecap:round;stroke-linejoin:round;stroke-miterlimit:10;}
	.st2{fill:#FFFFFF;}
	.st3{opacity:0.2;fill:#58537D;}
	.st4{fill:none;stroke:#58537D;stroke-width:4;stroke-linecap:round;stroke-linejoin:round;stroke-miterlimit:10;}
	.st5{fill:#9BD3AF;}
	.st6{fill:#8ABF9C;}
	.st7{fill:none;stroke:#FFFFFF;stroke-linecap:round;stroke-miterlimit:10;}
	.st8{opacity:0.5;fill:none;stroke:#FFFFFF;stroke-width:2;stroke-linecap:round;stroke-linejoin:round;stroke-miterlimit:10;}
	.st9{fill:#58537D;}
	.st10{opacity:0.1;}
	.st11{opacity:0.1;fill:none;stroke:#58537D;stroke-width:2;stroke-linecap:round;stroke-linejoin:round;stroke-miterlimit:10;}
	.st12{fill:none;stroke:#F26A63;stroke-width:2;stroke-linecap:round;stroke-linejoin:round;}
	.st13{fill:none;stroke:#F26A63;stroke-width:2;stroke-linecap:round;stroke-linejoin:round;stroke-dasharray:4.0653,5.0816;}
	.st14{opacity:0.1;fill:#303C63;}
	.st15{fill:none;stroke:#FFFFFF;stroke-width:4;stroke-linecap:round;stroke-linejoin:round;stroke-miterlimit:10;}
	.st16{opacity:0.2;}
	.st17{fill:#FAF8F2;}
	.st18{fill:none;stroke:#F26A63;stroke-width:4;stroke-linecap:round;stroke-linejoin:round;stroke-miterlimit:10;}
	.st19{fill:none;stroke:#FFFFFF;stroke-width:2;stroke-linecap:round;stroke-linejoin:round;stroke-miterlimit:10;}
	.st20{opacity:0.1;fill:#58537D;}
	.st21{fill:none;stroke:#6DC392;stroke-width:2;stroke-linecap:round;stroke-linejoin:round;stroke-miterlimit:10;}
	
		.st22{fill:none;stroke:#58537D;stroke-width:2;stroke-linecap:round;stroke-linejoin:round;stroke-miterlimit:10;stroke-dasharray:4,5;}
	.st23{fill:#E2E2E2;}
</style><path class="st2" d="M29.8,58.5l8.2-1.7l4.4,18.5l37.3-7.6l-3.1-18.8l8.2-1.7l2.1-14.5l-22.3-4c0,0-5.1,3.5-10.6,4.7  c-5.6,1.1-12.1,0-12.1,0L22.2,46.1l6.1,10.1L29.8,58.5z"/><path class="st5" d="M91.6,70.1L51.2,56.2l12.2-35.6c0.6-1.7,2.5-2.7,4.2-2.1l34.1,11.7c1.7,0.6,2.7,2.5,2.1,4.2L91.6,70.1z"/><path class="st1" d="M91.6,70.1L51.2,56.2l12.2-35.6c0.6-1.7,2.5-2.7,4.2-2.1l34.1,11.7c1.7,0.6,2.7,2.5,2.1,4.2L91.6,70.1z"/><g><path class="st2" d="M29.8,58.5l8.2-1.7l4.4,18.5l37.3-7.6l-3.1-18.8l8.2-1.7l2.1-14.5l-22.3-4c0,0-5.1,3.5-10.6,4.7   c-5.6,1.1-12.1,0-12.1,0L22.2,46.1l6.1,10.1L29.8,58.5z"/><path class="st3" d="M29.8,58.5l8.2-1.7l4.4,18.5l37.3-7.6l-3.1-18.8l8.2-1.7l2.1-14.5l-22.3-4c0,0-5.1,3.5-10.6,4.7   c-5.6,1.1-12.1,0-12.1,0L22.2,46.1l6.1,10.1L29.8,58.5z"/><path class="st3" d="M64.6,29c0,0-5.1,3.5-10.6,4.6c-5.6,1.1-12.1,0-12.1,0s3.7,7.2,12.6,5.4S64.7,29,64.6,29L64.6,29L64.6,29z"/><path class="st1" d="M41.9,33.6c0,0,3.7,7.2,12.6,5.4S64.7,29,64.7,29"/><path class="st1" d="M29.8,58.5l8.2-1.7l4.4,18.5l37.3-7.6l-3.1-18.8l8.2-1.7l2.1-14.5l-22.3-4c0,0-5.1,3.5-10.6,4.7   c-5.6,1.1-12.1,0-12.1,0L22.2,46.1l6.1,10.1L29.8,58.5z"/><path class="st3" d="M48.7,60L48.7,60c-2.2,0.4-4.3-1-4.8-3.2l-1.1-5.6l8-1.6l1.1,5.6C52.3,57.4,50.9,59.5,48.7,60z"/></g><path class="st2" d="M108,62c0,2.8-2.2,5-5,5H25c-2.8,0-5-2.2-5-5l0,0c0-2.8,2.2-5,5-5h78C105.8,57,108,59.2,108,62L108,62z"/><path class="st3" d="M103,64H25c-2.2,0-4.1-1.5-4.7-3.5C20.1,61,20,61.5,20,62c0,2.8,2.2,5,5,5h78c2.8,0,5-2.2,5-5  c0-0.5-0.1-1-0.3-1.5C107.1,62.5,105.2,64,103,64z"/><path class="st1" d="M64,57h39c2.8,0,5,2.2,5,5l0,0c0,2.8-2.2,5-5,5H25c-2.8,0-5-2.2-5-5l0,0c0-2.8,2.2-5,5-5h31"/><path class="st2" d="M96.8,110H32c-4,0-7-3.2-7-7.2V67h79v35.8C104,106.8,100.8,110,96.8,110z"/><path class="st3" d="M96.8,104H32c-4,0-7-3.2-7-7.2v6c0,4,3,7.2,7,7.2h64.8c4,0,7.2-3.2,7.2-7.2v-6C104,100.8,100.8,104,96.8,104z"/><path class="st1" d="M55,110H32c-4,0-7-3.2-7-7.2V67h79v35.8c0,4-3.2,7.2-7.2,7.2H64"/><g><line class="st4" x1="35" x2="35" y1="76" y2="82"/><line class="st4" x1="35" x2="35" y1="92" y2="98"/><line class="st4" x1="45" x2="45" y1="76" y2="82"/><line class="st4" x1="45" x2="45" y1="92" y2="98"/><line class="st4" x1="55" x2="55" y1="76" y2="82"/><line class="st4" x1="55" x2="55" y1="92" y2="98"/><line class="st4" x1="65" x2="65" y1="76" y2="82"/><line class="st4" x1="65" x2="65" y1="92" y2="98"/><line class="st4" x1="75" x2="75" y1="76" y2="82"/><line class="st4" x1="75" x2="75" y1="92" y2="98"/><line class="st4" x1="85" x2="85" y1="76" y2="82"/><line class="st4" x1="85" x2="85" y1="92" y2="98"/><line class="st4" x1="95" x2="95" y1="76" y2="82"/><line class="st4" x1="95" x2="95" y1="92" y2="98"/></g><g><path class="st0" d="M62.4,60.8c-0.4-0.4-0.6-1-0.7-1.5c-0.2-1.6,1-3.1,2.6-3.3l36.2-4.5c1.6-0.2,3.1,1,3.3,2.6   c0.2,1.6-1,3.1-2.6,3.3l-36.2,4.5C64.1,62,63.1,61.6,62.4,60.8z"/></g><g><path class="st1" d="M62.4,60.8c-0.4-0.4-0.6-1-0.7-1.5c-0.2-1.6,1-3.1,2.6-3.3l36.2-4.5c1.6-0.2,3.1,1,3.3,2.6   c0.2,1.6-1,3.1-2.6,3.3l-36.2,4.5C64.1,62,63.1,61.6,62.4,60.8z"/></g></svg>