<?xml version="1.0" ?><svg id="Layer_1" style="enable-background:new 0 0 128 128;" version="1.1" viewBox="0 0 128 128" xml:space="preserve" xmlns="http://www.w3.org/2000/svg" xmlns:xlink="http://www.w3.org/1999/xlink"><style type="text/css">
	.st0{fill:#F49F9E;}
	.st1{fill:none;stroke:#58537D;stroke-width:2;stroke-linecap:round;stroke-linejoin:round;stroke-miterlimit:10;}
	.st2{fill:#FFFFFF;}
	.st3{opacity:0.2;fill:#58537D;}
	.st4{fill:none;stroke:#58537D;stroke-width:4;stroke-linecap:round;stroke-linejoin:round;stroke-miterlimit:10;}
	.st5{fill:#9BD3AF;}
	.st6{fill:#8ABF9C;}
	.st7{fill:none;stroke:#FFFFFF;stroke-linecap:round;stroke-miterlimit:10;}
	.st8{opacity:0.5;fill:none;stroke:#FFFFFF;stroke-width:2;stroke-linecap:round;stroke-linejoin:round;stroke-miterlimit:10;}
	.st9{fill:#58537D;}
	.st10{opacity:0.1;}
	.st11{opacity:0.1;fill:none;stroke:#58537D;stroke-width:2;stroke-linecap:round;stroke-linejoin:round;stroke-miterlimit:10;}
	.st12{fill:none;stroke:#F26A63;stroke-width:2;stroke-linecap:round;stroke-linejoin:round;}
	.st13{fill:none;stroke:#F26A63;stroke-width:2;stroke-linecap:round;stroke-linejoin:round;stroke-dasharray:4.0653,5.0816;}
	.st14{opacity:0.1;fill:#303C63;}
	.st15{fill:none;stroke:#FFFFFF;stroke-width:4;stroke-linecap:round;stroke-linejoin:round;stroke-miterlimit:10;}
	.st16{opacity:0.2;}
	.st17{fill:#FAF8F2;}
	.st18{fill:none;stroke:#F26A63;stroke-width:4;stroke-linecap:round;stroke-linejoin:round;stroke-miterlimit:10;}
	.st19{fill:none;stroke:#FFFFFF;stroke-width:2;stroke-linecap:round;stroke-linejoin:round;stroke-miterlimit:10;}
	.st20{opacity:0.1;fill:#58537D;}
	.st21{fill:none;stroke:#6DC392;stroke-width:2;stroke-linecap:round;stroke-linejoin:round;stroke-miterlimit:10;}
	
		.st22{fill:none;stroke:#58537D;stroke-width:2;stroke-linecap:round;stroke-linejoin:round;stroke-miterlimit:10;stroke-dasharray:4,5;}
	.st23{fill:#E2E2E2;}
</style><path class="st2" d="M70.6,31c-1.2-1.3-2-3-2-5c0-4,3.3-7.3,7.3-7.3s7.3,3.3,7.3,7.3c0,1.9-0.7,3.7-2,5H70.6z"/><polygon class="st2" points="88,75 88,59 98,59 106,70 106,75 "/><g><path class="st2" d="M78.2,30c-1.7-1.8-2.7-4.2-2.7-6.9c0-5.6,4.5-10.1,10.1-10.1s10.1,4.5,10.1,10.1c0,2.7-1,5.1-2.7,6.9H78.2z"/><path class="st1" d="M78.1,30c-1.7-1.8-2.6-4.2-2.6-6.9C75.4,17.5,80,13,85.6,13s10.1,4.5,10.1,10.1c0,2.7-1,5.1-2.7,6.9h7"/><path class="st2" d="M70.6,31c-1.2-1.3-2-3-2-5c0-4,3.3-7.3,7.3-7.3s7.3,3.3,7.3,7.3c0,1.9-0.7,3.7-2,5H70.6z"/><path class="st3" d="M70.6,31c-1.2-1.3-2-3-2-5c0-4,3.3-7.3,7.3-7.3s7.3,3.3,7.3,7.3c0,1.9-0.7,3.7-2,5H70.6z"/><path class="st1" d="M81.2,31c1.2-1.3,2-3,2-5c0-4-3.3-7.3-7.3-7.3S68.6,22,68.6,26c0,1.9,0.7,3.7,2,5H55"/></g><path class="st0" d="M74,37H23c-4.4,0-8,3.6-8,8v49h67V45C82,40.6,78.4,37,74,37z"/><path class="st1" d="M74,37H23c-4.4,0-8,3.6-8,8v49h67V45C82,40.6,78.4,37,74,37z"/><path class="st2" d="M82,94h30V69.3c0-0.9-0.3-1.7-0.8-2.4l-9-12.3c-0.8-1-2-1.6-3.2-1.6H86c-2.2,0-4,1.8-4,4V94z"/><path class="st1" d="M82,94h30V69.3c0-0.9-0.3-1.7-0.8-2.4l-9-12.3c-0.8-1-2-1.6-3.2-1.6H86c-2.2,0-4,1.8-4,4V94z"/><polygon class="st3" points="88,75 88,59 98,59 106,70 106,75 "/><line class="st7" x1="91.2" x2="98" y1="66.9" y2="59"/><line class="st7" x1="91.2" x2="94.6" y1="62.9" y2="58.9"/><polygon class="st1" points="88,75 88,59 98,59 106,70 106,75 "/><line class="st1" x1="89" x2="97" y1="80" y2="80"/><line class="st1" x1="15" x2="74" y1="49" y2="49"/><line class="st1" x1="22" x2="81" y1="84" y2="84"/><line class="st1" x1="28" x2="28" y1="49" y2="84"/><line class="st1" x1="38" x2="38" y1="49" y2="84"/><line class="st1" x1="48" x2="48" y1="49" y2="84"/><line class="st1" x1="58" x2="58" y1="49" y2="84"/><line class="st1" x1="68" x2="68" y1="49" y2="84"/><rect class="st2" height="11" width="105" x="11" y="94"/><polyline class="st1" points="53,105 116,105 116,94 11,94 11,105 45,105 "/><rect class="st3" height="11" width="105" x="11" y="94"/><circle class="st23" cx="28.8" cy="105" r="8"/><circle class="st23" cx="98.8" cy="105" r="8"/><circle class="st9" cx="98.8" cy="105" r="3"/><circle class="st1" cx="28.8" cy="105" r="8"/><circle class="st9" cx="28.8" cy="105" r="3"/><circle class="st1" cx="98.8" cy="105.1" r="8"/></svg>