<?xml version="1.0" ?><svg id="Layer_1" style="enable-background:new 0 0 128 128;" version="1.1" viewBox="0 0 128 128" xml:space="preserve" xmlns="http://www.w3.org/2000/svg" xmlns:xlink="http://www.w3.org/1999/xlink"><style type="text/css">
	.st0{fill:#F49F9E;}
	.st1{fill:none;stroke:#58537D;stroke-width:2;stroke-linecap:round;stroke-linejoin:round;stroke-miterlimit:10;}
	.st2{fill:#FFFFFF;}
	.st3{opacity:0.2;fill:#58537D;}
	.st4{fill:none;stroke:#58537D;stroke-width:4;stroke-linecap:round;stroke-linejoin:round;stroke-miterlimit:10;}
	.st5{fill:#9BD3AF;}
	.st6{fill:#8ABF9C;}
	.st7{fill:none;stroke:#FFFFFF;stroke-linecap:round;stroke-miterlimit:10;}
	.st8{opacity:0.5;fill:none;stroke:#FFFFFF;stroke-width:2;stroke-linecap:round;stroke-linejoin:round;stroke-miterlimit:10;}
	.st9{fill:#58537D;}
	.st10{opacity:0.1;}
	.st11{opacity:0.1;fill:none;stroke:#58537D;stroke-width:2;stroke-linecap:round;stroke-linejoin:round;stroke-miterlimit:10;}
	.st12{fill:none;stroke:#F26A63;stroke-width:2;stroke-linecap:round;stroke-linejoin:round;}
	.st13{fill:none;stroke:#F26A63;stroke-width:2;stroke-linecap:round;stroke-linejoin:round;stroke-dasharray:4.0653,5.0816;}
	.st14{opacity:0.1;fill:#303C63;}
	.st15{fill:none;stroke:#FFFFFF;stroke-width:4;stroke-linecap:round;stroke-linejoin:round;stroke-miterlimit:10;}
	.st16{opacity:0.2;}
	.st17{fill:#FAF8F2;}
	.st18{fill:none;stroke:#F26A63;stroke-width:4;stroke-linecap:round;stroke-linejoin:round;stroke-miterlimit:10;}
	.st19{fill:none;stroke:#FFFFFF;stroke-width:2;stroke-linecap:round;stroke-linejoin:round;stroke-miterlimit:10;}
	.st20{opacity:0.1;fill:#58537D;}
	.st21{fill:none;stroke:#6DC392;stroke-width:2;stroke-linecap:round;stroke-linejoin:round;stroke-miterlimit:10;}
	
		.st22{fill:none;stroke:#58537D;stroke-width:2;stroke-linecap:round;stroke-linejoin:round;stroke-miterlimit:10;stroke-dasharray:4,5;}
	.st23{fill:#E2E2E2;}
</style><rect class="st2" height="81" width="68" x="24" y="28"/><rect class="st3" height="81" width="68" x="24" y="28"/><rect class="st2" height="56" transform="matrix(-1.836970e-16 1 -1 -1.836970e-16 126.5 10.5)" width="69" x="23.5" y="40.5"/><polyline class="st1" points="65,109 92,109 92,28 24,28 24,109 58,109 "/><rect class="st1" height="56" transform="matrix(-1.836970e-16 1 -1 -1.836970e-16 126.5 10.5)" width="69" x="23.5" y="40.5"/><g><line class="st11" x1="51" x2="75" y1="51" y2="51"/><line class="st11" x1="51" x2="75" y1="61" y2="61"/><circle class="st14" cx="44.6" cy="71.2" r="2.2"/><line class="st11" x1="51" x2="75" y1="71" y2="71"/><circle class="st20" cx="44.6" cy="81.2" r="2.2"/><line class="st11" x1="51" x2="75" y1="81" y2="81"/><circle class="st14" cx="44.6" cy="91.2" r="2.2"/><line class="st11" x1="51" x2="75" y1="91" y2="91"/><polyline class="st21" points="39.5,50.5 42,53 47,48.1  "/><polyline class="st21" points="39.5,60.5 42,63 47,58.1  "/></g><path class="st5" d="M106,106.1c0,1.6-0.8,2.9-2.4,2.9H75.5c-2.2,0-4.5-1.8-4.5-4V77h35V106.1z"/><path class="st1" d="M106,106.1c0,1.6-0.8,2.9-2.4,2.9H74.4c-1.6,0-3.4-1.3-3.4-2.9V77h35V106.1z"/><circle class="st6" cx="80.5" cy="83.8" r="2.8"/><circle class="st6" cx="97.5" cy="83.8" r="2.8"/><path class="st1" d="M97,84v2c0,4.7-3.8,8.5-8.5,8.5S80,90.7,80,86v-2"/><rect class="st1" height="7" width="24" x="46" y="31"/><path class="st9" d="M63,25H53c-2.2,0-4,1.8-4,4v2h18v-2C67,26.8,65.2,25,63,25z"/><circle class="st1" cx="58" cy="23.7" r="3.3"/></svg>