<?xml version="1.0" ?><svg id="Layer_1" style="enable-background:new 0 0 128 128;" version="1.1" viewBox="0 0 128 128" xml:space="preserve" xmlns="http://www.w3.org/2000/svg" xmlns:xlink="http://www.w3.org/1999/xlink"><style type="text/css">
	.st0{fill:#F49F9E;}
	.st1{fill:none;stroke:#58537D;stroke-width:2;stroke-linecap:round;stroke-linejoin:round;stroke-miterlimit:10;}
	.st2{fill:#FFFFFF;}
	.st3{opacity:0.2;fill:#58537D;}
	.st4{fill:none;stroke:#58537D;stroke-width:4;stroke-linecap:round;stroke-linejoin:round;stroke-miterlimit:10;}
	.st5{fill:#9BD3AF;}
	.st6{fill:#8ABF9C;}
	.st7{fill:none;stroke:#FFFFFF;stroke-linecap:round;stroke-miterlimit:10;}
	.st8{opacity:0.5;fill:none;stroke:#FFFFFF;stroke-width:2;stroke-linecap:round;stroke-linejoin:round;stroke-miterlimit:10;}
	.st9{fill:#58537D;}
	.st10{opacity:0.1;}
	.st11{opacity:0.1;fill:none;stroke:#58537D;stroke-width:2;stroke-linecap:round;stroke-linejoin:round;stroke-miterlimit:10;}
	.st12{fill:none;stroke:#F26A63;stroke-width:2;stroke-linecap:round;stroke-linejoin:round;}
	.st13{fill:none;stroke:#F26A63;stroke-width:2;stroke-linecap:round;stroke-linejoin:round;stroke-dasharray:4.0653,5.0816;}
	.st14{opacity:0.1;fill:#303C63;}
	.st15{fill:none;stroke:#FFFFFF;stroke-width:4;stroke-linecap:round;stroke-linejoin:round;stroke-miterlimit:10;}
	.st16{opacity:0.2;}
	.st17{fill:#FAF8F2;}
	.st18{fill:none;stroke:#F26A63;stroke-width:4;stroke-linecap:round;stroke-linejoin:round;stroke-miterlimit:10;}
	.st19{fill:none;stroke:#FFFFFF;stroke-width:2;stroke-linecap:round;stroke-linejoin:round;stroke-miterlimit:10;}
	.st20{opacity:0.1;fill:#58537D;}
	.st21{fill:none;stroke:#6DC392;stroke-width:2;stroke-linecap:round;stroke-linejoin:round;stroke-miterlimit:10;}
	
		.st22{fill:none;stroke:#58537D;stroke-width:2;stroke-linecap:round;stroke-linejoin:round;stroke-miterlimit:10;stroke-dasharray:4,5;}
	.st23{fill:#E2E2E2;}
</style><g><g><path class="st2" d="M94.5,2.1c-0.7,1.1-0.6,2.4,0,3.5c0.7,1.1,2.3,1.6,3.4,0.9c1.1-0.7,1.6-2.2,0.9-3.4c0.3,0.4,0.3,1.1,0,1.5    c0.7-1.1,0.3-2.8-0.9-3.4C96.7,0.5,95.2,0.9,94.5,2.1L94.5,2.1z"/></g></g><path class="st2" d="M34.7,47.8c0.1-0.6,0.2-1.2,0.2-1.9c0-6-4.9-10.9-10.9-10.9S13,39.9,13,45.9s4.9,10.9,10.9,10.9  c2.5,0,4.9-0.9,6.7-2.3l2.9,2.4c0,0,14.6,20.7,25.8,26.3c11.2,5.7,16.1-2.8,16.1-2.8L34.7,47.8z M23.9,52c-3.4,0-6.1-2.7-6.1-6.1  s2.7-6.1,6.1-6.1s6.1,2.7,6.1,6.1S27.3,52,23.9,52z"/><path class="st1" d="M34.7,47.8c0.1-0.6,0.2-1.2,0.2-1.9c0-6-4.9-10.9-10.9-10.9S13,39.9,13,45.9s4.9,10.9,10.9,10.9  c2.5,0,4.9-0.9,6.7-2.3l2.9,2.4c0,0,14.6,20.7,25.8,26.3c11.2,5.7,16.1-2.8,16.1-2.8L34.7,47.8z M23.9,52c-3.4,0-6.1-2.7-6.1-6.1  s2.7-6.1,6.1-6.1s6.1,2.7,6.1,6.1S27.3,52,23.9,52z"/><path class="st4" d="M91.2,26.6c6.6-6.6,14.7-9.3,17.9-6"/><g><path class="st0" d="M109.5,38.5L90.2,23.6c-2.1-1.6-5.1-1.6-7.2,0L63.5,38.5c-1.4,1.1-2.5,2.8-2.5,4.6v60.3c0,3.2,3.1,5.5,6.3,5.5   h38.4c3.2,0,6.3-2.3,6.3-5.5V43.1C112,41.3,110.9,39.6,109.5,38.5z"/><path class="st1" d="M100,31.3l-9.9-7.7C88,22,85,22,82.9,23.6L63.5,38.5c-1.4,1.1-2.5,2.8-2.5,4.6v60.3c0,3.2,3.1,5.5,6.3,5.5   h38.4c3.2,0,6.3-2.3,6.3-5.5V43.1c0-1.8-1.1-3.5-2.5-4.6l-2.4-1.8"/><path class="st8" d="M67.3,105c-1.1,0-2.3-0.4-2.3-1.5V43.1c0-0.6,0.4-1.2,0.9-1.5l19.3-14.9c0.4-0.3,0.9-0.4,1.2-0.4   c0.3,0,0.8,0.1,1.2,0.4l19.4,14.9c0.5,0.4,0.9,0.9,0.9,1.5v60.3c0,1.1-1.2,1.5-2.3,1.5H67.3z"/><circle class="st2" cx="86.5" cy="45.9" r="6.6"/><circle class="st1" cx="86.5" cy="45.9" r="6.6"/></g><path class="st4" d="M109.2,20.6c3.3,3.3,0.6,11.3-6,17.9s-14.7,9.3-17.9,6"/><path class="st2" d="M75.4,43.4c0,0-4.9-8.5-16.1-2.8c-11.2,5.7-25.8,26.3-25.8,26.3l-2.9,2.4c-1.9-1.4-4.2-2.3-6.7-2.3  C17.9,67.1,13,72,13,78s4.9,10.9,10.9,10.9S34.9,84,34.9,78c0-0.6-0.1-1.3-0.2-1.9L75.4,43.4z M23.9,84.1c-3.4,0-6.1-2.7-6.1-6.1  s2.7-6.1,6.1-6.1S30,74.6,30,78S27.3,84.1,23.9,84.1z"/><path class="st3" d="M75.4,43.4c0,0-4.9-8.5-16.1-2.8c-11.2,5.7-25.8,26.3-25.8,26.3l-2.9,2.4c-1.9-1.4-4.2-2.3-6.7-2.3  C17.9,67.1,13,72,13,78s4.9,10.9,10.9,10.9S34.9,84,34.9,78c0-0.6-0.1-1.3-0.2-1.9L75.4,43.4z M23.9,84.1c-3.4,0-6.1-2.7-6.1-6.1  s2.7-6.1,6.1-6.1S30,74.6,30,78S27.3,84.1,23.9,84.1z"/><path class="st2" d="M50,63.8L50,63.8c-1.5-1.5-1.4-3.9,0.2-5.2c5-4.3,15-12.7,16.9-14.1c5.1-3.7,8.3-1.1,8.3-1.1"/><path class="st1" d="M75.4,43.4c0,0-4.9-8.5-16.1-2.8c-11.2,5.7-25.8,26.3-25.8,26.3l-2.9,2.4c-1.9-1.4-4.2-2.3-6.7-2.3  C17.9,67.1,13,72,13,78s4.9,10.9,10.9,10.9S34.9,84,34.9,78c0-0.6-0.1-1.3-0.2-1.9L75.4,43.4z M23.9,84.1c-3.4,0-6.1-2.7-6.1-6.1  s2.7-6.1,6.1-6.1S30,74.6,30,78S27.3,84.1,23.9,84.1z"/><circle class="st1" cx="43.8" cy="62.1" r="2.3"/><g><path class="st2" d="M83.5,80.8c0,2.4-0.5,4.3-1.6,5.7c-1.1,1.3-2.7,2-4.7,2c-1.9,0-3.4-0.7-4.5-2.1C71.5,85,71,83.2,71,80.8   c0-2.4,0.5-4.3,1.6-5.6s2.6-2,4.6-2c1.9,0,3.5,0.7,4.6,2C82.9,76.6,83.5,78.5,83.5,80.8z M76,80.9c0,1.3,0.1,2.2,0.3,2.8   c0.2,0.6,0.5,0.8,0.9,0.8s0.7-0.3,0.9-0.8s0.3-1.5,0.3-2.8c0-1.3-0.1-2.2-0.3-2.8s-0.5-0.8-0.9-0.8c-0.4,0-0.8,0.3-1,0.9   C76.1,78.7,76,79.6,76,80.9z M93.8,76.8l-11.1,20c-0.4,0.7-1.1,1.1-1.9,1.1h0c-1.6,0-2.7-1.8-1.9-3.2l11.1-20   c0.4-0.7,1.1-1.1,1.9-1.1h0C93.6,73.6,94.6,75.4,93.8,76.8z M102,90.5c0,2.4-0.6,4.3-1.7,5.6c-1.1,1.3-2.7,2-4.7,2   c-1.9,0-3.4-0.7-4.5-2.1c-1.1-1.4-1.7-3.2-1.7-5.6c0-2.4,0.5-4.3,1.6-5.6c1.1-1.3,2.6-2,4.6-2c1.9,0,3.5,0.7,4.6,2   C101.4,86.3,102,88.2,102,90.5z M94.5,90.6c0,1.3,0.1,2.2,0.3,2.8c0.2,0.6,0.5,0.8,0.9,0.8c0.5,0,0.8-0.3,1-1s0.3-1.5,0.3-2.6   s-0.1-2-0.3-2.6s-0.5-1-1-1c-0.4,0-0.8,0.3-1,0.9C94.6,88.4,94.5,89.3,94.5,90.6z"/></g><line class="st22" x1="61" x2="112" y1="62" y2="62"/></svg>