<?xml version="1.0" ?><svg id="Layer_1" style="enable-background:new 0 0 128 128;" version="1.1" viewBox="0 0 128 128" xml:space="preserve" xmlns="http://www.w3.org/2000/svg" xmlns:xlink="http://www.w3.org/1999/xlink"><style type="text/css">
	.st0{fill:#F49F9E;}
	.st1{fill:none;stroke:#58537D;stroke-width:2;stroke-linecap:round;stroke-linejoin:round;stroke-miterlimit:10;}
	.st2{fill:#FFFFFF;}
	.st3{opacity:0.2;fill:#58537D;}
	.st4{fill:none;stroke:#58537D;stroke-width:4;stroke-linecap:round;stroke-linejoin:round;stroke-miterlimit:10;}
	.st5{fill:#9BD3AF;}
	.st6{fill:#8ABF9C;}
	.st7{fill:none;stroke:#FFFFFF;stroke-linecap:round;stroke-miterlimit:10;}
	.st8{opacity:0.5;fill:none;stroke:#FFFFFF;stroke-width:2;stroke-linecap:round;stroke-linejoin:round;stroke-miterlimit:10;}
	.st9{fill:#58537D;}
	.st10{opacity:0.1;}
	.st11{opacity:0.1;fill:none;stroke:#58537D;stroke-width:2;stroke-linecap:round;stroke-linejoin:round;stroke-miterlimit:10;}
	.st12{fill:none;stroke:#F26A63;stroke-width:2;stroke-linecap:round;stroke-linejoin:round;}
	.st13{fill:none;stroke:#F26A63;stroke-width:2;stroke-linecap:round;stroke-linejoin:round;stroke-dasharray:4.0653,5.0816;}
	.st14{opacity:0.1;fill:#303C63;}
	.st15{fill:none;stroke:#FFFFFF;stroke-width:4;stroke-linecap:round;stroke-linejoin:round;stroke-miterlimit:10;}
	.st16{opacity:0.2;}
	.st17{fill:#FAF8F2;}
	.st18{fill:none;stroke:#F26A63;stroke-width:4;stroke-linecap:round;stroke-linejoin:round;stroke-miterlimit:10;}
	.st19{fill:none;stroke:#FFFFFF;stroke-width:2;stroke-linecap:round;stroke-linejoin:round;stroke-miterlimit:10;}
	.st20{opacity:0.1;fill:#58537D;}
	.st21{fill:none;stroke:#6DC392;stroke-width:2;stroke-linecap:round;stroke-linejoin:round;stroke-miterlimit:10;}
	
		.st22{fill:none;stroke:#58537D;stroke-width:2;stroke-linecap:round;stroke-linejoin:round;stroke-miterlimit:10;stroke-dasharray:4,5;}
	.st23{fill:#E2E2E2;}
</style><rect class="st3" height="37" width="47" x="27" y="71"/><polyline class="st1" points="39,108 74,108 74,71 27,71 27,108 "/><rect class="st2" height="37" width="47" x="16" y="71"/><g><path class="st0" d="M46,87v8.5c0,4.7-3.8,8.5-8.5,8.5s-8.5-3.8-8.5-8.5c0-4.7,3.8-8.5,8.5-8.5H46z M33.9,95.6c0,2,1.6,3.6,3.6,3.6   s3.6-1.7,3.6-3.7V92h-3.5C35.5,92,33.9,93.6,33.9,95.6z"/></g><g><path class="st1" d="M46,87v8.5c0,4.7-3.8,8.5-8.5,8.5s-8.5-3.8-8.5-8.5c0-4.7,3.8-8.5,8.5-8.5H46z M33.9,95.6c0,2,1.6,3.6,3.6,3.6   s3.6-1.7,3.6-3.7V92h-3.5C35.5,92,33.9,93.6,33.9,95.6z"/></g><polygon class="st0" points="63,82 51,82 51,71 45,71 45,82 16,82 16,88 45,88 45,108 51,108 51,88 63,88 "/><polygon class="st1" points="63,82 51,82 51,71 45,71 45,82 16,82 16,88 45,88 45,108 51,108 51,88 63,88 "/><polyline class="st1" points="32,108 63,108 63,71 16,71 16,108 27,108 "/><rect class="st6" height="37" width="47" x="48" y="29"/><polyline class="st1" points="64,29 48,29 48,66 95,66 95,29 84,29 "/><rect class="st5" height="37" width="47" x="37" y="29"/><rect class="st2" height="18" width="28" x="37" y="41"/><polyline class="st1" points="37,59 37,41 60,41 "/><polyline class="st1" points="65,41 65,59 42,59 "/><polyline class="st1" points="71,29 37,29 37,66 84,66 84,29 78,29 "/><rect class="st2" height="37" width="21" x="92" y="71"/><rect class="st3" height="37" width="21" x="92" y="71"/><rect class="st3" height="37" width="21" x="92" y="71"/><rect class="st1" height="37" width="21" x="92" y="71"/><rect class="st2" height="37" width="21" x="81" y="71"/><rect class="st3" height="37" width="21" x="81" y="71"/><rect class="st1" height="37" width="21" x="81" y="71"/><polygon class="st6" points="100,21 89,21 84,29 95,29 "/><polygon class="st6" points="43,21 32,21 37,29 48,29 "/><polygon class="st1" points="100,21 89,21 84,29 95,29 "/><polygon class="st1" points="43,21 32,21 37,29 48,29 "/><g class="st16"><path class="st1" d="M95,83.9c0,2.2-1.8,4.1-4,4.1s-4-1.7-4-3.9v-8h8V83.9z"/><line class="st1" x1="91" x2="91" y1="88" y2="92"/><line class="st1" x1="95" x2="87" y1="92" y2="92"/><polyline class="st1" points="91.9,76 90.4,79.3 91.9,80.2 91.2,82.8  "/></g><line class="st11" x1="44" x2="57" y1="48" y2="48"/><line class="st11" x1="44" x2="57" y1="53" y2="53"/><rect class="st0" height="6" width="11" x="63" y="82"/><rect class="st1" height="6" width="11" x="63" y="82"/></svg>