<?xml version="1.0" ?><svg id="Layer_1" style="enable-background:new 0 0 128 128;" version="1.1" viewBox="0 0 128 128" xml:space="preserve" xmlns="http://www.w3.org/2000/svg" xmlns:xlink="http://www.w3.org/1999/xlink"><style type="text/css">
	.st0{fill:#F49F9E;}
	.st1{fill:none;stroke:#58537D;stroke-width:2;stroke-linecap:round;stroke-linejoin:round;stroke-miterlimit:10;}
	.st2{fill:#FFFFFF;}
	.st3{opacity:0.2;fill:#58537D;}
	.st4{fill:none;stroke:#58537D;stroke-width:4;stroke-linecap:round;stroke-linejoin:round;stroke-miterlimit:10;}
	.st5{fill:#9BD3AF;}
	.st6{fill:#8ABF9C;}
	.st7{fill:none;stroke:#FFFFFF;stroke-linecap:round;stroke-miterlimit:10;}
	.st8{opacity:0.5;fill:none;stroke:#FFFFFF;stroke-width:2;stroke-linecap:round;stroke-linejoin:round;stroke-miterlimit:10;}
	.st9{fill:#58537D;}
	.st10{opacity:0.1;}
	.st11{opacity:0.1;fill:none;stroke:#58537D;stroke-width:2;stroke-linecap:round;stroke-linejoin:round;stroke-miterlimit:10;}
	.st12{fill:none;stroke:#F26A63;stroke-width:2;stroke-linecap:round;stroke-linejoin:round;}
	.st13{fill:none;stroke:#F26A63;stroke-width:2;stroke-linecap:round;stroke-linejoin:round;stroke-dasharray:4.0653,5.0816;}
	.st14{opacity:0.1;fill:#303C63;}
	.st15{fill:none;stroke:#FFFFFF;stroke-width:4;stroke-linecap:round;stroke-linejoin:round;stroke-miterlimit:10;}
	.st16{opacity:0.2;}
	.st17{fill:#FAF8F2;}
	.st18{fill:none;stroke:#F26A63;stroke-width:4;stroke-linecap:round;stroke-linejoin:round;stroke-miterlimit:10;}
	.st19{fill:none;stroke:#FFFFFF;stroke-width:2;stroke-linecap:round;stroke-linejoin:round;stroke-miterlimit:10;}
	.st20{opacity:0.1;fill:#58537D;}
	.st21{fill:none;stroke:#6DC392;stroke-width:2;stroke-linecap:round;stroke-linejoin:round;stroke-miterlimit:10;}
	
		.st22{fill:none;stroke:#58537D;stroke-width:2;stroke-linecap:round;stroke-linejoin:round;stroke-miterlimit:10;stroke-dasharray:4,5;}
	.st23{fill:#E2E2E2;}
</style><g><rect class="st6" height="29" width="51" x="15" y="64"/><rect class="st1" height="29" width="51" x="15" y="64"/><rect class="st5" height="29" width="51" x="15" y="70"/><rect class="st1" height="29" width="51" x="15" y="70"/><rect class="st6" height="29" width="51" x="15" y="76"/><rect class="st1" height="29" width="51" x="15" y="76"/><rect class="st5" height="29" width="51" x="15" y="82"/><polyline class="st1" points="43,111 15,111 15,82 66,82 66,111 49,111  "/><path class="st6" d="M25.5,107c0-4-1.5-6.5-5.5-6.5v-9c4,0,5.5-2.5,5.5-5.5h30c0,3,2.5,5.5,5.5,5.5v9c-3,0-5.5,2.5-5.5,6.5H25.5z"/><circle class="st2" cx="40.5" cy="96" r="5.8"/><circle class="st1" cx="40.5" cy="96" r="5.8"/><path class="st1" d="M32,107h23.5c0-4,2.5-6.5,5.5-6.5v-9c-3,0-5.7-2.4-5.7-5.8"/><path class="st1" d="M49,86H25.5c0,3-1.5,5.5-5.5,5.5v9c4,0,5.4,2.9,5.4,6.2"/><line class="st1" x1="34" x2="28" y1="96" y2="96"/><line class="st1" x1="53" x2="47" y1="96" y2="96"/></g><g><path class="st2" d="M54,107V75c0-2.2,1.8-4,4-4h51c2.2,0,4,1.8,4,4v32c0,2.2-1.8,4-4,4H58C55.8,111,54,109.2,54,107z"/><path class="st3" d="M54,107V75c0-2.2,1.8-4,4-4h51c2.2,0,4,1.8,4,4v32c0,2.2-1.8,4-4,4H58C55.8,111,54,109.2,54,107z"/><rect class="st9" height="9" width="59" x="54" y="78"/><path class="st1" d="M58,111c-2.2,0-4-1.8-4-4V75c0-2.2,1.8-4,4-4h51c2.2,0,4,1.8,4,4v32c0,2.2-1.8,4-4,4H58z"/><rect class="st2" height="8" width="37" x="59" y="91"/><line class="st1" x1="107" x2="99" y1="93" y2="93"/><line class="st1" x1="107" x2="99" y1="97" y2="97"/><line class="st1" x1="60" x2="85" y1="104" y2="104"/></g><g><path class="st0" d="M43.2,66.2l-8.4-30.9c-0.6-2.1,0.7-4.3,2.8-4.9L86.9,17c2.1-0.6,4.3,0.7,4.9,2.8l8.4,30.9   c0.6,2.1-0.7,4.3-2.8,4.9L48.1,69C46,69.6,43.8,68.3,43.2,66.2z"/><path class="st1" d="M48.1,69c-2.1,0.6-4.3-0.7-4.9-2.8l-8.4-30.9c-0.6-2.1,0.7-4.3,2.8-4.9L86.9,17c2.1-0.6,4.3,0.7,4.9,2.8   l8.4,30.9c0.6,2.1-0.7,4.3-2.8,4.9L48.1,69z"/><path class="st2" d="M52.8,48c0.3,1.1-0.3,2.2-1.4,2.5l-4.8,1.3c-1.1,0.3-2.2-0.3-2.5-1.4l-0.8-2.9c-0.3-1.1,0.3-2.2,1.4-2.5   l4.8-1.3c1.1-0.3,2.2,0.3,2.5,1.4L52.8,48z"/><line class="st1" x1="84.3" x2="92" y1="45.7" y2="43.6"/><line class="st1" x1="71.7" x2="79.5" y1="49.1" y2="47"/><polyline class="st1" points="59.2,52.5 59.2,52.5 66.9,50.4  "/><line class="st1" x1="46.6" x2="54.4" y1="55.9" y2="53.8"/><ellipse class="st2" cx="82.2" cy="30.5" rx="5" ry="5" transform="matrix(0.9652 -0.2616 0.2616 0.9652 -5.1046 22.5745)"/><ellipse class="st9" cx="77.4" cy="31.8" rx="5" ry="5" transform="matrix(0.9652 -0.2616 0.2616 0.9652 -5.6149 21.3575)"/><line class="st1" x1="51.8" x2="63.4" y1="59.7" y2="56.5"/><line class="st1" x1="69.2" x2="80.8" y1="55" y2="51.8"/></g></svg>