<?xml version="1.0" ?><svg id="Layer_1" style="enable-background:new 0 0 128 128;" version="1.1" viewBox="0 0 128 128" xml:space="preserve" xmlns="http://www.w3.org/2000/svg" xmlns:xlink="http://www.w3.org/1999/xlink"><style type="text/css">
	.st0{fill:#F49F9E;}
	.st1{fill:none;stroke:#58537D;stroke-width:2;stroke-linecap:round;stroke-linejoin:round;stroke-miterlimit:10;}
	.st2{fill:#FFFFFF;}
	.st3{opacity:0.2;fill:#58537D;}
	.st4{fill:none;stroke:#58537D;stroke-width:4;stroke-linecap:round;stroke-linejoin:round;stroke-miterlimit:10;}
	.st5{fill:#9BD3AF;}
	.st6{fill:#8ABF9C;}
	.st7{fill:none;stroke:#FFFFFF;stroke-linecap:round;stroke-miterlimit:10;}
	.st8{opacity:0.5;fill:none;stroke:#FFFFFF;stroke-width:2;stroke-linecap:round;stroke-linejoin:round;stroke-miterlimit:10;}
	.st9{fill:#58537D;}
	.st10{opacity:0.1;}
	.st11{opacity:0.1;fill:none;stroke:#58537D;stroke-width:2;stroke-linecap:round;stroke-linejoin:round;stroke-miterlimit:10;}
	.st12{fill:none;stroke:#F26A63;stroke-width:2;stroke-linecap:round;stroke-linejoin:round;}
	.st13{fill:none;stroke:#F26A63;stroke-width:2;stroke-linecap:round;stroke-linejoin:round;stroke-dasharray:4.0653,5.0816;}
	.st14{opacity:0.1;fill:#303C63;}
	.st15{fill:none;stroke:#FFFFFF;stroke-width:4;stroke-linecap:round;stroke-linejoin:round;stroke-miterlimit:10;}
	.st16{opacity:0.2;}
	.st17{fill:#FAF8F2;}
	.st18{fill:none;stroke:#F26A63;stroke-width:4;stroke-linecap:round;stroke-linejoin:round;stroke-miterlimit:10;}
	.st19{fill:none;stroke:#FFFFFF;stroke-width:2;stroke-linecap:round;stroke-linejoin:round;stroke-miterlimit:10;}
	.st20{opacity:0.1;fill:#58537D;}
	.st21{fill:none;stroke:#6DC392;stroke-width:2;stroke-linecap:round;stroke-linejoin:round;stroke-miterlimit:10;}
	
		.st22{fill:none;stroke:#58537D;stroke-width:2;stroke-linecap:round;stroke-linejoin:round;stroke-miterlimit:10;stroke-dasharray:4,5;}
	.st23{fill:#E2E2E2;}
</style><path class="st4" d="M70.3,31.4c-4.7,2.6-7.5,6.6-6.2,8.9"/><path class="st2" d="M105,104c0,2.2-1.8,4-4,4H13c-2.2,0-4-1.8-4-4V39c0-2.2,1.8-4,4-4h88c2.2,0,4,1.8,4,4V104z"/><path class="st3" d="M101,35H13c-2.2,0-4,1.4-4,3.6V46h96v-7.4C105,36.4,103.2,35,101,35z"/><path class="st1" d="M32,108H13c-2.2,0-4-1.8-4-4V39c0-2.2,1.8-4,4-4h88c2.2,0,4,1.8,4,4v65c0,2.2-1.8,4-4,4H39"/><line class="st1" x1="9" x2="68" y1="46" y2="46"/><circle class="st9" cx="15.8" cy="40.3" r="1.5"/><circle class="st9" cx="21.8" cy="40.3" r="1.5"/><circle class="st9" cx="27.8" cy="40.3" r="1.5"/><path class="st5" d="M38,89h8.3l0.7,19h38l0.7-19H94l5-13.8l-21-8.3c0,0-5.7,2.5-11.3,2.5c-5.7,0-11.9-2.4-11.9-2.4L33,75.3l4,11.1  L38,89z"/><path class="st6" d="M78,66.9c0,0-5.7,2.5-11.3,2.5c-5.7,0-11.9-2.4-11.9-2.4s2.2,7.8,11.3,7.8S78,67,78,66.9L78,66.9L78,66.9z"/><path class="st1" d="M54.7,67c0,0,2.2,7.8,11.3,7.8S78,67,78,67"/><path class="st1" d="M38,89h8.3l0.7,19h38l0.7-19H94l5-13.8l-21-8.3c0,0-5.7,2.5-11.3,2.5c-5.7,0-11.9-2.4-11.9-2.4L33,75.3l4,11.1  L38,89z"/><path class="st6" d="M57,99L57,99c-2.8,0-5-2.2-5-5v-7h10v7C62,96.8,59.7,99,57,99z"/><g class="st10"><circle class="st1" cx="24" cy="56.7" r="3.8"/><line class="st1" x1="26.7" x2="29.8" y1="59.4" y2="62.5"/></g><line class="st11" x1="40" x2="49" y1="54" y2="54"/><line class="st11" x1="54" x2="76" y1="54" y2="54"/><line class="st11" x1="40" x2="49" y1="58" y2="58"/><line class="st11" x1="54" x2="64" y1="58" y2="58"/><path class="st0" d="M74,43.3l-5.2-12.9c-0.6-1.4-0.1-3,1.1-3.9l11.3-8.2c0.8-0.6,1.9-0.8,2.9-0.5l33.2,9.6c1.8,0.5,2.8,2.4,2.3,4.1  l-6.1,21.1c-0.5,1.8-2.4,2.8-4.1,2.3l-33.2-9.6C75.2,45,74.4,44.2,74,43.3z"/><path class="st2" d="M94.7,43.2l4.1-14.1c0.3-1.1,1.4-1.7,2.5-1.4l11.3,3.4c1.1,0.3,1.7,1.4,1.3,2.5l-4.1,14.1  c-0.3,1.1-1.4,1.7-2.5,1.4L96,45.7C94.9,45.4,94.3,44.3,94.7,43.2z"/><path class="st11" d="M99.6,42.4l2.8-9.8"/><path class="st11" d="M102.8,43.2l2.8-9.8"/><path class="st11" d="M106.1,44l2.8-9.8"/><path class="st1" d="M70.7,34.8l-1.8-4.5c-0.6-1.4-0.1-3,1.1-3.9l11.3-8.2c0.8-0.6,1.9-0.8,2.9-0.5l33.2,9.6  c1.8,0.5,2.8,2.4,2.3,4.1l-6.1,21.1c-0.5,1.8-2.4,2.8-4.1,2.3l-33.2-9.6c-1-0.3-1.8-1-2.2-2L73.1,41"/><ellipse class="st2" cx="81.2" cy="31" rx="4.6" ry="4.6" transform="matrix(0.9601 -0.2797 0.2797 0.9601 -5.4191 23.9409)"/><path class="st4" d="M64.2,40.4c1.3,2.3,6.1,2.1,10.8-0.5c4.7-2.6,7.5-6.6,6.2-8.9"/><rect class="st5" height="9" width="9" x="17" y="72"/><rect class="st1" height="9" width="9" x="17" y="72"/><rect class="st0" height="9" width="9" x="17" y="86"/><rect class="st1" height="9" width="9" x="17" y="86"/><rect class="st2" height="9" width="9" x="17" y="99"/><rect class="st3" height="9" width="9" x="17" y="99"/><rect class="st1" height="9" width="9" x="17" y="99"/></svg>