<?xml version="1.0" ?><svg id="Layer_1" style="enable-background:new 0 0 128 128;" version="1.1" viewBox="0 0 128 128" xml:space="preserve" xmlns="http://www.w3.org/2000/svg" xmlns:xlink="http://www.w3.org/1999/xlink"><style type="text/css">
	.st0{fill:#F49F9E;}
	.st1{fill:none;stroke:#58537D;stroke-width:2;stroke-linecap:round;stroke-linejoin:round;stroke-miterlimit:10;}
	.st2{fill:#FFFFFF;}
	.st3{opacity:0.2;fill:#58537D;}
	.st4{fill:none;stroke:#58537D;stroke-width:4;stroke-linecap:round;stroke-linejoin:round;stroke-miterlimit:10;}
	.st5{fill:#9BD3AF;}
	.st6{fill:#8ABF9C;}
	.st7{fill:none;stroke:#FFFFFF;stroke-linecap:round;stroke-miterlimit:10;}
	.st8{opacity:0.5;fill:none;stroke:#FFFFFF;stroke-width:2;stroke-linecap:round;stroke-linejoin:round;stroke-miterlimit:10;}
	.st9{fill:#58537D;}
	.st10{opacity:0.1;}
	.st11{opacity:0.1;fill:none;stroke:#58537D;stroke-width:2;stroke-linecap:round;stroke-linejoin:round;stroke-miterlimit:10;}
	.st12{fill:none;stroke:#F26A63;stroke-width:2;stroke-linecap:round;stroke-linejoin:round;}
	.st13{fill:none;stroke:#F26A63;stroke-width:2;stroke-linecap:round;stroke-linejoin:round;stroke-dasharray:4.0653,5.0816;}
	.st14{opacity:0.1;fill:#303C63;}
	.st15{fill:none;stroke:#FFFFFF;stroke-width:4;stroke-linecap:round;stroke-linejoin:round;stroke-miterlimit:10;}
	.st16{opacity:0.2;}
	.st17{fill:#FAF8F2;}
	.st18{fill:none;stroke:#F26A63;stroke-width:4;stroke-linecap:round;stroke-linejoin:round;stroke-miterlimit:10;}
	.st19{fill:none;stroke:#FFFFFF;stroke-width:2;stroke-linecap:round;stroke-linejoin:round;stroke-miterlimit:10;}
	.st20{opacity:0.1;fill:#58537D;}
	.st21{fill:none;stroke:#6DC392;stroke-width:2;stroke-linecap:round;stroke-linejoin:round;stroke-miterlimit:10;}
	
		.st22{fill:none;stroke:#58537D;stroke-width:2;stroke-linecap:round;stroke-linejoin:round;stroke-miterlimit:10;stroke-dasharray:4,5;}
	.st23{fill:#E2E2E2;}
</style><path class="st2" d="M68,60h9v5.2l7.2-5.2H109c2.2,0,4-1.8,4-4V25c0-2.2-1.8-4-4-4H68c-2.2,0-4,1.8-4,4v31C64,58.2,65.8,60,68,60z"/><path class="st1" d="M68,60L68,60c-2.2,0-4-1.8-4-4V25c0-2.2,1.8-4,4-4h41c2.2,0,4,1.8,4,4v31c0,2.2-1.8,4-4,4H84.2L77,65.2V60h-3"/><path class="st2" d="M20,50.8c0-13.6,11.3-24.6,24.9-24.4C58.3,26.6,69,37.8,69,51.2v25.7c0,3.4-2.2,7.1-5.6,7.1H27  c-3.4,0-7-3.7-7-7.1V50.8z"/><g><path class="st2" d="M20,50.8c0-13.6,11.3-24.6,24.9-24.4C58.3,26.6,69,37.8,69,51.2v25.7c0,3.4-2.2,7.1-5.6,7.1H27   c-3.4,0-7-3.7-7-7.1V50.8z"/></g><g class="st16"><path class="st9" d="M20,50.8c0-13.6,11.3-24.6,24.9-24.4C58.3,26.6,69,37.8,69,51.2v25.7c0,3.4-2.2,7.1-5.6,7.1H27   c-3.4,0-7-3.7-7-7.1V50.8z"/></g><path class="st1" d="M20,50.8c0-13.6,11.3-24.6,24.9-24.4C58.3,26.6,69,37.8,69,51.2v25.7c0,3.4-2.2,7.1-5.6,7.1H27  c-3.4,0-7-3.7-7-7.1V50.8z"/><path class="st0" d="M15,108h55v-2.8C70,95.7,62.3,88,52.8,88H32.2C22.7,88,15,95.7,15,105.2V108z"/><path class="st1" d="M15,108h55v-2.8C70,95.7,62.3,88,52.8,88H32.2C22.7,88,15,95.7,15,105.2V108z"/><path class="st17" d="M42.5,96L42.5,96c-3,0-5.5-2.4-5.5-5.4V72h11v18.6C48,93.6,45.5,96,42.5,96z"/><path class="st1" d="M42.5,96L42.5,96c-3,0-5.5-2.4-5.5-5.4V72h11v18.6C48,93.6,45.5,96,42.5,96z"/><path class="st3" d="M27,65V50.3C27,39.7,35.9,32,46.7,32C56.3,32,64.2,38,65.8,47"/><path class="st17" d="M31.5,66.9c-3.5,0-6.3-2.8-6.3-6.3c0-2.9,2-5.4,4.7-6.1c12.5-3,25.5-12.8,28.2-18.4C63,38.9,65,44.8,65,49.7  s0,13.7,0,13.7c0,10-8.1,18.1-18.1,18.1c-8.9,0-16.3-6.5-17.8-15"/><path class="st1" d="M31.5,66.9c-3.5,0-6.3-2.8-6.3-6.3c0-2.9,2-5.4,4.7-6.1c12.5-3,25.5-12.8,28.2-18.4C63,38.9,65,44.8,65,49.7  s0,13.7,0,13.7c0,10-8.1,18.1-18.1,18.1c-8.9,0-16.3-6.5-17.8-15"/><path class="st9" d="M31.3,63.2c-1.4,0-2.5-1.1-2.5-2.5c0-1.2,0.8-2.2,1.9-2.4"/><circle class="st9" cx="45.2" cy="56.4" r="1.7"/><circle class="st9" cx="59.5" cy="56.4" r="1.7"/><path class="st0" d="M84.5,48.5c1.1,0.8,2.4,1.2,3.8,1.2s2.7-0.4,3.8-1.2c-0.1-2-1.8-2.6-3.8-2.6S84.6,46.5,84.5,48.5z"/><path class="st1" d="M88.3,49.7C92,49.7,95,47,95,43H81.7C81.7,47,84.7,49.7,88.3,49.7z"/><path class="st1" d="M77.8,35.8c0-1.6,1.3-2.9,2.9-2.9s2.9,1.3,2.9,2.9"/><path class="st1" d="M93.1,35.8c0-1.6,1.3-2.9,2.9-2.9s2.9,1.3,2.9,2.9"/></svg>