<?xml version="1.0" ?><svg id="Layer_1" style="enable-background:new 0 0 128 128;" version="1.1" viewBox="0 0 128 128" xml:space="preserve" xmlns="http://www.w3.org/2000/svg" xmlns:xlink="http://www.w3.org/1999/xlink"><style type="text/css">
	.st0{fill:#F49F9E;}
	.st1{fill:none;stroke:#58537D;stroke-width:2;stroke-linecap:round;stroke-linejoin:round;stroke-miterlimit:10;}
	.st2{fill:#FFFFFF;}
	.st3{opacity:0.2;fill:#58537D;}
	.st4{fill:none;stroke:#58537D;stroke-width:4;stroke-linecap:round;stroke-linejoin:round;stroke-miterlimit:10;}
	.st5{fill:#9BD3AF;}
	.st6{fill:#8ABF9C;}
	.st7{fill:none;stroke:#FFFFFF;stroke-linecap:round;stroke-miterlimit:10;}
	.st8{opacity:0.5;fill:none;stroke:#FFFFFF;stroke-width:2;stroke-linecap:round;stroke-linejoin:round;stroke-miterlimit:10;}
	.st9{fill:#58537D;}
	.st10{opacity:0.1;}
	.st11{opacity:0.1;fill:none;stroke:#58537D;stroke-width:2;stroke-linecap:round;stroke-linejoin:round;stroke-miterlimit:10;}
	.st12{fill:none;stroke:#F26A63;stroke-width:2;stroke-linecap:round;stroke-linejoin:round;}
	.st13{fill:none;stroke:#F26A63;stroke-width:2;stroke-linecap:round;stroke-linejoin:round;stroke-dasharray:4.0653,5.0816;}
	.st14{opacity:0.1;fill:#303C63;}
	.st15{fill:none;stroke:#FFFFFF;stroke-width:4;stroke-linecap:round;stroke-linejoin:round;stroke-miterlimit:10;}
	.st16{opacity:0.2;}
	.st17{fill:#FAF8F2;}
	.st18{fill:none;stroke:#F26A63;stroke-width:4;stroke-linecap:round;stroke-linejoin:round;stroke-miterlimit:10;}
	.st19{fill:none;stroke:#FFFFFF;stroke-width:2;stroke-linecap:round;stroke-linejoin:round;stroke-miterlimit:10;}
	.st20{opacity:0.1;fill:#58537D;}
	.st21{fill:none;stroke:#6DC392;stroke-width:2;stroke-linecap:round;stroke-linejoin:round;stroke-miterlimit:10;}
	
		.st22{fill:none;stroke:#58537D;stroke-width:2;stroke-linecap:round;stroke-linejoin:round;stroke-miterlimit:10;stroke-dasharray:4,5;}
	.st23{fill:#E2E2E2;}
</style><polygon class="st2" points="55,32.3 46.2,69.8 58,81.2 58,97 81,97 81,81.2 83.3,71.5 "/><polygon class="st1" points="55,32.3 46.2,69.8 58,81.2 58,97 81,97 81,81.2 83.3,71.5 "/><path class="st5" d="M96,57c0,2.2-1.8,4-4,4H35c-2.2,0-4-1.8-4-4V24c0-2.2,1.8-4,4-4H92c2.2,0,4,1.8,4,4V57z"/><rect class="st9" height="9" width="66" x="31" y="28"/><path class="st1" d="M59,61H35.4c-2.2,0-4.4-1.9-4.4-4.1V24.5c0-2.2,2.1-4.5,4.4-4.5h57.7c2.2,0,3.9,2.3,3.9,4.5v32.4  c0,2.2-1.7,4.1-3.9,4.1H72"/><rect class="st2" height="9" width="37" x="37" y="40"/><line class="st1" x1="91" x2="86" y1="43" y2="43"/><line class="st1" x1="91" x2="86" y1="47" y2="47"/><path class="st2" d="M88.1,68.7l-3-27c-0.4-3.3-3.4-5.8-6.7-5.4c-3.3,0.4-5.8,3.4-5.4,6.7l1.5,11.8c0.2,1.9-0.7,3.7-2.4,4.6  l-14.1,7.3c0,0,5.2,15.8,13.5,16.7c8.1,0.8,15.3-4.8,16.6-12.7C88,70.5,88.1,69.1,88.1,68.7z"/><path class="st1" d="M71.4,83.4c8.1,0.8,15.3-4.8,16.6-12.7c0.1-0.2,0.1-1.6,0.1-2l-3-27c-0.4-3.3-3.4-5.8-6.7-5.4  c-3.3,0.4-5.8,3.4-5.4,6.7l1.5,11.8c0.2,1.9-0.7,3.7-2.4,4.6l-6.5,3.4"/><line class="st1" x1="38" x2="63" y1="54" y2="54"/><g><rect class="st2" height="20" width="32" x="52" y="89"/></g><g><rect class="st3" height="20" width="32" x="52" y="89"/></g><g><polyline class="st1" points="72,109 52,109 52,89 84,89 84,109 80,109  "/></g><circle class="st1" cx="59.9" cy="97.4" r="2.8"/></svg>