<?xml version="1.0" ?><svg id="Layer_1" style="enable-background:new 0 0 128 128;" version="1.1" viewBox="0 0 128 128" xml:space="preserve" xmlns="http://www.w3.org/2000/svg" xmlns:xlink="http://www.w3.org/1999/xlink"><style type="text/css">
	.st0{fill:#F49F9E;}
	.st1{fill:none;stroke:#58537D;stroke-width:2;stroke-linecap:round;stroke-linejoin:round;stroke-miterlimit:10;}
	.st2{fill:#FFFFFF;}
	.st3{opacity:0.2;fill:#58537D;}
	.st4{fill:none;stroke:#58537D;stroke-width:4;stroke-linecap:round;stroke-linejoin:round;stroke-miterlimit:10;}
	.st5{fill:#9BD3AF;}
	.st6{fill:#8ABF9C;}
	.st7{fill:none;stroke:#FFFFFF;stroke-linecap:round;stroke-miterlimit:10;}
	.st8{opacity:0.5;fill:none;stroke:#FFFFFF;stroke-width:2;stroke-linecap:round;stroke-linejoin:round;stroke-miterlimit:10;}
	.st9{fill:#58537D;}
	.st10{opacity:0.1;}
	.st11{opacity:0.1;fill:none;stroke:#58537D;stroke-width:2;stroke-linecap:round;stroke-linejoin:round;stroke-miterlimit:10;}
	.st12{fill:none;stroke:#F26A63;stroke-width:2;stroke-linecap:round;stroke-linejoin:round;}
	.st13{fill:none;stroke:#F26A63;stroke-width:2;stroke-linecap:round;stroke-linejoin:round;stroke-dasharray:4.0653,5.0816;}
	.st14{opacity:0.1;fill:#303C63;}
	.st15{fill:none;stroke:#FFFFFF;stroke-width:4;stroke-linecap:round;stroke-linejoin:round;stroke-miterlimit:10;}
	.st16{opacity:0.2;}
	.st17{fill:#FAF8F2;}
	.st18{fill:none;stroke:#F26A63;stroke-width:4;stroke-linecap:round;stroke-linejoin:round;stroke-miterlimit:10;}
	.st19{fill:none;stroke:#FFFFFF;stroke-width:2;stroke-linecap:round;stroke-linejoin:round;stroke-miterlimit:10;}
	.st20{opacity:0.1;fill:#58537D;}
	.st21{fill:none;stroke:#6DC392;stroke-width:2;stroke-linecap:round;stroke-linejoin:round;stroke-miterlimit:10;}
	
		.st22{fill:none;stroke:#58537D;stroke-width:2;stroke-linecap:round;stroke-linejoin:round;stroke-miterlimit:10;stroke-dasharray:4,5;}
	.st23{fill:#E2E2E2;}
</style><path class="st2" d="M103,25H52c-4.4,0-8,3.6-8,8v65c0,4.4,3.6,8,8,8h51c4.4,0,8-3.6,8-8V33C111,28.6,107.4,25,103,25z"/><path class="st3" d="M103,25H52c-4.4,0-8,3.6-8,8v65c0,4.4,3.6,8,8,8h51c4.4,0,8-3.6,8-8V33C111,28.6,107.4,25,103,25z"/><path class="st1" d="M88,106h15c4.4,0,8-3.6,8-8V33c0-4.4-3.6-8-8-8H52c-4.4,0-8,3.6-8,8v65c0,4.4,3.6,8,8,8h29"/><rect class="st2" height="57" width="55" x="50" y="37"/><rect class="st1" height="57" width="55" x="50" y="37"/><g><path class="st0" d="M48.7,37L47,45.3c0,2.4,2.1,4.3,4.5,4.3s4.5-1.8,4.5-4.2l1.1-8.4H48.7z"/><path class="st2" d="M57.1,37L56,45.3c0,2.4,1.8,4.3,4.2,4.3s4.2-1.8,4.2-4.2l0.6-8.4H57.1z"/><path class="st0" d="M64.9,37l-0.6,8.3c0,2.4,1.9,4.3,4.3,4.3s4.3-2,4.3-4.4V37H64.9z"/><path class="st2" d="M73,37v8.2c0,2.4,1.6,4.3,4,4.3s4-1.9,4-4.3V37H73z"/><path class="st0" d="M81,37v8.2c0,2.4,2.2,4.3,4.6,4.3c2.4,0,4.4-1.8,4.4-4.2L89.6,37H81z"/><path class="st2" d="M89.6,37l0.6,8.3c0,2.4,2.1,4.3,4.5,4.3c2.4,0,4.5-1.8,4.5-4.2L98,37H89.6z"/><path class="st0" d="M98,37l1.1,8.3c0,2.4,1.8,4.3,4.2,4.3c2.4,0,4.2-1.8,4.2-4.2l-1.7-8.4H98z"/><path class="st1" d="M103.2,49.6c-2.4,0-4.1-1.9-4.1-4.3c0,2.4-2,4.3-4.3,4.3s-4.3-1.9-4.3-4.3c0,2.4-2,4.3-4.3,4.3   s-4.3-1.9-4.3-4.3c0,2.4-2,4.3-4.3,4.3s-4.3-1.9-4.3-4.3c0,2.4-2,4.3-4.3,4.3s-4.3-1.9-4.3-4.3c0,2.4-2,4.3-4.3,4.3   s-4.3-1.9-4.3-4.3c0,2.4-2,4.3-4.3,4.3c-2.6,0-4.3-2-4.3-4.2l1.7-8.3h57.1l1.7,8.3"/></g><g><path class="st5" d="M56,84H19.6c-1.4,0-2.6-1.2-2.6-2.6V60.6c0-1.4,1.2-2.6,2.6-2.6H56"/><rect class="st9" height="5" width="40" x="17" y="63"/><line class="st1" x1="57" x2="43" y1="84" y2="84"/><path class="st1" d="M35,84H19.6c-1.4,0-2.6-1.2-2.6-2.6V60.6c0-1.4,1.2-2.6,2.6-2.6H57"/><rect class="st2" height="5" width="24" x="20" y="71"/><line class="st1" x1="21" x2="37" y1="79" y2="79"/></g><line class="st1" x1="57" x2="57" y1="55" y2="87"/><g><polyline class="st5" points="70,66 88.7,66 86,76 73.6,76 70,66  "/><polyline class="st1" points="72,71 73.6,76 86,76 88.7,66 70,66 68.8,62 64,62  "/><circle class="st1" cx="73.7" cy="80.8" r="1.4"/><circle class="st1" cx="85.6" cy="80.8" r="1.4"/></g><line class="st1" x1="71" x2="84" y1="31" y2="31"/><circle class="st9" cx="78.5" cy="100" r="1.9"/></svg>