<?xml version="1.0" ?><svg id="Layer_1" style="enable-background:new 0 0 128 128;" version="1.1" viewBox="0 0 128 128" xml:space="preserve" xmlns="http://www.w3.org/2000/svg" xmlns:xlink="http://www.w3.org/1999/xlink"><style type="text/css">
	.st0{fill:#F49F9E;}
	.st1{fill:none;stroke:#58537D;stroke-width:2;stroke-linecap:round;stroke-linejoin:round;stroke-miterlimit:10;}
	.st2{fill:#FFFFFF;}
	.st3{opacity:0.2;fill:#58537D;}
	.st4{fill:none;stroke:#58537D;stroke-width:4;stroke-linecap:round;stroke-linejoin:round;stroke-miterlimit:10;}
	.st5{fill:#9BD3AF;}
	.st6{fill:#8ABF9C;}
	.st7{fill:none;stroke:#FFFFFF;stroke-linecap:round;stroke-miterlimit:10;}
	.st8{opacity:0.5;fill:none;stroke:#FFFFFF;stroke-width:2;stroke-linecap:round;stroke-linejoin:round;stroke-miterlimit:10;}
	.st9{fill:#58537D;}
	.st10{opacity:0.1;}
	.st11{opacity:0.1;fill:none;stroke:#58537D;stroke-width:2;stroke-linecap:round;stroke-linejoin:round;stroke-miterlimit:10;}
	.st12{fill:none;stroke:#F26A63;stroke-width:2;stroke-linecap:round;stroke-linejoin:round;}
	.st13{fill:none;stroke:#F26A63;stroke-width:2;stroke-linecap:round;stroke-linejoin:round;stroke-dasharray:4.0653,5.0816;}
	.st14{opacity:0.1;fill:#303C63;}
	.st15{fill:none;stroke:#FFFFFF;stroke-width:4;stroke-linecap:round;stroke-linejoin:round;stroke-miterlimit:10;}
	.st16{opacity:0.2;}
	.st17{fill:#FAF8F2;}
	.st18{fill:none;stroke:#F26A63;stroke-width:4;stroke-linecap:round;stroke-linejoin:round;stroke-miterlimit:10;}
	.st19{fill:none;stroke:#FFFFFF;stroke-width:2;stroke-linecap:round;stroke-linejoin:round;stroke-miterlimit:10;}
	.st20{opacity:0.1;fill:#58537D;}
	.st21{fill:none;stroke:#6DC392;stroke-width:2;stroke-linecap:round;stroke-linejoin:round;stroke-miterlimit:10;}
	
		.st22{fill:none;stroke:#58537D;stroke-width:2;stroke-linecap:round;stroke-linejoin:round;stroke-miterlimit:10;stroke-dasharray:4,5;}
	.st23{fill:#E2E2E2;}
</style><path class="st4" d="M89.7,31.6c9.6,0,17.4,3.9,17.4,8.7"/><g><path class="st0" d="M94.2,53.4l-3.1-24.8c-0.3-2.7-2.5-4.9-5.2-5.2l-24.8-3.1c-1.8-0.2-3.7,0.4-5,1.7L12.2,65.8   c-2.3,2.3-2.3,6.1,0,8.5l27.9,27.9c2.3,2.3,6.1,2.3,8.5,0l43.9-43.9C93.8,57.1,94.4,55.2,94.2,53.4z"/><path class="st1" d="M92.3,38.4l-1.2-9.8c-0.3-2.7-2.5-4.9-5.2-5.2l-24.8-3.1c-1.8-0.2-3.7,0.4-5,1.7L12.2,65.8   c-2.3,2.3-2.3,6.1,0,8.5l27.9,27.9c2.3,2.3,6.1,2.3,8.5,0l43.9-43.9c1.3-1.3,1.9-3.2,1.7-5l-0.8-6"/><path class="st8" d="M15,71.5c-0.8-0.8-0.8-2,0-2.8l43.9-43.9c0.4-0.4,1-0.6,1.7-0.6l24.8,3.1c0.6,0.1,0.9,0.3,1.2,0.6   c0.2,0.2,0.5,0.6,0.6,1.2l3.1,24.8c0.1,0.6-0.1,1.2-0.6,1.7L45.8,99.4c-0.8,0.8-2,0.8-2.8,0L15,71.5z"/><ellipse class="st2" cx="72.3" cy="42.2" rx="6.8" ry="6.8" transform="matrix(0.7071 -0.7071 0.7071 0.7071 -8.6399 63.4575)"/><ellipse class="st1" cx="72.3" cy="42.2" rx="6.8" ry="6.8" transform="matrix(0.7071 -0.7071 0.7071 0.7071 -8.6399 63.4575)"/><path class="st2" d="M44.7,88.5L26.3,70.1c-1.6-1.6-1.6-4.1,0-5.7l14.1-14.1c1.6-1.6,4.1-1.6,5.7,0l18.4,18.4   c1.6,1.6,1.6,4.1,0,5.7L50.4,88.5C48.8,90,46.3,90,44.7,88.5z"/><line class="st1" x1="42.6" x2="56.7" y1="58.1" y2="72.2"/><line class="st1" x1="38.3" x2="52.5" y1="62.3" y2="76.5"/><line class="st1" x1="34.1" x2="48.2" y1="66.6" y2="80.7"/></g><path class="st4" d="M107.2,40.3c0,4.8-7.8,8.7-17.4,8.7S72.3,45,72.3,40.3"/><path class="st2" d="M118,72c0-2.2-1.8-4-4-4H39c-2.2,0-4,1.8-4,4v30c0,2.2,1.8,4,4,4h75c2.2,0,4-1.8,4-4V72z"/><path class="st3" d="M118,72c0-2.2-1.8-4-4-4H39c-2.2,0-4,1.8-4,4v30c0,2.2,1.8,4,4,4h75c2.2,0,4-1.8,4-4V72z"/><rect class="st2" height="75" transform="matrix(-1.836970e-16 1 -1 -1.836970e-16 163.5 10.5)" width="30" x="61.5" y="49.5"/><polyline class="st1" points="39,102 39,72 107,72 "/><polyline class="st1" points="114,72 114,102 46,102 "/><path class="st1" d="M118,72c0-2.2-1.8-4-4-4H39c-2.2,0-4,1.8-4,4v30c0,2.2,1.8,4,4,4h75c2.2,0,4-1.8,4-4V72z"/><path class="st6" d="M61.9,90.1c0,0.9-0.2,1.8-0.7,2.5s-1.2,1.3-2,1.7c-0.9,0.4-1.9,0.6-3.1,0.6c-1,0-1.8-0.1-2.5-0.2  c-0.7-0.1-1.4-0.4-2.1-0.7v-3.6c0.8,0.4,1.6,0.7,2.4,0.9s1.6,0.3,2.3,0.3c0.6,0,1-0.1,1.3-0.3s0.4-0.5,0.4-0.8  c0-0.2-0.1-0.4-0.2-0.5c-0.1-0.2-0.3-0.3-0.5-0.5c-0.2-0.2-0.9-0.5-2-1c-1-0.4-1.7-0.9-2.2-1.3c-0.5-0.4-0.9-0.9-1.1-1.4  s-0.4-1.2-0.4-1.9c0-1.4,0.5-2.5,1.5-3.2c1-0.8,2.4-1.2,4.2-1.2c1.6,0,3.1,0.4,4.8,1.1l-1.2,3.1c-1.4-0.6-2.6-1-3.6-1  c-0.5,0-0.9,0.1-1.2,0.3c-0.2,0.2-0.4,0.4-0.4,0.7c0,0.3,0.2,0.6,0.5,0.8s1.1,0.7,2.5,1.3c1.3,0.6,2.2,1.2,2.7,1.9  C61.7,88.3,61.9,89.1,61.9,90.1z"/><path class="st6" d="M73.5,94.7l-0.7-2.8h-4.9l-0.8,2.8h-4.5l4.9-15.1H73l5,15.1H73.5z M71.9,88.5l-0.6-2.5  c-0.2-0.5-0.3-1.3-0.5-2.1s-0.4-1.5-0.4-1.9c-0.1,0.3-0.2,0.9-0.4,1.7s-0.6,2.4-1.2,4.7H71.9z"/><path class="st6" d="M79.5,94.7v-15h4.1v11.7h5.8v3.3H79.5z"/><path class="st6" d="M100.7,94.7h-8.9v-15h8.9v3.3h-4.9v2.4h4.5v3.3h-4.5v2.8h4.9V94.7z"/></svg>