<?xml version="1.0" ?><svg id="Layer_1" style="enable-background:new 0 0 128 128;" version="1.1" viewBox="0 0 128 128" xml:space="preserve" xmlns="http://www.w3.org/2000/svg" xmlns:xlink="http://www.w3.org/1999/xlink"><style type="text/css">
	.st0{fill:#F49F9E;}
	.st1{fill:none;stroke:#58537D;stroke-width:2;stroke-linecap:round;stroke-linejoin:round;stroke-miterlimit:10;}
	.st2{fill:#FFFFFF;}
	.st3{opacity:0.2;fill:#58537D;}
	.st4{fill:none;stroke:#58537D;stroke-width:4;stroke-linecap:round;stroke-linejoin:round;stroke-miterlimit:10;}
	.st5{fill:#9BD3AF;}
	.st6{fill:#8ABF9C;}
	.st7{fill:none;stroke:#FFFFFF;stroke-linecap:round;stroke-miterlimit:10;}
	.st8{opacity:0.5;fill:none;stroke:#FFFFFF;stroke-width:2;stroke-linecap:round;stroke-linejoin:round;stroke-miterlimit:10;}
	.st9{fill:#58537D;}
	.st10{opacity:0.1;}
	.st11{opacity:0.1;fill:none;stroke:#58537D;stroke-width:2;stroke-linecap:round;stroke-linejoin:round;stroke-miterlimit:10;}
	.st12{fill:none;stroke:#F26A63;stroke-width:2;stroke-linecap:round;stroke-linejoin:round;}
	.st13{fill:none;stroke:#F26A63;stroke-width:2;stroke-linecap:round;stroke-linejoin:round;stroke-dasharray:4.0653,5.0816;}
	.st14{opacity:0.1;fill:#303C63;}
	.st15{fill:none;stroke:#FFFFFF;stroke-width:4;stroke-linecap:round;stroke-linejoin:round;stroke-miterlimit:10;}
	.st16{opacity:0.2;}
	.st17{fill:#FAF8F2;}
	.st18{fill:none;stroke:#F26A63;stroke-width:4;stroke-linecap:round;stroke-linejoin:round;stroke-miterlimit:10;}
	.st19{fill:none;stroke:#FFFFFF;stroke-width:2;stroke-linecap:round;stroke-linejoin:round;stroke-miterlimit:10;}
	.st20{opacity:0.1;fill:#58537D;}
	.st21{fill:none;stroke:#6DC392;stroke-width:2;stroke-linecap:round;stroke-linejoin:round;stroke-miterlimit:10;}
	
		.st22{fill:none;stroke:#58537D;stroke-width:2;stroke-linecap:round;stroke-linejoin:round;stroke-miterlimit:10;stroke-dasharray:4,5;}
	.st23{fill:#E2E2E2;}
</style><line class="st1" x1="77" x2="77" y1="97" y2="111"/><path class="st2" d="M95.9,38.1c1.3-3,1.9-6.3,0-7.2c-1.9-0.9-9.1-2.8-12.2-4.2c-3.1-1.3-2-4.5-2.2-6.1s-2.3-2.1-5-2.1  s-5,0.4-5.1,2.1c-0.1,1.6,0.9,4.8-2.3,6.1C66,28.1,58.8,30.1,56.9,31c-1.9,0.9-1.4,4.2,0,7.2c1.3,3,5.1,12.8,6,21.3  c0.9,8.5-5.1,13.4-5.7,23.8s0.1,15.9,4.7,17.4c8.1,2.7,20.2,2.7,29.2,0c5-1.5,5.1-7,4.5-17.4C95,72.8,89,67.9,89.9,59.4  S94.5,41.1,95.9,38.1z"/><path class="st3" d="M91,100.7c5-1.5,5.1-7,4.5-17.4C95,72.8,89,67.9,89.9,59.4s4.6-18.3,6-21.3c1.3-3,1.9-6.3,0-7.2  c-1.9-0.9-9.1-2.8-12.2-4.2c-3.1-1.3-2-4.5-2.2-6.1s-2.3-2.1-5-2.1s-5,0.4-5.1,2.1c-0.1,1.6,0.9,4.8-2.3,6.1  c-2.7,1.2-8.5,2.8-11.2,3.8c0.7,2.2,2.5,8.3,4.4,12c2.2,4.6,6.1,9.5,5.2,20.3S62.5,77,62.6,85.6c0,4.1-0.4,10.3,0.8,15.5  C71.5,103.3,82.7,103.2,91,100.7z"/><path class="st3" d="M83.7,26.8c-3.1-1.3-2-4.5-2.2-6.1s-2.3-2.1-5-2.1s-5,0.4-5.1,2.1c-0.1,1.6,0.9,4.8-2.3,6.1  c-2.8,1.2-8.6,2.8-11.2,3.8c0.7,3.1,3,9,4.4,12c1.8,3.9,2.4,4.8,14.2,4.8s12.5-0.1,14.2-4.9c1-2.9,3.2-8.1,4.8-11.7  C92.8,29.8,86.6,28,83.7,26.8z"/><path class="st1" d="M95.9,38.1c1.3-3,1.9-6.3,0-7.2c-1.9-0.9-9.1-2.8-12.2-4.2c-3.1-1.3-2-4.5-2.2-6.1s-2.3-2.1-5-2.1  s-5,0.4-5.1,2.1c-0.1,1.6,0.9,4.8-2.3,6.1C66,28.1,58.8,30.1,56.9,31c-1.9,0.9-1.4,4.2,0,7.2c1.3,3,5.1,12.8,6,21.3  c0.9,8.5-5.1,13.4-5.7,23.8s0.1,15.9,4.7,17.4c8.1,2.7,20.2,2.7,29.2,0c5-1.5,5.1-7,4.5-17.4C95,72.8,89,67.9,89.9,59.4  S94.5,41.1,95.9,38.1z"/><line class="st1" x1="58" x2="45" y1="61" y2="61"/><line class="st1" x1="57.6" x2="51.6" y1="60.8" y2="54.9"/><line class="st1" x1="57.6" x2="51.6" y1="60.8" y2="66.7"/><line class="st1" x1="95" x2="107" y1="61" y2="61"/><line class="st1" x1="94.6" x2="100.5" y1="60.8" y2="66.7"/><line class="st1" x1="94.6" x2="100.5" y1="60.8" y2="54.9"/><g><g><path class="st12" d="M62.9,61.7c0.6,0.2,1.3,0.4,1.9,0.6"/><path class="st13" d="M69.8,63.3c5.3,0.8,10.5,0.7,15.7-0.4"/><path class="st12" d="M87.9,62.2c0.6-0.2,1.3-0.4,1.9-0.6"/></g></g><path class="st5" d="M39,107.9c0,1.2-1,2.1-2.1,2.1h-9.8c-1.2,0-2.1-1-2.1-2.1V20.1c0-1.2,1-2.1,2.1-2.1h9.8c1.2,0,2.1,1,2.1,2.1  V107.9z"/><path class="st1" d="M39,107.9c0,1.2-1,2.1-2.1,2.1h-9.8c-1.2,0-2.1-1-2.1-2.1V20.1c0-1.2,1-2.1,2.1-2.1h9.8c1.2,0,2.1,1,2.1,2.1  V107.9z"/><line class="st1" x1="38" x2="31" y1="99" y2="99"/><line class="st1" x1="38" x2="34" y1="92" y2="92"/><line class="st1" x1="38" x2="34" y1="84" y2="84"/><line class="st1" x1="38" x2="34" y1="77" y2="77"/><line class="st1" x1="38" x2="31" y1="69" y2="69"/><line class="st1" x1="38" x2="34" y1="62" y2="62"/><line class="st1" x1="38" x2="34" y1="54" y2="54"/><line class="st1" x1="38" x2="34" y1="47" y2="47"/><line class="st1" x1="38" x2="34" y1="33" y2="33"/><line class="st1" x1="38" x2="31" y1="40" y2="40"/></svg>