<?xml version="1.0" ?><svg data-name="Layer 1" id="Layer_1" viewBox="0 0 24 24" xmlns="http://www.w3.org/2000/svg"><defs><style>.cls-1{fill:none;stroke:#231f20;stroke-linecap:round;stroke-linejoin:round;}</style></defs><title/><polyline class="cls-1" points="2.484 17.476 2.484 19.476 3.185 19.476 3.185 21.489 4.636 21.489"/><path class="cls-1" d="M15.4646,9.4764h4.1967l1.7018,4.0063,1.6757,1.1049a1,1,0,0,1,.4375.8268v6.0621h-1.86"/><polyline class="cls-1" points="2.482 11.476 2.482 9.476 4.482 9.476"/><line class="cls-1" x1="8.5452" x2="17.7066" y1="21.4894" y2="21.4894"/><circle class="cls-1" cx="19.6613" cy="21.4268" r="1.9546"/><circle class="cls-1" cx="6.5907" cy="21.4268" r="1.9546"/><line class="cls-1" x1="3.1854" x2="23.4642" y1="19.4722" y2="19.4722"/><line class="cls-1" x1="16.4646" x2="16.4646" y1="9.4764" y2="19.4281"/><polyline class="cls-1" points="8.646 4.621 10.008 5.983 12.185 3.805"/><circle class="cls-1" cx="10.0078" cy="5.9826" r="4.519" transform="translate(-1.2991 8.8288) rotate(-45)"/><line class="cls-1" x1="5.6192" x2="1.6192" y1="15.459" y2="15.459"/><line class="cls-1" x1="0.6192" x2="6.6192" y1="13.459" y2="13.459"/><line class="cls-1" x1="19.3631" x2="16.4646" y1="13.4827" y2="13.4827"/></svg>