<?xml version="1.0" ?><svg data-name="Layer 1" id="Layer_1" viewBox="0 0 24 24" xmlns="http://www.w3.org/2000/svg"><defs><style>.cls-1{fill:none;stroke:#231f20;stroke-linecap:round;stroke-linejoin:round;}</style></defs><title/><path class="cls-1" d="M11.269,15.4965H3.3581a.8344.8344,0,0,1-.81-.8564V1.3655a.8344.8344,0,0,1,.81-.8565h8.1838a.8343.8343,0,0,1,.81.8565v9.9594"/><line class="cls-1" x1="5.0155" x2="5.0155" y1="15.4965" y2="0.509"/><path class="cls-1" d="M12.3523,7.4038a5.57,5.57,0,0,1,1.8993,2.29c.7126,1.7322-.1745,4.6944-1.4892,2.4616a26.6263,26.6263,0,0,1-1.491-3.7682,1.21,1.21,0,0,0-2.2979.7594c1.5739,4.7619,1.9234,6.9,5.31,10.45"/><rect class="cls-1" height="3.8191" transform="translate(-8.1703 13.3544) rotate(-34.5922)" width="7.148" x="13.7841" y="17.8867"/><path class="cls-1" d="M12.3523,4.3388c1.3388.5594,5.5855,2.6364,5.55,7.28-.0423,5.5117.2893,5.283.2893,5.283"/></svg>