<?xml version="1.0" ?><svg data-name="Layer 1" id="Layer_1" viewBox="0 0 24 24" xmlns="http://www.w3.org/2000/svg"><defs><style>.cls-1,.cls-2{fill:none;stroke:#231f20;stroke-linecap:round;stroke-linejoin:round;}.cls-2{stroke-width:0.8px;}</style></defs><title/><path class="cls-1" d="M20.8234,9.3212a8.7791,8.7791,0,1,0-10.48,8.6111L12.0443,23.2l1.701-5.2675A8.78,8.78,0,0,0,20.8234,9.3212Z"/><path class="cls-1" d="M7.962,6.4913l.7833,3.59-.0027.0089-.2091,1.0985a.2658.2658,0,0,0,.2611.3183h6.39"/><path class="cls-1" d="M16.1261,6.4913H7.962l.1848-.7652a.3209.3209,0,0,0-.3142-.2533H6.7135"/><path class="cls-1" d="M8.7453,10.0809l6.36-.58a.3257.3257,0,0,0,.3128-.2287l.8723-3.38"/><circle class="cls-2" cx="9.5253" cy="13.4694" r="0.6993"/><circle class="cls-2" cx="14.5253" cy="13.4694" r="0.6993"/></svg>