<?xml version="1.0" ?><svg data-name="Layer 1" id="Layer_1" viewBox="0 0 24 24" xmlns="http://www.w3.org/2000/svg"><defs><style>.cls-1{fill:none;stroke:#231f20;stroke-linecap:round;stroke-linejoin:round;}</style></defs><title/><polyline class="cls-1" points="5.162 12.531 8.405 16.012 14.42 8.73"/><path class="cls-1" d="M19.5,10.9938V5.2364a.6883.6883,0,0,0-.8789-.6551,5.736,5.736,0,0,1-1.42.1582c-1.81,0-4.43-.6632-6.6384-3.8233a.7147.7147,0,0,0-1.1275,0C6.7691,4.7312,3.0107,5.1319,1.38,4.5821a.686.686,0,0,0-.8815.6543v6.4262c0,8.97,9.2268,11.575,9.32,11.6008a.6918.6918,0,0,0,.3613,0,14.3926,14.3926,0,0,0,2.8143-1.2178"/><path class="cls-1" d="M15.2138,16.5723A1.08,1.08,0,0,0,14.11,17.6242l.4885,4.8548a1.08,1.08,0,0,0,1.1041,1.0523h5.6636A1.0805,1.0805,0,0,0,22.47,22.479l.4885-4.8548a1.0806,1.0806,0,0,0-1.1043-1.0519Z"/><path class="cls-1" d="M16.5149,16.5723V14.3616A1.9262,1.9262,0,0,1,18.5341,12.55a1.9255,1.9255,0,0,1,2.0189,1.8118v2.2107"/><line class="cls-1" x1="18.5334" x2="18.5334" y1="20.0518" y2="21.1662"/></svg>