<?xml version="1.0" ?><svg data-name="Layer 1" id="Layer_1" viewBox="0 0 24 24" xmlns="http://www.w3.org/2000/svg"><defs><style>.cls-1{fill:none;stroke:#231f20;stroke-linecap:round;stroke-linejoin:round;}</style></defs><title/><path class="cls-1" d="M4.21,3.7991A11.2786,11.2786,0,1,1,15.4594,22.5673"/><path class="cls-1" d="M13.3143,21.4716c-.2879.2109-1.6086,1.06-2.4158,1.5408a1.2046,1.2046,0,0,1-.9329.1268l-.0287-.0077a1.2452,1.2452,0,0,1-.4671-.2389A23.55,23.55,0,0,1,1.2,8.5184a1.2527,1.2527,0,0,1,.0281-.526h0a1.2047,1.2047,0,0,1,.5778-.7431c.8269-.46,2.57-1.3283,2.57-1.3283s.424-.2507.55.1481a27.0928,27.0928,0,0,0,1.3363,4.515q-.6961.9131-1.4734,1.7483a24.7133,24.7133,0,0,0,3.1991,5.5551q1.1115-.2527,2.2516-.3969a27.0941,27.0941,0,0,0,3.227,3.4152S13.7421,21.1988,13.3143,21.4716Z"/><path class="cls-1" d="M13.2824,14.472l-3.6692-.0081,2.676-2.7482s1.7574-1.5338.4748-2.9061A1.67,1.67,0,0,0,9.796,9.5"/><polyline class="cls-1" points="17.446 14.484 17.46 8.33 14.366 12.905 18.555 12.905"/></svg>