<?xml version="1.0" ?><svg data-name="Layer 1" id="Layer_1" viewBox="0 0 24 24" xmlns="http://www.w3.org/2000/svg"><defs><style>.cls-1{fill:none;stroke:#231f20;stroke-linecap:round;stroke-linejoin:round;}</style></defs><title/><rect class="cls-1" height="11" width="20" x="0.5" y="12.5"/><polyline class="cls-1" points="21.5 10.5 23.5 10.5 23.5 21.5 22.042 21.5"/><polyline class="cls-1" points="4.5 11.016 4.5 10.5 12.929 10.5"/><polyline class="cls-1" points="2.5 11.016 2.497 8.473 7.424 8.473"/><path class="cls-1" d="M8.6941,19.8816a3.2849,3.2849,0,0,0,1.83.713,1.4892,1.4892,0,0,0,1.6143-1.3189c0-.7284-.7717-1.0888-1.6143-1.3189-.8733-.2558-1.6143-.5905-1.6143-1.3189a1.4892,1.4892,0,0,1,1.6143-1.3189,1.7036,1.7036,0,0,1,1.4022.665"/><line class="cls-1" x1="10.5239" x2="10.5239" y1="14.598" y2="21.3153"/><circle class="cls-1" cx="17.3315" cy="6.9901" r="3.9868" transform="translate(7.5175 22.8938) rotate(-80.2868)"/><path class="cls-1" d="M15.9767,8.2192a2.2021,2.2021,0,0,0,1.1657.7383,1.06,1.06,0,0,0,1.2733-.7787c.0916-.5349-.3926-.89-.9418-1.1579-.5669-.29-1.0332-.6231-.9417-1.1579a1.06,1.06,0,0,1,1.2732-.7788,1.16,1.16,0,0,1,.8785.653"/><line class="cls-1" x1="17.896" x2="17.8054" y1="4.5552" y2="5.0842"/><line class="cls-1" x1="17.1424" x2="17.0518" y1="8.9575" y2="9.4866"/><path class="cls-1" d="M13.4452,7.8826a3.9863,3.9863,0,1,1,1.7665-4.3008"/><path class="cls-1" d="M9.98,5.735a2.2021,2.2021,0,0,0,1.1677.7351,1.06,1.06,0,0,0,1.2712-.7821c.09-.5351-.395-.8889-.9449-1.1554-.5677-.2888-1.0349-.62-.9448-1.1553A1.06,1.06,0,0,1,11.8,2.595a1.16,1.16,0,0,1,.88.6506"/><line class="cls-1" x1="11.8894" x2="11.8002" y1="2.0657" y2="2.595"/><line class="cls-1" x1="11.1478" x2="11.0586" y1="6.4701" y2="6.9995"/><path class="cls-1" d="M.5,20.5215A3.0332,3.0332,0,0,1,3.5851,23.5"/><path class="cls-1" d="M17.319,23.5a3.0332,3.0332,0,0,1,3.0851-2.9785"/><path class="cls-1" d="M20.4041,15.5392a3.0332,3.0332,0,0,1-3.0851-2.9785"/><path class="cls-1" d="M3.5851,12.5607A3.0332,3.0332,0,0,1,.5,15.5392"/></svg>