<?xml version="1.0" ?><svg data-name="Layer 1" id="Layer_1" viewBox="0 0 24 24" xmlns="http://www.w3.org/2000/svg"><defs><style>.cls-1{fill:none;stroke:#231f20;stroke-linecap:round;stroke-linejoin:round;}</style></defs><title/><path class="cls-1" d="M18.8022.7739,17.724,2.2459a.2.2,0,0,1-.3231-.0006L16.3262.7663a.2.2,0,0,0-.3234,0L14.9288,2.2385a.2.2,0,0,1-.3226.0007L13.5335.7829A.2.2,0,0,0,13.21.7845L12.1345,2.2772a.2.2,0,0,1-.3233.0016L10.7076.78a.2.2,0,0,0-.3224,0L9.3115,2.2459a.2.2,0,0,1-.3231-.0006L7.9138.7663a.2.2,0,0,0-.3234,0L6.5163,2.2385a.2.2,0,0,1-.3226.0007L5.1176.7782A.2.2,0,0,0,4.7967.7765L3.5,2.5v21H20.4709V2.5L19.1213.7692A.2.2,0,0,0,18.8022.7739Z"/><line class="cls-1" x1="6.4847" x2="13.4945" y1="19.5245" y2="19.5245"/><line class="cls-1" x1="6.4847" x2="13.4945" y1="16.5242" y2="16.5242"/><line class="cls-1" x1="16.4847" x2="17.4945" y1="19.5245" y2="19.5245"/><line class="cls-1" x1="16.4847" x2="17.4945" y1="16.5242" y2="16.5242"/><path class="cls-1" d="M6.8847,11.2019a2.65,2.65,0,0,0,1.5329.6392A1.2759,1.2759,0,0,0,9.77,10.6587c0-.653-.6465-.976-1.3523-1.1824C7.686,9.2471,7.0652,8.947,7.0652,8.294A1.276,1.276,0,0,1,8.4176,7.1116a1.3954,1.3954,0,0,1,1.1747.5961"/><line class="cls-1" x1="8.4176" x2="8.4176" y1="6.4654" y2="7.1116"/><line class="cls-1" x1="8.4176" x2="8.4176" y1="11.841" y2="12.4872"/></svg>