<?xml version="1.0" ?><svg data-name="Layer 1" id="Layer_1" viewBox="0 0 24 24" xmlns="http://www.w3.org/2000/svg"><defs><style>.cls-1{fill:none;stroke:#231f20;stroke-linecap:round;stroke-linejoin:round;}</style></defs><title/><polygon class="cls-1" points="5.466 4.377 5.466 12.496 10.511 12.496 10.511 4.377 10.501 4.377 9.663 3.627 8.826 4.377 7.988 3.627 7.15 4.377 6.313 3.627 5.475 4.377 5.466 4.377"/><line class="cls-1" x1="7.4571" x2="8.4852" y1="8.4807" y2="8.4807"/><line class="cls-1" x1="7.4571" x2="8.4852" y1="10.4809" y2="10.4809"/><line class="cls-1" x1="4.9108" x2="11.0658" y1="12.4965" y2="12.4965"/><line class="cls-1" x1="14.4991" x2="14.4991" y1="10.5003" y2="10.5003"/><line class="cls-1" x1="16.4993" x2="16.4993" y1="10.5003" y2="10.5003"/><line class="cls-1" x1="18.4995" x2="18.4995" y1="10.5003" y2="10.5003"/><line class="cls-1" x1="14.4991" x2="14.4991" y1="12.5003" y2="12.5003"/><line class="cls-1" x1="16.4993" x2="16.4993" y1="12.5003" y2="12.5003"/><line class="cls-1" x1="18.4995" x2="18.4995" y1="12.5003" y2="12.5003"/><line class="cls-1" x1="14.4991" x2="14.4991" y1="14.5003" y2="14.5003"/><line class="cls-1" x1="16.4993" x2="16.4993" y1="14.5003" y2="14.5003"/><line class="cls-1" x1="18.4995" x2="18.4995" y1="14.5003" y2="14.5003"/><line class="cls-1" x1="18.4679" x2="17.5001" y1="16.5" y2="16.5"/><line class="cls-1" x1="12.4929" x2="11.5251" y1="21.5" y2="21.5"/><line class="cls-1" x1="15.4679" x2="14.5001" y1="16.5" y2="16.5"/><path class="cls-1" d="M.5,19.5h23a0,0,0,0,1,0,0v3a1,1,0,0,1-1,1H1.5a1,1,0,0,1-1-1v-3A0,0,0,0,1,.5,19.5Z"/><path class="cls-1" d="M3.5407,7.9693C1.5842,10.0754,1.5,17.5,1.5,17.5"/><path class="cls-1" d="M22.5,17.5S22.39,7.4965,19.5009,7.4965H12.4928"/><rect class="cls-1" height="3" width="6" x="13.5" y="1.5"/><line class="cls-1" x1="16.4679" x2="16.4679" y1="4.5" y2="6.0498"/></svg>