<?xml version="1.0" ?><svg data-name="Layer 1" id="Layer_1" viewBox="0 0 24 24" xmlns="http://www.w3.org/2000/svg"><defs><style>.cls-1,.cls-2{fill:none;stroke:#231f20;stroke-linecap:round;stroke-linejoin:round;}.cls-1{stroke-dasharray:0.5 2.5;}</style></defs><title/><line class="cls-1" x1="5.5136" x2="18.5337" y1="3.513" y2="3.513"/><polygon class="cls-2" points="17.27 6.512 22.503 6.512 22.503 0.513 1.503 0.513 1.503 6.512 13.503 6.512 13.503 9.427 17.27 6.512"/><path class="cls-2" d="M15.061,20.7117c-2.2288-.8809-4.7031-1.9747-4.911-2.6563V17.34a4.5543,4.5543,0,0,0,1.0428-1.9482,1.1749,1.1749,0,0,0,.2183-1.68V12.1115c0-1.6524-.9-2.7835-2.9565-2.7835-2.0037,0-2.9576,1.1311-2.9576,2.7835v1.6012a1.1754,1.1754,0,0,0,.2183,1.6791A4.5518,4.5518,0,0,0,6.7586,17.34v.715c-.2074.6808-2.6822,1.7748-4.911,2.6563a.5091.5091,0,0,0-.3157.4756v1.7882a.5.5,0,0,0,.49.509h12.864a.5.5,0,0,0,.49-.509V21.1873A.5086.5086,0,0,0,15.061,20.7117Z"/><path class="cls-2" d="M17.1192,23.4846h3.9738a.3875.3875,0,0,0,.3844-.39V21.7239a.39.39,0,0,0-.2474-.3645c-1.7471-.6751-3.6865-1.5135-3.8495-2.0359v-.548a3.4676,3.4676,0,0,0,.8174-1.4932.888.888,0,0,0,.1711-1.2876V14.7679c0-1.2664-.7052-2.1334-2.3174-2.1334a2.0269,2.0269,0,0,0-2.3183,2.1334v1.2272a.8884.8884,0,0,0,.1711,1.2869,3.4657,3.4657,0,0,0,.8178,1.4934"/></svg>