<?xml version="1.0" ?><svg data-name="Layer 1" id="Layer_1" viewBox="0 0 24 24" xmlns="http://www.w3.org/2000/svg"><defs><style>.cls-1{fill:none;stroke:#231f20;stroke-linecap:round;stroke-linejoin:round;}</style></defs><title/><path class="cls-1" d="M11.8476,21.2467a.2717.2717,0,0,1,.3021,0c1.8418,1.2014,2.5093,1.9481,3.4021,1.6577.8562-.2772.929-1.1106,1.7834-3.3355a.2717.2717,0,0,1,.2443-.1778c2.3914-.12,3.1973.068,3.7263-.6578.5307-.729.0976-1.45-.5172-3.7477a.2717.2717,0,0,1,.0931-.2874c1.8645-1.5044,2.6273-1.8247,2.6281-2.7227.001-.9016-.7722-1.23-2.6214-2.7277A.2718.2718,0,0,1,20.795,8.96c.6238-2.3108,1.0525-3.02.5258-3.7473-.53-.73-1.3451-.5409-3.7242-.6662a.2717.2717,0,0,1-.2446-.1774c-.8548-2.24-.9233-3.0623-1.7773-3.3407-.8549-.2807-1.4156.36-3.4041,1.65a.2717.2717,0,0,1-.3021,0c-1.84-1.2-2.512-1.9488-3.4026-1.6577-.8562.2769-.9295,1.1136-1.7833,3.3355a.2717.2717,0,0,1-.2443.1778c-2.3923.1206-3.1972-.0679-3.7265.6578-.531.7289-.0972,1.4521.5174,3.7476a.2717.2717,0,0,1-.0931.2875C1.2747,10.729.5088,11.0524.5079,11.9505c-.0012.9017.7752,1.2318,2.6216,2.7278a.2717.2717,0,0,1,.0936.2873c-.6233,2.3086-1.0529,3.02-.526,3.7471.53.73,1.3464.5413,3.7242.6661a.2718.2718,0,0,1,.2446.1774c.8536,2.2375.9233,3.0615,1.7771,3.3409C9.3007,23.1758,9.8556,22.54,11.8476,21.2467Z"/><line class="cls-1" x1="5.7044" x2="5.7044" y1="13.6947" y2="10.5867"/><path class="cls-1" d="M8.2868,13.6947V11.8208a1.1516,1.1516,0,0,0-1.1655-1.2341,1.4587,1.4587,0,0,0-1.4168,1.2112"/><path class="cls-1" d="M12.7746,13.193a1.52,1.52,0,0,1-2.6848-1.08,1.5356,1.5356,0,0,1,1.4266-1.6252,1.5356,1.5356,0,0,1,1.4266,1.6252H10.09"/><polyline class="cls-1" points="14.31 10.587 15.471 13.695 16.614 10.587 17.776 13.695 18.92 10.587"/></svg>