<?xml version="1.0" ?><svg data-name="Layer 1" id="Layer_1" viewBox="0 0 24 24" xmlns="http://www.w3.org/2000/svg"><defs><style>.cls-1{fill:none;stroke:#231f20;stroke-linecap:round;stroke-linejoin:round;}</style></defs><title/><polyline class="cls-1" points="21.477 11.536 21.477 23.484 2.533 23.484 2.533 11.536"/><rect class="cls-1" height="9.9734" width="2.9882" x="6.521" y="13.5108"/><rect class="cls-1" height="9.9734" width="2.9882" x="9.521" y="13.5108"/><rect class="cls-1" height="2.971" width="2.9661" x="15.5479" y="13.5331"/><path class="cls-1" d="M3.5035,3.5511.9042,6.8159a1.008,1.008,0,0,0-.2285.8613,2.2814,2.2814,0,0,0,4.49-.5553,2.2725,2.2725,0,0,0,4.5448-.0211A2.273,2.273,0,0,0,14.2566,7.08a2.2725,2.2725,0,0,0,4.5448-.0211,2.2817,2.2817,0,0,0,4.4956.5136,1.0082,1.0082,0,0,0-.2365-.8591L20.4844,3.4746Z"/><polyline class="cls-1" points="3.476 3.551 3.467 1.565 20.466 1.488 20.475 3.474"/></svg>