<?xml version="1.0" ?><svg data-name="Layer 1" id="Layer_1" viewBox="0 0 24 24" xmlns="http://www.w3.org/2000/svg"><defs><style>.cls-1{fill:none;stroke:#231f20;stroke-linecap:round;stroke-linejoin:round;}</style></defs><title/><polyline class="cls-1" points="2.484 18.476 2.484 19.476 3.185 19.476 3.185 21.489 4.636 21.489"/><line class="cls-1" x1="8.5452" x2="17.7066" y1="21.4894" y2="21.4894"/><circle class="cls-1" cx="19.6613" cy="21.4268" r="1.9546"/><circle class="cls-1" cx="6.5907" cy="21.4268" r="1.9546"/><line class="cls-1" x1="3.1854" x2="23.4642" y1="19.4722" y2="19.4722"/><line class="cls-1" x1="16.4646" x2="16.4646" y1="9.4764" y2="19.4281"/><path class="cls-1" d="M4.1668,16.4635V12.4907H5.3883a.9814.9814,0,0,1,1.0458,1.0267A1.0585,1.0585,0,0,1,5.3883,14.64l-1.2215.0033"/><polyline class="cls-1" points="0.484 16.464 0.484 12.491 2.541 12.491"/><line class="cls-1" x1="0.4841" x2="2.2282" y1="14.4771" y2="14.4771"/><polyline class="cls-1" points="14.398 12.491 12.555 12.491 12.555 16.464 14.398 16.464"/><line class="cls-1" x1="12.5546" x2="14.1181" y1="14.4771" y2="14.4771"/><polyline class="cls-1" points="10.398 12.491 8.554 12.491 8.554 16.464 10.398 16.464"/><line class="cls-1" x1="8.5542" x2="10.1177" y1="14.4771" y2="14.4771"/><line class="cls-1" x1="5.3883" x2="6.4572" y1="14.64" y2="16.4635"/><path class="cls-1" d="M21.616,21.4765h1.86V15.4144a1,1,0,0,0-.4375-.8268l-1.6757-1.105L19.6613,9.4764H2.4816v1"/><line class="cls-1" x1="19.3631" x2="16.4646" y1="13.4827" y2="13.4827"/></svg>