<?xml version="1.0" ?><svg data-name="Layer 1" id="Layer_1" viewBox="0 0 24 24" xmlns="http://www.w3.org/2000/svg"><defs><style>.cls-1{fill:none;stroke:#231f20;stroke-linecap:round;stroke-linejoin:round;}</style></defs><title/><path class="cls-1" d="M15.27,17.5134h7.2332a1,1,0,0,0,1-1v-15a1,1,0,0,0-1-1h-21a1,1,0,0,0-1,1v15a1,1,0,0,0,1,1H8.5021L11.93,22.5063Z"/><path class="cls-1" d="M15.4661,6.35a2.216,2.216,0,0,0-3.4634.6162A2.216,2.216,0,0,0,8.5393,6.35a2.3235,2.3235,0,0,0-.0049,3.2353,26.0978,26.0978,0,0,0,3.2933,3.0533.2793.2793,0,0,0,.35,0A26.0964,26.0964,0,0,0,15.471,9.5854,2.3235,2.3235,0,0,0,15.4661,6.35Z"/></svg>