<?xml version="1.0" ?><svg data-name="Layer 1" id="Layer_1" viewBox="0 0 24 24" xmlns="http://www.w3.org/2000/svg"><defs><style>.cls-1,.cls-2{fill:none;stroke:#231f20;stroke-linecap:round;stroke-linejoin:round;}.cls-2{stroke-width:0.8px;}</style></defs><title/><line class="cls-1" x1="9.6192" x2="4.6192" y1="12.459" y2="12.459"/><line class="cls-1" x1="3.6192" x2="10.6192" y1="10.459" y2="10.459"/><path class="cls-1" d="M12.962,9.4913l.7833,3.59-.0027.0089-.2091,1.0985a.2658.2658,0,0,0,.2611.3183h6.39"/><path class="cls-1" d="M21.1261,9.4913H12.962l.1848-.7652a.3209.3209,0,0,0-.3142-.2533H11.7135"/><path class="cls-1" d="M13.7453,13.0809l6.36-.58a.3257.3257,0,0,0,.3128-.2287l.8723-3.38"/><line class="cls-1" x1="12.0002" x2="12.0002" y1="21.9423" y2="21.9423"/><path class="cls-1" d="M18.5,7.5108V2.4779A2.0377,2.0377,0,0,0,16.4682.4466H7.5324A2.0377,2.0377,0,0,0,5.5006,2.4779V21.4506a2.037,2.037,0,0,0,2.0317,2.031h8.9359A2.037,2.037,0,0,0,18.5,21.4506l.0093-2.9767"/><line class="cls-1" x1="5.5092" x2="18.5092" y1="3.4729" y2="3.4729"/><line class="cls-1" x1="5.5092" x2="18.5092" y1="20.4739" y2="20.4739"/><circle class="cls-2" cx="14.5253" cy="16.4694" r="0.6993"/><circle class="cls-2" cx="19.5253" cy="16.4694" r="0.6993"/></svg>