<?xml version="1.0" ?><svg data-name="Layer 1" id="Layer_1" viewBox="0 0 24 24" xmlns="http://www.w3.org/2000/svg"><defs><style>.cls-1{fill:none;stroke:#231f20;stroke-linecap:round;stroke-linejoin:round;}</style></defs><title/><path class="cls-1" d="M10.4389,16.4464V13.417l6.9573,4.9612-6.9573,5.04V20.4468S2.2015,19.67,2.2015,11.0191C2.2015,11.0191,3.309,17.4465,10.4389,16.4464Z"/><path class="cls-1" d="M2.2615,9.5335A9.8136,9.8136,0,1,1,18.8656,17.65"/><path class="cls-1" d="M12.0669.8115c2.71,0,4.9066,4.3935,4.9066,9.8131a17.7067,17.7067,0,0,1-.7056,5.0727"/><path class="cls-1" d="M11.9862.8115c-2.71,0-4.9066,4.3935-4.9066,9.8131a18.1486,18.1486,0,0,0,.5361,4.4648"/><line class="cls-1" x1="12.0146" x2="12.0146" y1="0.8115" y2="12.8417"/><line class="cls-1" x1="21.8197" x2="3.5356" y1="11.0191" y2="11.0191"/><line class="cls-1" x1="20.9116" x2="3.1176" y1="6.4807" y2="6.4807"/><line class="cls-1" x1="20.5433" x2="16.3313" y1="15.4816" y2="15.4816"/></svg>