<?xml version="1.0" ?><svg data-name="Layer 1" id="Layer_1" viewBox="0 0 24 24" xmlns="http://www.w3.org/2000/svg"><defs><style>.cls-1,.cls-2{fill:none;stroke:#231f20;stroke-linecap:round;stroke-linejoin:round;}.cls-2{stroke-dasharray:0.01 1.99;}</style></defs><title/><path class="cls-1" d="M6.4707,14.6177a5.2939,5.2939,0,0,0-.8535,4.5552"/><path class="cls-1" d="M6.2833,19.8532s-.6159-.9993,1.8018-3.0979c.8591-.7457,2.2139-1.9131,3.5316-3.2794"/><path class="cls-1" d="M9.5866,13.4758h12.722a1.1052,1.1052,0,0,0,1.1359-1.0722V1.5766A1.1054,1.1054,0,0,0,22.3086.5044H3.6038A1.1054,1.1054,0,0,0,2.4679,1.5766V5.8314"/><path class="cls-1" d="M2.4679,9.8744v2.5292a1.1053,1.1053,0,0,0,1.1359,1.0722H5.3185"/><circle class="cls-1" cx="4.3436" cy="21.0906" r="2.3023"/><ellipse class="cls-1" cx="14.2238" cy="4.8729" rx="0.7977" ry="0.969"/><ellipse class="cls-1" cx="18.5346" cy="8.9849" rx="0.7977" ry="0.969"/><line class="cls-1" x1="18.5346" x2="14.2211" y1="3.9966" y2="9.9539"/><line class="cls-2" x1="9.4679" x2="9.4679" y1="0.5044" y2="12.4758"/><path class="cls-1" d="M10.6525,19.8532s.6159-.9993-1.8018-3.0979C6.3811,14.6117-.1832,8.9846,1.807,5.162h0s6.8565,6.8946,8.5748,9.3349a5.3254,5.3254,0,0,1,.9367,4.676"/><circle class="cls-1" cx="12.5922" cy="21.0906" r="2.3023"/></svg>