<?xml version="1.0" ?><svg data-name="Layer 1" id="Layer_1" viewBox="0 0 24 24" xmlns="http://www.w3.org/2000/svg"><defs><style>.cls-1{fill:none;stroke:#231f20;stroke-linecap:round;stroke-linejoin:round;}</style></defs><title/><polyline class="cls-1" points="3.498 13.177 3.498 23.505 20.426 23.505 20.426 13.177"/><rect class="cls-1" height="3.9736" width="19.0588" x="2.4329" y="7.5747"/><line class="cls-1" x1="11.9623" x2="11.9623" y1="23.5048" y2="7.5747"/><path class="cls-1" d="M14.231,2.5h0A2.269,2.269,0,0,1,16.5,4.769v.462A2.269,2.269,0,0,1,14.231,7.5H11.962a0,0,0,0,1,0,0V4.769A2.269,2.269,0,0,1,14.231,2.5Z"/><path class="cls-1" d="M9.6929,7.5a2.269,2.269,0,0,1-2.269-2.269V4.769A2.269,2.269,0,0,1,9.6929,2.5h0a2.2584,2.2584,0,0,1,1.1766.3285"/></svg>