<?xml version="1.0" ?><svg data-name="Layer 1" id="Layer_1" viewBox="0 0 24 24" xmlns="http://www.w3.org/2000/svg"><defs><style>.cls-1{fill:none;stroke:#231f20;stroke-linecap:round;stroke-linejoin:round;}</style></defs><title/><path class="cls-1" d="M6.4942,6.4866H3.9607L4.45,4.1951a.85.85,0,0,0-.8321-.6708H.6539"/><line class="cls-1" x1="22.9348" x2="20.4942" y1="6.4866" y2="6.4866"/><path class="cls-1" d="M6.0354,15.5785,20.23,14.0427a.85.85,0,0,0,.8285-.6546l2.31-8.4871"/><ellipse class="cls-1" cx="7.0022" cy="21.8985" rx="1.5157" ry="1.5095"/><ellipse class="cls-1" cx="18.9267" cy="21.8985" rx="1.5158" ry="1.5095"/><path class="cls-1" d="M3.9607,6.4866l2.0747,9.0919c-.0018.008-.0057.0153-.0073.0236l-.5538,1.9694a.7039.7039,0,0,0,.6914.843H20.4425"/><circle class="cls-1" cx="13.4901" cy="5.493" r="5.0362"/><polyline class="cls-1" points="11.07 5.785 12.654 7.485 15.591 3.929"/></svg>