<?xml version="1.0" ?><svg data-name="Layer 1" id="Layer_1" viewBox="0 0 24 24" xmlns="http://www.w3.org/2000/svg"><defs><style>.cls-1{fill:none;stroke:#231f20;stroke-linecap:round;stroke-linejoin:round;}</style></defs><title/><path class="cls-1" d="M.5328,1.7788.801,9.4744a1.1671,1.1671,0,0,0,.3411.7846L14.0212,23.138a1.1671,1.1671,0,0,0,1.6505,0l7.4274-7.4274a1.1671,1.1671,0,0,0,0-1.6505L10.22,1.1811A1.1671,1.1671,0,0,0,9.4354.84L1.74.5718A1.1671,1.1671,0,0,0,.5328,1.7788Z"/><path class="cls-1" d="M4.7394,16.1279l2.2085,6.4045a1.1671,1.1671,0,0,0,1.4838.7229l2.4866-.8574"/><circle class="cls-1" cx="5.4816" cy="5.5206" r="1.8178" transform="translate(-2.2981 5.493) rotate(-45)"/></svg>