<?xml version="1.0" ?><svg data-name="Layer 1" id="Layer_1" viewBox="0 0 24 24" xmlns="http://www.w3.org/2000/svg"><defs><style>.cls-1{fill:none;stroke:#231f20;stroke-linecap:round;stroke-linejoin:round;}</style></defs><title/><path class="cls-1" d="M5.699,14.2008l.3186,1.3777c-.0018.008-.0057.0153-.0073.0236l-.5538,1.9694a.7039.7039,0,0,0,.6914.843H20.4247"/><path class="cls-1" d="M22.917,6.4866H3.9429l.4894-2.2915A.85.85,0,0,0,3.6,3.5243H.6361"/><path class="cls-1" d="M6.0176,15.5785l14.1949-1.5358a.85.85,0,0,0,.8285-.6546l2.31-8.4871"/><ellipse class="cls-1" cx="6.9844" cy="21.8985" rx="1.5157" ry="1.5095"/><ellipse class="cls-1" cx="18.9089" cy="21.8985" rx="1.5158" ry="1.5095"/><line class="cls-1" x1="2.162" x2="9.2361" y1="10.487" y2="10.487"/><line class="cls-1" x1="1.1619" x2="8.236" y1="12.4872" y2="12.4872"/><line class="cls-1" x1="3.9429" x2="4.3908" y1="6.4866" y2="8.4876"/></svg>