<?xml version="1.0" ?><svg id="Layer_1" style="enable-background:new 0 0 128 128;" version="1.1" viewBox="0 0 128 128" xml:space="preserve" xmlns="http://www.w3.org/2000/svg" xmlns:xlink="http://www.w3.org/1999/xlink"><style type="text/css">
	.st0{opacity:0.1;fill:#303C63;}
	.st1{display:none;}
	
		.st2{display:inline;opacity:0.1;fill:none;stroke:#303C63;stroke-width:2;stroke-linecap:round;stroke-linejoin:round;stroke-miterlimit:10;}
	.st3{display:inline;opacity:0.1;fill:#303C63;}
	.st4{display:inline;opacity:0.1;}
	.st5{fill:none;stroke:#303C63;stroke-width:2;stroke-linecap:round;stroke-linejoin:round;stroke-miterlimit:10;}
	.st6{fill:#E0534F;}
	.st7{fill:#FFFFFF;}
	.st8{fill:#E2E2E2;}
	.st9{fill:#F1DD6F;}
	.st10{fill:#EAC74B;}
	.st11{fill:none;stroke:#EAC74B;stroke-width:6;stroke-linecap:round;stroke-linejoin:round;stroke-miterlimit:10;}
	.st12{fill:#6DC392;}
	.st13{fill:#5AA579;}
	.st14{fill:#F26A63;}
	.st15{fill:#B7B7B7;}
	.st16{fill:#88C6ED;}
	.st17{fill:none;stroke:#AFDDF3;stroke-linecap:round;stroke-miterlimit:10;}
	.st18{fill:none;stroke:#EAC74B;stroke-width:2;stroke-linecap:round;stroke-linejoin:round;stroke-miterlimit:10;}
	.st19{fill:none;stroke:#EAC74B;stroke-width:4;stroke-linecap:round;stroke-linejoin:round;stroke-miterlimit:10;}
	.st20{fill:none;stroke:#E0534F;stroke-width:2;stroke-miterlimit:10;}
	.st21{opacity:0.1;fill:none;stroke:#303C63;stroke-width:2;stroke-linecap:round;stroke-linejoin:round;stroke-miterlimit:10;}
	.st22{fill:#303C63;}
	.st23{fill:none;stroke:#2C3E50;stroke-width:2;stroke-linecap:round;stroke-linejoin:round;stroke-miterlimit:10;}
	.st24{opacity:0.1;}
	
		.st25{fill:none;stroke:#303C63;stroke-width:2;stroke-linecap:round;stroke-linejoin:round;stroke-miterlimit:10;stroke-dasharray:4,5;}
	.st26{fill:none;stroke:#F26A63;stroke-width:2;stroke-linecap:round;stroke-linejoin:round;}
	.st27{fill:none;stroke:#F26A63;stroke-width:2;stroke-linecap:round;stroke-linejoin:round;stroke-dasharray:3.7902,4.7377;}
	.st28{fill:none;stroke:#FFFFFF;stroke-width:4;stroke-linecap:round;stroke-linejoin:round;stroke-miterlimit:10;}
	.st29{fill:#FAF8F2;}
	.st30{fill:#AFDDF3;}
	.st31{fill:none;stroke:#F26A63;stroke-width:4;stroke-linecap:round;stroke-linejoin:round;stroke-miterlimit:10;}
	.st32{fill:none;stroke:#FFFFFF;stroke-width:2;stroke-linecap:round;stroke-linejoin:round;stroke-miterlimit:10;}
	.st33{fill:none;stroke:#6DC392;stroke-width:2;stroke-linecap:round;stroke-linejoin:round;stroke-miterlimit:10;}
	.st34{fill:none;stroke:#303C63;stroke-width:2;stroke-linecap:round;stroke-linejoin:round;}
	.st35{fill:none;stroke:#303C63;stroke-width:2;stroke-linecap:round;stroke-linejoin:round;stroke-dasharray:3.76,4.7;}
	.st36{opacity:0.2;}
	.st37{opacity:0.2;fill:none;stroke:#303C63;stroke-width:2;stroke-linecap:round;stroke-linejoin:round;stroke-miterlimit:10;}
</style><g><circle class="st0" cx="64" cy="64" r="62.5"/></g><g class="st1"><ellipse class="st2" cx="34.1" cy="9.5" rx="2" ry="2" transform="matrix(0.8579 -0.5138 0.5138 0.8579 -4.555654e-02 18.8989)"/><rect class="st2" height="5.1" transform="matrix(0.5138 0.8579 -0.8579 0.5138 43.7307 12.4703)" width="5.1" x="8.3" y="42.2"/><ellipse class="st3" cx="16" cy="23.6" rx="2" ry="2" transform="matrix(0.8579 -0.5138 0.5138 0.8579 -9.8239 11.5825)"/><ellipse class="st3" cx="11.4" cy="76.8" rx="2" ry="2" transform="matrix(0.8579 -0.5138 0.5138 0.8579 -37.8533 16.7612)"/><g class="st4"><line class="st5" x1="26.9" x2="29" y1="28.9" y2="36.1"/><line class="st5" x1="31.5" x2="24.3" y1="31.5" y2="33.5"/></g><circle class="st2" cx="117" cy="93.5" r="2"/><circle class="st3" cx="51" cy="21.3" r="2"/><g class="st4"><line class="st5" x1="99.9" x2="107.1" y1="21.6" y2="23.5"/><line class="st5" x1="104.5" x2="102.5" y1="18.9" y2="26.2"/></g><polygon class="st2" points="70.2,21.3 66.3,13.4 75,14  "/><circle class="st3" cx="91.8" cy="13" r="2"/><circle class="st3" cx="116.8" cy="34" r="2"/></g><line class="st5" x1="117" x2="122" y1="110" y2="110"/><g><rect class="st12" height="29" width="51" x="8" y="81"/><polyline class="st5" points="53,110 8,110 8,81 59,81 59,105  "/><path class="st13" d="M18.5,106c0-4-1.5-6.5-5.5-6.5v-9c4,0,5.5-2.5,5.5-5.5h30c0,3,2.5,5.5,5.5,5.5v9c-3,0-5.5,2.5-5.5,6.5H18.5z"/><circle class="st7" cx="33.5" cy="95" r="5.8"/><circle class="st5" cx="33.5" cy="95" r="5.8"/><path class="st5" d="M25,106h23.5c0-4,2.5-6.5,5.5-6.5v-9c-3,0-5.7-2.4-5.7-5.8"/><path class="st5" d="M42,85H18.5c0,3-1.5,5.5-5.5,5.5v9c4,0,5.4,2.9,5.4,6.2"/><line class="st5" x1="27" x2="21" y1="95" y2="95"/><line class="st5" x1="46" x2="40" y1="95" y2="95"/></g><rect class="st7" height="84" width="69" x="43" y="26"/><polyline class="st5" points="55,110 43,110 43,26 112,26 112,110 64,110 "/><line class="st5" x1="51" x2="105" y1="68" y2="68"/><rect class="st9" height="23" width="9" x="58" y="45"/><rect class="st5" height="23" width="9" x="58" y="45"/><rect class="st14" height="16" width="9" x="73" y="52"/><rect class="st5" height="16" width="9" x="73" y="52"/><rect class="st10" height="30" width="9" x="88" y="38"/><rect class="st5" height="30" width="9" x="88" y="38"/><g><line class="st21" x1="55" x2="74" y1="79" y2="79"/><line class="st21" x1="55" x2="74" y1="85" y2="85"/><line class="st21" x1="55" x2="74" y1="91" y2="91"/><line class="st21" x1="55" x2="74" y1="97" y2="97"/><line class="st21" x1="82" x2="101" y1="79" y2="79"/><line class="st21" x1="82" x2="101" y1="85" y2="85"/><line class="st21" x1="82" x2="101" y1="91" y2="91"/><line class="st21" x1="82" x2="101" y1="97" y2="97"/></g></svg>