<?xml version="1.0" ?><svg id="Layer_1" style="enable-background:new 0 0 128 128;" version="1.1" viewBox="0 0 128 128" xml:space="preserve" xmlns="http://www.w3.org/2000/svg" xmlns:xlink="http://www.w3.org/1999/xlink"><style type="text/css">
	.st0{opacity:0.1;fill:#303C63;}
	.st1{display:none;}
	
		.st2{display:inline;opacity:0.1;fill:none;stroke:#303C63;stroke-width:2;stroke-linecap:round;stroke-linejoin:round;stroke-miterlimit:10;}
	.st3{display:inline;opacity:0.1;fill:#303C63;}
	.st4{display:inline;opacity:0.1;}
	.st5{fill:none;stroke:#303C63;stroke-width:2;stroke-linecap:round;stroke-linejoin:round;stroke-miterlimit:10;}
	.st6{fill:#E0534F;}
	.st7{fill:#FFFFFF;}
	.st8{fill:#E2E2E2;}
	.st9{fill:#F1DD6F;}
	.st10{fill:#EAC74B;}
	.st11{fill:none;stroke:#EAC74B;stroke-width:6;stroke-linecap:round;stroke-linejoin:round;stroke-miterlimit:10;}
	.st12{fill:#6DC392;}
	.st13{fill:#5AA579;}
	.st14{fill:#F26A63;}
	.st15{fill:#B7B7B7;}
	.st16{fill:#88C6ED;}
	.st17{fill:none;stroke:#AFDDF3;stroke-linecap:round;stroke-miterlimit:10;}
	.st18{fill:none;stroke:#EAC74B;stroke-width:2;stroke-linecap:round;stroke-linejoin:round;stroke-miterlimit:10;}
	.st19{fill:none;stroke:#EAC74B;stroke-width:4;stroke-linecap:round;stroke-linejoin:round;stroke-miterlimit:10;}
	.st20{fill:none;stroke:#E0534F;stroke-width:2;stroke-miterlimit:10;}
	.st21{opacity:0.1;fill:none;stroke:#303C63;stroke-width:2;stroke-linecap:round;stroke-linejoin:round;stroke-miterlimit:10;}
	.st22{fill:#303C63;}
	.st23{fill:none;stroke:#2C3E50;stroke-width:2;stroke-linecap:round;stroke-linejoin:round;stroke-miterlimit:10;}
	.st24{opacity:0.1;}
	
		.st25{fill:none;stroke:#303C63;stroke-width:2;stroke-linecap:round;stroke-linejoin:round;stroke-miterlimit:10;stroke-dasharray:4,5;}
	.st26{fill:none;stroke:#F26A63;stroke-width:2;stroke-linecap:round;stroke-linejoin:round;}
	.st27{fill:none;stroke:#F26A63;stroke-width:2;stroke-linecap:round;stroke-linejoin:round;stroke-dasharray:3.7902,4.7377;}
	.st28{fill:none;stroke:#FFFFFF;stroke-width:4;stroke-linecap:round;stroke-linejoin:round;stroke-miterlimit:10;}
	.st29{fill:#FAF8F2;}
	.st30{fill:#AFDDF3;}
	.st31{fill:none;stroke:#F26A63;stroke-width:4;stroke-linecap:round;stroke-linejoin:round;stroke-miterlimit:10;}
	.st32{fill:none;stroke:#FFFFFF;stroke-width:2;stroke-linecap:round;stroke-linejoin:round;stroke-miterlimit:10;}
	.st33{fill:none;stroke:#6DC392;stroke-width:2;stroke-linecap:round;stroke-linejoin:round;stroke-miterlimit:10;}
	.st34{fill:none;stroke:#303C63;stroke-width:2;stroke-linecap:round;stroke-linejoin:round;}
	.st35{fill:none;stroke:#303C63;stroke-width:2;stroke-linecap:round;stroke-linejoin:round;stroke-dasharray:3.76,4.7;}
	.st36{opacity:0.2;}
	.st37{opacity:0.2;fill:none;stroke:#303C63;stroke-width:2;stroke-linecap:round;stroke-linejoin:round;stroke-miterlimit:10;}
</style><g><circle class="st0" cx="64" cy="64" r="62.5"/></g><line class="st5" x1="117" x2="122" y1="110" y2="110"/><g><rect class="st13" height="29" width="51" x="16" y="63"/><rect class="st5" height="29" width="51" x="16" y="63"/><rect class="st12" height="29" width="51" x="16" y="69"/><rect class="st5" height="29" width="51" x="16" y="69"/><rect class="st13" height="29" width="51" x="16" y="75"/><rect class="st5" height="29" width="51" x="16" y="75"/><rect class="st12" height="29" width="51" x="16" y="81"/><polyline class="st5" points="44,110 16,110 16,81 67,81 67,110 50,110  "/><path class="st13" d="M26.5,106c0-4-1.5-6.5-5.5-6.5v-9c4,0,5.5-2.5,5.5-5.5h30c0,3,2.5,5.5,5.5,5.5v9c-3,0-5.5,2.5-5.5,6.5H26.5z"/><circle class="st7" cx="41.5" cy="95" r="5.8"/><circle class="st5" cx="41.5" cy="95" r="5.8"/><path class="st5" d="M33,106h23.5c0-4,2.5-6.5,5.5-6.5v-9c-3,0-5.7-2.4-5.7-5.8"/><path class="st5" d="M50,85H26.5c0,3-1.5,5.5-5.5,5.5v9c4,0,5.4,2.9,5.4,6.2"/><line class="st5" x1="35" x2="29" y1="95" y2="95"/><line class="st5" x1="54" x2="48" y1="95" y2="95"/></g><g><path class="st9" d="M55,106V74c0-2.2,1.8-4,4-4h51c2.2,0,4,1.8,4,4v32c0,2.2-1.8,4-4,4H59C56.8,110,55,108.2,55,106z"/><rect class="st22" height="9" width="59" x="55" y="77"/><path class="st5" d="M59,110c-2.2,0-4-1.8-4-4V74c0-2.2,1.8-4,4-4h51c2.2,0,4,1.8,4,4v32c0,2.2-1.8,4-4,4H59z"/><rect class="st8" height="8" width="37" x="60" y="90"/><line class="st5" x1="108" x2="100" y1="92" y2="92"/><line class="st5" x1="108" x2="100" y1="96" y2="96"/><line class="st5" x1="61" x2="86" y1="103" y2="103"/></g><g><path class="st14" d="M44.2,65.2l-8.4-30.9c-0.6-2.1,0.7-4.3,2.8-4.9L87.9,16c2.1-0.6,4.3,0.7,4.9,2.8l8.4,30.9   c0.6,2.1-0.7,4.3-2.8,4.9L49.1,68C47,68.6,44.8,67.3,44.2,65.2z"/><path class="st5" d="M49.1,68c-2.1,0.6-4.3-0.7-4.9-2.8l-8.4-30.9c-0.6-2.1,0.7-4.3,2.8-4.9L87.9,16c2.1-0.6,4.3,0.7,4.9,2.8   l8.4,30.9c0.6,2.1-0.7,4.3-2.8,4.9L49.1,68z"/><path class="st9" d="M53.8,47c0.3,1.1-0.3,2.2-1.4,2.5l-4.8,1.3c-1.1,0.3-2.2-0.3-2.5-1.4l-0.8-2.9c-0.3-1.1,0.3-2.2,1.4-2.5   l4.8-1.3c1.1-0.3,2.2,0.3,2.5,1.4L53.8,47z"/><line class="st5" x1="85.3" x2="93" y1="44.7" y2="42.6"/><line class="st5" x1="72.7" x2="80.5" y1="48.1" y2="46"/><polyline class="st5" points="60.2,51.5 60.2,51.5 67.9,49.4  "/><line class="st5" x1="47.6" x2="55.4" y1="54.9" y2="52.8"/><ellipse class="st9" cx="83.2" cy="29.5" rx="5" ry="5" transform="matrix(0.9652 -0.2616 0.2616 0.9652 -4.8082 22.8013)"/><ellipse class="st10" cx="78.4" cy="30.8" rx="5" ry="5" transform="matrix(0.9652 -0.2616 0.2616 0.9652 -5.3185 21.5843)"/><line class="st37" x1="52.8" x2="64.4" y1="58.7" y2="55.5"/><line class="st37" x1="70.2" x2="81.8" y1="54" y2="50.8"/></g><line class="st5" x1="16" x2="7.8" y1="110" y2="110"/></svg>