<?xml version="1.0" ?><svg id="Layer_1" style="enable-background:new 0 0 128 128;" version="1.1" viewBox="0 0 128 128" xml:space="preserve" xmlns="http://www.w3.org/2000/svg" xmlns:xlink="http://www.w3.org/1999/xlink"><style type="text/css">
	.st0{opacity:0.1;fill:#303C63;}
	.st1{display:none;}
	
		.st2{display:inline;opacity:0.1;fill:none;stroke:#303C63;stroke-width:2;stroke-linecap:round;stroke-linejoin:round;stroke-miterlimit:10;}
	.st3{display:inline;opacity:0.1;fill:#303C63;}
	.st4{display:inline;opacity:0.1;}
	.st5{fill:none;stroke:#303C63;stroke-width:2;stroke-linecap:round;stroke-linejoin:round;stroke-miterlimit:10;}
	.st6{fill:#E0534F;}
	.st7{fill:#FFFFFF;}
	.st8{fill:#E2E2E2;}
	.st9{fill:#F1DD6F;}
	.st10{fill:#EAC74B;}
	.st11{fill:none;stroke:#EAC74B;stroke-width:6;stroke-linecap:round;stroke-linejoin:round;stroke-miterlimit:10;}
	.st12{fill:#6DC392;}
	.st13{fill:#5AA579;}
	.st14{fill:#F26A63;}
	.st15{fill:#B7B7B7;}
	.st16{fill:#88C6ED;}
	.st17{fill:none;stroke:#AFDDF3;stroke-linecap:round;stroke-miterlimit:10;}
	.st18{fill:none;stroke:#EAC74B;stroke-width:2;stroke-linecap:round;stroke-linejoin:round;stroke-miterlimit:10;}
	.st19{fill:none;stroke:#EAC74B;stroke-width:4;stroke-linecap:round;stroke-linejoin:round;stroke-miterlimit:10;}
	.st20{fill:none;stroke:#E0534F;stroke-width:2;stroke-miterlimit:10;}
	.st21{opacity:0.1;fill:none;stroke:#303C63;stroke-width:2;stroke-linecap:round;stroke-linejoin:round;stroke-miterlimit:10;}
	.st22{fill:#303C63;}
	.st23{fill:none;stroke:#2C3E50;stroke-width:2;stroke-linecap:round;stroke-linejoin:round;stroke-miterlimit:10;}
	.st24{opacity:0.1;}
	
		.st25{fill:none;stroke:#303C63;stroke-width:2;stroke-linecap:round;stroke-linejoin:round;stroke-miterlimit:10;stroke-dasharray:4,5;}
	.st26{fill:none;stroke:#F26A63;stroke-width:2;stroke-linecap:round;stroke-linejoin:round;}
	.st27{fill:none;stroke:#F26A63;stroke-width:2;stroke-linecap:round;stroke-linejoin:round;stroke-dasharray:3.7902,4.7377;}
	.st28{fill:none;stroke:#FFFFFF;stroke-width:4;stroke-linecap:round;stroke-linejoin:round;stroke-miterlimit:10;}
	.st29{fill:#FAF8F2;}
	.st30{fill:#AFDDF3;}
	.st31{fill:none;stroke:#F26A63;stroke-width:4;stroke-linecap:round;stroke-linejoin:round;stroke-miterlimit:10;}
	.st32{fill:none;stroke:#FFFFFF;stroke-width:2;stroke-linecap:round;stroke-linejoin:round;stroke-miterlimit:10;}
	.st33{fill:none;stroke:#6DC392;stroke-width:2;stroke-linecap:round;stroke-linejoin:round;stroke-miterlimit:10;}
	.st34{fill:none;stroke:#303C63;stroke-width:2;stroke-linecap:round;stroke-linejoin:round;}
	.st35{fill:none;stroke:#303C63;stroke-width:2;stroke-linecap:round;stroke-linejoin:round;stroke-dasharray:3.76,4.7;}
	.st36{opacity:0.2;}
	.st37{opacity:0.2;fill:none;stroke:#303C63;stroke-width:2;stroke-linecap:round;stroke-linejoin:round;stroke-miterlimit:10;}
</style><g><circle class="st0" cx="64" cy="64" r="62.5"/></g><g class="st1"><ellipse class="st2" cx="41.1" cy="10.5" rx="2" ry="2" transform="matrix(0.8579 -0.5138 0.5138 0.8579 0.4353 22.6377)"/><rect class="st2" height="5.1" transform="matrix(0.5138 0.8579 -0.8579 0.5138 47.9919 6.9512)" width="5.1" x="15.3" y="43.2"/><ellipse class="st3" cx="23" cy="24.6" rx="2" ry="2" transform="matrix(0.8579 -0.5138 0.5138 0.8579 -9.343 15.3213)"/><g class="st4"><line class="st5" x1="33.9" x2="36" y1="29.9" y2="37.1"/><line class="st5" x1="38.5" x2="31.3" y1="32.5" y2="34.5"/></g><circle class="st2" cx="91.9" cy="10.4" r="2"/><rect class="st2" height="5.1" width="5.1" x="101.5" y="64.6"/><circle class="st3" cx="95.8" cy="27" r="2"/><circle class="st3" cx="116.8" cy="53" r="2"/><g class="st4"><line class="st5" x1="107" x2="114.2" y1="26.7" y2="28.7"/><line class="st5" x1="111.6" x2="109.7" y1="24.1" y2="31.3"/></g><polygon class="st2" points="59.2,24.3 55.3,16.4 64,17  "/><circle class="st3" cx="80.8" cy="16" r="2"/></g><line class="st5" x1="8" x2="31" y1="110" y2="110"/><polygon class="st8" points="110,110 103.7,110 53,110 53,46 110,46 "/><polyline class="st5" points="53,100 53,46 110,46 110,110 102,110 "/><rect class="st7" height="64" width="57" x="47" y="46"/><polyline class="st5" points="75,110 47,110 47,46 104,46 104,110 83,110 "/><path class="st10" d="M72,106c0,2.2-1.8,4-4,4H28c-2.2,0-4-1.8-4-4V66h48V106z"/><path class="st5" d="M72,106c0,2.2-1.8,4-4,4H28c-2.2,0-4-1.8-4-4V66h48V106z"/><path class="st9" d="M67,106c0,2.2-1.8,4-4,4H23c-2.2,0-4-1.8-4-4V66h48V106z"/><path class="st5" d="M67,106c0,2.2-1.8,4-4,4H23c-2.2,0-4-1.8-4-4V66h48V106z"/><path class="st14" d="M50.9,89.7c0,4.7-7.9,8.8-7.9,8.8s-7.9-4.1-7.9-8.8c0-2.5,1.5-4.7,4.3-4.7s3.7,2.2,3.7,2.2s0.9-2.2,3.7-2.2  S50.9,87.2,50.9,89.7z"/><path class="st5" d="M50.9,89.7c0,4.7-7.9,8.8-7.9,8.8s-7.9-4.1-7.9-8.8c0-2.5,1.5-4.7,4.3-4.7s3.7,2.2,3.7,2.2s0.9-2.2,3.7-2.2  S50.9,87.2,50.9,89.7z"/><g><path class="st9" d="M61,70h-4v-8c0-7.2-5.8-13-13-13c-7.2,0-13,5.8-13,13v8h-4v-8c0-9.4,7.6-17,17-17s17,7.6,17,17V70z"/></g><g><path class="st5" d="M57,70v-8c0-7.2-5.8-13-13-13c-7.2,0-13,5.8-13,13v8"/><path class="st5" d="M27,70v-8c0-9.4,7.6-17,17-17s17,7.6,17,17v8"/></g><line class="st21" x1="104" x2="72" y1="90" y2="90"/><line class="st21" x1="104" x2="72" y1="96" y2="96"/><g><path class="st7" d="M95,49h-4V30H65v19h-4V29.8c0-2.2,1.8-3.8,4-3.8h26.2c2.2,0,3.8,1.5,3.8,3.8V49z"/></g><g><path class="st5" d="M61,49V29.8c0-2.2,1.8-3.8,4-3.8h26.2c2.2,0,3.8,1.5,3.8,3.8V49"/><polyline class="st5" points="91,49 91,30 65,30 65,49  "/></g></svg>