<?xml version="1.0" ?><svg id="Layer_1" style="enable-background:new 0 0 128 128;" version="1.1" viewBox="0 0 128 128" xml:space="preserve" xmlns="http://www.w3.org/2000/svg" xmlns:xlink="http://www.w3.org/1999/xlink"><style type="text/css">
	.st0{opacity:0.1;fill:#303C63;}
	.st1{display:none;}
	
		.st2{display:inline;opacity:0.1;fill:none;stroke:#303C63;stroke-width:2;stroke-linecap:round;stroke-linejoin:round;stroke-miterlimit:10;}
	.st3{display:inline;opacity:0.1;fill:#303C63;}
	.st4{display:inline;opacity:0.1;}
	.st5{fill:none;stroke:#303C63;stroke-width:2;stroke-linecap:round;stroke-linejoin:round;stroke-miterlimit:10;}
	.st6{fill:#E0534F;}
	.st7{fill:#FFFFFF;}
	.st8{fill:#E2E2E2;}
	.st9{fill:#F1DD6F;}
	.st10{fill:#EAC74B;}
	.st11{fill:none;stroke:#EAC74B;stroke-width:6;stroke-linecap:round;stroke-linejoin:round;stroke-miterlimit:10;}
	.st12{fill:#6DC392;}
	.st13{fill:#5AA579;}
	.st14{fill:#F26A63;}
	.st15{fill:#B7B7B7;}
	.st16{fill:#88C6ED;}
	.st17{fill:none;stroke:#AFDDF3;stroke-linecap:round;stroke-miterlimit:10;}
	.st18{fill:none;stroke:#EAC74B;stroke-width:2;stroke-linecap:round;stroke-linejoin:round;stroke-miterlimit:10;}
	.st19{fill:none;stroke:#EAC74B;stroke-width:4;stroke-linecap:round;stroke-linejoin:round;stroke-miterlimit:10;}
	.st20{fill:none;stroke:#E0534F;stroke-width:2;stroke-miterlimit:10;}
	.st21{opacity:0.1;fill:none;stroke:#303C63;stroke-width:2;stroke-linecap:round;stroke-linejoin:round;stroke-miterlimit:10;}
	.st22{fill:#303C63;}
	.st23{fill:none;stroke:#2C3E50;stroke-width:2;stroke-linecap:round;stroke-linejoin:round;stroke-miterlimit:10;}
	.st24{opacity:0.1;}
	
		.st25{fill:none;stroke:#303C63;stroke-width:2;stroke-linecap:round;stroke-linejoin:round;stroke-miterlimit:10;stroke-dasharray:4,5;}
	.st26{fill:none;stroke:#F26A63;stroke-width:2;stroke-linecap:round;stroke-linejoin:round;}
	.st27{fill:none;stroke:#F26A63;stroke-width:2;stroke-linecap:round;stroke-linejoin:round;stroke-dasharray:3.7902,4.7377;}
	.st28{fill:none;stroke:#FFFFFF;stroke-width:4;stroke-linecap:round;stroke-linejoin:round;stroke-miterlimit:10;}
	.st29{fill:#FAF8F2;}
	.st30{fill:#AFDDF3;}
	.st31{fill:none;stroke:#F26A63;stroke-width:4;stroke-linecap:round;stroke-linejoin:round;stroke-miterlimit:10;}
	.st32{fill:none;stroke:#FFFFFF;stroke-width:2;stroke-linecap:round;stroke-linejoin:round;stroke-miterlimit:10;}
	.st33{fill:none;stroke:#6DC392;stroke-width:2;stroke-linecap:round;stroke-linejoin:round;stroke-miterlimit:10;}
	.st34{fill:none;stroke:#303C63;stroke-width:2;stroke-linecap:round;stroke-linejoin:round;}
	.st35{fill:none;stroke:#303C63;stroke-width:2;stroke-linecap:round;stroke-linejoin:round;stroke-dasharray:3.76,4.7;}
	.st36{opacity:0.2;}
	.st37{opacity:0.2;fill:none;stroke:#303C63;stroke-width:2;stroke-linecap:round;stroke-linejoin:round;stroke-miterlimit:10;}
</style><g><circle class="st0" cx="64" cy="64" r="62.5"/></g><line class="st5" x1="109" x2="122" y1="110" y2="110"/><rect class="st8" height="37" width="47" x="25" y="73"/><polyline class="st5" points="37,110 72,110 72,73 25,73 25,110 "/><rect class="st7" height="37" width="47" x="14" y="73"/><g><path class="st14" d="M44,89v8.5c0,4.7-3.8,8.5-8.5,8.5s-8.5-3.8-8.5-8.5c0-4.7,3.8-8.5,8.5-8.5H44z M31.9,97.6   c0,2,1.6,3.6,3.6,3.6s3.6-1.7,3.6-3.7V94h-3.5C33.5,94,31.9,95.6,31.9,97.6z"/></g><g><path class="st5" d="M44,89v8.5c0,4.7-3.8,8.5-8.5,8.5s-8.5-3.8-8.5-8.5c0-4.7,3.8-8.5,8.5-8.5H44z M31.9,97.6c0,2,1.6,3.6,3.6,3.6   s3.6-1.7,3.6-3.7V94h-3.5C33.5,94,31.9,95.6,31.9,97.6z"/></g><polygon class="st14" points="61,84 49,84 49,73 43,73 43,84 14,84 14,90 43,90 43,110 49,110 49,90 61,90 "/><polygon class="st5" points="61,84 49,84 49,73 43,73 43,84 14,84 14,90 43,90 43,110 49,110 49,90 61,90 "/><polyline class="st5" points="30,110 61,110 61,73 14,73 14,110 25,110 "/><rect class="st10" height="37" width="47" x="46" y="31"/><polyline class="st5" points="62,31 46,31 46,68 93,68 93,31 82,31 "/><rect class="st9" height="37" width="47" x="35" y="31"/><rect class="st7" height="17.7" width="28" x="35" y="43.3"/><polyline class="st5" points="35,61 35,43.3 57.5,43.3 "/><polyline class="st5" points="63,43.3 63,61 40,61 "/><polyline class="st5" points="69,31 35,31 35,68 82,68 82,31 76,31 "/><rect class="st15" height="37" width="21" x="90" y="73"/><rect class="st5" height="37" width="21" x="90" y="73"/><rect class="st8" height="37" width="21" x="79" y="73"/><rect class="st5" height="37" width="21" x="79" y="73"/><polygon class="st10" points="98,23 87,23 82,31 93,31 "/><polygon class="st10" points="41,23 30,23 35,31 46,31 "/><polygon class="st5" points="98,23 87,23 82,31 93,31 "/><polygon class="st5" points="41,23 30,23 35,31 46,31 "/><g class="st36"><path class="st5" d="M93,85.9c0,2.2-1.8,4.1-4,4.1s-4-1.7-4-3.9v-8h8V85.9z"/><line class="st5" x1="89" x2="89" y1="90" y2="94"/><line class="st5" x1="93" x2="85" y1="94" y2="94"/><polyline class="st5" points="89.9,78 88.4,81.3 89.9,82.2 89.2,84.8  "/></g><line class="st21" x1="42" x2="55" y1="50" y2="50"/><line class="st21" x1="42" x2="55" y1="55" y2="55"/><rect class="st14" height="6" width="11" x="61" y="84"/><rect class="st5" height="6" width="11" x="61" y="84"/></svg>