<?xml version="1.0" ?><svg id="Layer_1" style="enable-background:new 0 0 128 128;" version="1.1" viewBox="0 0 128 128" xml:space="preserve" xmlns="http://www.w3.org/2000/svg" xmlns:xlink="http://www.w3.org/1999/xlink"><style type="text/css">
	.st0{opacity:0.1;fill:#303C63;}
	.st1{display:none;}
	
		.st2{display:inline;opacity:0.1;fill:none;stroke:#303C63;stroke-width:2;stroke-linecap:round;stroke-linejoin:round;stroke-miterlimit:10;}
	.st3{display:inline;opacity:0.1;fill:#303C63;}
	.st4{display:inline;opacity:0.1;}
	.st5{fill:none;stroke:#303C63;stroke-width:2;stroke-linecap:round;stroke-linejoin:round;stroke-miterlimit:10;}
	.st6{fill:#E0534F;}
	.st7{fill:#FFFFFF;}
	.st8{fill:#E2E2E2;}
	.st9{fill:#F1DD6F;}
	.st10{fill:#EAC74B;}
	.st11{fill:none;stroke:#EAC74B;stroke-width:6;stroke-linecap:round;stroke-linejoin:round;stroke-miterlimit:10;}
	.st12{fill:#6DC392;}
	.st13{fill:#5AA579;}
	.st14{fill:#F26A63;}
	.st15{fill:#B7B7B7;}
	.st16{fill:#88C6ED;}
	.st17{fill:none;stroke:#AFDDF3;stroke-linecap:round;stroke-miterlimit:10;}
	.st18{fill:none;stroke:#EAC74B;stroke-width:2;stroke-linecap:round;stroke-linejoin:round;stroke-miterlimit:10;}
	.st19{fill:none;stroke:#EAC74B;stroke-width:4;stroke-linecap:round;stroke-linejoin:round;stroke-miterlimit:10;}
	.st20{fill:none;stroke:#E0534F;stroke-width:2;stroke-miterlimit:10;}
	.st21{opacity:0.1;fill:none;stroke:#303C63;stroke-width:2;stroke-linecap:round;stroke-linejoin:round;stroke-miterlimit:10;}
	.st22{fill:#303C63;}
	.st23{fill:none;stroke:#2C3E50;stroke-width:2;stroke-linecap:round;stroke-linejoin:round;stroke-miterlimit:10;}
	.st24{opacity:0.1;}
	
		.st25{fill:none;stroke:#303C63;stroke-width:2;stroke-linecap:round;stroke-linejoin:round;stroke-miterlimit:10;stroke-dasharray:4,5;}
	.st26{fill:none;stroke:#F26A63;stroke-width:2;stroke-linecap:round;stroke-linejoin:round;}
	.st27{fill:none;stroke:#F26A63;stroke-width:2;stroke-linecap:round;stroke-linejoin:round;stroke-dasharray:3.7902,4.7377;}
	.st28{fill:none;stroke:#FFFFFF;stroke-width:4;stroke-linecap:round;stroke-linejoin:round;stroke-miterlimit:10;}
	.st29{fill:#FAF8F2;}
	.st30{fill:#AFDDF3;}
	.st31{fill:none;stroke:#F26A63;stroke-width:4;stroke-linecap:round;stroke-linejoin:round;stroke-miterlimit:10;}
	.st32{fill:none;stroke:#FFFFFF;stroke-width:2;stroke-linecap:round;stroke-linejoin:round;stroke-miterlimit:10;}
	.st33{fill:none;stroke:#6DC392;stroke-width:2;stroke-linecap:round;stroke-linejoin:round;stroke-miterlimit:10;}
	.st34{fill:none;stroke:#303C63;stroke-width:2;stroke-linecap:round;stroke-linejoin:round;}
	.st35{fill:none;stroke:#303C63;stroke-width:2;stroke-linecap:round;stroke-linejoin:round;stroke-dasharray:3.76,4.7;}
	.st36{opacity:0.2;}
	.st37{opacity:0.2;fill:none;stroke:#303C63;stroke-width:2;stroke-linecap:round;stroke-linejoin:round;stroke-miterlimit:10;}
</style><g><circle class="st0" cx="64" cy="64" r="62.5"/></g><line class="st5" x1="79" x2="122" y1="110" y2="110"/><g><ellipse class="st16" cx="53.8" cy="56.6" rx="32.2" ry="32.7"/><ellipse class="st5" cx="53.8" cy="56.6" rx="32.2" ry="32.7"/><path class="st5" d="M45.3,98.7c-19.3-4-33.8-21.3-33.8-42.1c0-23.7,19-43,42.4-43c20.1,0,36.9,14.2,41.3,33.2"/><ellipse class="st5" cx="53.8" cy="56.6" rx="17.7" ry="32.7"/><line class="st5" x1="54" x2="54" y1="24" y2="89"/><line class="st5" x1="22" x2="86" y1="57" y2="57"/><line class="st5" x1="26" x2="81" y1="40" y2="40"/><line class="st5" x1="26" x2="81" y1="73" y2="73"/></g><ellipse class="st5" cx="53.8" cy="56.6" rx="32.2" ry="32.7"/><g><rect class="st15" height="9" width="71" x="51" y="95"/><polyline class="st5" points="96,104 122,104 122,95 51,95 51,104 90,104  "/><circle class="st8" cx="65.2" cy="103.7" r="6.3"/><circle class="st8" cx="108.5" cy="103.7" r="6.3"/><circle class="st22" cx="108.5" cy="103.7" r="2.4"/><circle class="st5" cx="65.2" cy="103.7" r="6.3"/><circle class="st22" cx="65.2" cy="103.7" r="2.4"/><circle class="st5" cx="108.5" cy="103.8" r="6.3"/><path class="st9" d="M88.9,62H60.6c-3.5,0-6.6,2.8-6.6,6.3V95h41V68.3C95,64.8,92.4,62,88.9,62z"/><path class="st5" d="M88.9,62H60.6c-3.5,0-6.6,2.8-6.6,6.3V95h41V68.3C95,64.8,92.4,62,88.9,62z"/><path class="st7" d="M95,95h24V80.4c0-0.7-0.3-1.3-0.7-1.9l-7.1-9.4c-0.6-0.8-1.6-1-2.6-1H98.4c-1.7,0-3.4,0.9-3.4,2.7V95z"/><path class="st5" d="M95,95h24V80.4c0-0.7-0.3-1.3-0.7-1.9l-7.1-9.4c-0.6-0.8-1.6-1-2.6-1H98.4c-1.7,0-3.4,0.9-3.4,2.7V95z"/><polygon class="st16" points="100,85 100,72 107.8,72 114,80.9 114,85  "/><polygon class="st5" points="100,85 100,72 107.8,72 114,80.9 114,85  "/><line class="st5" x1="101" x2="107" y1="89" y2="89"/></g><line class="st5" x1="95.1" x2="98" y1="46.9" y2="41.1"/><line class="st5" x1="95.1" x2="89.4" y1="46.9" y2="44"/><line class="st5" x1="65.2" x2="7" y1="110" y2="110"/></svg>