<?xml version="1.0" ?><svg id="Layer_1" style="enable-background:new 0 0 128 128;" version="1.1" viewBox="0 0 128 128" xml:space="preserve" xmlns="http://www.w3.org/2000/svg" xmlns:xlink="http://www.w3.org/1999/xlink"><style type="text/css">
	.st0{opacity:0.1;fill:#303C63;}
	.st1{display:none;}
	
		.st2{display:inline;opacity:0.1;fill:none;stroke:#303C63;stroke-width:2;stroke-linecap:round;stroke-linejoin:round;stroke-miterlimit:10;}
	.st3{display:inline;opacity:0.1;fill:#303C63;}
	.st4{display:inline;opacity:0.1;}
	.st5{fill:none;stroke:#303C63;stroke-width:2;stroke-linecap:round;stroke-linejoin:round;stroke-miterlimit:10;}
	.st6{fill:#E0534F;}
	.st7{fill:#FFFFFF;}
	.st8{fill:#E2E2E2;}
	.st9{fill:#F1DD6F;}
	.st10{fill:#EAC74B;}
	.st11{fill:none;stroke:#EAC74B;stroke-width:6;stroke-linecap:round;stroke-linejoin:round;stroke-miterlimit:10;}
	.st12{fill:#6DC392;}
	.st13{fill:#5AA579;}
	.st14{fill:#F26A63;}
	.st15{fill:#B7B7B7;}
	.st16{fill:#88C6ED;}
	.st17{fill:none;stroke:#AFDDF3;stroke-linecap:round;stroke-miterlimit:10;}
	.st18{fill:none;stroke:#EAC74B;stroke-width:2;stroke-linecap:round;stroke-linejoin:round;stroke-miterlimit:10;}
	.st19{fill:none;stroke:#EAC74B;stroke-width:4;stroke-linecap:round;stroke-linejoin:round;stroke-miterlimit:10;}
	.st20{fill:none;stroke:#E0534F;stroke-width:2;stroke-miterlimit:10;}
	.st21{opacity:0.1;fill:none;stroke:#303C63;stroke-width:2;stroke-linecap:round;stroke-linejoin:round;stroke-miterlimit:10;}
	.st22{fill:#303C63;}
	.st23{fill:none;stroke:#2C3E50;stroke-width:2;stroke-linecap:round;stroke-linejoin:round;stroke-miterlimit:10;}
	.st24{opacity:0.1;}
	
		.st25{fill:none;stroke:#303C63;stroke-width:2;stroke-linecap:round;stroke-linejoin:round;stroke-miterlimit:10;stroke-dasharray:4,5;}
	.st26{fill:none;stroke:#F26A63;stroke-width:2;stroke-linecap:round;stroke-linejoin:round;}
	.st27{fill:none;stroke:#F26A63;stroke-width:2;stroke-linecap:round;stroke-linejoin:round;stroke-dasharray:3.7902,4.7377;}
	.st28{fill:none;stroke:#FFFFFF;stroke-width:4;stroke-linecap:round;stroke-linejoin:round;stroke-miterlimit:10;}
	.st29{fill:#FAF8F2;}
	.st30{fill:#AFDDF3;}
	.st31{fill:none;stroke:#F26A63;stroke-width:4;stroke-linecap:round;stroke-linejoin:round;stroke-miterlimit:10;}
	.st32{fill:none;stroke:#FFFFFF;stroke-width:2;stroke-linecap:round;stroke-linejoin:round;stroke-miterlimit:10;}
	.st33{fill:none;stroke:#6DC392;stroke-width:2;stroke-linecap:round;stroke-linejoin:round;stroke-miterlimit:10;}
	.st34{fill:none;stroke:#303C63;stroke-width:2;stroke-linecap:round;stroke-linejoin:round;}
	.st35{fill:none;stroke:#303C63;stroke-width:2;stroke-linecap:round;stroke-linejoin:round;stroke-dasharray:3.76,4.7;}
	.st36{opacity:0.2;}
	.st37{opacity:0.2;fill:none;stroke:#303C63;stroke-width:2;stroke-linecap:round;stroke-linejoin:round;stroke-miterlimit:10;}
</style><g><circle class="st0" cx="64" cy="64" r="62.5"/></g><line class="st5" x1="116" x2="122" y1="110" y2="110"/><path class="st7" d="M113,106c0,2.2-1.8,4-4,4H21c-2.2,0-4-1.8-4-4V41c0-2.2,1.8-4,4-4h88c2.2,0,4,1.8,4,4V106z"/><path class="st8" d="M109,37H21c-2.2,0-4,1.4-4,3.6V48h96v-7.4C113,38.4,111.2,37,109,37z"/><path class="st5" d="M72,110H21c-2.2,0-4-1.8-4-4V40.6c0-2.2,1.8-3.6,4-3.6h88c2.2,0,4,1.4,4,3.6V106c0,2.2-1.8,4-4,4H81"/><line class="st5" x1="17" x2="77" y1="48" y2="48"/><circle class="st22" cx="23.8" cy="42.3" r="1.5"/><circle class="st22" cx="29.8" cy="42.3" r="1.5"/><circle class="st22" cx="35.8" cy="42.3" r="1.5"/><path class="st9" d="M9,106V74c0-2.2,1.8-4,4-4h51c2.2,0,4,1.8,4,4v32c0,2.2-1.8,4-4,4H13C10.8,110,9,108.2,9,106z"/><rect class="st22" height="9" width="59" x="9" y="76"/><path class="st5" d="M64,110c2.2,0,4-1.8,4-4V74c0-2.2-1.8-4-4-4H13c-2.2,0-4,1.8-4,4v32c0,2.2,1.8,4,4,4H64z"/><rect class="st7" height="8" width="37" x="14" y="90"/><line class="st5" x1="62" x2="57" y1="92" y2="92"/><line class="st5" x1="62" x2="57" y1="96" y2="96"/><line class="st5" x1="15" x2="40" y1="103" y2="103"/><g><circle class="st0" cx="77.6" cy="65.2" r="2.2"/><line class="st21" x1="84" x2="103" y1="65" y2="65"/><circle class="st0" cx="77.6" cy="75.2" r="2.2"/><line class="st21" x1="84" x2="103" y1="75" y2="75"/><circle class="st0" cx="77.6" cy="85.2" r="2.2"/><line class="st21" x1="84" x2="103" y1="85" y2="85"/><circle class="st0" cx="77.6" cy="95.2" r="2.2"/><line class="st21" x1="84" x2="103" y1="95" y2="95"/></g><line class="st21" x1="27" x2="62" y1="58" y2="58"/><line class="st21" x1="27" x2="40" y1="63" y2="63"/><circle class="st12" cx="98.5" cy="36.7" r="18"/><circle class="st5" cx="98.5" cy="36.7" r="18"/><polyline class="st28" points="91.3,35.6 97.5,41.8 108.1,31.1 "/></svg>