<?xml version="1.0" ?><svg id="Layer_1" style="enable-background:new 0 0 128 128;" version="1.1" viewBox="0 0 128 128" xml:space="preserve" xmlns="http://www.w3.org/2000/svg" xmlns:xlink="http://www.w3.org/1999/xlink"><style type="text/css">
	.st0{opacity:0.1;fill:#303C63;}
	.st1{display:none;}
	
		.st2{display:inline;opacity:0.1;fill:none;stroke:#303C63;stroke-width:2;stroke-linecap:round;stroke-linejoin:round;stroke-miterlimit:10;}
	.st3{display:inline;opacity:0.1;fill:#303C63;}
	.st4{display:inline;opacity:0.1;}
	.st5{fill:none;stroke:#303C63;stroke-width:2;stroke-linecap:round;stroke-linejoin:round;stroke-miterlimit:10;}
	.st6{fill:#E0534F;}
	.st7{fill:#FFFFFF;}
	.st8{fill:#E2E2E2;}
	.st9{fill:#F1DD6F;}
	.st10{fill:#EAC74B;}
	.st11{fill:none;stroke:#EAC74B;stroke-width:6;stroke-linecap:round;stroke-linejoin:round;stroke-miterlimit:10;}
	.st12{fill:#6DC392;}
	.st13{fill:#5AA579;}
	.st14{fill:#F26A63;}
	.st15{fill:#B7B7B7;}
	.st16{fill:#88C6ED;}
	.st17{fill:none;stroke:#AFDDF3;stroke-linecap:round;stroke-miterlimit:10;}
	.st18{fill:none;stroke:#EAC74B;stroke-width:2;stroke-linecap:round;stroke-linejoin:round;stroke-miterlimit:10;}
	.st19{fill:none;stroke:#EAC74B;stroke-width:4;stroke-linecap:round;stroke-linejoin:round;stroke-miterlimit:10;}
	.st20{fill:none;stroke:#E0534F;stroke-width:2;stroke-miterlimit:10;}
	.st21{opacity:0.1;fill:none;stroke:#303C63;stroke-width:2;stroke-linecap:round;stroke-linejoin:round;stroke-miterlimit:10;}
	.st22{fill:#303C63;}
	.st23{fill:none;stroke:#2C3E50;stroke-width:2;stroke-linecap:round;stroke-linejoin:round;stroke-miterlimit:10;}
	.st24{opacity:0.1;}
	
		.st25{fill:none;stroke:#303C63;stroke-width:2;stroke-linecap:round;stroke-linejoin:round;stroke-miterlimit:10;stroke-dasharray:4,5;}
	.st26{fill:none;stroke:#F26A63;stroke-width:2;stroke-linecap:round;stroke-linejoin:round;}
	.st27{fill:none;stroke:#F26A63;stroke-width:2;stroke-linecap:round;stroke-linejoin:round;stroke-dasharray:3.7902,4.7377;}
	.st28{fill:none;stroke:#FFFFFF;stroke-width:4;stroke-linecap:round;stroke-linejoin:round;stroke-miterlimit:10;}
	.st29{fill:#FAF8F2;}
	.st30{fill:#AFDDF3;}
	.st31{fill:none;stroke:#F26A63;stroke-width:4;stroke-linecap:round;stroke-linejoin:round;stroke-miterlimit:10;}
	.st32{fill:none;stroke:#FFFFFF;stroke-width:2;stroke-linecap:round;stroke-linejoin:round;stroke-miterlimit:10;}
	.st33{fill:none;stroke:#6DC392;stroke-width:2;stroke-linecap:round;stroke-linejoin:round;stroke-miterlimit:10;}
	.st34{fill:none;stroke:#303C63;stroke-width:2;stroke-linecap:round;stroke-linejoin:round;}
	.st35{fill:none;stroke:#303C63;stroke-width:2;stroke-linecap:round;stroke-linejoin:round;stroke-dasharray:3.76,4.7;}
	.st36{opacity:0.2;}
	.st37{opacity:0.2;fill:none;stroke:#303C63;stroke-width:2;stroke-linecap:round;stroke-linejoin:round;stroke-miterlimit:10;}
</style><g><circle class="st0" cx="64" cy="64" r="62.5"/></g><line class="st5" x1="71" x2="115" y1="110" y2="110"/><line class="st5" x1="78" x2="78" y1="97" y2="110"/><path class="st7" d="M96.1,41.6c1.3-2.8,1.8-5.9,0-6.7c-1.8-0.8-8.5-2.7-11.5-3.9c-2.9-1.3-1.9-4.2-2.1-5.8c-0.1-1.5-2.2-2-4.7-2  c-2.5,0-4.7,0.4-4.8,2c-0.1,1.5,0.8,4.5-2.1,5.8c-2.9,1.3-9.7,3.1-11.5,3.9c-1.8,0.8-1.3,3.9,0,6.7c1.3,2.8,4.8,12.1,5.6,20.1  s-4.8,12.6-5.3,22.5c-0.6,9.8,0.1,15,4.4,16.4c7.6,2.5,19.1,2.5,27.5,0c4.7-1.4,4.8-6.6,4.3-16.4c-0.6-9.8-6.2-14.5-5.3-22.5  C91.4,53.7,94.9,44.5,96.1,41.6z"/><path class="st15" d="M91.6,100.6c4.7-1.4,4.8-6.6,4.3-16.4c-0.6-9.8-6.2-14.5-5.3-22.5c0.8-8,4.4-17.3,5.6-20.1  c1.3-2.8,1.8-5.9,0-6.7c-1.8-0.8-8.5-2.7-11.5-3.9c-2.9-1.3-1.9-4.2-2.1-5.8c-0.1-1.5-2.2-2-4.7-2c-2.5,0-4.7,0.4-4.8,2  c-0.1,1.5,0.8,4.5-2.1,5.8c-2.6,1.1-8,2.6-10.6,3.6c0.6,2,2.4,7.8,4.1,11.3c2.1,4.4,5.8,9,4.9,19.1s-4.6,13.3-4.6,21.5  c0,3.9-0.4,9.7,0.8,14.6C73.2,103.1,83.7,102.9,91.6,100.6z"/><path class="st8" d="M84.7,31c-2.9-1.3-1.9-4.2-2.1-5.8c-0.1-1.5-2.2-2-4.7-2c-2.5,0-4.7,0.4-4.8,2c-0.1,1.5,0.8,4.5-2.1,5.8  c-2.6,1.1-8.1,2.6-10.6,3.6c0.6,2.9,2.8,8.5,4.1,11.3c1.7,3.6,2.2,4.5,13.3,4.5s11.8-0.1,13.3-4.6c0.9-2.7,3-7.6,4.5-11  C93.3,33.8,87.4,32.1,84.7,31z"/><path class="st7" d="M82.6,25.3C82.6,25.3,82.6,25.3,82.6,25.3c-0.1-1.6-2.2-2-4.7-2c-2.5,0-4.7,0.4-4.8,2c0,0.1,0,0.1,0,0.2  c0.6,1.1,2.5,1.9,4.8,1.9C80.2,27.3,82.1,26.4,82.6,25.3z"/><path class="st5" d="M96.1,41.6c1.3-2.8,1.8-5.9,0-6.7c-1.8-0.8-8.5-2.7-11.5-3.9c-2.9-1.3-1.9-4.2-2.1-5.8c-0.1-1.5-2.2-2-4.7-2  c-2.5,0-4.7,0.4-4.8,2c-0.1,1.5,0.8,4.5-2.1,5.8c-2.9,1.3-9.7,3.1-11.5,3.9c-1.8,0.8-1.3,3.9,0,6.7c1.3,2.8,4.8,12.1,5.6,20.1  s-4.8,12.6-5.3,22.5c-0.6,9.8,0.1,15,4.4,16.4c7.6,2.5,19.1,2.5,27.5,0c4.7-1.4,4.8-6.6,4.3-16.4c-0.6-9.8-6.2-14.5-5.3-22.5  C91.4,53.7,94.9,44.5,96.1,41.6z"/><line class="st5" x1="78" x2="78" y1="25" y2="18"/><line class="st5" x1="60" x2="48" y1="63" y2="63"/><line class="st5" x1="60" x2="54.5" y1="63" y2="57.4"/><line class="st5" x1="60" x2="54.5" y1="63" y2="68.6"/><line class="st5" x1="95" x2="107" y1="63" y2="63"/><line class="st5" x1="95" x2="100.5" y1="63" y2="68.6"/><line class="st5" x1="95" x2="100.5" y1="63" y2="57.4"/><line class="st5" x1="65" x2="13" y1="110" y2="110"/><g><g><path class="st26" d="M65.1,63.8c0.6,0.2,1.3,0.4,1.9,0.6"/><path class="st27" d="M71.6,65.4c4.9,0.8,9.8,0.6,14.6-0.4"/><path class="st26" d="M88.5,64.4c0.6-0.2,1.3-0.4,1.9-0.6"/></g></g><circle class="st22" cx="78" cy="18" r="2.9"/><path class="st9" d="M42,108c0,1.1-0.9,2-2,2h-9c-1.1,0-2-0.9-2-2V25c0-1.1,0.9-2,2-2h9c1.1,0,2,0.9,2,2V108z"/><path class="st5" d="M42,108c0,1.1-0.9,2-2,2h-9c-1.1,0-2-0.9-2-2V25c0-1.1,0.9-2,2-2h9c1.1,0,2,0.9,2,2V108z"/><line class="st5" x1="42" x2="35" y1="99" y2="99"/><line class="st5" x1="42" x2="38" y1="92" y2="92"/><line class="st5" x1="42" x2="38" y1="85" y2="85"/><line class="st5" x1="42" x2="38" y1="78" y2="78"/><line class="st5" x1="42" x2="35" y1="71" y2="71"/><line class="st5" x1="42" x2="38" y1="64" y2="64"/><line class="st5" x1="42" x2="38" y1="57" y2="57"/><line class="st5" x1="42" x2="38" y1="50" y2="50"/><line class="st5" x1="42" x2="35" y1="43" y2="43"/><line class="st5" x1="42" x2="38" y1="35" y2="35"/></svg>