<?xml version="1.0" ?><svg id="Layer_1" style="enable-background:new 0 0 128 128;" version="1.1" viewBox="0 0 128 128" xml:space="preserve" xmlns="http://www.w3.org/2000/svg" xmlns:xlink="http://www.w3.org/1999/xlink"><style type="text/css">
	.st0{opacity:0.1;fill:#303C63;}
	.st1{display:none;}
	
		.st2{display:inline;opacity:0.1;fill:none;stroke:#303C63;stroke-width:2;stroke-linecap:round;stroke-linejoin:round;stroke-miterlimit:10;}
	.st3{display:inline;opacity:0.1;fill:#303C63;}
	.st4{display:inline;opacity:0.1;}
	.st5{fill:none;stroke:#303C63;stroke-width:2;stroke-linecap:round;stroke-linejoin:round;stroke-miterlimit:10;}
	.st6{fill:#E0534F;}
	.st7{fill:#FFFFFF;}
	.st8{fill:#E2E2E2;}
	.st9{fill:#F1DD6F;}
	.st10{fill:#EAC74B;}
	.st11{fill:none;stroke:#EAC74B;stroke-width:6;stroke-linecap:round;stroke-linejoin:round;stroke-miterlimit:10;}
	.st12{fill:#6DC392;}
	.st13{fill:#5AA579;}
	.st14{fill:#F26A63;}
	.st15{fill:#B7B7B7;}
	.st16{fill:#88C6ED;}
	.st17{fill:none;stroke:#AFDDF3;stroke-linecap:round;stroke-miterlimit:10;}
	.st18{fill:none;stroke:#EAC74B;stroke-width:2;stroke-linecap:round;stroke-linejoin:round;stroke-miterlimit:10;}
	.st19{fill:none;stroke:#EAC74B;stroke-width:4;stroke-linecap:round;stroke-linejoin:round;stroke-miterlimit:10;}
	.st20{fill:none;stroke:#E0534F;stroke-width:2;stroke-miterlimit:10;}
	.st21{opacity:0.1;fill:none;stroke:#303C63;stroke-width:2;stroke-linecap:round;stroke-linejoin:round;stroke-miterlimit:10;}
	.st22{fill:#303C63;}
	.st23{fill:none;stroke:#2C3E50;stroke-width:2;stroke-linecap:round;stroke-linejoin:round;stroke-miterlimit:10;}
	.st24{opacity:0.1;}
	
		.st25{fill:none;stroke:#303C63;stroke-width:2;stroke-linecap:round;stroke-linejoin:round;stroke-miterlimit:10;stroke-dasharray:4,5;}
	.st26{fill:none;stroke:#F26A63;stroke-width:2;stroke-linecap:round;stroke-linejoin:round;}
	.st27{fill:none;stroke:#F26A63;stroke-width:2;stroke-linecap:round;stroke-linejoin:round;stroke-dasharray:3.7902,4.7377;}
	.st28{fill:none;stroke:#FFFFFF;stroke-width:4;stroke-linecap:round;stroke-linejoin:round;stroke-miterlimit:10;}
	.st29{fill:#FAF8F2;}
	.st30{fill:#AFDDF3;}
	.st31{fill:none;stroke:#F26A63;stroke-width:4;stroke-linecap:round;stroke-linejoin:round;stroke-miterlimit:10;}
	.st32{fill:none;stroke:#FFFFFF;stroke-width:2;stroke-linecap:round;stroke-linejoin:round;stroke-miterlimit:10;}
	.st33{fill:none;stroke:#6DC392;stroke-width:2;stroke-linecap:round;stroke-linejoin:round;stroke-miterlimit:10;}
	.st34{fill:none;stroke:#303C63;stroke-width:2;stroke-linecap:round;stroke-linejoin:round;}
	.st35{fill:none;stroke:#303C63;stroke-width:2;stroke-linecap:round;stroke-linejoin:round;stroke-dasharray:3.76,4.7;}
	.st36{opacity:0.2;}
	.st37{opacity:0.2;fill:none;stroke:#303C63;stroke-width:2;stroke-linecap:round;stroke-linejoin:round;stroke-miterlimit:10;}
</style><g><circle class="st0" cx="64" cy="64" r="62.5"/></g><line class="st5" x1="100" x2="122" y1="110" y2="110"/><polygon class="st7" points="104,85 22,85 18,110 100,110 "/><polygon class="st8" points="96,60 14,60 22,85 104,85 "/><polygon class="st7" points="100,35 18,35 14,60 96,60 "/><polyline class="st5" points="83,110 100,110 104,85 22,85 18,110 76,110 "/><polygon class="st5" points="96,60 14,60 22,85 104,85 "/><polyline class="st5" points="57,35 18,35 14,60 96,60 100,35 64,35 "/><g class="st24"><polyline class="st5" points="45,35 31,60 49.5,85.8 68.2,110  "/><polyline class="st5" points="46.2,110 35.5,85 23.2,60 34.8,35  "/><polyline class="st5" points="28.2,110 38.9,93 55.7,93.8 79,58.2  "/><polyline class="st5" points="16,46 38.6,46 57,59.8 65.4,78.9 84.1,84.9 89.5,109.8  "/></g><g><path class="st14" d="M101.8,56.5c9-9,9-23.5,0-32.5s-23.5-9-32.5,0s-9,23.5,0,32.5l14.9,14.9L101.8,56.5z"/><path class="st5" d="M101.8,56.5c9-9,9-23.5,0-32.5s-23.5-9-32.5,0s-9,23.5,0,32.5l14.9,14.9L101.8,56.5z"/><circle class="st7" cx="85.5" cy="40.3" r="16"/><circle class="st5" cx="85.5" cy="40.3" r="16"/><g><polyline class="st9" points="79,37 92.7,37 90.8,44 81.9,44 79.4,37   "/><polyline class="st5" points="80.8,40.4 81.9,44 90.8,44 92.7,37 79.4,37 78.5,34 76,34   "/><circle class="st22" cx="82.7" cy="47.8" r="1.4"/><circle class="st22" cx="89.6" cy="47.8" r="1.4"/></g></g><line class="st5" x1="14" x2="7" y1="110" y2="110"/></svg>