<?xml version="1.0" ?><svg id="Layer_1" style="enable-background:new 0 0 128 128;" version="1.1" viewBox="0 0 128 128" xml:space="preserve" xmlns="http://www.w3.org/2000/svg" xmlns:xlink="http://www.w3.org/1999/xlink"><style type="text/css">
	.st0{opacity:0.1;fill:#303C63;}
	.st1{display:none;}
	
		.st2{display:inline;opacity:0.1;fill:none;stroke:#303C63;stroke-width:2;stroke-linecap:round;stroke-linejoin:round;stroke-miterlimit:10;}
	.st3{display:inline;opacity:0.1;fill:#303C63;}
	.st4{display:inline;opacity:0.1;}
	.st5{fill:none;stroke:#303C63;stroke-width:2;stroke-linecap:round;stroke-linejoin:round;stroke-miterlimit:10;}
	.st6{fill:#E0534F;}
	.st7{fill:#FFFFFF;}
	.st8{fill:#E2E2E2;}
	.st9{fill:#F1DD6F;}
	.st10{fill:#EAC74B;}
	.st11{fill:none;stroke:#EAC74B;stroke-width:6;stroke-linecap:round;stroke-linejoin:round;stroke-miterlimit:10;}
	.st12{fill:#6DC392;}
	.st13{fill:#5AA579;}
	.st14{fill:#F26A63;}
	.st15{fill:#B7B7B7;}
	.st16{fill:#88C6ED;}
	.st17{fill:none;stroke:#AFDDF3;stroke-linecap:round;stroke-miterlimit:10;}
	.st18{fill:none;stroke:#EAC74B;stroke-width:2;stroke-linecap:round;stroke-linejoin:round;stroke-miterlimit:10;}
	.st19{fill:none;stroke:#EAC74B;stroke-width:4;stroke-linecap:round;stroke-linejoin:round;stroke-miterlimit:10;}
	.st20{fill:none;stroke:#E0534F;stroke-width:2;stroke-miterlimit:10;}
	.st21{opacity:0.1;fill:none;stroke:#303C63;stroke-width:2;stroke-linecap:round;stroke-linejoin:round;stroke-miterlimit:10;}
	.st22{fill:#303C63;}
	.st23{fill:none;stroke:#2C3E50;stroke-width:2;stroke-linecap:round;stroke-linejoin:round;stroke-miterlimit:10;}
	.st24{opacity:0.1;}
	
		.st25{fill:none;stroke:#303C63;stroke-width:2;stroke-linecap:round;stroke-linejoin:round;stroke-miterlimit:10;stroke-dasharray:4,5;}
	.st26{fill:none;stroke:#F26A63;stroke-width:2;stroke-linecap:round;stroke-linejoin:round;}
	.st27{fill:none;stroke:#F26A63;stroke-width:2;stroke-linecap:round;stroke-linejoin:round;stroke-dasharray:3.7902,4.7377;}
	.st28{fill:none;stroke:#FFFFFF;stroke-width:4;stroke-linecap:round;stroke-linejoin:round;stroke-miterlimit:10;}
	.st29{fill:#FAF8F2;}
	.st30{fill:#AFDDF3;}
	.st31{fill:none;stroke:#F26A63;stroke-width:4;stroke-linecap:round;stroke-linejoin:round;stroke-miterlimit:10;}
	.st32{fill:none;stroke:#FFFFFF;stroke-width:2;stroke-linecap:round;stroke-linejoin:round;stroke-miterlimit:10;}
	.st33{fill:none;stroke:#6DC392;stroke-width:2;stroke-linecap:round;stroke-linejoin:round;stroke-miterlimit:10;}
	.st34{fill:none;stroke:#303C63;stroke-width:2;stroke-linecap:round;stroke-linejoin:round;}
	.st35{fill:none;stroke:#303C63;stroke-width:2;stroke-linecap:round;stroke-linejoin:round;stroke-dasharray:3.76,4.7;}
	.st36{opacity:0.2;}
	.st37{opacity:0.2;fill:none;stroke:#303C63;stroke-width:2;stroke-linecap:round;stroke-linejoin:round;stroke-miterlimit:10;}
</style><g><circle class="st0" cx="64" cy="64" r="62.5"/></g><line class="st5" x1="5.3" x2="24.3" y1="110" y2="110"/><path class="st7" d="M107,106c0,2.2-1.8,4-4,4H15c-2.2,0-4-1.8-4-4V41c0-2.2,1.8-4,4-4h88c2.2,0,4,1.8,4,4V106z"/><rect class="st13" height="19" transform="matrix(6.123234e-17 -1 1 6.123234e-17 -73.0001 135.9999)" width="11" x="26" y="95"/><polyline class="st5" points="22,110 22,99 41,99 41,110 "/><rect class="st16" height="19" transform="matrix(6.123234e-17 -1 1 6.123234e-17 -45.0001 163.9999)" width="11" x="54" y="95"/><polyline class="st5" points="50,110 50,99 69,99 69,110 "/><rect class="st10" height="19" transform="matrix(6.123234e-17 -1 1 6.123234e-17 -17.0001 191.9999)" width="11" x="82" y="95"/><polyline class="st5" points="78,110 78,99 97,99 97,110 "/><path class="st8" d="M103,37H15c-2.2,0-4,1.4-4,3.6V48h96v-7.4C107,38.4,105.2,37,103,37z"/><path class="st5" d="M34,110H15c-2.2,0-4-1.8-4-4V41c0-2.2,1.8-4,4-4h88c2.2,0,4,1.8,4,4v65c0,2.2-1.8,4-4,4H41"/><line class="st5" x1="11" x2="67" y1="48" y2="48"/><circle class="st22" cx="17.8" cy="42.3" r="1.5"/><circle class="st22" cx="23.8" cy="42.3" r="1.5"/><circle class="st22" cx="29.8" cy="42.3" r="1.5"/><g class="st24"><circle class="st5" cx="26" cy="60.7" r="3.8"/><line class="st5" x1="28.7" x2="31.8" y1="63.4" y2="66.5"/></g><line class="st21" x1="42" x2="51" y1="58" y2="58"/><line class="st21" x1="56" x2="78" y1="58" y2="58"/><line class="st21" x1="42" x2="51" y1="62" y2="62"/><line class="st21" x1="56" x2="66" y1="62" y2="62"/><rect class="st9" height="19" transform="matrix(6.123234e-17 -1 1 6.123234e-17 -51 114)" width="19" x="22" y="73"/><rect class="st5" height="19" transform="matrix(6.123234e-17 -1 1 6.123234e-17 -51 114)" width="19" x="22" y="73"/><rect class="st12" height="19" transform="matrix(6.123234e-17 -1 1 6.123234e-17 -23 142)" width="19" x="50" y="73"/><rect class="st5" height="19" transform="matrix(6.123234e-17 -1 1 6.123234e-17 -23 142)" width="19" x="50" y="73"/><rect class="st14" height="19" transform="matrix(6.123234e-17 -1 1 6.123234e-17 5 170)" width="19" x="78" y="73"/><rect class="st5" height="19" transform="matrix(6.123234e-17 -1 1 6.123234e-17 5 170)" width="19" x="78" y="73"/><path class="st9" d="M77.5,48H86v4.9l7.7-4.9h24.8c2.2,0,3.5-2,3.5-4.2v-31c0-2.2-1.3-3.8-3.5-3.8h-41c-2.2,0-4.5,1.5-4.5,3.8v31  C73,46,75.3,48,77.5,48z"/><path class="st5" d="M77.5,48c-2.2,0-4.5-2-4.5-4.2v-31c0-2.2,2.3-3.8,4.5-3.8h41c2.2,0,3.5,1.5,3.5,3.8v31c0,2.2-1.3,4.2-3.5,4.2  H93.7L86,52.9V48H77.5z"/><path class="st7" d="M97.8,37.5c3.7,0,6.7-3,6.7-6.7H91.2C91.2,34.5,94.2,37.5,97.8,37.5z"/><path class="st14" d="M94,36.3c1.1,0.8,2.4,1.2,3.8,1.2s2.7-0.4,3.8-1.2c-0.1-2-1.8-2.6-3.8-2.6S94.1,34.3,94,36.3z"/><path class="st5" d="M97.8,37.5c3.7,0,6.7-3,6.7-6.7H91.2C91.2,34.5,94.2,37.5,97.8,37.5z"/><path class="st5" d="M87.3,23.6c0-1.6,1.3-2.9,2.9-2.9S93,22,93,23.6"/><path class="st5" d="M102.6,23.6c0-1.6,1.3-2.9,2.9-2.9s2.9,1.3,2.9,2.9"/><line class="st5" x1="122.5" x2="110.3" y1="110" y2="110"/></svg>