<?xml version="1.0" ?><svg id="Layer_1" style="enable-background:new 0 0 128 128;" version="1.1" viewBox="0 0 128 128" xml:space="preserve" xmlns="http://www.w3.org/2000/svg" xmlns:xlink="http://www.w3.org/1999/xlink"><style type="text/css">
	.st0{opacity:0.1;fill:#303C63;}
	.st1{display:none;}
	
		.st2{display:inline;opacity:0.1;fill:none;stroke:#303C63;stroke-width:2;stroke-linecap:round;stroke-linejoin:round;stroke-miterlimit:10;}
	.st3{display:inline;opacity:0.1;fill:#303C63;}
	.st4{display:inline;opacity:0.1;}
	.st5{fill:none;stroke:#303C63;stroke-width:2;stroke-linecap:round;stroke-linejoin:round;stroke-miterlimit:10;}
	.st6{fill:#E0534F;}
	.st7{fill:#FFFFFF;}
	.st8{fill:#E2E2E2;}
	.st9{fill:#F1DD6F;}
	.st10{fill:#EAC74B;}
	.st11{fill:none;stroke:#EAC74B;stroke-width:6;stroke-linecap:round;stroke-linejoin:round;stroke-miterlimit:10;}
	.st12{fill:#6DC392;}
	.st13{fill:#5AA579;}
	.st14{fill:#F26A63;}
	.st15{fill:#B7B7B7;}
	.st16{fill:#88C6ED;}
	.st17{fill:none;stroke:#AFDDF3;stroke-linecap:round;stroke-miterlimit:10;}
	.st18{fill:none;stroke:#EAC74B;stroke-width:2;stroke-linecap:round;stroke-linejoin:round;stroke-miterlimit:10;}
	.st19{fill:none;stroke:#EAC74B;stroke-width:4;stroke-linecap:round;stroke-linejoin:round;stroke-miterlimit:10;}
	.st20{fill:none;stroke:#E0534F;stroke-width:2;stroke-miterlimit:10;}
	.st21{opacity:0.1;fill:none;stroke:#303C63;stroke-width:2;stroke-linecap:round;stroke-linejoin:round;stroke-miterlimit:10;}
	.st22{fill:#303C63;}
	.st23{fill:none;stroke:#2C3E50;stroke-width:2;stroke-linecap:round;stroke-linejoin:round;stroke-miterlimit:10;}
	.st24{opacity:0.1;}
	
		.st25{fill:none;stroke:#303C63;stroke-width:2;stroke-linecap:round;stroke-linejoin:round;stroke-miterlimit:10;stroke-dasharray:4,5;}
	.st26{fill:none;stroke:#F26A63;stroke-width:2;stroke-linecap:round;stroke-linejoin:round;}
	.st27{fill:none;stroke:#F26A63;stroke-width:2;stroke-linecap:round;stroke-linejoin:round;stroke-dasharray:3.7902,4.7377;}
	.st28{fill:none;stroke:#FFFFFF;stroke-width:4;stroke-linecap:round;stroke-linejoin:round;stroke-miterlimit:10;}
	.st29{fill:#FAF8F2;}
	.st30{fill:#AFDDF3;}
	.st31{fill:none;stroke:#F26A63;stroke-width:4;stroke-linecap:round;stroke-linejoin:round;stroke-miterlimit:10;}
	.st32{fill:none;stroke:#FFFFFF;stroke-width:2;stroke-linecap:round;stroke-linejoin:round;stroke-miterlimit:10;}
	.st33{fill:none;stroke:#6DC392;stroke-width:2;stroke-linecap:round;stroke-linejoin:round;stroke-miterlimit:10;}
	.st34{fill:none;stroke:#303C63;stroke-width:2;stroke-linecap:round;stroke-linejoin:round;}
	.st35{fill:none;stroke:#303C63;stroke-width:2;stroke-linecap:round;stroke-linejoin:round;stroke-dasharray:3.76,4.7;}
	.st36{opacity:0.2;}
	.st37{opacity:0.2;fill:none;stroke:#303C63;stroke-width:2;stroke-linecap:round;stroke-linejoin:round;stroke-miterlimit:10;}
</style><g><circle class="st0" cx="64" cy="64" r="62.5"/></g><line class="st5" x1="6" x2="43" y1="110" y2="110"/><rect class="st15" height="11" width="105" x="12" y="91"/><polyline class="st5" points="84,102 117,102 117,91 12,91 12,102 76,102 "/><circle class="st8" cx="29.8" cy="102" r="8"/><circle class="st8" cx="99.8" cy="102" r="8"/><circle class="st22" cx="99.8" cy="102" r="3"/><circle class="st5" cx="29.8" cy="102" r="8"/><circle class="st22" cx="29.8" cy="102" r="3"/><circle class="st5" cx="99.8" cy="102.1" r="8"/><path class="st13" d="M75,34H24c-4.4,0-8,3.6-8,8v49h67V42C83,37.6,79.4,34,75,34z"/><rect class="st12" height="35" width="67" x="16" y="46"/><path class="st5" d="M75,34H24c-4.4,0-8,3.6-8,8v49h67V42C83,37.6,79.4,34,75,34z"/><path class="st7" d="M83,91h30V66.3c0-0.9-0.3-1.7-0.8-2.4l-9-12.3c-0.8-1-2-1.6-3.2-1.6H87c-2.2,0-4,1.8-4,4V91z"/><path class="st5" d="M83,91h30V66.3c0-0.9-0.3-1.7-0.8-2.4l-9-12.3c-0.8-1-2-1.6-3.2-1.6H87c-2.2,0-4,1.8-4,4V91z"/><polygon class="st16" points="89,72 89,56 99,56 107,67 107,72 "/><line class="st17" x1="92.2" x2="99" y1="63.9" y2="56"/><line class="st17" x1="92.2" x2="95.6" y1="59.9" y2="55.9"/><polygon class="st5" points="89,72 89,56 99,56 107,67 107,72 "/><line class="st5" x1="90" x2="98" y1="77" y2="77"/><line class="st5" x1="16" x2="75" y1="46" y2="46"/><line class="st5" x1="23" x2="82" y1="81" y2="81"/><line class="st5" x1="100" x2="49" y1="110" y2="110"/><line class="st5" x1="109" x2="123" y1="110" y2="110"/><g><path class="st7" d="M31.4,71.1h-3.9V56.5h8.6v3.1h-4.7v2.8h4.3v3.1h-4.3V71.1z"/><path class="st7" d="M42.4,65.8v5.3h-3.9V56.5h4.8c3.9,0,5.9,1.4,5.9,4.3c0,1.7-0.8,3-2.5,3.9l4.2,6.3h-4.4l-3.1-5.3H42.4z    M42.4,62.8h0.7c1.4,0,2.1-0.6,2.1-1.8c0-1-0.7-1.5-2-1.5h-0.8V62.8z"/><path class="st7" d="M60.9,71.1h-8.6V56.5h8.6v3.1h-4.7V62h4.3v3.1h-4.3v2.7h4.7V71.1z"/><path class="st7" d="M72,71.1h-8.6V56.5H72v3.1h-4.7V62h4.3v3.1h-4.3v2.7H72V71.1z"/></g></svg>