<?xml version="1.0" ?><svg id="Layer_1" style="enable-background:new 0 0 128 128;" version="1.1" viewBox="0 0 128 128" xml:space="preserve" xmlns="http://www.w3.org/2000/svg" xmlns:xlink="http://www.w3.org/1999/xlink"><style type="text/css">
	.st0{opacity:0.1;fill:#303C63;}
	.st1{display:none;}
	
		.st2{display:inline;opacity:0.1;fill:none;stroke:#303C63;stroke-width:2;stroke-linecap:round;stroke-linejoin:round;stroke-miterlimit:10;}
	.st3{display:inline;opacity:0.1;fill:#303C63;}
	.st4{display:inline;opacity:0.1;}
	.st5{fill:none;stroke:#303C63;stroke-width:2;stroke-linecap:round;stroke-linejoin:round;stroke-miterlimit:10;}
	.st6{fill:#E0534F;}
	.st7{fill:#FFFFFF;}
	.st8{fill:#E2E2E2;}
	.st9{fill:#F1DD6F;}
	.st10{fill:#EAC74B;}
	.st11{fill:none;stroke:#EAC74B;stroke-width:6;stroke-linecap:round;stroke-linejoin:round;stroke-miterlimit:10;}
	.st12{fill:#6DC392;}
	.st13{fill:#5AA579;}
	.st14{fill:#F26A63;}
	.st15{fill:#B7B7B7;}
	.st16{fill:#88C6ED;}
	.st17{fill:none;stroke:#AFDDF3;stroke-linecap:round;stroke-miterlimit:10;}
	.st18{fill:none;stroke:#EAC74B;stroke-width:2;stroke-linecap:round;stroke-linejoin:round;stroke-miterlimit:10;}
	.st19{fill:none;stroke:#EAC74B;stroke-width:4;stroke-linecap:round;stroke-linejoin:round;stroke-miterlimit:10;}
	.st20{fill:none;stroke:#E0534F;stroke-width:2;stroke-miterlimit:10;}
	.st21{opacity:0.1;fill:none;stroke:#303C63;stroke-width:2;stroke-linecap:round;stroke-linejoin:round;stroke-miterlimit:10;}
	.st22{fill:#303C63;}
	.st23{fill:none;stroke:#2C3E50;stroke-width:2;stroke-linecap:round;stroke-linejoin:round;stroke-miterlimit:10;}
	.st24{opacity:0.1;}
	
		.st25{fill:none;stroke:#303C63;stroke-width:2;stroke-linecap:round;stroke-linejoin:round;stroke-miterlimit:10;stroke-dasharray:4,5;}
	.st26{fill:none;stroke:#F26A63;stroke-width:2;stroke-linecap:round;stroke-linejoin:round;}
	.st27{fill:none;stroke:#F26A63;stroke-width:2;stroke-linecap:round;stroke-linejoin:round;stroke-dasharray:3.7902,4.7377;}
	.st28{fill:none;stroke:#FFFFFF;stroke-width:4;stroke-linecap:round;stroke-linejoin:round;stroke-miterlimit:10;}
	.st29{fill:#FAF8F2;}
	.st30{fill:#AFDDF3;}
	.st31{fill:none;stroke:#F26A63;stroke-width:4;stroke-linecap:round;stroke-linejoin:round;stroke-miterlimit:10;}
	.st32{fill:none;stroke:#FFFFFF;stroke-width:2;stroke-linecap:round;stroke-linejoin:round;stroke-miterlimit:10;}
	.st33{fill:none;stroke:#6DC392;stroke-width:2;stroke-linecap:round;stroke-linejoin:round;stroke-miterlimit:10;}
	.st34{fill:none;stroke:#303C63;stroke-width:2;stroke-linecap:round;stroke-linejoin:round;}
	.st35{fill:none;stroke:#303C63;stroke-width:2;stroke-linecap:round;stroke-linejoin:round;stroke-dasharray:3.76,4.7;}
	.st36{opacity:0.2;}
	.st37{opacity:0.2;fill:none;stroke:#303C63;stroke-width:2;stroke-linecap:round;stroke-linejoin:round;stroke-miterlimit:10;}
</style><g><circle class="st0" cx="64" cy="64" r="62.5"/></g><line class="st5" x1="5" x2="42" y1="110" y2="110"/><rect class="st15" height="11" width="105" x="11" y="91"/><polyline class="st5" points="53,102 116,102 116,91 11,91 11,102 45,102 "/><circle class="st8" cx="28.8" cy="102" r="8"/><circle class="st8" cx="98.8" cy="102" r="8"/><g><path class="st7" d="M76.2,28c-1.7-1.8-2.7-4.2-2.7-6.9c0-5.6,4.5-10.1,10.1-10.1s10.1,4.5,10.1,10.1c0,2.7-1,5.1-2.7,6.9H76.2z"/><path class="st5" d="M76.1,28c-1.7-1.8-2.6-4.2-2.6-6.9C73.4,15.5,78,11,83.6,11s10.1,4.5,10.1,10.1c0,2.7-1,5.1-2.7,6.9h7"/><path class="st16" d="M68.6,29c-1.2-1.3-2-3-2-5c0-4,3.3-7.3,7.3-7.3s7.3,3.3,7.3,7.3c0,1.9-0.7,3.7-2,5H68.6z"/><path class="st5" d="M79.2,29c1.2-1.3,2-3,2-5c0-4-3.3-7.3-7.3-7.3S66.6,20,66.6,24c0,1.9,0.7,3.7,2,5H53"/></g><circle class="st22" cx="98.8" cy="102" r="3"/><circle class="st5" cx="28.8" cy="102" r="8"/><circle class="st22" cx="28.8" cy="102" r="3"/><circle class="st5" cx="98.8" cy="102.1" r="8"/><path class="st10" d="M74,34H23c-4.4,0-8,3.6-8,8v49h67V42C82,37.6,78.4,34,74,34z"/><path class="st5" d="M74,34H23c-4.4,0-8,3.6-8,8v49h67V42C82,37.6,78.4,34,74,34z"/><path class="st7" d="M82,91h30V66.3c0-0.9-0.3-1.7-0.8-2.4l-9-12.3c-0.8-1-2-1.6-3.2-1.6H86c-2.2,0-4,1.8-4,4V91z"/><path class="st5" d="M82,91h30V66.3c0-0.9-0.3-1.7-0.8-2.4l-9-12.3c-0.8-1-2-1.6-3.2-1.6H86c-2.2,0-4,1.8-4,4V91z"/><polygon class="st16" points="88,72 88,56 98,56 106,67 106,72 "/><line class="st17" x1="91.2" x2="98" y1="63.9" y2="56"/><line class="st17" x1="91.2" x2="94.6" y1="59.9" y2="55.9"/><polygon class="st5" points="88,72 88,56 98,56 106,67 106,72 "/><line class="st5" x1="89" x2="97" y1="77" y2="77"/><line class="st5" x1="15" x2="74" y1="46" y2="46"/><line class="st5" x1="22" x2="81" y1="81" y2="81"/><line class="st21" x1="28" x2="28" y1="46" y2="81"/><line class="st21" x1="38" x2="38" y1="46" y2="81"/><line class="st21" x1="48" x2="48" y1="46" y2="81"/><line class="st21" x1="58" x2="58" y1="46" y2="81"/><line class="st21" x1="68" x2="68" y1="46" y2="81"/><line class="st5" x1="99" x2="48" y1="110" y2="110"/><line class="st5" x1="108" x2="122" y1="110" y2="110"/></svg>