<?xml version="1.0" ?><svg id="Layer_1" style="enable-background:new 0 0 128 128;" version="1.1" viewBox="0 0 128 128" xml:space="preserve" xmlns="http://www.w3.org/2000/svg" xmlns:xlink="http://www.w3.org/1999/xlink"><style type="text/css">
	.st0{opacity:0.1;fill:#303C63;}
	.st1{display:none;}
	
		.st2{display:inline;opacity:0.1;fill:none;stroke:#303C63;stroke-width:2;stroke-linecap:round;stroke-linejoin:round;stroke-miterlimit:10;}
	.st3{display:inline;opacity:0.1;fill:#303C63;}
	.st4{display:inline;opacity:0.1;}
	.st5{fill:none;stroke:#303C63;stroke-width:2;stroke-linecap:round;stroke-linejoin:round;stroke-miterlimit:10;}
	.st6{fill:#E0534F;}
	.st7{fill:#FFFFFF;}
	.st8{fill:#E2E2E2;}
	.st9{fill:#F1DD6F;}
	.st10{fill:#EAC74B;}
	.st11{fill:none;stroke:#EAC74B;stroke-width:6;stroke-linecap:round;stroke-linejoin:round;stroke-miterlimit:10;}
	.st12{fill:#6DC392;}
	.st13{fill:#5AA579;}
	.st14{fill:#F26A63;}
	.st15{fill:#B7B7B7;}
	.st16{fill:#88C6ED;}
	.st17{fill:none;stroke:#AFDDF3;stroke-linecap:round;stroke-miterlimit:10;}
	.st18{fill:none;stroke:#EAC74B;stroke-width:2;stroke-linecap:round;stroke-linejoin:round;stroke-miterlimit:10;}
	.st19{fill:none;stroke:#EAC74B;stroke-width:4;stroke-linecap:round;stroke-linejoin:round;stroke-miterlimit:10;}
	.st20{fill:none;stroke:#E0534F;stroke-width:2;stroke-miterlimit:10;}
	.st21{opacity:0.1;fill:none;stroke:#303C63;stroke-width:2;stroke-linecap:round;stroke-linejoin:round;stroke-miterlimit:10;}
	.st22{fill:#303C63;}
	.st23{fill:none;stroke:#2C3E50;stroke-width:2;stroke-linecap:round;stroke-linejoin:round;stroke-miterlimit:10;}
	.st24{opacity:0.1;}
	
		.st25{fill:none;stroke:#303C63;stroke-width:2;stroke-linecap:round;stroke-linejoin:round;stroke-miterlimit:10;stroke-dasharray:4,5;}
	.st26{fill:none;stroke:#F26A63;stroke-width:2;stroke-linecap:round;stroke-linejoin:round;}
	.st27{fill:none;stroke:#F26A63;stroke-width:2;stroke-linecap:round;stroke-linejoin:round;stroke-dasharray:3.7902,4.7377;}
	.st28{fill:none;stroke:#FFFFFF;stroke-width:4;stroke-linecap:round;stroke-linejoin:round;stroke-miterlimit:10;}
	.st29{fill:#FAF8F2;}
	.st30{fill:#AFDDF3;}
	.st31{fill:none;stroke:#F26A63;stroke-width:4;stroke-linecap:round;stroke-linejoin:round;stroke-miterlimit:10;}
	.st32{fill:none;stroke:#FFFFFF;stroke-width:2;stroke-linecap:round;stroke-linejoin:round;stroke-miterlimit:10;}
	.st33{fill:none;stroke:#6DC392;stroke-width:2;stroke-linecap:round;stroke-linejoin:round;stroke-miterlimit:10;}
	.st34{fill:none;stroke:#303C63;stroke-width:2;stroke-linecap:round;stroke-linejoin:round;}
	.st35{fill:none;stroke:#303C63;stroke-width:2;stroke-linecap:round;stroke-linejoin:round;stroke-dasharray:3.76,4.7;}
	.st36{opacity:0.2;}
	.st37{opacity:0.2;fill:none;stroke:#303C63;stroke-width:2;stroke-linecap:round;stroke-linejoin:round;stroke-miterlimit:10;}
</style><g><circle class="st0" cx="64" cy="64" r="62.5"/></g><g><path class="st6" d="M56,69.5c-0.6,0-1.1-0.2-1.6-0.5c-1.4-0.9-1.8-2.8-0.9-4.1l19.7-30.7c0.9-1.4,2.7-1.8,4.1-0.9   c1.4,0.9,1.8,2.8,0.9,4.1L58.5,68.1C58,69,57,69.5,56,69.5z"/></g><g><path class="st5" d="M56,69.5c-0.6,0-1.1-0.2-1.6-0.5c-1.4-0.9-1.8-2.8-0.9-4.1l19.7-30.7c0.9-1.4,2.7-1.8,4.1-0.9   c1.4,0.9,1.8,2.8,0.9,4.1L58.5,68.1C58,69,57,69.5,56,69.5z"/></g><path class="st7" d="M100,62c0,2.8-2.2,5-5,5H17c-2.8,0-5-2.2-5-5l0,0c0-2.8,2.2-5,5-5h78C97.8,57,100,59.2,100,62L100,62z"/><path class="st8" d="M95,64H17c-2.2,0-4.1-1.5-4.7-3.5C12.1,61,12,61.5,12,62c0,2.8,2.2,5,5,5h78c2.8,0,5-2.2,5-5  c0-0.5-0.1-1-0.3-1.5C99.1,62.5,97.2,64,95,64z"/><path class="st5" d="M56,57h39c2.8,0,5,2.2,5,5l0,0c0,2.8-2.2,5-5,5H17c-2.8,0-5-2.2-5-5l0,0c0-2.8,2.2-5,5-5h31"/><path class="st9" d="M88.8,110H24c-4,0-7-3.2-7-7.2V67h79v35.8C96,106.8,92.8,110,88.8,110z"/><path class="st10" d="M88.8,104H24c-4,0-7-3.2-7-7.2v6c0,4,3,7.2,7,7.2h64.8c4,0,7.2-3.2,7.2-7.2v-6C96,100.8,92.8,104,88.8,104z"/><path class="st5" d="M47,110H24c-4,0-7-3.2-7-7.2V67h79v35.8c0,4-3.2,7.2-7.2,7.2H56"/><g><line class="st11" x1="27" x2="27" y1="76" y2="82"/><line class="st11" x1="27" x2="27" y1="92" y2="98"/><line class="st11" x1="37" x2="37" y1="76" y2="82"/><line class="st11" x1="37" x2="37" y1="92" y2="98"/><line class="st11" x1="47" x2="47" y1="76" y2="82"/><line class="st11" x1="47" x2="47" y1="92" y2="98"/><line class="st11" x1="57" x2="57" y1="76" y2="82"/><line class="st11" x1="57" x2="57" y1="92" y2="98"/><line class="st11" x1="67" x2="67" y1="76" y2="82"/><line class="st11" x1="67" x2="67" y1="92" y2="98"/><line class="st11" x1="77" x2="77" y1="76" y2="82"/><line class="st11" x1="77" x2="77" y1="92" y2="98"/><line class="st11" x1="87" x2="87" y1="76" y2="82"/><line class="st11" x1="87" x2="87" y1="92" y2="98"/></g><rect class="st12" height="29" width="51" x="65" y="81"/><rect class="st5" height="29" width="51" x="65" y="81"/><path class="st13" d="M75.5,106c0-4-1.5-6.5-5.5-6.5v-9c4,0,5.5-2.5,5.5-5.5h30c0,3,2.5,5.5,5.5,5.5v9c-3,0-5.5,2.5-5.5,6.5H75.5z"/><circle class="st7" cx="90.5" cy="95" r="5.8"/><circle class="st5" cx="90.5" cy="95" r="5.8"/><path class="st5" d="M82,106h23.5c0-4,2.5-6.5,5.5-6.5v-9c-3,0-5.7-2.4-5.7-5.8"/><path class="st5" d="M99,85H75.5c0,3-1.5,5.5-5.5,5.5v9c4,0,5.4,2.9,5.4,6.2"/><line class="st5" x1="84" x2="78" y1="95" y2="95"/><line class="st5" x1="103" x2="97" y1="95" y2="95"/><g><path class="st14" d="M56,63c-0.6,0-1.1-0.2-1.6-0.5c-1.4-0.9-1.8-2.8-0.9-4.1l19.7-30.7c0.9-1.4,2.7-1.8,4.1-0.9   c1.4,0.9,1.8,2.8,0.9,4.1L58.5,61.6C58,62.5,57,63,56,63z"/></g><g><path class="st5" d="M56,63c-0.6,0-1.1-0.2-1.6-0.5c-1.4-0.9-1.8-2.8-0.9-4.1l19.7-30.7c0.9-1.4,2.7-1.8,4.1-0.9   c1.4,0.9,1.8,2.8,0.9,4.1L58.5,61.6C58,62.5,57,63,56,63z"/></g><line class="st5" x1="112" x2="122" y1="110" y2="110"/><line class="st5" x1="5" x2="15" y1="110" y2="110"/></svg>