<?xml version="1.0" ?><svg id="Layer_1" style="enable-background:new 0 0 128 128;" version="1.1" viewBox="0 0 128 128" xml:space="preserve" xmlns="http://www.w3.org/2000/svg" xmlns:xlink="http://www.w3.org/1999/xlink"><style type="text/css">
	.st0{opacity:0.1;fill:#303C63;}
	.st1{display:none;}
	
		.st2{display:inline;opacity:0.1;fill:none;stroke:#303C63;stroke-width:2;stroke-linecap:round;stroke-linejoin:round;stroke-miterlimit:10;}
	.st3{display:inline;opacity:0.1;fill:#303C63;}
	.st4{display:inline;opacity:0.1;}
	.st5{fill:none;stroke:#303C63;stroke-width:2;stroke-linecap:round;stroke-linejoin:round;stroke-miterlimit:10;}
	.st6{fill:#E0534F;}
	.st7{fill:#FFFFFF;}
	.st8{fill:#E2E2E2;}
	.st9{fill:#F1DD6F;}
	.st10{fill:#EAC74B;}
	.st11{fill:none;stroke:#EAC74B;stroke-width:6;stroke-linecap:round;stroke-linejoin:round;stroke-miterlimit:10;}
	.st12{fill:#6DC392;}
	.st13{fill:#5AA579;}
	.st14{fill:#F26A63;}
	.st15{fill:#B7B7B7;}
	.st16{fill:#88C6ED;}
	.st17{fill:none;stroke:#AFDDF3;stroke-linecap:round;stroke-miterlimit:10;}
	.st18{fill:none;stroke:#EAC74B;stroke-width:2;stroke-linecap:round;stroke-linejoin:round;stroke-miterlimit:10;}
	.st19{fill:none;stroke:#EAC74B;stroke-width:4;stroke-linecap:round;stroke-linejoin:round;stroke-miterlimit:10;}
	.st20{fill:none;stroke:#E0534F;stroke-width:2;stroke-miterlimit:10;}
	.st21{opacity:0.1;fill:none;stroke:#303C63;stroke-width:2;stroke-linecap:round;stroke-linejoin:round;stroke-miterlimit:10;}
	.st22{fill:#303C63;}
	.st23{fill:none;stroke:#2C3E50;stroke-width:2;stroke-linecap:round;stroke-linejoin:round;stroke-miterlimit:10;}
	.st24{opacity:0.1;}
	
		.st25{fill:none;stroke:#303C63;stroke-width:2;stroke-linecap:round;stroke-linejoin:round;stroke-miterlimit:10;stroke-dasharray:4,5;}
	.st26{fill:none;stroke:#F26A63;stroke-width:2;stroke-linecap:round;stroke-linejoin:round;}
	.st27{fill:none;stroke:#F26A63;stroke-width:2;stroke-linecap:round;stroke-linejoin:round;stroke-dasharray:3.7902,4.7377;}
	.st28{fill:none;stroke:#FFFFFF;stroke-width:4;stroke-linecap:round;stroke-linejoin:round;stroke-miterlimit:10;}
	.st29{fill:#FAF8F2;}
	.st30{fill:#AFDDF3;}
	.st31{fill:none;stroke:#F26A63;stroke-width:4;stroke-linecap:round;stroke-linejoin:round;stroke-miterlimit:10;}
	.st32{fill:none;stroke:#FFFFFF;stroke-width:2;stroke-linecap:round;stroke-linejoin:round;stroke-miterlimit:10;}
	.st33{fill:none;stroke:#6DC392;stroke-width:2;stroke-linecap:round;stroke-linejoin:round;stroke-miterlimit:10;}
	.st34{fill:none;stroke:#303C63;stroke-width:2;stroke-linecap:round;stroke-linejoin:round;}
	.st35{fill:none;stroke:#303C63;stroke-width:2;stroke-linecap:round;stroke-linejoin:round;stroke-dasharray:3.76,4.7;}
	.st36{opacity:0.2;}
	.st37{opacity:0.2;fill:none;stroke:#303C63;stroke-width:2;stroke-linecap:round;stroke-linejoin:round;stroke-miterlimit:10;}
</style><g><circle class="st0" cx="64" cy="64" r="62.5"/></g><line class="st5" x1="111" x2="122" y1="110" y2="110"/><rect class="st12" height="13" width="74" x="31" y="97"/><rect class="st5" height="13" width="74" x="31" y="97"/><path class="st7" d="M39,58h58c3.3,13.7,5,25.3,5,39H34C33.7,83.3,35.3,71.7,39,58z"/><path class="st5" d="M39,58h58c3.3,13.7,5,25.3,5,39H34C33.7,83.3,35.3,71.7,39,58z"/><path class="st15" d="M97,58H39v-8c0-2.2,1.8-4,4-4h50c2.2,0,4,1.8,4,4V58z"/><path class="st5" d="M97,58H39v-8c0-2.2,1.8-4,4-4h50c2.2,0,4,1.8,4,4V58z"/><rect class="st5" height="12" width="6" x="79" y="34"/><path class="st7" d="M95,37H69c-1.1,0-2-0.9-2-2V22c0-1.1,0.9-2,2-2h26c1.1,0,2,0.9,2,2v13C97,36.1,96.1,37,95,37z"/><path class="st5" d="M95,37H69c-1.1,0-2-0.9-2-2V22c0-1.1,0.9-2,2-2h26c1.1,0,2,0.9,2,2v13C97,36.1,96.1,37,95,37z"/><rect class="st16" height="22" transform="matrix(-1.836970e-16 1 -1 -1.836970e-16 110.5 -53.5)" width="9" x="77.5" y="17.5"/><rect class="st5" height="22" transform="matrix(-1.836970e-16 1 -1 -1.836970e-16 110.5 -53.5)" width="9" x="77.5" y="17.5"/><line class="st5" x1="43" x2="65" y1="52" y2="52"/><polygon class="st7" points="62,52 45,52 45,33 49.2,35 53.5,33 57.8,35 62,33 "/><polygon class="st5" points="62,52 45,52 45,33 49.2,35 53.5,33 57.8,35 62,33 "/><g><line class="st21" x1="49" x2="58" y1="40" y2="40"/><line class="st21" x1="49" x2="58" y1="44" y2="44"/><line class="st21" x1="49" x2="58" y1="48" y2="48"/></g><g><line class="st5" x1="45" x2="45" y1="89" y2="85"/><circle class="st22" cx="45" cy="85" r="2.5"/></g><g><line class="st5" x1="60" x2="60" y1="89" y2="85"/><circle class="st22" cx="60" cy="85" r="2.5"/></g><g><line class="st5" x1="75" x2="75" y1="89" y2="85"/><circle class="st22" cx="75" cy="85" r="2.5"/></g><g><line class="st5" x1="53" x2="53" y1="80" y2="76"/><circle class="st22" cx="53" cy="76" r="2.5"/></g><g><line class="st5" x1="68" x2="68" y1="80" y2="76"/><circle class="st22" cx="68" cy="76" r="2.5"/></g><g><line class="st5" x1="83" x2="83" y1="80" y2="76"/><circle class="st22" cx="83" cy="76" r="2.5"/></g><g><line class="st5" x1="90" x2="90" y1="89" y2="85"/><circle class="st22" cx="90" cy="85" r="2.5"/></g><g><line class="st5" x1="48" x2="48" y1="70" y2="66"/><circle class="st22" cx="48" cy="66" r="2.5"/></g><g><line class="st5" x1="61" x2="61" y1="70" y2="66"/><circle class="st22" cx="61" cy="66" r="2.5"/></g><g><line class="st5" x1="74" x2="74" y1="70" y2="66"/><circle class="st22" cx="74" cy="66" r="2.5"/></g><g><line class="st5" x1="87" x2="87" y1="70" y2="66"/><circle class="st22" cx="87" cy="66" r="2.5"/></g><rect class="st13" height="9" width="55" x="41" y="101"/><rect class="st5" height="9" width="55" x="41" y="101"/><circle class="st22" cx="68" cy="103" r="2"/><rect class="st9" height="5" width="16" x="15" y="105"/><rect class="st5" height="5" width="16" x="15" y="105"/><rect class="st10" height="5" width="16" x="15" y="100"/><rect class="st5" height="5" width="16" x="15" y="100"/><rect class="st9" height="5" width="16" x="15" y="95"/><rect class="st5" height="5" width="16" x="15" y="95"/><rect class="st10" height="5" width="16" x="14" y="90"/><rect class="st5" height="5" width="16" x="14" y="90"/><rect class="st9" height="5" width="16" x="15" y="85"/><rect class="st5" height="5" width="16" x="15" y="85"/><rect class="st10" height="5" width="16" x="11" y="80"/><rect class="st5" height="5" width="16" x="11" y="80"/><line class="st5" x1="15" x2="6.5" y1="110" y2="110"/></svg>