<?xml version="1.0" ?><svg id="Layer_1" style="enable-background:new 0 0 128 128;" version="1.1" viewBox="0 0 128 128" xml:space="preserve" xmlns="http://www.w3.org/2000/svg" xmlns:xlink="http://www.w3.org/1999/xlink"><style type="text/css">
	.st0{opacity:0.1;fill:#303C63;}
	.st1{display:none;}
	
		.st2{display:inline;opacity:0.1;fill:none;stroke:#303C63;stroke-width:2;stroke-linecap:round;stroke-linejoin:round;stroke-miterlimit:10;}
	.st3{display:inline;opacity:0.1;fill:#303C63;}
	.st4{display:inline;opacity:0.1;}
	.st5{fill:none;stroke:#303C63;stroke-width:2;stroke-linecap:round;stroke-linejoin:round;stroke-miterlimit:10;}
	.st6{fill:#E0534F;}
	.st7{fill:#FFFFFF;}
	.st8{fill:#E2E2E2;}
	.st9{fill:#F1DD6F;}
	.st10{fill:#EAC74B;}
	.st11{fill:none;stroke:#EAC74B;stroke-width:6;stroke-linecap:round;stroke-linejoin:round;stroke-miterlimit:10;}
	.st12{fill:#6DC392;}
	.st13{fill:#5AA579;}
	.st14{fill:#F26A63;}
	.st15{fill:#B7B7B7;}
	.st16{fill:#88C6ED;}
	.st17{fill:none;stroke:#AFDDF3;stroke-linecap:round;stroke-miterlimit:10;}
	.st18{fill:none;stroke:#EAC74B;stroke-width:2;stroke-linecap:round;stroke-linejoin:round;stroke-miterlimit:10;}
	.st19{fill:none;stroke:#EAC74B;stroke-width:4;stroke-linecap:round;stroke-linejoin:round;stroke-miterlimit:10;}
	.st20{fill:none;stroke:#E0534F;stroke-width:2;stroke-miterlimit:10;}
	.st21{opacity:0.1;fill:none;stroke:#303C63;stroke-width:2;stroke-linecap:round;stroke-linejoin:round;stroke-miterlimit:10;}
	.st22{fill:#303C63;}
	.st23{fill:none;stroke:#2C3E50;stroke-width:2;stroke-linecap:round;stroke-linejoin:round;stroke-miterlimit:10;}
	.st24{opacity:0.1;}
	
		.st25{fill:none;stroke:#303C63;stroke-width:2;stroke-linecap:round;stroke-linejoin:round;stroke-miterlimit:10;stroke-dasharray:4,5;}
	.st26{fill:none;stroke:#F26A63;stroke-width:2;stroke-linecap:round;stroke-linejoin:round;}
	.st27{fill:none;stroke:#F26A63;stroke-width:2;stroke-linecap:round;stroke-linejoin:round;stroke-dasharray:3.7902,4.7377;}
	.st28{fill:none;stroke:#FFFFFF;stroke-width:4;stroke-linecap:round;stroke-linejoin:round;stroke-miterlimit:10;}
	.st29{fill:#FAF8F2;}
	.st30{fill:#AFDDF3;}
	.st31{fill:none;stroke:#F26A63;stroke-width:4;stroke-linecap:round;stroke-linejoin:round;stroke-miterlimit:10;}
	.st32{fill:none;stroke:#FFFFFF;stroke-width:2;stroke-linecap:round;stroke-linejoin:round;stroke-miterlimit:10;}
	.st33{fill:none;stroke:#6DC392;stroke-width:2;stroke-linecap:round;stroke-linejoin:round;stroke-miterlimit:10;}
	.st34{fill:none;stroke:#303C63;stroke-width:2;stroke-linecap:round;stroke-linejoin:round;}
	.st35{fill:none;stroke:#303C63;stroke-width:2;stroke-linecap:round;stroke-linejoin:round;stroke-dasharray:3.76,4.7;}
	.st36{opacity:0.2;}
	.st37{opacity:0.2;fill:none;stroke:#303C63;stroke-width:2;stroke-linecap:round;stroke-linejoin:round;stroke-miterlimit:10;}
</style><g><circle class="st0" cx="64" cy="64" r="62.5"/></g><line class="st5" x1="113" x2="122" y1="110" y2="110"/><path class="st19" d="M74.3,33.4c-4.7,2.6-7.5,6.6-6.2,8.9"/><path class="st7" d="M109,106c0,2.2-1.8,4-4,4H17c-2.2,0-4-1.8-4-4V41c0-2.2,1.8-4,4-4h88c2.2,0,4,1.8,4,4V106z"/><path class="st8" d="M105,37H17c-2.2,0-4,1.4-4,3.6V48h96v-7.4C109,38.4,107.2,37,105,37z"/><path class="st5" d="M36,110H17c-2.2,0-4-1.8-4-4V41c0-2.2,1.8-4,4-4h88c2.2,0,4,1.8,4,4v65c0,2.2-1.8,4-4,4H43"/><line class="st5" x1="13" x2="72" y1="48" y2="48"/><circle class="st22" cx="19.8" cy="42.3" r="1.5"/><circle class="st22" cx="25.8" cy="42.3" r="1.5"/><circle class="st22" cx="31.8" cy="42.3" r="1.5"/><path class="st9" d="M42,91h8.3l0.7,19h38l0.7-19H98l5-13.8l-21-8.3c0,0-5.7,2.5-11.3,2.5c-5.7,0-11.9-2.4-11.9-2.4L37,77.3l4,11.1  L42,91z"/><path class="st10" d="M82,68.9c0,0-5.7,2.5-11.3,2.5c-5.7,0-11.9-2.4-11.9-2.4s2.2,7.8,11.3,7.8S82,69,82,68.9L82,68.9L82,68.9z"/><path class="st23" d="M58.7,69c0,0,2.2,7.8,11.3,7.8S82,69,82,69"/><path class="st5" d="M42,91h8.3l0.7,19h38l0.7-19H98l5-13.8l-21-8.3c0,0-5.7,2.5-11.3,2.5c-5.7,0-11.9-2.4-11.9-2.4L37,77.3l4,11.1  L42,91z"/><path class="st10" d="M61,101L61,101c-2.8,0-5-2.2-5-5v-7h10v7C66,98.8,63.7,101,61,101z"/><g class="st24"><circle class="st5" cx="28" cy="58.7" r="3.8"/><line class="st5" x1="30.7" x2="33.8" y1="61.4" y2="64.5"/></g><line class="st21" x1="44" x2="53" y1="56" y2="56"/><line class="st21" x1="58" x2="80" y1="56" y2="56"/><line class="st21" x1="44" x2="53" y1="60" y2="60"/><line class="st21" x1="58" x2="68" y1="60" y2="60"/><path class="st14" d="M78,45.3l-5.2-12.9c-0.6-1.4-0.1-3,1.1-3.9l11.3-8.2c0.8-0.6,1.9-0.8,2.9-0.5l33.2,9.6  c1.8,0.5,2.8,2.4,2.3,4.1l-6.1,21.1c-0.5,1.8-2.4,2.8-4.1,2.3l-33.2-9.6C79.2,47,78.4,46.2,78,45.3z"/><path class="st7" d="M98.7,45.2l4.1-14.1c0.3-1.1,1.4-1.7,2.5-1.4l11.3,3.4c1.1,0.3,1.7,1.4,1.3,2.5l-4.1,14.1  c-0.3,1.1-1.4,1.7-2.5,1.4L100,47.7C98.9,47.4,98.3,46.3,98.7,45.2z"/><path class="st21" d="M103.6,44.4l2.8-9.8"/><path class="st21" d="M106.8,45.2l2.8-9.8"/><path class="st21" d="M110.1,46l2.8-9.8"/><path class="st5" d="M74.7,36.8l-1.8-4.5c-0.6-1.4-0.1-3,1.1-3.9l11.3-8.2c0.8-0.6,1.9-0.8,2.9-0.5l33.2,9.6  c1.8,0.5,2.8,2.4,2.3,4.1l-6.1,21.1c-0.5,1.8-2.4,2.8-4.1,2.3l-33.2-9.6c-1-0.3-1.8-1-2.2-2L77.1,43"/><ellipse class="st7" cx="85.2" cy="33" rx="4.6" ry="4.6" transform="matrix(0.9601 -0.2797 0.2797 0.9601 -5.8188 25.1394)"/><path class="st19" d="M68.2,42.4c1.3,2.3,6.1,2.1,10.8-0.5c4.7-2.6,7.5-6.6,6.2-8.9"/><rect class="st9" height="9" width="9" x="21" y="74"/><rect class="st5" height="9" width="9" x="21" y="74"/><rect class="st14" height="9" width="9" x="21" y="88"/><rect class="st5" height="9" width="9" x="21" y="88"/><rect class="st16" height="9" width="9" x="21" y="101"/><rect class="st5" height="9" width="9" x="21" y="101"/></svg>