<?xml version="1.0" ?><svg id="Layer_1" style="enable-background:new 0 0 128 128;" version="1.1" viewBox="0 0 128 128" xml:space="preserve" xmlns="http://www.w3.org/2000/svg" xmlns:xlink="http://www.w3.org/1999/xlink"><style type="text/css">
	.st0{opacity:0.1;fill:#303C63;enable-background:new    ;}
	.st1{fill:none;stroke:#EAC74B;stroke-width:4;stroke-linecap:round;stroke-linejoin:round;stroke-miterlimit:10;}
	.st2{fill:#F26A63;}
	.st3{fill:none;stroke:#303C63;stroke-width:2;stroke-linecap:round;stroke-linejoin:round;stroke-miterlimit:10;}
	.st4{fill:none;stroke:#E0534F;stroke-width:2;stroke-miterlimit:10;}
	.st5{fill:#FFFFFF;}
	
		.st6{opacity:0.1;fill:none;stroke:#303C63;stroke-width:2;stroke-linecap:round;stroke-linejoin:round;stroke-miterlimit:10;enable-background:new    ;}
	.st7{fill:#5AA579;}
	.st8{fill:#6DC392;}
</style><g><circle class="st0" cx="64" cy="64" r="62.5"/></g><path class="st1" d="M89.7,36.2c9.6,0,17.4,3.9,17.4,8.7"/><g><path class="st2" d="M94.2,58l-3.1-24.8c-0.3-2.7-2.5-4.9-5.2-5.2l-24.8-3.1c-1.8-0.2-3.7,0.4-5,1.7L12.2,70.5   c-2.3,2.3-2.3,6.1,0,8.5l27.9,27.9c2.3,2.3,6.1,2.3,8.5,0L92.5,63C93.8,61.7,94.4,59.8,94.2,58z"/><path class="st3" d="M92.7,46l-1.6-12.8c-0.3-2.7-2.5-4.9-5.2-5.2l-24.8-3.1c-1.8-0.2-3.7,0.4-5,1.7L12.2,70.5   c-2.3,2.3-2.3,6.1,0,8.5l27.9,27.9c2.3,2.3,6.1,2.3,8.5,0L92.5,63c1.3-1.3,1.9-3.2,1.7-5l-0.4-3"/><path class="st4" d="M15,76.1c-0.8-0.8-0.8-2,0-2.8l43.9-43.9c0.4-0.4,1-0.6,1.7-0.6l24.8,3.1c0.6,0.1,0.9,0.3,1.2,0.6   s0.5,0.6,0.6,1.2l3.1,24.8c0.1,0.6-0.1,1.2-0.6,1.7L45.8,104c-0.8,0.8-2,0.8-2.8,0L15,76.1z"/><ellipse class="st5" cx="72.3" cy="46.8" rx="6.8" ry="6.8" transform="matrix(0.7071 -0.7071 0.7071 0.7071 -11.8955 64.8355)"/><ellipse class="st3" cx="72.3" cy="46.8" rx="6.8" ry="6.8" transform="matrix(0.7071 -0.7071 0.7071 0.7071 -11.8955 64.8355)"/><path class="st5" d="M44.7,93.1L26.3,74.7c-1.6-1.6-1.6-4.1,0-5.7l14.1-14.1c1.6-1.6,4.1-1.6,5.7,0l18.4,18.4   c1.6,1.6,1.6,4.1,0,5.7L50.4,93.1C48.8,94.6,46.3,94.6,44.7,93.1z"/><line class="st6" x1="42.6" x2="56.7" y1="62.7" y2="76.8"/><line class="st6" x1="38.3" x2="52.5" y1="66.9" y2="81.1"/><line class="st6" x1="34.1" x2="48.2" y1="71.2" y2="85.3"/></g><path class="st1" d="M107.2,44.9c0,4.8-7.8,8.7-17.4,8.7s-17.4-3.9-17.4-8.7"/><path class="st7" d="M114,72H39c-2.2,0-4,1.8-4,4v30c0,2.2,1.8,4,4,4h75c2.2,0,4-1.8,4-4V76C118,73.8,116.2,72,114,72z"/><rect class="st8" height="30" width="75" x="39" y="76"/><polyline class="st3" points="39,106 39,76 107,76 "/><polyline class="st3" points="114,76 114,106 45,106 "/><path class="st3" d="M114,72H39c-2.2,0-4,1.8-4,4v30c0,2.2,1.8,4,4,4h75c2.2,0,4-1.8,4-4V76C118,73.8,116.2,72,114,72z"/><path class="st5" d="M61.9,93.7c0,0.9-0.2,1.8-0.7,2.5s-1.2,1.3-2,1.7c-0.9,0.4-1.9,0.6-3.1,0.6c-1,0-1.8-0.1-2.5-0.2  c-0.7-0.1-1.4-0.4-2.1-0.7v-3.6c0.8,0.4,1.6,0.7,2.4,0.9s1.6,0.3,2.3,0.3c0.6,0,1-0.1,1.3-0.3s0.4-0.5,0.4-0.8  c0-0.2-0.1-0.4-0.2-0.5c-0.1-0.2-0.3-0.3-0.5-0.5c-0.2-0.2-0.9-0.5-2-1c-1-0.4-1.7-0.9-2.2-1.3c-0.5-0.4-0.9-0.9-1.1-1.4  s-0.4-1.2-0.4-1.9c0-1.4,0.5-2.5,1.5-3.2c1-0.8,2.4-1.2,4.2-1.2c1.6,0,3.1,0.4,4.8,1.1l-1.2,3.1c-1.4-0.6-2.6-1-3.6-1  c-0.5,0-0.9,0.1-1.2,0.3c-0.2,0.2-0.4,0.4-0.4,0.7c0,0.3,0.2,0.6,0.5,0.8s1.1,0.7,2.5,1.3c1.3,0.6,2.2,1.2,2.7,1.9  S61.9,92.7,61.9,93.7z"/><path class="st5" d="M73.5,98.3l-0.7-2.8h-4.9l-0.8,2.8h-4.5l4.9-15.1H73l5,15.1H73.5z M71.9,92.2l-0.6-2.5  c-0.2-0.5-0.3-1.3-0.5-2.1c-0.2-0.9-0.4-1.5-0.4-1.9c-0.1,0.3-0.2,0.9-0.4,1.7c-0.2,0.8-0.6,2.4-1.2,4.7H71.9z"/><path class="st5" d="M79.5,98.3v-15h4.1V95h5.8v3.3H79.5z"/><path class="st5" d="M100.7,98.3h-8.9v-15h8.9v3.3h-4.9v2.4h4.5v3.3h-4.5V95h4.9V98.3z"/><line class="st3" x1="12" x2="31" y1="110" y2="110"/></svg>