<?xml version="1.0" ?><svg id="Layer_1" style="enable-background:new 0 0 128 128;" version="1.1" viewBox="0 0 128 128" xml:space="preserve" xmlns="http://www.w3.org/2000/svg" xmlns:xlink="http://www.w3.org/1999/xlink"><style type="text/css">
	.st0{opacity:0.1;fill:#303C63;}
	.st1{display:none;}
	
		.st2{display:inline;opacity:0.1;fill:none;stroke:#303C63;stroke-width:2;stroke-linecap:round;stroke-linejoin:round;stroke-miterlimit:10;}
	.st3{display:inline;opacity:0.1;fill:#303C63;}
	.st4{display:inline;opacity:0.1;}
	.st5{fill:none;stroke:#303C63;stroke-width:2;stroke-linecap:round;stroke-linejoin:round;stroke-miterlimit:10;}
	.st6{fill:#E0534F;}
	.st7{fill:#FFFFFF;}
	.st8{fill:#E2E2E2;}
	.st9{fill:#F1DD6F;}
	.st10{fill:#EAC74B;}
	.st11{fill:none;stroke:#EAC74B;stroke-width:6;stroke-linecap:round;stroke-linejoin:round;stroke-miterlimit:10;}
	.st12{fill:#6DC392;}
	.st13{fill:#5AA579;}
	.st14{fill:#F26A63;}
	.st15{fill:#B7B7B7;}
	.st16{fill:#88C6ED;}
	.st17{fill:none;stroke:#AFDDF3;stroke-linecap:round;stroke-miterlimit:10;}
	.st18{fill:none;stroke:#EAC74B;stroke-width:2;stroke-linecap:round;stroke-linejoin:round;stroke-miterlimit:10;}
	.st19{fill:none;stroke:#EAC74B;stroke-width:4;stroke-linecap:round;stroke-linejoin:round;stroke-miterlimit:10;}
	.st20{fill:none;stroke:#E0534F;stroke-width:2;stroke-miterlimit:10;}
	.st21{opacity:0.1;fill:none;stroke:#303C63;stroke-width:2;stroke-linecap:round;stroke-linejoin:round;stroke-miterlimit:10;}
	.st22{fill:#303C63;}
	.st23{fill:none;stroke:#2C3E50;stroke-width:2;stroke-linecap:round;stroke-linejoin:round;stroke-miterlimit:10;}
	.st24{opacity:0.1;}
	
		.st25{fill:none;stroke:#303C63;stroke-width:2;stroke-linecap:round;stroke-linejoin:round;stroke-miterlimit:10;stroke-dasharray:4,5;}
	.st26{fill:none;stroke:#F26A63;stroke-width:2;stroke-linecap:round;stroke-linejoin:round;}
	.st27{fill:none;stroke:#F26A63;stroke-width:2;stroke-linecap:round;stroke-linejoin:round;stroke-dasharray:3.7902,4.7377;}
	.st28{fill:none;stroke:#FFFFFF;stroke-width:4;stroke-linecap:round;stroke-linejoin:round;stroke-miterlimit:10;}
	.st29{fill:#FAF8F2;}
	.st30{fill:#AFDDF3;}
	.st31{fill:none;stroke:#F26A63;stroke-width:4;stroke-linecap:round;stroke-linejoin:round;stroke-miterlimit:10;}
	.st32{fill:none;stroke:#FFFFFF;stroke-width:2;stroke-linecap:round;stroke-linejoin:round;stroke-miterlimit:10;}
	.st33{fill:none;stroke:#6DC392;stroke-width:2;stroke-linecap:round;stroke-linejoin:round;stroke-miterlimit:10;}
	.st34{fill:none;stroke:#303C63;stroke-width:2;stroke-linecap:round;stroke-linejoin:round;}
	.st35{fill:none;stroke:#303C63;stroke-width:2;stroke-linecap:round;stroke-linejoin:round;stroke-dasharray:3.76,4.7;}
	.st36{opacity:0.2;}
	.st37{opacity:0.2;fill:none;stroke:#303C63;stroke-width:2;stroke-linecap:round;stroke-linejoin:round;stroke-miterlimit:10;}
</style><g><circle class="st0" cx="64" cy="64" r="62.5"/></g><line class="st5" x1="5" x2="15.5" y1="110" y2="110"/><line class="st5" x1="108" x2="121" y1="110" y2="110"/><path class="st15" d="M10,41v28c0,4.4,3.6,8,8,8h58c4.4,0,8-3.6,8-8V41c0-4.4-3.6-8-8-8H18C13.6,33,10,36.6,10,41z"/><path class="st5" d="M84,69c0,4.4-3.6,8-8,8H18c-4.4,0-8-3.6-8-8V41c0-4.4,3.6-8,8-8h58c4.4,0,8,3.6,8,8V69z"/><rect class="st7" height="50" transform="matrix(6.123234e-17 -1 1 6.123234e-17 -8 102)" width="32" x="31" y="30"/><rect class="st5" height="50" transform="matrix(6.123234e-17 -1 1 6.123234e-17 -8 102)" width="32" x="31" y="30"/><g><polygon class="st12" points="66,81 117,81 117,110 72,110 66,107  "/><polyline class="st5" points="66,105 66,81 117,81 117,110 78,110  "/><path class="st13" d="M76.5,106c0-4-1.5-6.5-5.5-6.5v-9c4,0,5.5-2.5,5.5-5.5h30c0,3,2.5,5.5,5.5,5.5v9c-3,0-5.5,2.5-5.5,6.5H76.5z"/><circle class="st7" cx="91.5" cy="95" r="5.8"/><circle class="st5" cx="91.5" cy="95" r="5.8"/><path class="st5" d="M83,106h23.5c0-4,2.5-6.5,5.5-6.5v-9c-3,0-5.7-2.4-5.7-5.8"/><path class="st5" d="M100,85H76.5c0,3-1.5,5.5-5.5,5.5v9c4,0,5.4,2.9,5.4,6.2"/><line class="st5" x1="85" x2="79" y1="95" y2="95"/><line class="st5" x1="104" x2="98" y1="95" y2="95"/></g><line class="st5" x1="16" x2="16" y1="60" y2="50"/><circle class="st22" cx="78" cy="55.5" r="1.9"/><rect class="st7" height="8" width="50" x="22" y="25"/><polygon class="st7" points="22,77 72,77 72,110 63.7,106 55.3,110 47,106 38.7,110 30.3,106 22,110 "/><polygon class="st5" points="22,77 72,77 72,110 63.7,106 55.3,110 47,106 38.7,110 30.3,106 22,110 "/><rect class="st5" height="8" width="50" x="22" y="25"/><g><circle class="st0" cx="33.6" cy="47.2" r="2.2"/><line class="st21" x1="40" x2="62" y1="47" y2="47"/><circle class="st0" cx="33.6" cy="55.2" r="2.2"/><line class="st21" x1="40" x2="62" y1="55" y2="55"/><circle class="st0" cx="33.6" cy="63.2" r="2.2"/><line class="st21" x1="40" x2="62" y1="63" y2="63"/></g><g><path class="st10" d="M34.3,96.3c-1.1-0.1-2.2-0.3-3.3-0.8v-2.6c0.6,0.3,1.3,0.6,2,0.8c0.7,0.2,1.3,0.3,1.9,0.3   c0.4,0,0.8-0.1,1-0.2c0.2-0.1,0.3-0.3,0.3-0.5c0-0.2-0.1-0.3-0.2-0.4c-0.1-0.1-0.4-0.3-0.7-0.4c-0.3-0.1-0.8-0.3-1.4-0.5   c-0.7-0.2-1.2-0.5-1.6-0.8c-0.4-0.3-0.7-0.6-0.9-1c-0.2-0.4-0.3-0.8-0.3-1.4c0-0.9,0.3-1.5,0.8-2c0.5-0.5,1.4-0.8,2.5-0.9v-1.1h1.6   v1c1,0.1,2.1,0.3,3.1,0.8l-0.9,2.2C37,88.3,36.1,88,35.2,88c-0.4,0-0.7,0.1-0.9,0.2c-0.2,0.1-0.3,0.2-0.3,0.4   c0,0.2,0.1,0.3,0.2,0.4c0.1,0.1,0.3,0.2,0.6,0.4c0.3,0.1,0.7,0.3,1.2,0.5c1.1,0.4,1.9,0.8,2.3,1.3s0.7,1.1,0.7,1.9   c0,0.9-0.3,1.6-0.8,2.1c-0.6,0.5-1.4,0.9-2.4,1v1.5h-1.6V96.3z"/></g><line class="st21" x1="46" x2="61" y1="86.8" y2="86.8"/><line class="st21" x1="46" x2="61" y1="91.8" y2="91.8"/><line class="st21" x1="46" x2="61" y1="96.8" y2="96.8"/></svg>