<?xml version="1.0" ?><svg id="Layer_1" style="enable-background:new 0 0 128 128;" version="1.1" viewBox="0 0 128 128" xml:space="preserve" xmlns="http://www.w3.org/2000/svg" xmlns:xlink="http://www.w3.org/1999/xlink"><style type="text/css">
	.st0{opacity:0.1;fill:#303C63;}
	.st1{display:none;}
	
		.st2{display:inline;opacity:0.1;fill:none;stroke:#303C63;stroke-width:2;stroke-linecap:round;stroke-linejoin:round;stroke-miterlimit:10;}
	.st3{display:inline;opacity:0.1;fill:#303C63;}
	.st4{display:inline;opacity:0.1;}
	.st5{fill:none;stroke:#303C63;stroke-width:2;stroke-linecap:round;stroke-linejoin:round;stroke-miterlimit:10;}
	.st6{fill:#E0534F;}
	.st7{fill:#FFFFFF;}
	.st8{fill:#E2E2E2;}
	.st9{fill:#F1DD6F;}
	.st10{fill:#EAC74B;}
	.st11{fill:none;stroke:#EAC74B;stroke-width:6;stroke-linecap:round;stroke-linejoin:round;stroke-miterlimit:10;}
	.st12{fill:#6DC392;}
	.st13{fill:#5AA579;}
	.st14{fill:#F26A63;}
	.st15{fill:#B7B7B7;}
	.st16{fill:#88C6ED;}
	.st17{fill:none;stroke:#AFDDF3;stroke-linecap:round;stroke-miterlimit:10;}
	.st18{fill:none;stroke:#EAC74B;stroke-width:2;stroke-linecap:round;stroke-linejoin:round;stroke-miterlimit:10;}
	.st19{fill:none;stroke:#EAC74B;stroke-width:4;stroke-linecap:round;stroke-linejoin:round;stroke-miterlimit:10;}
	.st20{fill:none;stroke:#E0534F;stroke-width:2;stroke-miterlimit:10;}
	.st21{opacity:0.1;fill:none;stroke:#303C63;stroke-width:2;stroke-linecap:round;stroke-linejoin:round;stroke-miterlimit:10;}
	.st22{fill:#303C63;}
	.st23{fill:none;stroke:#2C3E50;stroke-width:2;stroke-linecap:round;stroke-linejoin:round;stroke-miterlimit:10;}
	.st24{opacity:0.1;}
	
		.st25{fill:none;stroke:#303C63;stroke-width:2;stroke-linecap:round;stroke-linejoin:round;stroke-miterlimit:10;stroke-dasharray:4,5;}
	.st26{fill:none;stroke:#F26A63;stroke-width:2;stroke-linecap:round;stroke-linejoin:round;}
	.st27{fill:none;stroke:#F26A63;stroke-width:2;stroke-linecap:round;stroke-linejoin:round;stroke-dasharray:3.7902,4.7377;}
	.st28{fill:none;stroke:#FFFFFF;stroke-width:4;stroke-linecap:round;stroke-linejoin:round;stroke-miterlimit:10;}
	.st29{fill:#FAF8F2;}
	.st30{fill:#AFDDF3;}
	.st31{fill:none;stroke:#F26A63;stroke-width:4;stroke-linecap:round;stroke-linejoin:round;stroke-miterlimit:10;}
	.st32{fill:none;stroke:#FFFFFF;stroke-width:2;stroke-linecap:round;stroke-linejoin:round;stroke-miterlimit:10;}
	.st33{fill:none;stroke:#6DC392;stroke-width:2;stroke-linecap:round;stroke-linejoin:round;stroke-miterlimit:10;}
	.st34{fill:none;stroke:#303C63;stroke-width:2;stroke-linecap:round;stroke-linejoin:round;}
	.st35{fill:none;stroke:#303C63;stroke-width:2;stroke-linecap:round;stroke-linejoin:round;stroke-dasharray:3.76,4.7;}
	.st36{opacity:0.2;}
	.st37{opacity:0.2;fill:none;stroke:#303C63;stroke-width:2;stroke-linecap:round;stroke-linejoin:round;stroke-miterlimit:10;}
</style><g><circle class="st0" cx="64" cy="64" r="62.5"/></g><path class="st7" d="M101,41H30c-2.2,0-4,1.8-4,4v65h79V45C105,42.8,103.2,41,101,41z"/><path class="st15" d="M105,54H26v-9c0-2.2,1.8-4,4-4h71c2.2,0,4,1.8,4,4V54z"/><path class="st5" d="M52,110h53V45c0-2.2-1.8-4-4-4H30c-2.2,0-4,1.8-4,4v65h18"/><path class="st14" d="M25.4,47L23,59.2c0,3.4,3,6.3,6.4,6.3s6.4-2.9,6.4-6.3L37.3,47H25.4z"/><path class="st7" d="M37.3,47l-1.6,12.2c0,3.4,2.6,6.3,6,6.3s6-2.9,6-6.3L48.5,47H37.3z"/><path class="st14" d="M48.5,47l-0.8,12.2c0,3.4,2.8,6.3,6.2,6.3c3.4,0,6.2-2.7,6.2-6.1V47H48.5z"/><path class="st7" d="M60,47v12.4c0,3.4,2.6,6.2,6,6.2s6-2.8,6-6.2V47H60z"/><path class="st14" d="M72,47v12.4c0,3.4,2.8,6.2,6.2,6.2s6.1-2.9,6.1-6.3L83.5,47H72z"/><path class="st7" d="M83.5,47l0.8,12.2c0,3.4,3,6.3,6.4,6.3s6.4-2.9,6.4-6.3L95.5,47H83.5z"/><path class="st14" d="M95.5,47l1.6,12.2c0,3.4,2.6,6.3,6,6.3s6-2.9,6-6.3L106.6,47H95.5z"/><path class="st5" d="M102.9,65.6c-3.4,0-5.8-2.8-5.8-6.2c0,3.4-2.8,6.2-6.2,6.2s-6.2-2.8-6.2-6.2c0,3.4-2.8,6.2-6.2,6.2  c-3.4,0-6.2-2.8-6.2-6.2c0,3.4-2.8,6.2-6.2,6.2c-3.4,0-6.2-2.8-6.2-6.2c0,3.4-2.8,6.2-6.2,6.2c-3.4,0-6.2-2.8-6.2-6.2  c0,3.4-2.8,6.2-6.2,6.2c-3.4,0-6.2-2.8-6.2-6.2c0,3.4-2.8,6.2-6.2,6.2c-3.7,0-6.2-3.2-6.2-6.3L25.4,47h81.2l2.4,12.2"/><rect class="st14" height="18" width="50" x="41" y="25"/><rect class="st5" height="18" width="50" x="41" y="25"/><rect class="st7" height="42" transform="matrix(-1.836970e-16 1 -1 -1.836970e-16 100 -32)" width="10" x="61" y="13"/><polyline class="st5" points="45,39 45,29 79,29 "/><polyline class="st5" points="87,29 87,39 52,39 "/><rect class="st5" height="39" width="24" x="73" y="71"/><rect class="st16" height="25" width="32" x="34" y="71"/><line class="st17" x1="38.2" x2="45" y1="78.9" y2="71"/><line class="st17" x1="38.2" x2="41.6" y1="74.9" y2="70.9"/><rect class="st5" height="25" width="32" x="34" y="71"/><rect class="st16" height="14" width="16" x="77" y="75"/><line class="st5" x1="78" x2="81" y1="93" y2="93"/><line class="st17" x1="80.2" x2="84.4" y1="79.9" y2="75"/><g><path class="st13" d="M24.8,110c1.7-1.8,2.7-4.2,2.7-6.9c0-5.6-4.5-10.1-10.1-10.1S7.2,97.5,7.2,103.1c0,2.7,1,5.1,2.7,6.9H24.8z"/><path class="st5" d="M24.8,110c1.7-1.8,2.7-4.2,2.7-6.9c0-5.6-4.5-10.1-10.1-10.1S7.2,97.5,7.2,103.1c0,2.7,1,5.1,2.7,6.9H24.8z"/><path class="st12" d="M32.4,110c1.2-1.3,2-3,2-5c0-4-3.3-7.3-7.3-7.3s-7.3,3.3-7.3,7.3c0,1.9,0.7,3.7,2,5H32.4z"/><path class="st5" d="M32.4,110c1.2-1.3,2-3,2-5c0-4-3.3-7.3-7.3-7.3s-7.3,3.3-7.3,7.3c0,1.9,0.7,3.7,2,5H32.4z"/></g><rect class="st5" height="14" width="16" x="77" y="75"/><line class="st5" x1="111" x2="122" y1="110" y2="110"/><line class="st18" x1="50" x2="58" y1="34" y2="34"/><line class="st18" x1="81" x2="64" y1="34" y2="34"/></svg>