<?xml version="1.0" ?><svg id="Layer_1" style="enable-background:new 0 0 128 128;" version="1.1" viewBox="0 0 128 128" xml:space="preserve" xmlns="http://www.w3.org/2000/svg" xmlns:xlink="http://www.w3.org/1999/xlink"><style type="text/css">
	.st0{opacity:0.1;fill:#303C63;}
	.st1{display:none;}
	
		.st2{display:inline;opacity:0.1;fill:none;stroke:#303C63;stroke-width:2;stroke-linecap:round;stroke-linejoin:round;stroke-miterlimit:10;}
	.st3{display:inline;opacity:0.1;fill:#303C63;}
	.st4{display:inline;opacity:0.1;}
	.st5{fill:none;stroke:#303C63;stroke-width:2;stroke-linecap:round;stroke-linejoin:round;stroke-miterlimit:10;}
	.st6{fill:#E0534F;}
	.st7{fill:#FFFFFF;}
	.st8{fill:#E2E2E2;}
	.st9{fill:#F1DD6F;}
	.st10{fill:#EAC74B;}
	.st11{fill:none;stroke:#EAC74B;stroke-width:6;stroke-linecap:round;stroke-linejoin:round;stroke-miterlimit:10;}
	.st12{fill:#6DC392;}
	.st13{fill:#5AA579;}
	.st14{fill:#F26A63;}
	.st15{fill:#B7B7B7;}
	.st16{fill:#88C6ED;}
	.st17{fill:none;stroke:#AFDDF3;stroke-linecap:round;stroke-miterlimit:10;}
	.st18{fill:none;stroke:#EAC74B;stroke-width:2;stroke-linecap:round;stroke-linejoin:round;stroke-miterlimit:10;}
	.st19{fill:none;stroke:#EAC74B;stroke-width:4;stroke-linecap:round;stroke-linejoin:round;stroke-miterlimit:10;}
	.st20{fill:none;stroke:#E0534F;stroke-width:2;stroke-miterlimit:10;}
	.st21{opacity:0.1;fill:none;stroke:#303C63;stroke-width:2;stroke-linecap:round;stroke-linejoin:round;stroke-miterlimit:10;}
	.st22{fill:#303C63;}
	.st23{fill:none;stroke:#2C3E50;stroke-width:2;stroke-linecap:round;stroke-linejoin:round;stroke-miterlimit:10;}
	.st24{opacity:0.1;}
	
		.st25{fill:none;stroke:#303C63;stroke-width:2;stroke-linecap:round;stroke-linejoin:round;stroke-miterlimit:10;stroke-dasharray:4,5;}
	.st26{fill:none;stroke:#F26A63;stroke-width:2;stroke-linecap:round;stroke-linejoin:round;}
	.st27{fill:none;stroke:#F26A63;stroke-width:2;stroke-linecap:round;stroke-linejoin:round;stroke-dasharray:3.7902,4.7377;}
	.st28{fill:none;stroke:#FFFFFF;stroke-width:4;stroke-linecap:round;stroke-linejoin:round;stroke-miterlimit:10;}
	.st29{fill:#FAF8F2;}
	.st30{fill:#AFDDF3;}
	.st31{fill:none;stroke:#F26A63;stroke-width:4;stroke-linecap:round;stroke-linejoin:round;stroke-miterlimit:10;}
	.st32{fill:none;stroke:#FFFFFF;stroke-width:2;stroke-linecap:round;stroke-linejoin:round;stroke-miterlimit:10;}
	.st33{fill:none;stroke:#6DC392;stroke-width:2;stroke-linecap:round;stroke-linejoin:round;stroke-miterlimit:10;}
	.st34{fill:none;stroke:#303C63;stroke-width:2;stroke-linecap:round;stroke-linejoin:round;}
	.st35{fill:none;stroke:#303C63;stroke-width:2;stroke-linecap:round;stroke-linejoin:round;stroke-dasharray:3.76,4.7;}
	.st36{opacity:0.2;}
	.st37{opacity:0.2;fill:none;stroke:#303C63;stroke-width:2;stroke-linecap:round;stroke-linejoin:round;stroke-miterlimit:10;}
</style><g><circle class="st0" cx="64" cy="64" r="62.5"/></g><line class="st5" x1="89" x2="122" y1="110" y2="110"/><line class="st5" x1="41" x2="67" y1="110" y2="110"/><polygon class="st7" points="54.4,34.7 45.5,71.8 57,83 57,98 80,98 80,83 82.4,73.4 "/><polygon class="st5" points="54.4,34.7 45.5,71.8 57,83 57,98 80,98 80,83 82.4,73.4 "/><path class="st12" d="M31,59V27c0-2.2,1.8-4,4-4h57c2.2,0,4,1.8,4,4v32c0,2.2-1.8,4-4,4H35C32.8,63,31,61.2,31,59z"/><rect class="st22" height="9" width="65" x="31" y="30"/><path class="st5" d="M59,63H35c-2.2,0-4-1.8-4-4V27c0-2.2,1.8-4,4-4h57c2.2,0,4,1.8,4,4v32c0,2.2-1.8,4-4,4H71"/><rect class="st8" height="8" width="37" x="36" y="43"/><g><rect class="st16" height="19" width="31" x="52" y="91"/></g><g><polyline class="st5" points="71,110 52,110 52,91 83,91 83,110 79,110  "/></g><line class="st5" x1="90" x2="85" y1="45" y2="45"/><line class="st5" x1="90" x2="85" y1="49" y2="49"/><path class="st7" d="M87,70.7L84,44c-0.4-3.3-3.4-5.7-6.7-5.3c-3.3,0.4-5.7,3.4-5.3,6.7L73.5,57c0.2,1.9-0.7,3.7-2.4,4.5l-13.9,7.2  c0,0,5.1,15.6,13.4,16.5c8,0.8,15.2-4.8,16.4-12.6C87,72.4,87.1,71.1,87,70.7z"/><path class="st5" d="M70.5,85.2c8,0.8,15.2-4.8,16.4-12.6c0.1-0.2,0.1-1.6,0.1-1.9L84,44c-0.4-3.3-3.4-5.7-6.7-5.3  c-3.3,0.4-5.7,3.4-5.3,6.7L73.5,57c0.2,1.9-0.7,3.7-2.4,4.5l-6.5,3.3"/><line class="st5" x1="34" x2="9" y1="110" y2="110"/><line class="st5" x1="37" x2="62" y1="56" y2="56"/><circle class="st5" cx="59.2" cy="99" r="2.8"/></svg>