<?xml version="1.0" ?><svg id="Layer_1" style="enable-background:new 0 0 128 128;" version="1.1" viewBox="0 0 128 128" xml:space="preserve" xmlns="http://www.w3.org/2000/svg" xmlns:xlink="http://www.w3.org/1999/xlink"><style type="text/css">
	.st0{opacity:0.1;fill:#303C63;}
	.st1{display:none;}
	
		.st2{display:inline;opacity:0.1;fill:none;stroke:#303C63;stroke-width:2;stroke-linecap:round;stroke-linejoin:round;stroke-miterlimit:10;}
	.st3{display:inline;opacity:0.1;fill:#303C63;}
	.st4{display:inline;opacity:0.1;}
	.st5{fill:none;stroke:#303C63;stroke-width:2;stroke-linecap:round;stroke-linejoin:round;stroke-miterlimit:10;}
	.st6{fill:#E0534F;}
	.st7{fill:#FFFFFF;}
	.st8{fill:#E2E2E2;}
	.st9{fill:#F1DD6F;}
	.st10{fill:#EAC74B;}
	.st11{fill:none;stroke:#EAC74B;stroke-width:6;stroke-linecap:round;stroke-linejoin:round;stroke-miterlimit:10;}
	.st12{fill:#6DC392;}
	.st13{fill:#5AA579;}
	.st14{fill:#F26A63;}
	.st15{fill:#B7B7B7;}
	.st16{fill:#88C6ED;}
	.st17{fill:none;stroke:#AFDDF3;stroke-linecap:round;stroke-miterlimit:10;}
	.st18{fill:none;stroke:#EAC74B;stroke-width:2;stroke-linecap:round;stroke-linejoin:round;stroke-miterlimit:10;}
	.st19{fill:none;stroke:#EAC74B;stroke-width:4;stroke-linecap:round;stroke-linejoin:round;stroke-miterlimit:10;}
	.st20{fill:none;stroke:#E0534F;stroke-width:2;stroke-miterlimit:10;}
	.st21{opacity:0.1;fill:none;stroke:#303C63;stroke-width:2;stroke-linecap:round;stroke-linejoin:round;stroke-miterlimit:10;}
	.st22{fill:#303C63;}
	.st23{fill:none;stroke:#2C3E50;stroke-width:2;stroke-linecap:round;stroke-linejoin:round;stroke-miterlimit:10;}
	.st24{opacity:0.1;}
	
		.st25{fill:none;stroke:#303C63;stroke-width:2;stroke-linecap:round;stroke-linejoin:round;stroke-miterlimit:10;stroke-dasharray:4,5;}
	.st26{fill:none;stroke:#F26A63;stroke-width:2;stroke-linecap:round;stroke-linejoin:round;}
	.st27{fill:none;stroke:#F26A63;stroke-width:2;stroke-linecap:round;stroke-linejoin:round;stroke-dasharray:3.7902,4.7377;}
	.st28{fill:none;stroke:#FFFFFF;stroke-width:4;stroke-linecap:round;stroke-linejoin:round;stroke-miterlimit:10;}
	.st29{fill:#FAF8F2;}
	.st30{fill:#AFDDF3;}
	.st31{fill:none;stroke:#F26A63;stroke-width:4;stroke-linecap:round;stroke-linejoin:round;stroke-miterlimit:10;}
	.st32{fill:none;stroke:#FFFFFF;stroke-width:2;stroke-linecap:round;stroke-linejoin:round;stroke-miterlimit:10;}
	.st33{fill:none;stroke:#6DC392;stroke-width:2;stroke-linecap:round;stroke-linejoin:round;stroke-miterlimit:10;}
	.st34{fill:none;stroke:#303C63;stroke-width:2;stroke-linecap:round;stroke-linejoin:round;}
	.st35{fill:none;stroke:#303C63;stroke-width:2;stroke-linecap:round;stroke-linejoin:round;stroke-dasharray:3.76,4.7;}
	.st36{opacity:0.2;}
	.st37{opacity:0.2;fill:none;stroke:#303C63;stroke-width:2;stroke-linecap:round;stroke-linejoin:round;stroke-miterlimit:10;}
</style><g><circle class="st0" cx="64" cy="64" r="62.5"/></g><line class="st5" x1="12.3" x2="31.3" y1="110" y2="110"/><rect class="st10" height="81" width="68" x="26" y="29"/><rect class="st7" height="56" transform="matrix(-1.836970e-16 1 -1 -1.836970e-16 129.5 9.5)" width="69" x="25.5" y="41.5"/><polyline class="st5" points="67,110 94,110 94,29 26,29 26,110 60,110 "/><rect class="st5" height="56" transform="matrix(-1.836970e-16 1 -1 -1.836970e-16 129.5 9.5)" width="69" x="25.5" y="41.5"/><g><line class="st21" x1="53" x2="77" y1="52" y2="52"/><line class="st21" x1="53" x2="77" y1="62" y2="62"/><circle class="st0" cx="46.6" cy="72.2" r="2.2"/><line class="st21" x1="53" x2="77" y1="72" y2="72"/><circle class="st0" cx="46.6" cy="82.2" r="2.2"/><line class="st21" x1="53" x2="77" y1="82" y2="82"/><circle class="st0" cx="46.6" cy="92.2" r="2.2"/><line class="st21" x1="53" x2="77" y1="92" y2="92"/><polyline class="st33" points="41.5,51.5 44,54 49,49.1  "/><polyline class="st33" points="41.5,61.5 44,64 49,59.1  "/></g><path class="st12" d="M108.5,107.1c0,1.6-1.3,2.9-2.9,2.9H77.5c-2.2,0-4-1.8-4-4V78h35V107.1z"/><path class="st5" d="M108.5,107.1c0,1.6-1.3,2.9-2.9,2.9H76.4c-1.6,0-2.9-1.3-2.9-2.9V78h35V107.1z"/><circle class="st13" cx="82.5" cy="84.8" r="2.8"/><circle class="st13" cx="99.5" cy="84.8" r="2.8"/><line class="st5" x1="112" x2="121" y1="110" y2="110"/><path class="st5" d="M99.5,84.8V87c0,4.7-3.8,8.5-8.5,8.5s-8.5-3.8-8.5-8.5v-2.2"/><rect class="st5" height="7" width="24" x="48" y="32"/><path class="st22" d="M65,26H55c-2.2,0-4,1.8-4,4v2h18v-2C69,27.8,67.2,26,65,26z"/><circle class="st5" cx="60" cy="24.7" r="3.3"/></svg>