<?xml version="1.0" ?><svg id="Layer_1" style="enable-background:new 0 0 128 128;" version="1.1" viewBox="0 0 128 128" xml:space="preserve" xmlns="http://www.w3.org/2000/svg" xmlns:xlink="http://www.w3.org/1999/xlink"><style type="text/css">
	.st0{opacity:0.1;fill:#303C63;}
	.st1{display:none;}
	
		.st2{display:inline;opacity:0.1;fill:none;stroke:#303C63;stroke-width:2;stroke-linecap:round;stroke-linejoin:round;stroke-miterlimit:10;}
	.st3{display:inline;opacity:0.1;fill:#303C63;}
	.st4{display:inline;opacity:0.1;}
	.st5{fill:none;stroke:#303C63;stroke-width:2;stroke-linecap:round;stroke-linejoin:round;stroke-miterlimit:10;}
	.st6{fill:#E0534F;}
	.st7{fill:#FFFFFF;}
	.st8{fill:#E2E2E2;}
	.st9{fill:#F1DD6F;}
	.st10{fill:#EAC74B;}
	.st11{fill:none;stroke:#EAC74B;stroke-width:6;stroke-linecap:round;stroke-linejoin:round;stroke-miterlimit:10;}
	.st12{fill:#6DC392;}
	.st13{fill:#5AA579;}
	.st14{fill:#F26A63;}
	.st15{fill:#B7B7B7;}
	.st16{fill:#88C6ED;}
	.st17{fill:none;stroke:#AFDDF3;stroke-linecap:round;stroke-miterlimit:10;}
	.st18{fill:none;stroke:#EAC74B;stroke-width:2;stroke-linecap:round;stroke-linejoin:round;stroke-miterlimit:10;}
	.st19{fill:none;stroke:#EAC74B;stroke-width:4;stroke-linecap:round;stroke-linejoin:round;stroke-miterlimit:10;}
	.st20{fill:none;stroke:#E0534F;stroke-width:2;stroke-miterlimit:10;}
	.st21{opacity:0.1;fill:none;stroke:#303C63;stroke-width:2;stroke-linecap:round;stroke-linejoin:round;stroke-miterlimit:10;}
	.st22{fill:#303C63;}
	.st23{fill:none;stroke:#2C3E50;stroke-width:2;stroke-linecap:round;stroke-linejoin:round;stroke-miterlimit:10;}
	.st24{opacity:0.1;}
	
		.st25{fill:none;stroke:#303C63;stroke-width:2;stroke-linecap:round;stroke-linejoin:round;stroke-miterlimit:10;stroke-dasharray:4,5;}
	.st26{fill:none;stroke:#F26A63;stroke-width:2;stroke-linecap:round;stroke-linejoin:round;}
	.st27{fill:none;stroke:#F26A63;stroke-width:2;stroke-linecap:round;stroke-linejoin:round;stroke-dasharray:3.7902,4.7377;}
	.st28{fill:none;stroke:#FFFFFF;stroke-width:4;stroke-linecap:round;stroke-linejoin:round;stroke-miterlimit:10;}
	.st29{fill:#FAF8F2;}
	.st30{fill:#AFDDF3;}
	.st31{fill:none;stroke:#F26A63;stroke-width:4;stroke-linecap:round;stroke-linejoin:round;stroke-miterlimit:10;}
	.st32{fill:none;stroke:#FFFFFF;stroke-width:2;stroke-linecap:round;stroke-linejoin:round;stroke-miterlimit:10;}
	.st33{fill:none;stroke:#6DC392;stroke-width:2;stroke-linecap:round;stroke-linejoin:round;stroke-miterlimit:10;}
	.st34{fill:none;stroke:#303C63;stroke-width:2;stroke-linecap:round;stroke-linejoin:round;}
	.st35{fill:none;stroke:#303C63;stroke-width:2;stroke-linecap:round;stroke-linejoin:round;stroke-dasharray:3.76,4.7;}
	.st36{opacity:0.2;}
	.st37{opacity:0.2;fill:none;stroke:#303C63;stroke-width:2;stroke-linecap:round;stroke-linejoin:round;stroke-miterlimit:10;}
</style><g><circle class="st0" cx="64" cy="64" r="62.5"/></g><line class="st5" x1="91" x2="122" y1="110" y2="110"/><path class="st12" d="M90.6,70.1L50.2,56.2l12.2-35.6c0.6-1.7,2.5-2.7,4.2-2.1l34.1,11.7c1.7,0.6,2.7,2.5,2.1,4.2L90.6,70.1z"/><path class="st5" d="M90.6,70.1L50.2,56.2l12.2-35.6c0.6-1.7,2.5-2.7,4.2-2.1l34.1,11.7c1.7,0.6,2.7,2.5,2.1,4.2L90.6,70.1z"/><g><path class="st16" d="M28.8,58.5l8.2-1.7l4.4,18.5l37.3-7.6l-3.1-18.8l8.2-1.7l2.1-14.5l-22.3-4c0,0-5.1,3.5-10.6,4.7   c-5.6,1.1-12.1,0-12.1,0L21.2,46.1l6.1,10.1L28.8,58.5z"/><path class="st30" d="M63.6,29c0,0-5.1,3.5-10.6,4.6c-5.6,1.1-12.1,0-12.1,0s3.7,7.2,12.6,5.4S63.7,29,63.6,29L63.6,29L63.6,29z"/><path class="st23" d="M40.9,33.6c0,0,3.7,7.2,12.6,5.4S63.7,29,63.7,29"/><path class="st5" d="M28.8,58.5l8.2-1.7l4.4,18.5l37.3-7.6l-3.1-18.8l8.2-1.7l2.1-14.5l-22.3-4c0,0-5.1,3.5-10.6,4.7   c-5.6,1.1-12.1,0-12.1,0L21.2,46.1l6.1,10.1L28.8,58.5z"/><path class="st30" d="M47.7,60L47.7,60c-2.2,0.4-4.3-1-4.8-3.2l-1.1-5.6l8-1.6l1.1,5.6C51.3,57.4,49.9,59.5,47.7,60z"/></g><path class="st7" d="M107,62c0,2.8-2.2,5-5,5H24c-2.8,0-5-2.2-5-5l0,0c0-2.8,2.2-5,5-5h78C104.8,57,107,59.2,107,62L107,62z"/><path class="st8" d="M102,64H24c-2.2,0-4.1-1.5-4.7-3.5C19.1,61,19,61.5,19,62c0,2.8,2.2,5,5,5h78c2.8,0,5-2.2,5-5  c0-0.5-0.1-1-0.3-1.5C106.1,62.5,104.2,64,102,64z"/><path class="st5" d="M63,57h39c2.8,0,5,2.2,5,5l0,0c0,2.8-2.2,5-5,5H24c-2.8,0-5-2.2-5-5l0,0c0-2.8,2.2-5,5-5h31"/><path class="st9" d="M95.8,110H31c-4,0-7-3.2-7-7.2V67h79v35.8C103,106.8,99.8,110,95.8,110z"/><path class="st10" d="M95.8,104H31c-4,0-7-3.2-7-7.2v6c0,4,3,7.2,7,7.2h64.8c4,0,7.2-3.2,7.2-7.2v-6C103,100.8,99.8,104,95.8,104z"/><path class="st5" d="M54,110H31c-4,0-7-3.2-7-7.2V67h79v35.8c0,4-3.2,7.2-7.2,7.2H63"/><g><line class="st11" x1="34" x2="34" y1="76" y2="82"/><line class="st11" x1="34" x2="34" y1="92" y2="98"/><line class="st11" x1="44" x2="44" y1="76" y2="82"/><line class="st11" x1="44" x2="44" y1="92" y2="98"/><line class="st11" x1="54" x2="54" y1="76" y2="82"/><line class="st11" x1="54" x2="54" y1="92" y2="98"/><line class="st11" x1="64" x2="64" y1="76" y2="82"/><line class="st11" x1="64" x2="64" y1="92" y2="98"/><line class="st11" x1="74" x2="74" y1="76" y2="82"/><line class="st11" x1="74" x2="74" y1="92" y2="98"/><line class="st11" x1="84" x2="84" y1="76" y2="82"/><line class="st11" x1="84" x2="84" y1="92" y2="98"/><line class="st11" x1="94" x2="94" y1="76" y2="82"/><line class="st11" x1="94" x2="94" y1="92" y2="98"/></g><g><path class="st14" d="M61.4,60.8c-0.4-0.4-0.6-1-0.7-1.5c-0.2-1.6,1-3.1,2.6-3.3l36.2-4.5c1.6-0.2,3.1,1,3.3,2.6   c0.2,1.6-1,3.1-2.6,3.3l-36.2,4.5C63.1,62,62.1,61.6,61.4,60.8z"/></g><g><path class="st5" d="M61.4,60.8c-0.4-0.4-0.6-1-0.7-1.5c-0.2-1.6,1-3.1,2.6-3.3l36.2-4.5c1.6-0.2,3.1,1,3.3,2.6   c0.2,1.6-1,3.1-2.6,3.3l-36.2,4.5C63.1,62,62.1,61.6,61.4,60.8z"/></g><line class="st5" x1="22" x2="9" y1="110" y2="110"/></svg>