<?xml version="1.0" ?><svg id="Layer_1" style="enable-background:new 0 0 128 128;" version="1.1" viewBox="0 0 128 128" xml:space="preserve" xmlns="http://www.w3.org/2000/svg" xmlns:xlink="http://www.w3.org/1999/xlink"><style type="text/css">
	.st0{opacity:0.1;fill:#303C63;}
	.st1{display:none;}
	
		.st2{display:inline;opacity:0.1;fill:none;stroke:#303C63;stroke-width:2;stroke-linecap:round;stroke-linejoin:round;stroke-miterlimit:10;}
	.st3{display:inline;opacity:0.1;fill:#303C63;}
	.st4{display:inline;opacity:0.1;}
	.st5{fill:none;stroke:#303C63;stroke-width:2;stroke-linecap:round;stroke-linejoin:round;stroke-miterlimit:10;}
	.st6{fill:#E0534F;}
	.st7{fill:#FFFFFF;}
	.st8{fill:#E2E2E2;}
	.st9{fill:#F1DD6F;}
	.st10{fill:#EAC74B;}
	.st11{fill:none;stroke:#EAC74B;stroke-width:6;stroke-linecap:round;stroke-linejoin:round;stroke-miterlimit:10;}
	.st12{fill:#6DC392;}
	.st13{fill:#5AA579;}
	.st14{fill:#F26A63;}
	.st15{fill:#B7B7B7;}
	.st16{fill:#88C6ED;}
	.st17{fill:none;stroke:#AFDDF3;stroke-linecap:round;stroke-miterlimit:10;}
	.st18{fill:none;stroke:#EAC74B;stroke-width:2;stroke-linecap:round;stroke-linejoin:round;stroke-miterlimit:10;}
	.st19{fill:none;stroke:#EAC74B;stroke-width:4;stroke-linecap:round;stroke-linejoin:round;stroke-miterlimit:10;}
	.st20{fill:none;stroke:#E0534F;stroke-width:2;stroke-miterlimit:10;}
	.st21{opacity:0.1;fill:none;stroke:#303C63;stroke-width:2;stroke-linecap:round;stroke-linejoin:round;stroke-miterlimit:10;}
	.st22{fill:#303C63;}
	.st23{fill:none;stroke:#2C3E50;stroke-width:2;stroke-linecap:round;stroke-linejoin:round;stroke-miterlimit:10;}
	.st24{opacity:0.1;}
	
		.st25{fill:none;stroke:#303C63;stroke-width:2;stroke-linecap:round;stroke-linejoin:round;stroke-miterlimit:10;stroke-dasharray:4,5;}
	.st26{fill:none;stroke:#F26A63;stroke-width:2;stroke-linecap:round;stroke-linejoin:round;}
	.st27{fill:none;stroke:#F26A63;stroke-width:2;stroke-linecap:round;stroke-linejoin:round;stroke-dasharray:3.7902,4.7377;}
	.st28{fill:none;stroke:#FFFFFF;stroke-width:4;stroke-linecap:round;stroke-linejoin:round;stroke-miterlimit:10;}
	.st29{fill:#FAF8F2;}
	.st30{fill:#AFDDF3;}
	.st31{fill:none;stroke:#F26A63;stroke-width:4;stroke-linecap:round;stroke-linejoin:round;stroke-miterlimit:10;}
	.st32{fill:none;stroke:#FFFFFF;stroke-width:2;stroke-linecap:round;stroke-linejoin:round;stroke-miterlimit:10;}
	.st33{fill:none;stroke:#6DC392;stroke-width:2;stroke-linecap:round;stroke-linejoin:round;stroke-miterlimit:10;}
	.st34{fill:none;stroke:#303C63;stroke-width:2;stroke-linecap:round;stroke-linejoin:round;}
	.st35{fill:none;stroke:#303C63;stroke-width:2;stroke-linecap:round;stroke-linejoin:round;stroke-dasharray:3.76,4.7;}
	.st36{opacity:0.2;}
	.st37{opacity:0.2;fill:none;stroke:#303C63;stroke-width:2;stroke-linecap:round;stroke-linejoin:round;stroke-miterlimit:10;}
</style><g><circle class="st0" cx="64" cy="64" r="62.5"/></g><line class="st5" x1="104" x2="122" y1="110" y2="110"/><path class="st7" d="M94,51H19c-2.2,0-4,1.8-4,4v51c0,2.2,1.8,4,4,4h75c2.2,0,4-1.8,4-4V55C98,52.8,96.2,51,94,51z"/><g><path class="st14" d="M49,85H35c-7.7,0-14-6.3-14-14s6.3-14,14-14s14,6.3,14,14V85z M35,65c-3.3,0-6,2.7-6,6s2.7,6,6,6h6v-6   C41,67.7,38.3,65,35,65z"/></g><g><path class="st5" d="M49,85H35c-7.7,0-14-6.3-14-14s6.3-14,14-14s14,6.3,14,14V85z M35,65c-3.3,0-6,2.7-6,6s2.7,6,6,6h6v-6   C41,67.7,38.3,65,35,65z"/></g><g><path class="st14" d="M49,85h14c7.7,0,14-6.3,14-14s-6.3-14-14-14s-14,6.3-14,14V85z M63,65c3.3,0,6,2.7,6,6s-2.7,6-6,6h-6v-6   C57,67.7,59.7,65,63,65z"/></g><g><path class="st5" d="M49,85h14c7.7,0,14-6.3,14-14s-6.3-14-14-14s-14,6.3-14,14V85z M63,65c3.3,0,6,2.7,6,6s-2.7,6-6,6h-6v-6   C57,67.7,59.7,65,63,65z"/></g><rect class="st14" height="59" width="8" x="45" y="52"/><rect class="st14" height="83" transform="matrix(-1.836970e-16 1 -1 -1.836970e-16 141.5 28.5)" width="8" x="52.5" y="43.5"/><polygon class="st5" points="98,81 53,81 53,51 45,51 45,81 15,81 15,89 45,89 45,110 53,110 53,89 98,89 "/><path class="st5" d="M68,110h26c2.2,0,4-1.8,4-4V55c0-2.2-1.8-4-4-4H19c-2.2,0-4,1.8-4,4v51c0,2.2,1.8,4,4,4h41"/><path class="st12" d="M76.9,52H86v5.1l7-5.1h18.8c2.2,0,4.1-1.8,4.1-4V23c0-2.2-1.9-4-4.1-4h-35c-2.2,0-3.9,1.8-3.9,4v25  C73,50.2,74.7,52,76.9,52z"/><path class="st5" d="M77,52h-0.1c-2.2,0-3.9-1.8-3.9-4V23c0-2.2,1.7-4,3.9-4h35c2.2,0,4.1,1.8,4.1,4v25c0,2.2-1.9,4-4.1,4H93l-7,5.1  V52h-3"/><g><path class="st7" d="M93.5,41.8c-1.5-0.1-3-0.4-4.4-1v-3.5c0.8,0.4,1.7,0.8,2.6,1c0.9,0.3,1.8,0.4,2.5,0.4c0.6,0,1-0.1,1.3-0.2   c0.3-0.1,0.4-0.4,0.4-0.7c0-0.2-0.1-0.4-0.3-0.6c-0.2-0.2-0.5-0.3-1-0.5c-0.5-0.2-1.1-0.4-1.9-0.7c-0.9-0.3-1.6-0.7-2.1-1.1   c-0.5-0.4-0.9-0.9-1.2-1.4C89.2,33,89,32.3,89,31.6c0-1.1,0.4-2,1.1-2.7s1.8-1,3.3-1.2v-1.4h2.2v1.4c1.4,0.1,2.8,0.4,4.2,1l-1.2,3   c-1.5-0.7-2.8-1-3.9-1c-0.6,0-0.9,0.1-1.2,0.2c-0.2,0.1-0.3,0.3-0.3,0.6c0,0.2,0.1,0.4,0.2,0.6c0.2,0.1,0.4,0.3,0.8,0.5   s1,0.4,1.7,0.6c1.5,0.5,2.5,1.1,3.1,1.8c0.6,0.7,0.9,1.5,0.9,2.5c0,1.2-0.4,2.1-1.1,2.8c-0.7,0.7-1.8,1.2-3.2,1.4v2h-2.2V41.8z"/></g></svg>