<?xml version="1.0" ?><svg id="Layer_1" style="enable-background:new 0 0 128 128;" version="1.1" viewBox="0 0 128 128" xml:space="preserve" xmlns="http://www.w3.org/2000/svg" xmlns:xlink="http://www.w3.org/1999/xlink"><style type="text/css">
	.st0{opacity:0.1;fill:#303C63;}
	.st1{display:none;}
	
		.st2{display:inline;opacity:0.1;fill:none;stroke:#303C63;stroke-width:2;stroke-linecap:round;stroke-linejoin:round;stroke-miterlimit:10;}
	.st3{display:inline;opacity:0.1;fill:#303C63;}
	.st4{display:inline;opacity:0.1;}
	.st5{fill:none;stroke:#303C63;stroke-width:2;stroke-linecap:round;stroke-linejoin:round;stroke-miterlimit:10;}
	.st6{fill:#E0534F;}
	.st7{fill:#FFFFFF;}
	.st8{fill:#E2E2E2;}
	.st9{fill:#F1DD6F;}
	.st10{fill:#EAC74B;}
	.st11{fill:none;stroke:#EAC74B;stroke-width:6;stroke-linecap:round;stroke-linejoin:round;stroke-miterlimit:10;}
	.st12{fill:#6DC392;}
	.st13{fill:#5AA579;}
	.st14{fill:#F26A63;}
	.st15{fill:#B7B7B7;}
	.st16{fill:#88C6ED;}
	.st17{fill:none;stroke:#AFDDF3;stroke-linecap:round;stroke-miterlimit:10;}
	.st18{fill:none;stroke:#EAC74B;stroke-width:2;stroke-linecap:round;stroke-linejoin:round;stroke-miterlimit:10;}
	.st19{fill:none;stroke:#EAC74B;stroke-width:4;stroke-linecap:round;stroke-linejoin:round;stroke-miterlimit:10;}
	.st20{fill:none;stroke:#E0534F;stroke-width:2;stroke-miterlimit:10;}
	.st21{opacity:0.1;fill:none;stroke:#303C63;stroke-width:2;stroke-linecap:round;stroke-linejoin:round;stroke-miterlimit:10;}
	.st22{fill:#303C63;}
	.st23{fill:none;stroke:#2C3E50;stroke-width:2;stroke-linecap:round;stroke-linejoin:round;stroke-miterlimit:10;}
	.st24{opacity:0.1;}
	
		.st25{fill:none;stroke:#303C63;stroke-width:2;stroke-linecap:round;stroke-linejoin:round;stroke-miterlimit:10;stroke-dasharray:4,5;}
	.st26{fill:none;stroke:#F26A63;stroke-width:2;stroke-linecap:round;stroke-linejoin:round;}
	.st27{fill:none;stroke:#F26A63;stroke-width:2;stroke-linecap:round;stroke-linejoin:round;stroke-dasharray:3.7902,4.7377;}
	.st28{fill:none;stroke:#FFFFFF;stroke-width:4;stroke-linecap:round;stroke-linejoin:round;stroke-miterlimit:10;}
	.st29{fill:#FAF8F2;}
	.st30{fill:#AFDDF3;}
	.st31{fill:none;stroke:#F26A63;stroke-width:4;stroke-linecap:round;stroke-linejoin:round;stroke-miterlimit:10;}
	.st32{fill:none;stroke:#FFFFFF;stroke-width:2;stroke-linecap:round;stroke-linejoin:round;stroke-miterlimit:10;}
	.st33{fill:none;stroke:#6DC392;stroke-width:2;stroke-linecap:round;stroke-linejoin:round;stroke-miterlimit:10;}
	.st34{fill:none;stroke:#303C63;stroke-width:2;stroke-linecap:round;stroke-linejoin:round;}
	.st35{fill:none;stroke:#303C63;stroke-width:2;stroke-linecap:round;stroke-linejoin:round;stroke-dasharray:3.76,4.7;}
	.st36{opacity:0.2;}
	.st37{opacity:0.2;fill:none;stroke:#303C63;stroke-width:2;stroke-linecap:round;stroke-linejoin:round;stroke-miterlimit:10;}
</style><g><circle class="st0" cx="64" cy="64" r="62.5"/></g><line class="st5" x1="94" x2="122" y1="110" y2="110"/><g><g><path class="st7" d="M91.5,4.1c-0.7,1.1-0.6,2.4,0,3.5c0.7,1.1,2.3,1.6,3.4,0.9c1.1-0.7,1.6-2.2,0.9-3.4c0.3,0.4,0.3,1.1,0,1.5    c0.7-1.1,0.3-2.8-0.9-3.4C93.7,2.5,92.2,2.9,91.5,4.1L91.5,4.1z"/></g></g><path class="st15" d="M30.7,48.8c0.1-0.6,0.2-1.2,0.2-1.9c0-6-4.9-10.9-10.9-10.9S9,40.9,9,46.9s4.9,10.9,10.9,10.9  c2.5,0,4.9-0.9,6.7-2.3l2.9,2.4c0,0,14.6,20.7,25.8,26.3c11.2,5.7,16.1-2.8,16.1-2.8L30.7,48.8z M19.9,53c-3.4,0-6.1-2.7-6.1-6.1  s2.7-6.1,6.1-6.1s6.1,2.7,6.1,6.1S23.3,53,19.9,53z"/><path class="st5" d="M30.7,48.8c0.1-0.6,0.2-1.2,0.2-1.9c0-6-4.9-10.9-10.9-10.9S9,40.9,9,46.9s4.9,10.9,10.9,10.9  c2.5,0,4.9-0.9,6.7-2.3l2.9,2.4c0,0,14.6,20.7,25.8,26.3c11.2,5.7,16.1-2.8,16.1-2.8L30.7,48.8z M19.9,53c-3.4,0-6.1-2.7-6.1-6.1  s2.7-6.1,6.1-6.1s6.1,2.7,6.1,6.1S23.3,53,19.9,53z"/><path class="st19" d="M87.2,27.6c6.6-6.6,14.7-9.3,17.9-6"/><g><path class="st14" d="M105.5,39.5L86.2,24.6c-2.1-1.6-5.1-1.6-7.2,0L59.5,39.5c-1.4,1.1-2.5,2.8-2.5,4.6v60.3   c0,3.2,3.1,5.5,6.3,5.5h38.4c3.2,0,6.3-2.3,6.3-5.5V44.1C108,42.3,106.9,40.6,105.5,39.5z"/><path class="st5" d="M96,32.3l-9.9-7.7C84,23,81,23,78.9,24.6L59.5,39.5c-1.4,1.1-2.5,2.8-2.5,4.6v60.3c0,3.2,3.1,5.5,6.3,5.5h38.4   c3.2,0,6.3-2.3,6.3-5.5V44.1c0-1.8-1.1-3.5-2.5-4.6l-2.4-1.8"/><path class="st20" d="M63.3,106c-1.1,0-2.3-0.4-2.3-1.5V44.1c0-0.6,0.4-1.2,0.9-1.5l19.3-14.9c0.4-0.3,0.9-0.4,1.2-0.4   c0.3,0,0.8,0.1,1.2,0.4l19.4,14.9c0.5,0.4,0.9,0.9,0.9,1.5v60.3c0,1.1-1.2,1.5-2.3,1.5H63.3z"/><circle class="st7" cx="82.5" cy="46.9" r="6.6"/><circle class="st5" cx="82.5" cy="46.9" r="6.6"/></g><path class="st19" d="M105.2,21.6c3.3,3.3,0.6,11.3-6,17.9s-14.7,9.3-17.9,6"/><path class="st8" d="M71.4,44.4c0,0-4.9-8.5-16.1-2.8c-11.2,5.7-25.8,26.3-25.8,26.3l-2.9,2.4c-1.9-1.4-4.2-2.3-6.7-2.3  C13.9,68.1,9,73,9,79s4.9,10.9,10.9,10.9S30.9,85,30.9,79c0-0.6-0.1-1.3-0.2-1.9L71.4,44.4z M19.9,85.1c-3.4,0-6.1-2.7-6.1-6.1  s2.7-6.1,6.1-6.1S26,75.6,26,79S23.3,85.1,19.9,85.1z"/><path class="st7" d="M46,64.8L46,64.8c-1.5-1.5-1.4-3.9,0.2-5.2c5-4.3,15-12.7,16.9-14.1c5.1-3.7,8.3-1.1,8.3-1.1"/><path class="st5" d="M71.4,44.4c0,0-4.9-8.5-16.1-2.8c-11.2,5.7-25.8,26.3-25.8,26.3l-2.9,2.4c-1.9-1.4-4.2-2.3-6.7-2.3  C13.9,68.1,9,73,9,79s4.9,10.9,10.9,10.9S30.9,85,30.9,79c0-0.6-0.1-1.3-0.2-1.9L71.4,44.4z M19.9,85.1c-3.4,0-6.1-2.7-6.1-6.1  s2.7-6.1,6.1-6.1S26,75.6,26,79S23.3,85.1,19.9,85.1z"/><circle class="st5" cx="39.8" cy="63.1" r="2.3"/><line class="st5" x1="53" x2="10" y1="110" y2="110"/><g><path class="st7" d="M79.5,81.8c0,2.4-0.5,4.3-1.6,5.7c-1.1,1.3-2.7,2-4.7,2c-1.9,0-3.4-0.7-4.5-2.1C67.5,86,67,84.2,67,81.8   c0-2.4,0.5-4.3,1.6-5.6s2.6-2,4.6-2c1.9,0,3.5,0.7,4.6,2C78.9,77.6,79.5,79.5,79.5,81.8z M72,81.9c0,1.3,0.1,2.2,0.3,2.8   c0.2,0.6,0.5,0.8,0.9,0.8s0.7-0.3,0.9-0.8s0.3-1.5,0.3-2.8c0-1.3-0.1-2.2-0.3-2.8s-0.5-0.8-0.9-0.8c-0.4,0-0.8,0.3-1,0.9   C72.1,79.7,72,80.6,72,81.9z M89.8,77.8l-11.1,20c-0.4,0.7-1.1,1.1-1.9,1.1h0c-1.6,0-2.7-1.8-1.9-3.2l11.1-20   c0.4-0.7,1.1-1.1,1.9-1.1h0C89.6,74.6,90.6,76.4,89.8,77.8z M98,91.5c0,2.4-0.6,4.3-1.7,5.6c-1.1,1.3-2.7,2-4.7,2   c-1.9,0-3.4-0.7-4.5-2.1c-1.1-1.4-1.7-3.2-1.7-5.6c0-2.4,0.5-4.3,1.6-5.6c1.1-1.3,2.6-2,4.6-2c1.9,0,3.5,0.7,4.6,2   C97.4,87.3,98,89.2,98,91.5z M90.5,91.6c0,1.3,0.1,2.2,0.3,2.8c0.2,0.6,0.5,0.8,0.9,0.8c0.5,0,0.8-0.3,1-1s0.3-1.5,0.3-2.6   s-0.1-2-0.3-2.6s-0.5-1-1-1c-0.4,0-0.8,0.3-1,0.9C90.6,89.4,90.5,90.3,90.5,91.6z"/></g><g><g><line class="st34" x1="57" x2="59" y1="63.1" y2="63.1"/><line class="st35" x1="63.7" x2="103.7" y1="63.1" y2="63.1"/><line class="st34" x1="106" x2="108" y1="63.1" y2="63.1"/></g></g></svg>