<?xml version="1.0" ?><svg id="Layer_1" style="enable-background:new 0 0 128 128;" version="1.1" viewBox="0 0 128 128" xml:space="preserve" xmlns="http://www.w3.org/2000/svg" xmlns:xlink="http://www.w3.org/1999/xlink"><style type="text/css">
	.st0{opacity:0.1;fill:#303C63;}
	.st1{display:none;}
	
		.st2{display:inline;opacity:0.1;fill:none;stroke:#303C63;stroke-width:2;stroke-linecap:round;stroke-linejoin:round;stroke-miterlimit:10;}
	.st3{display:inline;opacity:0.1;fill:#303C63;}
	.st4{display:inline;opacity:0.1;}
	.st5{fill:none;stroke:#303C63;stroke-width:2;stroke-linecap:round;stroke-linejoin:round;stroke-miterlimit:10;}
	.st6{fill:#E0534F;}
	.st7{fill:#FFFFFF;}
	.st8{fill:#E2E2E2;}
	.st9{fill:#F1DD6F;}
	.st10{fill:#EAC74B;}
	.st11{fill:none;stroke:#EAC74B;stroke-width:6;stroke-linecap:round;stroke-linejoin:round;stroke-miterlimit:10;}
	.st12{fill:#6DC392;}
	.st13{fill:#5AA579;}
	.st14{fill:#F26A63;}
	.st15{fill:#B7B7B7;}
	.st16{fill:#88C6ED;}
	.st17{fill:none;stroke:#AFDDF3;stroke-linecap:round;stroke-miterlimit:10;}
	.st18{fill:none;stroke:#EAC74B;stroke-width:2;stroke-linecap:round;stroke-linejoin:round;stroke-miterlimit:10;}
	.st19{fill:none;stroke:#EAC74B;stroke-width:4;stroke-linecap:round;stroke-linejoin:round;stroke-miterlimit:10;}
	.st20{fill:none;stroke:#E0534F;stroke-width:2;stroke-miterlimit:10;}
	.st21{opacity:0.1;fill:none;stroke:#303C63;stroke-width:2;stroke-linecap:round;stroke-linejoin:round;stroke-miterlimit:10;}
	.st22{fill:#303C63;}
	.st23{fill:none;stroke:#2C3E50;stroke-width:2;stroke-linecap:round;stroke-linejoin:round;stroke-miterlimit:10;}
	.st24{opacity:0.1;}
	
		.st25{fill:none;stroke:#303C63;stroke-width:2;stroke-linecap:round;stroke-linejoin:round;stroke-miterlimit:10;stroke-dasharray:4,5;}
	.st26{fill:none;stroke:#F26A63;stroke-width:2;stroke-linecap:round;stroke-linejoin:round;}
	.st27{fill:none;stroke:#F26A63;stroke-width:2;stroke-linecap:round;stroke-linejoin:round;stroke-dasharray:3.7902,4.7377;}
	.st28{fill:none;stroke:#FFFFFF;stroke-width:4;stroke-linecap:round;stroke-linejoin:round;stroke-miterlimit:10;}
	.st29{fill:#FAF8F2;}
	.st30{fill:#AFDDF3;}
	.st31{fill:none;stroke:#F26A63;stroke-width:4;stroke-linecap:round;stroke-linejoin:round;stroke-miterlimit:10;}
	.st32{fill:none;stroke:#FFFFFF;stroke-width:2;stroke-linecap:round;stroke-linejoin:round;stroke-miterlimit:10;}
	.st33{fill:none;stroke:#6DC392;stroke-width:2;stroke-linecap:round;stroke-linejoin:round;stroke-miterlimit:10;}
	.st34{fill:none;stroke:#303C63;stroke-width:2;stroke-linecap:round;stroke-linejoin:round;}
	.st35{fill:none;stroke:#303C63;stroke-width:2;stroke-linecap:round;stroke-linejoin:round;stroke-dasharray:3.76,4.7;}
	.st36{opacity:0.2;}
	.st37{opacity:0.2;fill:none;stroke:#303C63;stroke-width:2;stroke-linecap:round;stroke-linejoin:round;stroke-miterlimit:10;}
</style><g><circle class="st0" cx="64" cy="64" r="62.5"/></g><g class="st1"><circle class="st2" cx="89.9" cy="12.4" r="2"/><circle class="st2" cx="25.5" cy="25.9" r="2"/><rect class="st2" height="5.1" width="5.1" x="99.5" y="46.6"/><rect class="st2" height="5.1" transform="matrix(0.8947 0.4466 -0.4466 0.8947 23.6797 -2.2175)" width="5.1" x="14" y="46.6"/><circle class="st3" cx="40.8" cy="52" r="2"/><circle class="st3" cx="28.8" cy="40" r="2"/><circle class="st3" cx="60.8" cy="33" r="2"/><ellipse class="st3" cx="73.8" cy="20" rx="2" ry="2" transform="matrix(0.997 -7.705817e-02 7.705817e-02 0.997 -1.3233 5.7474)"/><circle class="st3" cx="93.8" cy="37" r="2"/><circle class="st3" cx="81.8" cy="55" r="2"/><circle class="st3" cx="114.8" cy="55" r="2"/><g class="st4"><line class="st5" x1="44" x2="51.2" y1="11.7" y2="13.7"/><line class="st5" x1="48.6" x2="46.7" y1="9.1" y2="16.3"/></g><g class="st4"><line class="st5" x1="105" x2="112.2" y1="28.7" y2="30.7"/><line class="st5" x1="109.6" x2="107.7" y1="26.1" y2="33.3"/></g><polygon class="st2" points="112.4,74.6 111.3,65.9 119.4,69.3  "/><polygon class="st2" points="44,40 40.2,32.1 48.9,32.7  "/></g><line class="st5" x1="6" x2="30" y1="110" y2="110"/><path class="st7" d="M68,62h8.7v5.2l7.5-5.2H109c2.2,0,4-1.8,4-4V27c0-2.2-1.8-4-4-4H68c-2.2,0-4,1.8-4,4v31C64,60.2,65.8,62,68,62z  "/><path class="st5" d="M67.8,62H68c-2.2,0-4-1.8-4-4V27c0-2.2,1.8-4,4-4h41c2.2,0,4,1.8,4,4v31c0,2.2-1.8,4-4,4H84.2l-7.5,5.2V62H74"/><path class="st7" d="M20,52.8c0-13.6,11.3-24.6,24.9-24.4C58.3,28.6,69,39.8,69,53.2v25.7c0,3.4-2.2,7.1-5.6,7.1H27  c-3.4,0-7-3.7-7-7.1V52.8z"/><g><path class="st10" d="M20,52.8c0-13.6,11.3-24.6,24.9-24.4C58.3,28.6,69,39.8,69,53.2v25.7c0,3.4-2.2,7.1-5.6,7.1H27   c-3.4,0-7-3.7-7-7.1V52.8z"/></g><path class="st5" d="M20,52.8c0-13.6,11.3-24.6,24.9-24.4C58.3,28.6,69,39.8,69,53.2v25.7c0,3.4-2.2,7.1-5.6,7.1H27  c-3.4,0-7-3.7-7-7.1V52.8z"/><path class="st14" d="M15,110h55v-2.8C70,97.7,62.3,90,52.8,90H32.2C22.7,90,15,97.7,15,107.2V110z"/><path class="st5" d="M15,110h55v-2.8C70,97.7,62.3,90,52.8,90H32.2C22.7,90,15,97.7,15,107.2V110z"/><path class="st29" d="M42.4,98L42.4,98c-3,0-5.4-2.4-5.4-5.4V74h10.8v18.7C47.8,95.6,45.4,98,42.4,98z"/><path class="st5" d="M42.4,98L42.4,98c-3,0-5.4-2.4-5.4-5.4V74h10.8v18.7C47.8,95.6,45.4,98,42.4,98z"/><path class="st9" d="M27,67V52.3C27,41.7,35.9,34,46.7,34C56.3,34,64.2,40,65.8,49"/><path class="st29" d="M31.5,68.9c-3.5,0-6.3-2.8-6.3-6.3c0-2.9,2-5.4,4.7-6.1c12.5-3,25.5-12.8,28.2-18.4C63,40.9,65,46.8,65,51.7  s0,13.7,0,13.7c0,10-8.1,18.1-18.1,18.1c-8.9,0-16.3-6.5-17.8-15"/><path class="st5" d="M31.5,68.9c-3.5,0-6.3-2.8-6.3-6.3c0-2.9,2-5.4,4.7-6.1c12.5-3,25.5-12.8,28.2-18.4C63,40.9,65,46.8,65,51.7  s0,13.7,0,13.7c0,10-8.1,18.1-18.1,18.1c-8.9,0-16.3-6.5-17.8-15"/><path class="st22" d="M31.3,65.2c-1.4,0-2.5-1.1-2.5-2.5c0-1.2,0.8-2.2,1.9-2.4"/><circle class="st22" cx="45.2" cy="58.4" r="1.7"/><circle class="st22" cx="59.5" cy="58.4" r="1.7"/><line class="st5" x1="76" x2="115" y1="110" y2="110"/><path class="st14" d="M84.5,50.5c1.1,0.8,2.4,1.2,3.8,1.2s2.7-0.4,3.8-1.2c-0.1-2-1.8-2.6-3.8-2.6S84.6,48.5,84.5,50.5z"/><path class="st5" d="M88.3,51.8c3.7,0,6.7-3,6.7-6.7H81.7C81.7,48.8,84.7,51.8,88.3,51.8z"/><path class="st5" d="M77.8,37.8c0-1.6,1.3-2.9,2.9-2.9s2.9,1.3,2.9,2.9"/><path class="st5" d="M93.1,37.8c0-1.6,1.3-2.9,2.9-2.9s2.9,1.3,2.9,2.9"/></svg>